<?xml version="1.0" encoding="utf-8"?>
<!-- Generator: Adobe Illustrator 24.2.0, SVG Export Plug-In . SVG Version: 6.00 Build 0)  -->
<svg version="1.1" id="Layer_1" xmlns="http://www.w3.org/2000/svg" xmlns:xlink="http://www.w3.org/1999/xlink" x="0px" y="0px"
	 viewBox="0 0 846.87 546.18" style="enable-background:new 0 0 846.87 546.18;" xml:space="preserve">
<style type="text/css">
	.st0{fill:#5658F8;}
	.st1{fill:#F4AA16;}
	.st2{fill:#F93F32;}
	.st3{fill:#D0A8EF;}
	.st4{fill:#2BCC9E;}
	.st5{clip-path:url(#SVGID_2_);}
	.st6{fill:url(#SVGID_3_);}
	.st7{fill:url(#man_s_handVjx7U3gLtoPkHPHhxV7Li_1_);}
	.st8{fill:url(#neckVjx7U3gLtoPkHPHhxV7Li_1_);}
	.st9{fill:#FFBEB6;}
	.st10{fill:url(#L_handVjx7U3gLtoPkHPHhxV7Li_1_);}
	.st11{fill:url(#R_handVjx7U3gLtoPkHPHhxV7Li_1_);}
	.st12{fill:url(#R_hand-2Vjx7U3gLtoPkHPHhxV7Li_1_);}
	.st13{fill:#1C2868;}
	.st14{fill:url(#neck-2Vjx7U3gLtoPkHPHhxV7Li_1_);}
	.st15{clip-path:url(#SVGID_5_);}
	.st16{clip-path:url(#SVGID_7_);}
	.st17{fill:#FFFFFF;}
	.st18{clip-path:url(#SVGID_9_);}
	.st19{clip-path:url(#SVGID_11_);}
	.st20{fill:url(#SVGID_12_);}
	.st21{fill:#F2A19C;}
	.st22{fill:#428DFC;}
	.st23{fill:#E94A47;}
	.st24{fill:url(#SVGID_13_);}
	.st25{clip-path:url(#SVGID_15_);}
	.st26{fill:#151A4F;}
	.st27{fill:#A1C3FC;}
	.st28{fill:url(#SVGID_16_);}
	.st29{fill:url(#SVGID_17_);}
	.st30{clip-path:url(#SVGID_19_);}
	.st31{fill:#EDEDED;}
	.st32{fill:#FFBEB5;}
	.st33{fill:url(#neck_2_xGruMkGDCgbOE6Pbps4Fx_1_);}
	.st34{fill:#201D6B;}
	.st35{fill:none;stroke:#428DFC;stroke-width:3.56;stroke-linecap:round;stroke-miterlimit:17.8;}
	.st36{fill:#B3C9EE;}
	.st37{fill:#1D72D8;}
	.st38{fill:#81AEF2;}
	.st39{fill:#D6D7D8;}
	.st40{fill:#D62929;}
	.st41{fill:#5BABF2;}
	.st42{fill:#FF4945;}
	.st43{fill:#1B236D;}
	.st44{fill:url(#SVGID_20_);}
	.st45{fill:#74B4F7;}
	.st46{fill:#EEEEEE;}
	.st47{fill:none;stroke:#E94A47;stroke-width:0.8666;stroke-miterlimit:8.6664;}
</style>
<g>
	<g>
		<path class="st31" d="M257.87,416.67h350.56c5.2,0,9.4-4.2,9.4-9.48V287.71c0-5.2-4.2-9.48-9.4-9.48H257.87
			c-5.2,0-9.4,4.2-9.4,9.48v119.48C248.47,412.47,252.67,416.67,257.87,416.67z"/>
		<path class="st0" d="M146.86,188.03c0.25-0.25,0.42-0.5,0.67-0.76c-0.17,0-0.25,0-0.42,0c2.1-8.47-2.01-17.54-7.8-24.16
			c-2.52-2.94-5.54-5.62-9.31-6.8c-3.86-1.17-8.05-0.59-12,0.42c-11.5,2.94-22.07,9.15-30.21,17.79c-2.6,2.77-5.12,6.38-4.45,10.24
			c0.84,4.2,5.62,8.05,3.61,11.91c-2.01,3.94-8.81,2.52-11.33,6.21c-3.78,5.71,7.97,12.5,4.95,18.63c-1.51,3.1-5.79,3.44-8.98,4.78
			c-6.13,2.68-8.56,11.5-4.78,16.95c3.44,4.87,10.99,8.39,9.57,14.18c-0.5,2.01-2.1,3.61-3.52,5.12
			c-4.78,4.95-9.06,10.57-11.08,17.2c-2.1,6.54-1.76,14.1,1.93,19.89c1.93,2.94,4.53,5.37,7.3,7.55
			c13.59,11.08,18.88,22.82,29.79,36.58c6.8,8.64,21.98,63.77,25.68,79.21c2.77-22.57,9.31-89.69,12-93.47
			c2.68-3.69,4.11-8.98,1.85-12.92c-1.68-2.94-4.87-4.45-7.64-6.46c-2.77-1.93-5.29-5.03-4.7-8.31c0.34-1.51,1.26-2.85,2.27-4.03
			c3.1-3.86,6.71-7.3,8.98-11.66c2.27-4.36,2.94-10.07,0-14.1c-2.68-3.78-7.97-5.37-12.08-7.72c3.52-2.68,8.64-4.53,11.5-7.97
			c2.18-2.6,3.02-6.38,2.1-9.73c-1.01-3.52-3.61-6.21-5.79-9.23c0.42-1.76,0.34-3.44-0.76-5.03c-0.5-0.84-1.26-1.51-2.1-2.01
			c-0.08-1.76,0.25-3.44,1.43-4.78c1.76-2.01,4.78-2.6,6.71-4.45c3.1-2.94,2.1-8.98-1.85-10.74c-2.27-1.01-5.54-1.26-5.96-3.69
			c-0.08-0.25,0-0.59,0-0.84C138.56,200.53,144.77,195.41,146.86,188.03z"/>
		<path class="st4" d="M177.07,317.33c-1.59-4.03-5.37-7.13-6.13-11.41c-1.09-6.21,4.36-11.33,7.89-16.61
			c5.29-7.89,6.54-18.38,3.19-27.27c-3.36-8.89-11.16-16.03-20.31-18.46c-5.87-1.59-12.25-1.43-17.45-4.45
			c-7.05-4.2-12.67-14.35-20.47-11.58c-5.45,1.93-6.71,9.31-4.87,14.77c1.76,5.45,5.62,10.15,7.3,15.69
			c3.19,10.57-1.93,21.56-6.04,31.8c-4.11,10.24-6.88,22.82-0.08,31.46c3.36,4.2,8.64,6.96,10.57,12c2.6,6.8-2.18,13.93-4.53,20.89
			c-4.36,12.84,0.59,28.36,11.75,36.16c0.34-16.36,7.97-32.47,20.39-43.13c4.78-4.11,10.32-7.47,14.43-12.25
			S179.42,323.2,177.07,317.33z"/>
		<path class="st2" d="M122.28,414.91c0.25,0,0.42-0.17,0.5-0.42c3.52-25.09,8.81-48.58,15.77-69.89c0.08-0.25-0.08-0.5-0.34-0.59
			c-0.25-0.08-0.5,0.08-0.59,0.34c-6.96,21.4-12.25,44.97-15.77,70.06C121.78,414.57,121.94,414.82,122.28,414.91
			C122.2,414.91,122.28,414.91,122.28,414.91z"/>
		
			<ellipse transform="matrix(0.5645 -0.8254 0.8254 0.5645 -220.6809 262.5397)" class="st2" cx="138.47" cy="340.41" rx="6.88" ry="11.08"/>
		<path class="st2" d="M139.65,340.15c0.17,0,0.42-0.08,0.42-0.34c3.52-10.4,7.64-20.56,12-30.12c0.08-0.25,0-0.5-0.25-0.67
			c-0.25-0.08-0.5,0-0.67,0.25c-4.45,9.57-8.47,19.72-12.08,30.21c-0.08,0.25,0.08,0.5,0.34,0.59
			C139.48,340.15,139.56,340.15,139.65,340.15z"/>
		
			<ellipse transform="matrix(0.5635 -0.8261 0.8261 0.5635 -185.5237 260.2153)" class="st2" cx="153.48" cy="305.67" rx="6.88" ry="16.7"/>
		<path class="st2" d="M153.24,306.67c0.17,0,0.34-0.08,0.42-0.25c1.34-2.77,2.68-5.62,4.11-8.31c3.86-7.47,8.05-14.68,12.5-21.65
			c0.17-0.25,0.08-0.5-0.17-0.67s-0.5-0.08-0.67,0.17c-4.45,6.96-8.73,14.26-12.59,21.73c-1.43,2.68-2.77,5.54-4.11,8.31
			c-0.08,0.25,0,0.5,0.25,0.67C153.07,306.67,153.16,306.67,153.24,306.67z"/>
		
			<ellipse transform="matrix(0.7097 -0.7045 0.7045 0.7097 -142.7541 199.4232)" class="st2" cx="170.61" cy="272.93" rx="6.46" ry="18.79"/>
		<path class="st2" d="M172.2,273.11c0.17,0,0.34-0.08,0.42-0.25c5.96-8.98,12.5-17.45,19.38-25.26c0.17-0.17,0.17-0.5-0.08-0.67
			c-0.17-0.17-0.5-0.17-0.67,0.08c-6.88,7.89-13.42,16.36-19.47,25.34c-0.17,0.25-0.08,0.5,0.17,0.67
			C172.04,273.11,172.12,273.11,172.2,273.11z"/>
		
			<ellipse transform="matrix(0.9173 -0.3983 0.3983 0.9173 -81.4134 97.8025)" class="st2" cx="194.69" cy="244.86" rx="8.81" ry="25.59"/>
		<path class="st2" d="M195.28,243.74c0.17,0,0.25-0.08,0.34-0.17c7.05-7.72,14.6-14.77,22.49-21.14c0.17-0.17,0.25-0.5,0.08-0.67
			c-0.17-0.17-0.5-0.25-0.67-0.08c-7.89,6.38-15.44,13.51-22.57,21.23c-0.17,0.17-0.17,0.5,0,0.67
			C195.03,243.74,195.19,243.74,195.28,243.74z"/>
		
			<ellipse transform="matrix(0.7719 -0.6357 0.6357 0.7719 -88.8281 190.5221)" class="st2" cx="221.1" cy="219.06" rx="8.81" ry="29.79"/>
		<path class="st1" d="M132.52,424.47L132.52,424.47c0.25,0,0.5-0.25,0.5-0.5c-1.85-40.36-3.02-88.1,2.35-136.68
			c0.25-2.27,0.5-4.45,0.76-6.71c0-0.25-0.17-0.5-0.42-0.5c-0.25,0-0.5,0.17-0.5,0.42c-0.25,2.27-0.5,4.45-0.76,6.71
			c-5.37,48.67-4.2,96.41-2.35,136.77C132.1,424.22,132.27,424.47,132.52,424.47z"/>
		
			<ellipse transform="matrix(0.9637 -0.2669 0.2669 0.9637 -69.2943 46.2632)" class="st1" cx="135.54" cy="278.04" rx="10.15" ry="3.78"/>
		<path class="st1" d="M136.12,277.81c0.25,0,0.42-0.17,0.5-0.42c1.76-13.76,4.11-27.27,6.88-40.02c0.08-0.25-0.08-0.5-0.34-0.59
			c-0.25-0.08-0.5,0.08-0.59,0.34c-2.77,12.84-5.12,26.35-6.96,40.11C135.54,277.47,135.79,277.72,136.12,277.81
			C136.04,277.81,136.04,277.81,136.12,277.81z"/>
		
			<ellipse transform="matrix(0.9638 -0.2668 0.2668 0.9638 -57.5364 46.5397)" class="st1" cx="142.52" cy="235.03" rx="12.75" ry="3.78"/>
		<path class="st1" d="M143.68,234.51c0.25,0,0.42-0.17,0.5-0.34c2.6-11.66,5.71-23.07,9.23-33.9c0.08-0.25-0.08-0.5-0.34-0.59
			c-0.25-0.08-0.5,0.08-0.59,0.34c-3.52,10.91-6.63,22.32-9.23,33.98c-0.08,0.25,0.08,0.5,0.34,0.59
			C143.68,234.51,143.68,234.51,143.68,234.51z"/>
		
			<ellipse transform="matrix(0.0861 -0.9963 0.9963 0.0861 -56.8119 332.3578)" class="st1" cx="152.76" cy="197.15" rx="6.04" ry="16.11"/>
		<path class="st1" d="M154.33,196.25c0.17,0,0.42-0.17,0.42-0.34c2.6-7.72,5.45-15.44,8.47-22.74c0.08-0.25,0-0.5-0.25-0.59
			c-0.25-0.08-0.5,0-0.59,0.25c-3.02,7.38-5.87,15.02-8.47,22.82c-0.08,0.25,0.08,0.5,0.34,0.59
			C154.25,196.25,154.25,196.25,154.33,196.25z"/>
		
			<ellipse transform="matrix(0.1574 -0.9875 0.9875 0.1574 -30.0105 304.5048)" class="st1" cx="163.44" cy="169.84" rx="5.54" ry="16.86"/>
		<path class="st1" d="M164.32,169.9c0.17,0,0.34-0.08,0.42-0.25c1.93-4.61,4.03-9.23,6.21-13.68c0.67-1.34,1.34-2.68,1.93-4.03
			c0.08-0.25,0-0.5-0.25-0.67c-0.25-0.08-0.5,0-0.67,0.25c-0.67,1.34-1.34,2.68-2.01,4.03c-2.1,4.45-4.2,9.06-6.21,13.68
			c-0.08,0.25,0,0.5,0.25,0.59C164.15,169.9,164.23,169.9,164.32,169.9z"/>
		
			<ellipse transform="matrix(0.1574 -0.9875 0.9875 0.1574 -1.1227 295.5786)" class="st1" cx="172.65" cy="148.45" rx="6.71" ry="19.21"/>
		<path class="st1" d="M174.97,147.17c0.17,0,0.34-0.08,0.42-0.25c1.76-3.36,3.52-6.63,5.37-9.82c0.17-0.25,0.08-0.5-0.17-0.67
			c-0.25-0.17-0.5-0.08-0.67,0.17c-1.85,3.19-3.61,6.54-5.37,9.9c-0.08,0.25,0,0.5,0.17,0.67
			C174.81,147.17,174.89,147.17,174.97,147.17z"/>
		<rect x="99.37" y="369.26" class="st1" width="58.15" height="73.59"/>
		<path class="st31" d="M653.57,442.85h-26.51c-5.2,0-9.4-4.2-9.4-9.48v-92.38c0-5.2,4.2-9.48,9.4-9.48h26.51
			c5.2,0,9.4,4.2,9.4,9.48v92.38C662.97,438.57,658.77,442.85,653.57,442.85z"/>
		<path class="st31" d="M239.33,442.85h-26.51c-5.2,0-9.4-4.2-9.4-9.48v-92.38c0-5.2,4.2-9.48,9.4-9.48h26.51
			c5.2,0,9.4,4.2,9.4,9.48v92.38C248.73,438.57,244.45,442.85,239.33,442.85z"/>
		<path class="st31" d="M259.38,381.93h347.54c6.04,0,10.91,4.87,10.91,10.91v39.02c0,6.04-4.87,10.91-10.91,10.91H259.38
			c-6.04,0-10.91-4.87-10.91-10.91v-39.02C248.56,386.8,253.42,381.93,259.38,381.93z"/>
		<path d="M530.23,379.08c7.05,6.63,29.53,0.17,39.18,0.17c9.65,0,32.14,6.38,39.18-0.17c6.54-6.13,0.25-27.52,0.25-36.58
			c0-8.98,6.38-30.46-0.25-36.58c-7.05-6.63-29.53-0.17-39.18-0.17c-9.65,0-32.14-6.38-39.18,0.17c-6.54,6.13-0.25,27.52-0.25,36.58
			C529.98,351.47,523.6,372.95,530.23,379.08z"/>
		<path class="st2" d="M347.65,379.08c7.05,6.63,29.53,0.17,39.18,0.17c9.65,0,32.14,6.38,39.18-0.17
			c6.54-6.13,0.25-27.52,0.25-36.58c0-8.98,6.38-30.46-0.25-36.58c-7.05-6.63-29.53-0.17-39.18-0.17c-9.65,0-32.14-6.38-39.18,0.17
			c-6.54,6.13-0.25,27.52-0.25,36.58C347.4,351.47,341.11,372.95,347.65,379.08z"/>
		<path class="st0" d="M258.54,379.08c7.05,6.63,29.53,0.17,39.18,0.17c9.65,0,32.14,6.38,39.18-0.17
			c6.54-6.13,0.25-27.52,0.25-36.58c0-8.98,6.38-30.46-0.25-36.58c-7.05-6.63-29.53-0.17-39.18-0.17c-9.65,0-32.14-6.38-39.18,0.17
			c-6.54,6.13-0.25,27.52-0.25,36.58C258.37,351.47,252,372.95,258.54,379.08z"/>
		<path class="st17" d="M586.53,339.31c7.64,0,13.84-6.21,13.84-13.93c0-7.64-6.21-13.93-13.84-13.93s-13.84,6.21-13.84,13.93
			C572.68,333.1,578.89,339.31,586.53,339.31z M586.53,312.46c7.13,0,12.92,5.79,12.92,12.92c0,7.13-5.79,12.92-12.92,12.92
			s-12.92-5.79-12.92-12.92C573.61,318.25,579.48,312.46,586.53,312.46z"/>
		<path class="st17" d="M312.33,369.35c7.64,0,13.84-6.21,13.84-13.93c0-7.64-6.21-13.93-13.84-13.93s-13.84,6.21-13.84,13.93
			C298.4,363.14,304.61,369.35,312.33,369.35z M312.33,342.5c7.13,0,12.92,5.79,12.92,12.92s-5.79,12.92-12.92,12.92
			s-13.01-5.79-13.01-12.92S305.19,342.5,312.33,342.5z"/>
		<path class="st17" d="M589.72,381.68h0.92c0-11.33,9.23-20.56,20.56-20.56v-0.92C599.37,360.12,589.72,369.85,589.72,381.68z"/>
		<path class="st17" d="M544.91,370.52h26.77c0.25,0,0.5-0.25,0.5-0.5v-26.85c0-0.25-0.25-0.5-0.5-0.5h-26.77
			c-0.25,0-0.5,0.25-0.5,0.5v26.85C544.41,370.35,544.66,370.52,544.91,370.52z M571.26,369.6h-25.84v-25.93h25.84V369.6z"/>
		<path class="st17" d="M527.54,322.61h21.73c0.25,0,0.5-0.25,0.5-0.5v-18.88h-0.92v18.38h-21.31V322.61z"/>
		<polygon class="st17" points="344.8,313.3 428.95,313.3 428.7,312.29 344.97,312.29 		"/>
		<polygon class="st17" points="345.89,355.59 427.86,355.59 427.78,354.66 346.06,354.66 		"/>
		<polygon class="st17" points="344.8,365.82 429.04,365.82 428.95,364.82 344.8,364.82 		"/>
		<path class="st17" d="M289.08,339.39c5.29,0,9.65-4.36,9.65-9.65s-4.28-9.65-9.65-9.65s-9.65,4.36-9.65,9.65
			C279.52,335.11,283.8,339.39,289.08,339.39z M289.08,321.1c4.78,0,8.64,3.86,8.64,8.73c0,4.87-3.86,8.73-8.64,8.73
			s-8.64-3.86-8.64-8.73C280.44,324.96,284.3,321.1,289.08,321.1z"/>
		<path class="st17" d="M257.12,377.15c5.29,0,9.48-4.36,9.48-9.65c0-5.29-4.28-9.65-10.15-9.65l-0.08,0.92
			c5.29,0,9.31,3.86,9.31,8.73c0,4.87-4.11,8.73-8.89,8.73L257.12,377.15z"/>
		<rect x="335.65" y="59.32" class="st1" width="160.43" height="160.93"/>
		<rect x="347.06" y="70.81" class="st17" width="137.52" height="137.94"/>
	</g>
	<g>
		<path id="R_hand_6_xGruMkGDCgbOE6Pbps4Fx" class="st32" d="M488.86,460.38c0,0,2.18,35.24-1.01,36.5
			c-3.19,1.26-13.34-0.92-17.2-2.27c-3.86-1.26-9.57,0-13.09,2.52c-3.52,2.52-15.27,10.15-15.27,10.15s5.71,3.1,13.84-0.92
			c0.84-0.42,1.76-0.92,2.68-1.59c9.57-6.38,15.27-1.26,14.01-0.67c-1.26,0.67-7.05,1.26-9.23,1.26s-6.21-0.34-6.88,3.19
			c0,0,24.16,1.43,31.97,0.17s7.3,0.42,11.66-13.84c4.36-14.26,7.97-27.35,7.97-27.35L488.86,460.38z"/>
		<path id="R_shoe_1_xGruMkGDCgbOE6Pbps4Fx" d="M405.96,263.04l-28.28,9.48l-15.61-72.41c0,0,6.29-2.43,11.41,5.54
			c5.2,8.05,26.09,27.27,26.09,27.27L405.96,263.04z"/>
		<path id="L_shoe_1_xGruMkGDCgbOE6Pbps4Fx" d="M456.48,179.22l-29.28-5.71l22.32-70.65c0,0,6.63,1.01,7.13,10.49
			c0.5,9.48,11.24,37.25,11.24,37.25L456.48,179.22z"/>
		<g id="L_trousersxGruMkGDCgbOE6Pbps4Fx">
			<path class="st2" d="M449.18,197.09c0,0,0.5,0.34,1.34,0.92c15.44-6.96,29.12-13.09,32.56-14.43
				c9.06-3.52,26.01-13.76,31.13,1.59c1.34,4.03,3.19,15.52,5.12,30.29c5.71-0.59,8.64,2.6,2.35,18.79
				c3.44,28.11,6.88,60.83,8.56,77.95c2.1-4.28,44.05-87.43,46.23-103.2c2.35-16.11-15.35-22.65-29.95-28.36
				c-2.27-0.92-5.71-2.18-9.9-3.78c-22.99-8.81-68.89-26.09-68.89-26.09l-12.5,31.38L449.18,197.09z"/>
		</g>
		<g id="R_trousersxGruMkGDCgbOE6Pbps4Fx">
			<path class="st2" d="M396.9,222.43l9.06,42.04c5.87,0.42,14.94-3.94,23.24-10.99c8.22-7.05,12.59-5.54,22.4-5.12
				c9.82,0.42,16.11-7.89,20.89-9.82c4.7-1.93,3.52,12.17,0,23.16c-2.85,8.81-1.93,26.43-1.43,33.14
				c5.96,1.51,15.94,4.61,25.09,10.82c14.26,9.65,22.65,12.25,31.88,15.27c1.01,0.34,2.1,0.67,3.27,1.01
				c-1.59-15.69-12.42-122.67-17.12-136.85c-5.12-15.35-22.07-5.12-31.13-1.59C474.1,187.02,396.9,222.43,396.9,222.43z"/>
		</g>
		<path id="R_hand_2_xGruMkGDCgbOE6Pbps4Fx" class="st32" d="M325.58,315.65l1.76,2.18c0.67,0.5,1.59,1.09,2.6,1.76
			c3.94,2.35,11.41,3.44,16.03,3.02c10.07-0.84,18.29-8.05,22.65-7.64c3.78,0.34,19.63,9.73,29.45,15.69l9.23-18.79
			c-14.26-4.95-34.9-10.32-41.45-13.17c-12.33-5.29-22.07-7.05-22.07-7.05c-3.86,6.96,10.4,7.3,9.98,10.15
			c-0.42,2.85-0.08,2.77-12.5,5.45C327.35,310.28,323.65,313.21,325.58,315.65z"/>
		<path class="st4" d="M389.44,348.2c0,0,12.67,12.25,32.56,14.26c19.97,2.01,47.57,24.16,47.57,24.16s2.52-3.44,8.89-1.76
			c0.34,0.08,0.59,0.17,0.84,0.25c0.5,0.17,1.01,0.34,1.43,0.59c0.67,0.34,1.34,0.76,1.85,1.17c0.17,0.08,0.34,0.25,0.42,0.34
			c0.17,0.17,0.34,0.25,0.42,0.42c0.17,0.17,0.25,0.25,0.42,0.42c0.84,0.92,1.34,1.76,1.76,2.43v0.08c0,0.08,0.08,0.08,0.08,0.08
			c0,0.08,0,0.08,0.08,0.08c0.25,0.59,0.25,1.17,0.08,1.76c0,0.08-0.08,0.17-0.08,0.25l-3.1,7.8c0.25,0.25,0.5,0.42,0.76,0.67
			c0.25,0.25,0.42,0.42,0.67,0.67c5.2,5.45,3.44,11.5,3.94,12.5c1.26,2.18,4.61,4.2,2.77,5.79c-0.67,0.59-2.6,1.43-4.53,2.35
			l0.34,5.03v0.17l1.09,16.19l0.25,3.1l0.17,2.85v0.08l0.5,7.05v0.17l0.25,3.19l36.25,13.59c0,0,7.3-5.29,3.69-23.58
			c-3.69-18.29-13.93-52.44-1.01-73.67c13.01-21.23,32.22-25.26,28.61-37.51c-3.69-12.25-18.96-15.27-28.28-18.29
			c-9.31-3.02-17.62-5.62-31.88-15.27c-14.26-9.65-30.63-11.91-30.63-11.91l-0.67,37.17c0,0-4.36,0.34-20.64-9.31
			c-16.28-9.65-35.91-11.91-35.91-11.91L389.44,348.2z"/>
		
			<linearGradient id="neck_2_xGruMkGDCgbOE6Pbps4Fx_1_" gradientUnits="userSpaceOnUse" x1="-27493.2754" y1="31913.0801" x2="-27460.3438" y2="32081.7227" gradientTransform="matrix(-0.052 0 0 0.0519 -953.0663 -1265.0909)">
			<stop  offset="0.0382" style="stop-color:#FFBEB5"/>
			<stop  offset="1" style="stop-color:#F99A91"/>
		</linearGradient>
		<path id="neck_2_xGruMkGDCgbOE6Pbps4Fx" class="st33" d="M482.74,400.64l3.02-7.8c0.34-0.76,0.25-1.59-0.08-2.35
			c-0.84-1.68-2.85-4.45-7.22-5.62c-6.38-1.76-8.89,1.76-8.89,1.76s-0.76,5.96-2.1,10.24"/>
		<path id="face_3_xGruMkGDCgbOE6Pbps4Fx" class="st32" d="M482.74,400.64c6.96,5.79,4.78,12.75,5.37,13.84
			c1.26,2.18,4.61,4.2,2.77,5.79c-1.85,1.51-11.33,4.95-11.33,4.95c-3.86-11.16-14.94-15.35-17.03-15.52
			c-2.1-0.17-4.78-0.25-5.29-3.44c-0.67-4.2,5.45-3.94,8.14-5.62c0.84-0.5,1.51-2.01,2.1-3.86
			C467.55,396.78,476.95,395.86,482.74,400.64z"/>
		<g id="hair_3_xGruMkGDCgbOE6Pbps4Fx">
			<path id="hair_4_xGruMkGDCgbOE6Pbps4Fx" d="M447.75,427.49c10.07,6.13,16.19,8.64,15.52,15.94l12.5,8.39
				c0,0,7.97-13.84,3.69-26.6c-0.08,0,0,0,0,0c-3.86-11.16-14.94-15.35-17.03-15.52c-2.1-0.17-5.12-0.42-5.29-3.86
				c-0.17-3.69,5.45-3.44,8.22-5.2c1.01-0.59,1.85-2.68,2.52-5.03c0.08-0.17,0.08-0.25,0.08-0.42c0,0-14.52-7.55-23.41,2.94
				C435.67,408.53,437.76,421.28,447.75,427.49z"/>
			<path id="hair_7_xGruMkGDCgbOE6Pbps4Fx" class="st34" d="M476.53,420.19c5.96,8.89,7.05,19.72,2.94,29.62
				c-0.17,0.34-0.67,0.17-0.5-0.17c4.11-9.73,3.1-20.47-2.85-29.2C475.86,420.19,476.36,419.94,476.53,420.19L476.53,420.19z"/>
		</g>
		<g id="eye_2_xGruMkGDCgbOE6Pbps4Fx">
			<path id="eyexGruMkGDCgbOE6Pbps4Fx" class="st13" d="M481.23,421.7c1.34-2.18-0.92-4.7-3.27-3.52c-0.34,0.17-0.59-0.34-0.25-0.42
				c1.17-0.59,2.68-0.42,3.69,0.59c0.92,1.01,1.01,2.52,0.34,3.69C481.48,422.29,481.06,422.04,481.23,421.7L481.23,421.7z"/>
		</g>
	</g>
	<g>
		<polygon class="st0" points="643.42,95.48 637.71,101.6 643.84,107.31 649.54,101.1 		"/>
		<polygon class="st0" points="721.11,114.19 713.73,117.97 717.51,125.43 724.97,121.66 		"/>
		<polygon class="st0" points="668.17,89.61 662.46,95.73 668.67,101.44 674.29,95.23 		"/>
		<polygon class="st0" points="643.33,101.35 646.1,101.35 646.1,79.62 669.26,69.13 669.26,95.48 672.03,95.48 672.03,64.85 
			643.33,77.86 		"/>
		<polygon class="st0" points="586.03,204.47 591.65,210.6 597.77,204.89 592.15,198.77 		"/>
		<polygon class="st0" points="561.27,198.6 566.9,204.72 573.02,199.02 567.4,192.89 		"/>
		<polygon class="st0" points="589.38,204.64 592.15,204.64 592.15,181.15 563.54,168.14 563.54,198.77 566.31,198.77 
			566.31,172.42 589.38,182.91 		"/>
		<rect x="721.03" y="91.03" class="st0" width="2.77" height="30.21"/>
		<polygon class="st0" points="573.36,58.06 580.82,54.28 576.96,46.81 569.58,50.59 		"/>
		<rect x="570.76" y="51.35" class="st0" width="2.77" height="30.21"/>
		<polygon class="st27" points="586.61,74.08 588.04,69.3 583.34,67.87 581.83,72.66 		"/>
		<polygon class="st23" points="601.3,162.35 605.32,149.43 592.4,145.4 588.46,158.41 		"/>
		<polygon class="st4" points="681.51,150.61 692,142.05 683.44,131.56 672.95,140.12 		"/>
		<path class="st23" d="M703.75,91.45c0.34,0,0.67-0.25,0.67-0.59c2.1-14.35,14.6-26.51,28.95-28.19c0.42-0.08,0.67-0.42,0.59-0.76
			c-0.08-0.42-0.42-0.67-0.76-0.59c-14.94,1.76-27.94,14.43-30.21,29.37c-0.08,0.42,0.17,0.76,0.59,0.76
			C703.66,91.45,703.66,91.45,703.75,91.45z"/>
		<path class="st23" d="M733.45,136.59c0.17,0,0.34-0.08,0.42-0.17c6.29-5.37,14.85-11.91,25-14.18c10.24-2.27,20.47,0.59,26.26,7.3
			c0.25,0.34,0.67,0.34,1.01,0.08c0.25-0.25,0.34-0.67,0.08-1.01c-6.04-7.13-16.86-10.15-27.6-7.72
			c-10.49,2.35-19.21,8.98-25.59,14.52c-0.25,0.25-0.34,0.67-0.08,1.01C733.11,136.51,733.28,136.59,733.45,136.59z"/>
	</g>
	<g>
		<rect x="611.53" y="499.74" class="st0" width="66.96" height="5.29"/>
		<polygon class="st0" points="661.04,500.57 711.38,502.84 746.96,427.58 696.7,427.49 		"/>
		<polygon class="st4" points="710.88,502.76 715.66,505.02 751.66,429.76 746.96,427.49 		"/>
		<rect x="648.95" y="499.74" class="st4" width="66.7" height="5.29"/>
		<polygon class="st13" points="668.17,492.94 712.3,493.11 741.25,432.44 697.62,432.36 		"/>
		<rect x="715.83" y="439.07" class="st17" width="6.38" height="6.38"/>
		<rect x="721.53" y="440.67" class="st17" width="1.76" height="1.76"/>
		<rect x="691.58" y="469.87" class="st23" width="3.44" height="3.44"/>
		<rect x="687.89" y="473.81" class="st17" width="3.44" height="3.44"/>
	</g>
</g>
</svg>
