<?xml version="1.0" encoding="UTF-8"?><svg version="1.1" xmlns="http://www.w3.org/2000/svg" xmlns:xlink="http://www.w3.org/1999/xlink" viewBox="0 0 1200 800" width="1200" height="800" x="0px" y="0px">
              
              <!-- ITEM 0 -->
<g transform="translate(536.0 127.0) scale(2.9630230953444006 2.960066157092179) rotate(0.0 61.5925 64.6945)">
<g transform="translate(1366.388 -703.252)">

<g>
	<polygon fill="#A1C3FC" points="-1283.815,703.252 -1294.129,708.536 -1281.106,708.536  "/>
	<polygon fill="#A1C3FC" points="-1330.206,727.014 -1271.63,727.014 -1276.617,717.289 -1311.217,717.289  "/>
	<polygon fill="#A1C3FC" points="-1366.282,745.492 -1262.155,745.492 -1267.142,735.767 -1347.295,735.767  "/>
	<polygon fill="#A1C3FC" points="-1361.401,763.97 -1252.678,763.97 -1257.666,754.245 -1366.388,754.245  "/>
	<polygon fill="#A1C3FC" points="-1351.924,782.448 -1243.203,782.448 -1248.19,772.723 -1356.911,772.723  "/>
	<polygon fill="#A1C3FC" points="-1342.449,800.926 -1264.265,800.926 -1245.278,791.201 -1347.436,791.201  "/>
	<polygon fill="#A1C3FC" points="-1332.973,819.403 -1300.341,819.403 -1281.353,809.679 -1337.96,809.679  "/>
	<polygon fill="#A1C3FC" points="-1326.185,832.641 -1317.429,828.156 -1328.485,828.156  "/>
</g>

</g>
</g>

<!-- ITEM 1 -->
<g transform="translate(291.0 125.0) scale(1.8329625432005483 1.838226846383978) rotate(0.0 107.20350000000002 108.80050000000001)">
<g transform="translate(1630.003 -447.024)">

<polygon fill="#e4e9ff" points="-1415.596,530.566 -1506.08,664.625 -1630.003,581.083 -1539.519,447.024 "/>

</g>
</g>

<!-- ITEM 2 -->
<g transform="translate(427.0 331.0) scale(1.6603687163632201 1.6569250898453347) rotate(0.0 78.597 87.5115)">
<g transform="translate(1570.315 -703.991)">

<g>
	<path fill="#151A4F" d="M-1565.164,760.843l0.029,0.058c0.011-0.03,0.024-0.059,0.036-0.089L-1565.164,760.843z"/>
	<path fill="#151A4F" d="M-1531.471,718.593c-0.356,0.236-0.71,0.474-1.062,0.715l1.137-0.562L-1531.471,718.593z"/>
	<path fill="#151A4F" d="M-1512.817,709.538l-0.146-0.296c-2.364,0.859-4.672,1.83-6.936,2.881l0.368,0.743L-1512.817,709.538z"/>
	<path fill="#151A4F" d="M-1555.601,742.462c-1.404,2.067-2.708,4.206-3.936,6.394l5.705-2.827L-1555.601,742.462z"/>
	<polygon fill="#151A4F" points="-1541.963,740.151 -1545.294,733.439 -1538.578,730.111 -1535.248,736.822  "/>
	<polygon fill="#151A4F" points="-1523.388,730.943 -1526.719,724.232 -1520.003,720.904 -1516.673,727.615  "/>
	<polygon fill="#151A4F" points="-1504.81,721.737 -1508.14,715.025 -1501.425,711.697 -1498.094,718.408  "/>
	<path fill="#151A4F" d="M-1486.236,712.527l6.715-3.328l-2.572-5.184c-0.311-0.003-0.617-0.024-0.93-0.024   c-1.01,0-2.013,0.042-3.015,0.077l-3.528,1.748L-1486.236,712.527z"/>
	<path fill="#151A4F" d="M-1555.118,764.225l-3.33-6.711l-6.651,3.297c-0.011,0.03-0.024,0.059-0.036,0.089l3.301,6.653   L-1555.118,764.225z"/>
	<polygon fill="#151A4F" points="-1543.253,758.349 -1546.583,751.638 -1539.868,748.309 -1536.538,755.021  "/>
	<polygon fill="#151A4F" points="-1524.674,749.142 -1528.004,742.431 -1521.289,739.102 -1517.958,745.814  "/>
	<polygon fill="#151A4F" points="-1506.095,739.934 -1509.426,733.223 -1502.71,729.894 -1499.38,736.606  "/>
	<polygon fill="#151A4F" points="-1487.521,730.727 -1490.851,724.016 -1484.136,720.687 -1480.805,727.399  "/>
	<polygon fill="#151A4F" points="-1562.31,775.59 -1558.98,782.301 -1565.695,785.629 -1569.025,778.918  "/>
	<polygon fill="#151A4F" points="-1547.109,776.426 -1550.439,769.715 -1543.724,766.387 -1540.394,773.098  "/>
	<polygon fill="#151A4F" points="-1528.534,767.217 -1531.864,760.506 -1525.149,757.177 -1521.818,763.889  "/>
	<polygon fill="#151A4F" points="-1509.953,758.011 -1513.284,751.3 -1506.568,747.972 -1503.238,754.683  "/>
	<polygon fill="#151A4F" points="-1491.378,748.803 -1494.709,742.091 -1487.993,738.763 -1484.663,745.474  "/>
	<polygon fill="#151A4F" points="-1472.799,739.596 -1476.13,732.884 -1469.414,729.556 -1466.084,736.267  "/>
	<polygon fill="#151A4F" points="-1563.6,793.786 -1560.27,800.497 -1566.985,803.826 -1570.315,797.114  "/>
	<polygon fill="#151A4F" points="-1541.687,791.289 -1548.402,794.618 -1551.732,787.906 -1545.017,784.578  "/>
	<polygon fill="#151A4F" points="-1529.818,785.416 -1533.148,778.705 -1526.433,775.377 -1523.103,782.088  "/>
	<polygon fill="#151A4F" points="-1511.244,776.209 -1514.575,769.498 -1507.859,766.169 -1504.529,772.881  "/>
	<polygon fill="#151A4F" points="-1492.667,767 -1495.997,760.288 -1489.282,756.96 -1485.951,763.671  "/>
	<polygon fill="#151A4F" points="-1474.09,757.793 -1477.421,751.081 -1470.705,747.753 -1467.375,754.464  "/>
	<path fill="#151A4F" d="M-1567.454,811.866l-0.757,0.375c0.6,2.482,1.308,4.918,2.114,7.312l1.972-0.978L-1567.454,811.866z"/>
	<polygon fill="#151A4F" points="-1548.88,802.655 -1545.549,809.366 -1552.265,812.694 -1555.595,805.983  "/>
	<polygon fill="#151A4F" points="-1530.303,793.448 -1526.972,800.159 -1533.688,803.488 -1537.018,796.776  "/>
	<polygon fill="#151A4F" points="-1511.725,784.242 -1508.394,790.953 -1515.11,794.281 -1518.44,787.57  "/>
	<polygon fill="#151A4F" points="-1489.812,781.745 -1496.527,785.073 -1499.857,778.362 -1493.142,775.033  "/>
	<polygon fill="#151A4F" points="-1481.284,769.162 -1474.569,765.834 -1471.238,772.545 -1477.954,775.874  "/>
	<polygon fill="#151A4F" points="-1459.37,766.663 -1462.7,759.952 -1455.985,756.624 -1452.655,763.335  "/>
	<polygon fill="#151A4F" points="-1550.171,820.85 -1546.841,827.562 -1553.556,830.89 -1556.886,824.179  "/>
	<polygon fill="#151A4F" points="-1531.591,811.645 -1528.261,818.357 -1534.976,821.685 -1538.307,814.974  "/>
	<polygon fill="#151A4F" points="-1509.677,809.148 -1516.393,812.476 -1519.723,805.765 -1513.008,802.437  "/>
	<polygon fill="#151A4F" points="-1501.152,796.569 -1494.436,793.241 -1491.106,799.952 -1497.821,803.28  "/>
	<polygon fill="#151A4F" points="-1472.521,790.73 -1479.237,794.059 -1482.567,787.347 -1475.852,784.019  "/>
	<polygon fill="#151A4F" points="-1460.655,784.862 -1463.985,778.15 -1457.27,774.822 -1453.94,781.533  "/>
	<path fill="#151A4F" d="M-1554.801,841.859c1.378,1.963,2.821,3.876,4.353,5.715l-3.135-6.319L-1554.801,841.859z"/>
	<polygon fill="#151A4F" points="-1535.01,832.047 -1531.68,838.758 -1538.395,842.087 -1541.725,835.375  "/>
	<polygon fill="#151A4F" points="-1516.435,822.838 -1513.105,829.549 -1519.82,832.877 -1523.15,826.166  "/>
	<polygon fill="#151A4F" points="-1497.855,813.633 -1494.525,820.344 -1501.24,823.673 -1504.57,816.961  "/>
	<polygon fill="#151A4F" points="-1475.94,811.132 -1482.656,814.46 -1485.986,807.749 -1479.271,804.42  "/>
	<polygon fill="#151A4F" points="-1457.363,801.928 -1464.079,805.256 -1467.409,798.545 -1460.694,795.216  "/>
	<polygon fill="#151A4F" points="-1445.502,796.054 -1448.832,789.343 -1442.117,786.014 -1438.786,792.726  "/>
	<path fill="#151A4F" d="M-1536.294,850.247l-6.715,3.328l1.711,3.448c0.986,0.877,1.989,1.736,3.015,2.57l5.318-2.635   L-1536.294,850.247z"/>
	<polygon fill="#151A4F" points="-1517.723,841.035 -1514.393,847.746 -1521.108,851.075 -1524.439,844.363  "/>
	<polygon fill="#151A4F" points="-1499.144,831.83 -1495.814,838.541 -1502.529,841.869 -1505.859,835.158  "/>
	<polygon fill="#151A4F" points="-1487.281,825.96 -1480.566,822.631 -1477.236,829.343 -1483.951,832.671  "/>
	<polygon fill="#151A4F" points="-1468.702,816.75 -1461.986,813.422 -1458.656,820.133 -1465.371,823.461  "/>
	<polygon fill="#151A4F" points="-1446.784,814.253 -1450.115,807.542 -1443.399,804.213 -1440.069,810.925  "/>
	<path fill="#151A4F" d="M-1521.576,859.116l-6.715,3.328l2.907,5.856c0.34,0.187,0.678,0.375,1.021,0.558l6.119-3.032   L-1521.576,859.116z"/>
	<polygon fill="#151A4F" points="-1503.002,849.906 -1499.671,856.617 -1506.387,859.945 -1509.717,853.234  "/>
	<polygon fill="#151A4F" points="-1484.428,840.696 -1481.097,847.407 -1487.813,850.736 -1491.143,844.024  "/>
	<polygon fill="#151A4F" points="-1465.846,831.492 -1462.515,838.203 -1469.231,841.532 -1472.561,834.82  "/>
	<polygon fill="#151A4F" points="-1447.273,822.284 -1443.943,828.995 -1450.658,832.324 -1453.988,825.612  "/>
	<polygon fill="#151A4F" points="-1428.696,813.076 -1425.366,819.788 -1432.081,823.116 -1435.411,816.404  "/>
	<path fill="#151A4F" d="M-1504.287,868.106l-6.715,3.328l1.901,3.83c1.526,0.475,3.075,0.9,4.635,1.291l3.508-1.739   L-1504.287,868.106z"/>
	<polygon fill="#151A4F" points="-1485.713,858.895 -1482.383,865.607 -1489.098,868.935 -1492.429,862.224  "/>
	<polygon fill="#151A4F" points="-1467.136,849.688 -1463.806,856.4 -1470.521,859.728 -1473.851,853.017  "/>
	<polygon fill="#151A4F" points="-1448.563,840.479 -1445.232,847.191 -1451.948,850.519 -1455.278,843.808  "/>
	<polygon fill="#151A4F" points="-1429.982,831.276 -1426.651,837.987 -1433.367,841.315 -1436.697,834.604  "/>
	<path fill="#151A4F" d="M-1492.918,878.635c1.444,0.162,2.898,0.288,4.363,0.379l-1.012-2.04L-1492.918,878.635z"/>
	<polygon fill="#151A4F" points="-1470.995,867.765 -1467.665,874.477 -1474.38,877.805 -1477.71,871.094  "/>
	<polygon fill="#151A4F" points="-1452.417,858.558 -1449.087,865.27 -1455.802,868.598 -1459.133,861.887  "/>
	<polygon fill="#151A4F" points="-1433.839,849.351 -1430.509,856.062 -1437.225,859.391 -1440.555,852.679  "/>
	<path fill="#151A4F" d="M-1415.258,840.147l-6.715,3.328l3.33,6.712l1.374-0.681c1.44-1.633,2.829-3.314,4.148-5.053   L-1415.258,840.147z"/>
</g>

</g>
</g>

<!-- ITEM 3 -->
<g transform="translate(557.0 224.0) scale(1.077562015938938 1.0749446141342107) rotate(0.0 111.36250000000001 114.4245)">
<g transform="translate(-0.0 -0.0)">

<ellipse transform="matrix(0.9848 -0.1735 0.1735 0.9848 -11.305 19.9699)" fill="#e4e9ff" cx="108.596" cy="74.661" rx="109.587" ry="68.971"/>
<g>
	<path fill="#1B236D" d="M137.572,228.849c-0.601,0-1.168-0.363-1.398-0.957c-3.227-8.302-1.036-17.427,1.083-26.252   c2.366-9.855,4.601-19.166-0.746-26.485c-4.082-5.589-11.496-7.84-18.21-9.304c-8.461-1.847-17.224-3.055-25.699-4.223   c-10.65-1.468-21.663-2.985-32.268-5.789c-22.75-6.016-39.725-17.867-47.798-33.371c-2.438-4.682-4.06-9.767-4.9-15.065   c-2.286-3.25-4.153-6.835-5.474-10.785c-9.544-28.539,15.402-57.58,42.62-72.486C70.848,9.855,100.316,1.51,130,0   c0.82-0.019,1.532,0.594,1.574,1.422c0.042,0.827-0.595,1.532-1.422,1.574c-29.235,1.487-58.258,9.705-83.93,23.766   C20.064,41.088-3.992,68.761,5.006,95.666c0.557,1.665,1.219,3.261,1.977,4.791C6.458,83.998,12.927,66.3,25.448,52.471   c14.257-15.747,34.837-26.99,64.765-35.384c41.547-11.651,75.993-10.385,102.382,3.762c16.829,9.022,32.574,27.162,29.813,47.35   c-1.072,7.834-4.768,15.582-11.631,24.382c-16.582,21.261-41.121,36.218-70.964,43.252c-27.02,6.369-57.524,5.889-85.896-1.353   c-14.119-3.603-31.021-10.158-42.102-21.961c0.839,2.974,1.963,5.841,3.382,8.564c10.359,19.895,33.207,28.498,45.903,31.855   c10.429,2.757,21.35,4.262,31.911,5.718c8.532,1.176,17.354,2.392,25.929,4.263c7.264,1.585,15.319,4.067,19.993,10.466   c6.166,8.44,3.662,18.869,1.24,28.956c-2.011,8.376-4.09,17.037-1.204,24.465c0.3,0.771-0.083,1.641-0.854,1.941   C137.937,228.817,137.753,228.849,137.572,228.849z M10.482,106.222c10.186,13.998,28.87,21.445,44.177,25.352   c50.606,12.915,117.772,5.296,153.753-40.839c6.524-8.364,10.027-15.655,11.024-22.942c2.566-18.762-12.343-35.768-28.257-44.299   C165.494,9.723,131.797,8.541,91.024,19.976c-29.36,8.233-49.49,19.199-63.352,34.509C14.155,69.413,7.987,88.997,10.482,106.222z"/>
</g>

</g>
</g>

<!-- ITEM 4 -->
<g transform="translate(728.0 483.0) scale(3.0226756860013033 3.0409001064315038) rotate(0.0 44.497 26.308)">
<g transform="translate(811.413 -112.484)">

<polygon fill="#A1C3FC" points="-745.263,158.788 -781.691,158.788 -758.847,112.484 -722.419,112.484 "/>
<polygon fill="#428DFC" points="-746.899,155.157 -775.43,152.312 -757.831,116.115 -727.638,116.115 "/>
<path fill="#8CB6F1" d="M-746.793,162.795l-42.778,2.305v-6.533l44.693-0.409v2.64C-744.878,161.868-745.722,162.75-746.793,162.795  z"/>
<path fill="#78A9EF" d="M-789.438,165.078l-20.284-5.099c-0.904-0.212-1.543-1.019-1.543-1.947v-3.375l21.827,3.887V165.078z"/>
<polygon fill="#C3D9FD" points="-779.382,154.042 -811.413,154.662 -789.43,158.562 -744.878,158.157 "/>

</g>
</g>

<!-- ITEM 5 -->
<g transform="translate(818.0 471.0) scale(-1.0 1.0) rotate(-0.0 300.0 98.5)">
<g transform="translate(-0.0 -0.0)">

<linearGradient id="SVGID_1_-i5" gradientUnits="userSpaceOnUse" x1="1647.1251" y1="1728.085" x2="1780.3164" y2="1899.8304" gradientTransform="matrix(0.1413 0 0 0.1413 -85.0113 -196.8086)">
	<stop offset="0" style="stop-color:#FFBEB6"/>
	<stop offset="1" style="stop-color:#F2A19C"/>
</linearGradient>
<rect x="149.242" y="44.674" fill="url(#SVGID_1_-i5)" width="11.72" height="24.408"/>
<linearGradient id="SVGID_2_-i5" gradientUnits="userSpaceOnUse" x1="4032.0107" y1="1941.6066" x2="4504.8257" y2="1941.6066" gradientTransform="matrix(0.1413 0 0 0.1413 -85.0113 -196.8086)">
	<stop offset="0" style="stop-color:#FBB03B"/>
	<stop offset="1" style="stop-color:#F7931E"/>
</linearGradient>
<path fill="url(#SVGID_2_-i5)" d="M492.505,77.231c-5.496-8.939-7.941-13.795-7.618-21.361c0.028-0.667,16.187-15.253,22.205-17.28  c13.647,21.339,29.684,50.887,44.575,76.609c-5.062,2.19-9.806,2.05-21.892-4.033c-2.674-1.345-26.885-15.854-27.568-17.921  C501.826,92.093,493.141,78.266,492.505,77.231z"/>
<path fill="#151A4F" d="M461.061,69.29c13.196-12.092,19.294-15.608,28.375-17.601c3.193,13.877,10.845,26.028,13.044,41.418  c-23.899,25.549-55.098,48.105-82.495,69.862c-2.431,1.931-4.944,3.882-7.896,4.843c-2.901,0.943-6.022,0.863-9.072,0.773  c-52.339-1.55-104.677-3.1-157.015-4.649c-5.182-5.356-3.007-14.859,2.514-19.864c5.522-5.005,13.668-5.328,30.737-8.825  c19.488-3.993,40.963-6.145,61.946-5.131c9.229,0.446,29.922,4.082,37.022-1.833c19.794-16.489,31.483-21.253,39.221-24.917  c5.246-2.483,19.293-6.766,22.726-8.794C448.233,89.811,452.386,77.242,461.061,69.29z"/>
<path fill="#F2A19C" d="M25.525,91.369c0.664,0.984,1.027,2.162,1.796,3.066c0.956,1.124,2.596,2.52,1.653,3.656  c-0.791,0.952-2.368,0.113-3.046-0.922c-0.678-1.035-1.257-2.385-2.474-2.609c0.928,0.742,1.896,1.537,2.32,2.646  c0.424,1.109,0.062,2.614-1.056,3.018c-2.536-1.543-5.072-3.087-7.607-4.631c-0.879-0.535-1.847-1.199-1.994-2.215  c-0.089-0.614,0.152-1.231,0.473-1.762C17.629,88.246,23.32,88.104,25.525,91.369z"/>
<path fill="#F2A19C" d="M67.847,50.334c0.147,0.574,0.419,1.432,1.009,1.371c1.493-0.154,1.938-2.252,2.37-3.689  c0.752-2.502,1.812-9.015,1.893-9.669c0.043-0.349,0.045-0.726-0.143-1.023c-0.359-0.564-1.251-0.535-1.771-0.117  c-0.52,0.418-0.763,1.084-0.982,1.713c-0.436,1.256-0.871,2.513-1.306,3.769C68.063,45.158,67.198,47.803,67.847,50.334z"/>
<path fill="#F2A19C" d="M70.535,48.811c1.214-0.332,1.779-1.682,2.282-2.834c0.932-2.134,2.199-4.102,3.48-6.047  c0.548-0.833,1.12-1.715,1.191-2.709c0.072-0.996-0.611-2.548-1.553-2.213c-3.266,1.165-3.825,5.751-5.125,8.964  C70.179,45.537,69.574,47.423,70.535,48.811z"/>
<path fill="#FFBEB6" d="M113.138,140.024c-1.126-5.803-4.642-10.801-7.726-15.844C96.624,109.809,90.5,96.251,83.931,80.741  c-2.554-6.029-6.495-17.45-6.873-17.725c-0.581-1.502,0.392-3.553,2.337-5.222c1.258-1.079,4.518-4.173,6.048-4.81  c4.13-1.719,8.11-4.535,9.072-6.87c0.997-2.422-1.075-2.185-3.299-3.572c-4.095-2.554-9.448-8.811-10.212-8.759  c-1.175,0.079-8.535,9.021-8.481,9.309c0.079,0.429,1.45,0.17,1.885,0.129c2.288-0.222,4.145-1.87,5.828-3.436  c1.071,1.319,2.357,2.462,3.792,3.373c-0.035,0.461,0.994,2.771,0.959,3.232C79.9,50.136,74.039,52.427,69.59,56.912  c-0.403,0.408-1.454,2.004-1.467,2.119c-0.17,1.67,0.71,2.889,1.148,4.191c8.474,25.214,8.569,56.17,19.251,82.606  c2.813,6.962,7.173,13.713,13.846,17.162c1.294,0.669,2.737,1.214,4.179,1.007c3.44-0.493,4.834-4.618,5.514-8.024  C113.109,150.711,114.16,145.29,113.138,140.024z"/>
<g>
	
		<rect x="57.308" y="45.331" transform="matrix(0.9995 -0.0302 0.0302 0.9995 -1.3614 1.8604)" fill="#23286B" width="7.235" height="1.364"/>
	
		<rect x="61.802" y="42.676" transform="matrix(0.9995 -0.0302 0.0302 0.9995 -1.3246 2.6736)" fill="#428DFC" width="52.145" height="5.048"/>
	<g>
		<polygon fill="#E94A47" points="111.041,48.07 110.958,41.122 90.776,41.732 90.744,40.633 112.045,39.989 112.141,48.056   "/>
	</g>
</g>
<path fill="#FFBEB6" d="M77.556,42.513c2.221,1.616,0.894,4.608-0.085,7.172c-2.191,5.744-2.554,6.032-2.921,7.498  c-0.274,1.095-2.687,9.84-3.577,2.616c-0.785-6.367,1.733-8.283,3.777-15.233C75.101,43.373,76.547,41.781,77.556,42.513z"/>
<path fill="#FFBEB6" d="M45.362,95.133c-0.853-1.958-1.682-3.992-3.162-5.534c-2.726-2.841-6.985-3.398-10.884-3.947  c-9.5-1.339-22.17-3.584-31.244-6.696c-0.366,1.148,0.722,2.212,1.724,2.88c4.239,2.823,12.336,4.57,17.307,5.775  c-2.071,1.18-5.712,1.75-6.401,3.18c-0.386,0.803,1.927,3.778,2.889,5.667c0.392,0.771,0.805,1.565,1.475,2.112  c0.577,0.47,1.296,0.719,2.001,0.959c2.007,0.685,4.015,1.369,6.021,2.054c0.97-0.724,1.002-2.274,0.313-3.268  c-0.69-0.995-1.897-1.509-3.085-1.734c-0.75-0.142-1.523-0.193-2.239-0.457c-1.523-0.563-2.602-2.152-2.563-3.774  c5.004,1.845,10.448,2.437,15.74,1.787c8.051,12.692,13.299,26.843,18.902,40.79c11.02,27.434,27.402,30.376,28.614,35.129  c5.511-9.738-3.165-24.426,6.048-30.779C70.444,127.524,53.41,113.609,45.362,95.133z M19.735,87.76  c0.181,0.042,0.362,0.086,0.543,0.127c-0.116,0.011-0.232,0.02-0.348,0.031C19.865,87.864,19.801,87.811,19.735,87.76z"/>
<path fill="#1D72D8" d="M164.342,83.49c0.922-3.775,1.146-11.343-0.549-14.84c-1.696-3.496-3.397-7.035-7.282-6.906  c-12.24,12.214-18.411,29.025-26.472,44.321c-5.028,9.542-9.159,16.579-16.83,26.615c-2.176,2.848-9.19-13.041-9.347-12.916  c-6.592,5.231-11.822,20.336-19.794,21.986c2.292,5.61,12.92,21.71,20.772,24.891c4.702,1.583,23.255-17.4,31.379-29.611  c5.155-7.749,10.22-15.558,15.286-23.366C158.404,103.029,161.319,95.857,164.342,83.49z"/>
<linearGradient id="SVGID_3_-i5" gradientUnits="userSpaceOnUse" x1="4333.5923" y1="2559.9744" x2="4846.7871" y2="2559.9744" gradientTransform="matrix(0.1413 0 0 0.1413 -85.0113 -196.8086)">
	<stop offset="0" style="stop-color:#FBB03B"/>
	<stop offset="1" style="stop-color:#F7931E"/>
</linearGradient>
<path fill="url(#SVGID_3_-i5)" d="M530.871,167.872c-1.098-7.491-2.195-14.983-3.294-22.474c-0.096-0.66-0.185-1.368,0.113-1.964  c0.29-0.582,3.506-2.306,4.072-2.626c5.532-3.117,8.45-4.86,13.981-7.977c20.269,18.593,37.795,40.359,54.256,62.654  c-4.564,3.097-11.683,1.062-24.693-2.655c-2.877-0.823-40.098-13.491-41.155-15.395  C533.562,176.376,531.047,169.074,530.871,167.872z"/>
<linearGradient id="SVGID_4_-i5" gradientUnits="userSpaceOnUse" x1="1641.3909" y1="1581.2875" x2="1293.9066" y2="1576.7542" gradientTransform="matrix(0.1413 0 0 0.1413 -85.0113 -196.8086)">
	<stop offset="0" style="stop-color:#FFBEB6"/>
	<stop offset="1" style="stop-color:#F2A19C"/>
</linearGradient>
<path fill="url(#SVGID_4_-i5)" d="M173.966,4.169c-7.119-2.968-15.42-0.148-21.662,4.387c-5.234,3.803-10.992,15.92-13.54,15.46  c-2.153-0.388-3.288,0.518-3.397,2.702c-0.534,10.787,3.387,20.819,6.669,22.289c9.293,4.161,26.247-0.561,30.198-4.227  c3.05-2.829,6.913-3.778,8.372-7.448c2.343-5.894,4.301-12.072,3.73-18.228C183.765,12.951,180.217,6.776,173.966,4.169z"/>
<path fill="#E94A47" d="M148.112,10.964c0.776-2.26,2.232-4.248,3.988-5.871c7.15-6.609,18.944-6.543,27.086-1.205  c9.036,5.924,13.778,17.116,14.108,27.809c0.069,2.224-0.404,4.455-1.499,6.392c-5.176,9.161-15.508-0.715-20.49,9.776  c-0.943,1.984-1.387,4.173-1.425,6.369c-0.054,3.186-0.078,6.221,0.554,9.435c0.298,1.515-0.985,2.9-2.503,2.621  c-6.729-1.234-14.638-5.536-18.21-13.941c-4.322-10.169-3.978-21.099-2.936-31.946C147.073,17.429,147.143,13.792,148.112,10.964z"/>
<g>
	<path fill="#428DFC" d="M179.423,47.941c-0.387,0-0.856-0.171-1.408-0.514c-1.385-0.859-5.06-6.5-11.439-16.394   c-5.34-8.284-11.38-17.656-16.098-23.794c1.592,4.05,6.911,14.299,10.085,18.406c3.017,3.903,11.455,15.795,10.676,19.141   c-0.129,0.554-0.461,0.82-0.716,0.944c-2.27,1.114-6.1-4.867-12.15-14.721c-2.328-3.791-4.735-7.712-6.744-10.476   c-2.843-3.907-6.065-8.334-7.503-13.364c-0.083-0.292,0.086-0.596,0.378-0.68c0.292-0.08,0.596,0.086,0.68,0.378   c1.383,4.841,4.409,8.999,7.334,13.018c2.035,2.797,4.453,6.738,6.793,10.547c3.676,5.989,9.209,15.036,10.729,14.308   c0.029-0.014,0.091-0.045,0.129-0.207c0.538-2.311-5.852-12.239-10.476-18.219C157.287,23.2,147.62,6.284,149.18,5.077   c0.637-0.492,1.324,0.396,1.93,1.178c4.78,6.167,10.949,15.738,16.391,24.18c5.066,7.86,9.851,15.285,11.094,16.055   c0.621,0.386,0.825,0.349,0.828,0.348c0.684-1.13-4.228-10.946-7.485-15.396l-2.188-2.98c-4.08-5.549-8.3-11.289-12.073-17.206   c-1.479-2.319-2.64-5.837-1.9-8.468c0.326-1.164,1.02-2.033,2.002-2.515c0.273-0.133,0.603-0.02,0.736,0.251   c0.133,0.273,0.021,0.601-0.251,0.736c-0.703,0.344-1.185,0.958-1.427,1.825c-0.552,1.964,0.176,5.081,1.77,7.581   c3.753,5.887,7.961,11.611,12.031,17.145l2.189,2.983c1.934,2.641,9.203,14.829,7.355,16.823   C179.981,47.833,179.728,47.941,179.423,47.941z"/>
</g>
<g>
	<path fill="#23286B" d="M142.521,22.7c-1.338,0-2.636-0.35-3.881-1.051c-0.265-0.148-0.359-0.483-0.209-0.749   c0.147-0.264,0.481-0.361,0.749-0.209c2.046,1.15,4.176,1.215,6.51,0.194c0.279-0.122,0.603,0.005,0.724,0.284   c0.122,0.278-0.004,0.601-0.284,0.723C144.901,22.43,143.696,22.7,142.521,22.7z"/>
</g>
<circle fill="#428DFC" cx="154.285" cy="36.361" r="10.941"/>
<g>
	<path fill="#23286B" d="M153.37,38.209c-0.293,0-0.588-0.077-0.855-0.241c-0.778-0.473-1.026-1.487-0.552-2.265l0.076-0.126   c8.803-14.474,12.821-21.081,25.544-31.678c1.994-1.659,4.791-2.519,7.122-2.203c1.633,0.225,2.952,1.007,3.816,2.261   c1.815,2.64-1.526,7.671-1.526,7.671l-2.14-2.739c0,0,1.477-2.293,0.947-3.065c-0.332-0.481-0.838-0.763-1.546-0.861   c-1.395-0.194-3.309,0.427-4.56,1.469c-12.301,10.246-16.229,16.705-24.836,30.857l-0.077,0.126   C154.469,37.928,153.925,38.209,153.37,38.209z"/>
</g>
<linearGradient id="SVGID_5_-i5" gradientUnits="userSpaceOnUse" x1="1945.0164" y1="2164.9114" x2="1649.1481" y2="2824.885" gradientTransform="matrix(0.1413 0 0 0.1413 -85.0113 -196.8086)">
	<stop offset="0" style="stop-color:#428DFC"/>
	<stop offset="1" style="stop-color:#1D72D8"/>
</linearGradient>
<path fill="url(#SVGID_5_-i5)" d="M140.334,144.774c-7.592-10.3-5.562-14.92-9.074-27.223c-1.613-5.645-3.001-11.462-2.667-17.323  c0.841-14.768,12.106-26.552,22.683-36.895c1.211-1.184,2.554-2.434,4.239-2.62c1.809-0.2,3.496,0.886,4.905,2.04  c11.509,9.415,17.009,37.335,23.9,50.511c13.463,25.739,17.876,29.161,46.919,30.047c-3.389,10.373-0.276,21.872-3.665,32.245  C178.088,178.852,145.464,151.736,140.334,144.774z"/>
<linearGradient id="SVGID_6_-i5" gradientUnits="userSpaceOnUse" x1="2164.7551" y1="2470.7556" x2="4382.7944" y2="2470.7556" gradientTransform="matrix(0.1413 0 0 0.1413 -85.0113 -196.8086)">
	<stop offset="0" style="stop-color:#23286B"/>
	<stop offset="1" style="stop-color:#151A4F"/>
</linearGradient>
<path fill="url(#SVGID_6_-i5)" d="M364.924,136.245c-9.999,0-73.849-4.27-83.572-6.596c-29.454-7.047-37.803-0.233-60.484,12.821  c1.874,9.929,2.175,23.381,1.305,33.449c94.638-3.768,190.823-6.47,285.872,1.629c9.54,0.814,17.427-0.63,26.225-0.63  c0.122-14.283-1.306-20.156-6.106-33.609c-43.377-12.56-47.778-0.508-73.068-4.865c-22.477-3.872-19.794-7.695-45.085-8.794  C393.66,128.939,388.016,136.245,364.924,136.245z"/>
<linearGradient id="SVGID_7_-i5" gradientUnits="userSpaceOnUse" x1="1594.3854" y1="2125.6519" x2="1004.4486" y2="2482.1938" gradientTransform="matrix(0.1413 0 0 0.1413 -85.0113 -196.8086)">
	<stop offset="0" style="stop-color:#428DFC"/>
	<stop offset="1" style="stop-color:#1D72D8"/>
</linearGradient>
<path fill="url(#SVGID_7_-i5)" d="M160.219,68.376c-0.683-2.978-1.347-7.855-4.399-7.695c-5.224,0.275-7.772,3.953-9.072,5.222  c-11.271,10.993-16.471,21.599-24.687,31.653c-6.281,7.686-17.772,30.36-25.347,36.777c-7.734,6.553-15.945-2.748-15.945-2.748  s-7.979,21.051-17.499,33.061c-0.417,2.455,19.516,6.513,23.548,5.964c2.468-0.336,18.961-14.584,27.491-22.535  c10.854-10.117,20.264-27.82,31.615-37.375C151.147,106.3,163.242,81.566,160.219,68.376z"/>
<path id="texture_1_-i5" fill="#FFFFFF" d="M264.363,134.249c0.142,0.111,0.322,0.115,0.435-0.027l0,0  c0.111-0.142,0.115-0.322-0.027-0.435l0,0c-0.142-0.111-0.322-0.115-0.435,0.027l0,0  C264.224,133.956,264.221,134.138,264.363,134.249L264.363,134.249z M290.412,149.569c-0.003,0.18,0.139,0.292,0.319,0.295  c0.18,0.003,0.292-0.139,0.295-0.319l0,0c0.003-0.18-0.139-0.292-0.319-0.295C290.492,149.174,290.416,149.389,290.412,149.569  L290.412,149.569L290.412,149.569z M289.627,141.901c-0.003,0.18,0.139,0.292,0.319,0.295c0.18,0.003,0.292-0.139,0.295-0.319l0,0  c0.003-0.18-0.139-0.292-0.319-0.295l0,0C289.815,141.545,289.63,141.722,289.627,141.901L289.627,141.901z M274.698,144.526  c0.18,0.003,0.326-0.066,0.438-0.208c0.003-0.18-0.066-0.326-0.208-0.438c-0.18-0.003-0.326,0.066-0.364,0.173  C274.416,144.304,274.485,144.449,274.698,144.526z M276.979,137.1c0.18,0.003,0.326-0.066,0.438-0.208  c0.003-0.18-0.066-0.326-0.208-0.438c-0.18-0.003-0.326,0.066-0.365,0.173C276.694,136.878,276.798,137.097,276.979,137.1  L276.979,137.1z M303.89,141.827c0.069,0.146,0.285,0.222,0.43,0.153c0.145-0.069,0.222-0.285,0.153-0.43l0,0  c-0.069-0.146-0.285-0.222-0.43-0.153l0,0C303.898,141.466,303.821,141.681,303.89,141.827z M300.273,134.968  c0.069,0.146,0.285,0.222,0.43,0.153c0.145-0.069,0.222-0.285,0.153-0.43c-0.069-0.146-0.285-0.222-0.43-0.153l0,0  C300.279,134.609,300.203,134.822,300.273,134.968L300.273,134.968L300.273,134.968z M267.562,142.108  c0.107,0.038,0.361,0.008,0.365-0.173c0.039-0.107,0.008-0.361-0.173-0.364c-0.107-0.038-0.361-0.008-0.364,0.173l0,0  C267.278,141.886,267.347,142.031,267.562,142.108L267.562,142.108z M270.147,135.7c0.107,0.038,0.361,0.008,0.365-0.173  c0.039-0.107,0.042-0.288-0.173-0.364c-0.107-0.038-0.288-0.042-0.364,0.173l0,0C269.969,135.516,270.038,135.661,270.147,135.7  L270.147,135.7L270.147,135.7z M296.342,141.928c0.069,0.146,0.211,0.257,0.358,0.188c0.146-0.069,0.183-0.177,0.189-0.358l0,0  c-0.069-0.146-0.211-0.257-0.358-0.188l0,0C296.384,141.64,296.273,141.782,296.342,141.928L296.342,141.928z M293.69,135.594  c0.069,0.146,0.211,0.257,0.358,0.188c0.146-0.069,0.183-0.177,0.189-0.358l0,0c-0.069-0.146-0.211-0.257-0.358-0.188l0,0  C293.731,135.307,293.621,135.45,293.69,135.594L293.69,135.594z M281.298,141.302c-0.003,0.18,0.139,0.292,0.319,0.295  c0.18,0.003,0.292-0.139,0.295-0.319c0.003-0.18-0.139-0.292-0.319-0.295C281.413,140.978,281.302,141.121,281.298,141.302  L281.298,141.302z M268.574,149.311c-0.003,0.18,0.139,0.292,0.319,0.295s0.292-0.139,0.295-0.319  c0.003-0.18-0.139-0.292-0.319-0.295S268.577,149.13,268.574,149.311L268.574,149.311z M268.551,141.371  c-0.003,0.18,0.139,0.292,0.319,0.295c0.18,0.003,0.292-0.139,0.295-0.319s-0.139-0.292-0.319-0.295  C268.667,141.047,268.556,141.189,268.551,141.371L268.551,141.371z M268.423,133.392c-0.003,0.18,0.139,0.292,0.319,0.295  c0.18,0.003,0.292-0.139,0.295-0.319c0.003-0.18-0.139-0.292-0.319-0.295C268.573,133.142,268.461,133.283,268.423,133.392z   M299.484,136.504c0.142,0.111,0.322,0.115,0.435-0.027c0.111-0.142,0.115-0.322-0.027-0.435c-0.142-0.111-0.322-0.114-0.435,0.027  C299.311,136.141,299.342,136.394,299.484,136.504L299.484,136.504z M258.86,127.749c-0.077,0.216-0.008,0.361,0.208,0.438   M283.327,142.749c0.069,0.146,0.285,0.222,0.43,0.153c0.146-0.069,0.222-0.285,0.153-0.43c-0.069-0.145-0.285-0.222-0.43-0.153l0,0  C283.336,142.389,283.259,142.605,283.327,142.749L283.327,142.749L283.327,142.749z M279.001,146.056  c0.069,0.146,0.285,0.222,0.43,0.153c0.146-0.069,0.222-0.285,0.153-0.43c-0.069-0.146-0.211-0.257-0.43-0.153  C279.008,145.695,278.931,145.91,279.001,146.056L279.001,146.056z M276.189,138.636c0.069,0.146,0.285,0.222,0.43,0.153  c0.146-0.069,0.257-0.211,0.153-0.43c-0.069-0.146-0.285-0.222-0.465-0.225C276.196,138.275,276.119,138.491,276.189,138.636  L276.189,138.636z M262.296,136.48c-0.003,0.18,0.139,0.292,0.319,0.295l0,0c0.18,0.003,0.292-0.139,0.368-0.354  c0.003-0.18-0.139-0.292-0.354-0.368C262.41,136.158,262.299,136.3,262.296,136.48L262.296,136.48z M264.331,133.995  c0.069,0.146,0.177,0.183,0.285,0.222c0.146-0.069,0.183-0.177,0.222-0.285c-0.069-0.146-0.177-0.183-0.285-0.222l0,0  C264.408,133.781,264.298,133.923,264.331,133.995L264.331,133.995L264.331,133.995z"/>
<path id="texture-2_4_-i5" fill="#FFFFFF" d="M245.021,132.826c0.099,0.056,0.177,0.035,0.233-0.065  c0.056-0.099,0.035-0.177-0.065-0.233c-0.099-0.056-0.177-0.035-0.233,0.065l0,0C244.901,132.692,244.999,132.748,245.021,132.826  L245.021,132.826z M262.14,132.961c0.022,0.078,0.121,0.134,0.199,0.112l0,0c0.078-0.022,0.134-0.121,0.112-0.199l0,0  c-0.022-0.078-0.121-0.134-0.199-0.112C262.075,132.728,262.04,132.906,262.14,132.961L262.14,132.961L262.14,132.961z   M253.508,132.327c0.022,0.078,0.043,0.156,0.142,0.212c0.078-0.022,0.156-0.043,0.212-0.142c-0.022-0.078-0.043-0.156-0.142-0.212  C253.543,132.151,253.487,132.25,253.508,132.327z M245.864,153.184c-0.035,0.177,0.086,0.311,0.262,0.346  c0.177,0.035,0.311-0.086,0.347-0.262l0,0c0.035-0.177-0.086-0.311-0.263-0.346C246.013,152.809,245.821,153.029,245.864,153.184  L245.864,153.184z M246.423,145.496c-0.035,0.177,0.086,0.311,0.263,0.346s0.311-0.086,0.347-0.262  c0.035-0.177-0.086-0.311-0.263-0.346l0,0C246.592,145.198,246.458,145.32,246.423,145.496z M247.061,137.788  c-0.035,0.177,0.086,0.311,0.263,0.346l0,0c0.177,0.035,0.311-0.086,0.347-0.262l0,0c0.035-0.177-0.086-0.311-0.263-0.346  C247.229,137.49,247.094,137.612,247.061,137.788z M231.266,145.49c0.177,0.035,0.333-0.008,0.467-0.129  c0.035-0.177-0.008-0.333-0.129-0.467c-0.177-0.035-0.333,0.008-0.389,0.107C231.024,145.222,231.068,145.378,231.266,145.49  L231.266,145.49z M234.722,138.594c0.177,0.035,0.333-0.008,0.467-0.129c0.035-0.177-0.008-0.333-0.129-0.467  c-0.177-0.035-0.333,0.008-0.389,0.107C234.558,138.305,234.623,138.538,234.722,138.594L234.722,138.594z M260.483,147.898  c0.043,0.156,0.242,0.268,0.397,0.225c0.156-0.043,0.269-0.242,0.225-0.397l0,0c-0.043-0.156-0.242-0.268-0.397-0.225l0,0  C260.553,147.545,260.439,147.743,260.483,147.898z M258.112,140.516c0.043,0.156,0.242,0.268,0.397,0.225  c0.156-0.043,0.269-0.242,0.225-0.397c-0.043-0.156-0.242-0.268-0.397-0.225l0,0C258.181,140.163,258.069,140.361,258.112,140.516  L258.112,140.516z M255.762,133.214c0.043,0.156,0.242,0.268,0.397,0.225l0,0c0.156-0.043,0.269-0.242,0.225-0.397l0,0  c-0.043-0.156-0.242-0.268-0.397-0.225C255.754,132.88,255.719,133.057,255.762,133.214L255.762,133.214z M224.658,141.871  c0.099,0.056,0.354,0.069,0.389-0.107c0.056-0.099,0.069-0.354-0.107-0.389c-0.099-0.056-0.354-0.069-0.389,0.107l0,0  C224.417,141.603,224.459,141.759,224.658,141.871z M253.031,146.688c0.043,0.156,0.164,0.29,0.319,0.247  c0.156-0.043,0.212-0.142,0.247-0.319l0,0c-0.043-0.156-0.164-0.29-0.319-0.247l0,0  C253.123,146.412,252.989,146.533,253.031,146.688L253.031,146.688z M251.519,139.991c0.043,0.156,0.164,0.29,0.319,0.247  c0.156-0.043,0.212-0.142,0.247-0.319l0,0c-0.043-0.156-0.164-0.29-0.319-0.247l0,0  C251.611,139.714,251.477,139.836,251.519,139.991L251.519,139.991z M250.084,133.271c0.043,0.156,0.164,0.29,0.319,0.247l0,0  c0.156-0.043,0.212-0.142,0.247-0.319l0,0c-0.043-0.156-0.164-0.29-0.319-0.247l0,0  C250.097,133.017,250.042,133.116,250.084,133.271L250.084,133.271z M238.326,143.461c-0.035,0.177,0.086,0.311,0.262,0.346  c0.176,0.035,0.311-0.086,0.347-0.262c0.035-0.177-0.086-0.311-0.262-0.346C238.497,143.163,238.283,143.305,238.326,143.461  L238.326,143.461z M239.475,136.698c-0.035,0.177,0.086,0.311,0.184,0.367l0,0c0.177,0.035,0.311-0.086,0.347-0.262  c0.035-0.177-0.086-0.311-0.262-0.346C239.643,136.401,239.509,136.521,239.475,136.698L239.475,136.698z M264.087,138.199  c0.121,0.134,0.22,0.19,0.354,0.069l0,0c0.134-0.121,0.169-0.298,0.069-0.354l0,0c-0.121-0.134-0.298-0.169-0.432-0.049  C264.079,137.868,264.044,138.044,264.087,138.199L264.087,138.199L264.087,138.199z M260.191,132.578  c0.121,0.134,0.298,0.169,0.432,0.049c0.134-0.121,0.169-0.298,0.049-0.432c-0.121-0.134-0.298-0.169-0.354-0.069  C260.106,132.267,260.071,132.443,260.191,132.578C260.171,132.5,260.191,132.578,260.191,132.578L260.191,132.578z M224.403,149.14  c-0.035,0.177,0.086,0.311,0.262,0.346s0.311-0.086,0.347-0.262c0.035-0.177-0.086-0.311-0.263-0.347  C224.572,148.843,224.437,148.962,224.403,149.14L224.403,149.14z M225.684,141.338c-0.035,0.177,0.086,0.311,0.262,0.346  s0.311-0.086,0.347-0.262c0.035-0.177-0.086-0.311-0.262-0.346C225.93,141.018,225.717,141.161,225.684,141.338L225.684,141.338z   M257.067,141.893c0.121,0.134,0.298,0.169,0.432,0.049c0.134-0.121,0.169-0.298,0.049-0.432c-0.121-0.134-0.298-0.169-0.432-0.049  C256.961,141.504,256.948,141.759,257.067,141.893L257.067,141.893z M252.426,135.388c0.121,0.134,0.298,0.169,0.432,0.049  c0.134-0.121,0.169-0.298,0.049-0.432c-0.121-0.134-0.298-0.169-0.432-0.049C252.418,135.055,252.306,135.253,252.426,135.388  L252.426,135.388z M240.073,145.239c0.043,0.156,0.242,0.268,0.397,0.225c0.156-0.043,0.269-0.242,0.225-0.397  c-0.043-0.156-0.242-0.268-0.397-0.225l0,0C240.143,144.884,240.029,145.083,240.073,145.239L240.073,145.239L240.073,145.239z   M238.281,137.53c0.043,0.156,0.242,0.268,0.397,0.225l0,0c0.156-0.043,0.269-0.242,0.225-0.397l0,0  c-0.043-0.156-0.242-0.268-0.397-0.225C238.352,137.176,238.216,137.297,238.281,137.53L238.281,137.53z M235.237,147.743  c0.043,0.156,0.242,0.268,0.397,0.225c0.156-0.043,0.269-0.242,0.225-0.397c-0.043-0.156-0.164-0.29-0.397-0.225  C235.306,147.39,235.195,147.588,235.237,147.743L235.237,147.743z M233.757,139.948c0.043,0.156,0.242,0.268,0.397,0.225  c0.156-0.043,0.29-0.164,0.225-0.397c-0.043-0.156-0.242-0.268-0.419-0.303C233.826,139.594,233.714,139.793,233.757,139.948  L233.757,139.948z M248.654,138.102c0.121,0.134,0.298,0.169,0.453,0.127c0.134-0.121,0.169-0.298,0.127-0.453  c-0.121-0.134-0.298-0.169-0.453-0.127l0,0C248.624,137.692,248.611,137.947,248.654,138.102L248.654,138.102L248.654,138.102z"/>

</g>
</g>

<!-- ITEM 6 -->
<g transform="translate(603.0 270.0) scale(0.85 0.8554216867469879) rotate(353.3782152960184 100.0 41.5)">
<g transform="translate(-0.0 -0.0)">

<path fill="#151A4F" d="M85.859,83c18.203-6.987,25.627-18.26,38.407-21.96c0,0-10.404-29.674-12.402-44.119  c-6.459-2.96-16.012-0.914-22.985,0.381c-11.149,2.072-22.716,1.81-33.763-0.761c-2.814,15.076-7.864,47.892-7.864,47.892  C59.601,66.388,70.581,76.902,85.859,83z"/>
<polygon fill="#23286B" points="0,32.897 87.452,50.32 164.821,18.642 70.324,0 "/>
<polygon fill="#428DFC" points="71.423,23.005 84.249,25.561 95.597,20.915 81.737,18.18 "/>
<g>
	<path fill="#428DFC" d="M184.905,43.605c-7.244,0-14.54-2.233-20.373-6.435c-2.338-1.684-4.471-3.674-6.535-5.597   c-1.612-1.503-3.279-3.056-5.024-4.445c-9.063-7.212-21.749-11.053-35.785-10.828c-13.014,0.215-25.698,3.66-37.466,7.352   c-0.228,0.071-0.467-0.055-0.538-0.28c-0.071-0.226,0.054-0.466,0.281-0.537c11.83-3.711,24.586-7.175,37.71-7.391   c14.201-0.228,27.115,3.678,36.333,11.014c1.771,1.41,3.451,2.975,5.075,4.489c2.044,1.905,4.159,3.876,6.453,5.528   c8.112,5.843,19.131,7.783,28.756,5.065c2.767-0.781,4.389-1.857,5.106-3.388c0.448-0.957,0.265-2.318-0.438-3.238   c-0.293-0.383-0.921-1-1.86-0.842c-0.229,0.038-0.455-0.117-0.495-0.349c-0.039-0.234,0.118-0.455,0.351-0.494   c1.011-0.177,1.988,0.253,2.688,1.168c0.899,1.178,1.118,2.871,0.532,4.121c-1.091,2.327-3.748,3.311-5.651,3.849   C191.075,43.199,187.994,43.605,184.905,43.605z"/>
</g>
<g>
	<path fill="#428DFC" d="M183.242,38.078c-4.44,0-9.052-0.845-12.778-1.644c-5.252-1.125-10.104-3.426-14.832-7.035   c-0.189-0.143-0.224-0.412-0.081-0.601c0.145-0.19,0.414-0.224,0.602-0.08c4.625,3.53,9.365,5.78,14.49,6.878   c4.569,0.978,10.48,2.028,15.695,1.467c4.392-0.474,6.21-3.291,6.432-5.56c0.159-1.614-0.473-2.927-1.57-3.268   c-0.227-0.07-0.352-0.311-0.282-0.536c0.071-0.227,0.309-0.352,0.538-0.281c1.496,0.466,2.368,2.142,2.168,4.171   c-0.273,2.792-2.604,5.832-7.195,6.327C185.388,38.029,184.32,38.078,183.242,38.078z"/>
</g>
<g>
	<path fill="#428DFC" d="M183.86,50.412c-5.681,0-11.375-1.639-16.14-4.72c-6.535-4.226-10.723-9.647-12.448-16.11   c-0.061-0.229,0.076-0.463,0.304-0.524c0.232-0.06,0.464,0.076,0.525,0.303c1.668,6.252,5.734,11.505,12.084,15.612   c5.884,3.803,13.227,5.343,20.145,4.226c0.228-0.036,0.455,0.12,0.492,0.354c0.039,0.234-0.121,0.453-0.355,0.492   C186.947,50.291,185.403,50.412,183.86,50.412z"/>
</g>

</g>
</g>

              </svg>