<?xml version="1.0" standalone="no"?><svg xmlns="http://www.w3.org/2000/svg" viewBox="0 0 1440 320"><path fill="#0099ff" fill-opacity="1" d="M0,64L30,101.3C60,139,120,213,180,224C240,235,300,181,360,154.7C420,128,480,128,540,128C600,128,660,128,720,122.7C780,117,840,107,900,90.7C960,75,1020,53,1080,58.7C1140,64,1200,96,1260,96C1320,96,1380,64,1410,48L1440,32L1440,320L1410,320C1380,320,1320,320,1260,320C1200,320,1140,320,1080,320C1020,320,960,320,900,320C840,320,780,320,720,320C660,320,600,320,540,320C480,320,420,320,360,320C300,320,240,320,180,320C120,320,60,320,30,320L0,320Z"></path></svg>