<?xml version="1.0" encoding="utf-8"?>
<!-- Generator: Adobe Illustrator 24.2.0, SVG Export Plug-In . SVG Version: 6.00 Build 0)  -->
<svg version="1.1" id="Layer_1" xmlns="http://www.w3.org/2000/svg" xmlns:xlink="http://www.w3.org/1999/xlink" x="0px" y="0px"
	 viewBox="0 0 846.87 546.18" style="enable-background:new 0 0 846.87 546.18;" xml:space="preserve">
<style type="text/css">
	.st0{fill:#5658F8;}
	.st1{fill:#F4AA16;}
	.st2{fill:#F93F32;}
	.st3{fill:#D0A8EF;}
	.st4{fill:#2BCC9E;}
	.st5{clip-path:url(#SVGID_2_);}
	.st6{fill:url(#SVGID_3_);}
	.st7{fill:url(#man_s_handVjx7U3gLtoPkHPHhxV7Li_1_);}
	.st8{fill:url(#neckVjx7U3gLtoPkHPHhxV7Li_1_);}
	.st9{fill:#FFBEB6;}
	.st10{fill:url(#L_handVjx7U3gLtoPkHPHhxV7Li_1_);}
	.st11{fill:url(#R_handVjx7U3gLtoPkHPHhxV7Li_1_);}
	.st12{fill:url(#R_hand-2Vjx7U3gLtoPkHPHhxV7Li_1_);}
	.st13{fill:#1C2868;}
	.st14{fill:url(#neck-2Vjx7U3gLtoPkHPHhxV7Li_1_);}
	.st15{clip-path:url(#SVGID_5_);}
	.st16{clip-path:url(#SVGID_7_);}
	.st17{fill:#FFFFFF;}
	.st18{clip-path:url(#SVGID_9_);}
	.st19{clip-path:url(#SVGID_11_);}
	.st20{fill:url(#SVGID_12_);}
	.st21{fill:#F2A19C;}
	.st22{fill:#428DFC;}
	.st23{fill:#E94A47;}
	.st24{fill:url(#SVGID_13_);}
	.st25{clip-path:url(#SVGID_15_);}
	.st26{fill:#151A4F;}
	.st27{fill:#A1C3FC;}
	.st28{fill:url(#SVGID_16_);}
	.st29{fill:url(#SVGID_17_);}
	.st30{clip-path:url(#SVGID_19_);}
	.st31{fill:#EDEDED;}
	.st32{fill:#FFBEB5;}
	.st33{fill:url(#neck_2_xGruMkGDCgbOE6Pbps4Fx_1_);}
	.st34{fill:#201D6B;}
	.st35{fill:none;stroke:#428DFC;stroke-width:3.56;stroke-linecap:round;stroke-miterlimit:17.8;}
	.st36{fill:#B3C9EE;}
	.st37{fill:#1D72D8;}
	.st38{fill:#81AEF2;}
	.st39{fill:#D6D7D8;}
	.st40{fill:#D62929;}
	.st41{fill:#5BABF2;}
	.st42{fill:#FF4945;}
	.st43{fill:#1B236D;}
	.st44{fill:url(#SVGID_20_);}
	.st45{fill:#74B4F7;}
	.st46{fill:#EEEEEE;}
	.st47{fill:none;stroke:#E94A47;stroke-width:0.8666;stroke-miterlimit:8.6664;}
</style>
<g>
	<g transform="translate(84.0 132.0) scale(1.78 1.78) rotate(0.0 400.0 300.0)">
		<g transform="translate(-0.0 -0.0)">
			<path class="st1" d="M324.36,186.79l5.88-1.84c0.47-0.32,1-0.53,1.47-0.95l-9.14,2.94C323.21,186.89,323.78,186.89,324.36,186.79
				z M320.21,186.79l13.29-4.31c0.26-0.21,0.42-0.47,0.68-0.68l-14.87,4.73C319.63,186.68,319.95,186.73,320.21,186.79z
				 M317.9,186.21l17.39-5.57c0.21-0.16,0.26-0.37,0.47-0.58l-18.33,5.83C317.59,186.1,317.74,186.1,317.9,186.21z M316.53,185.31
				l19.96-6.41c0.1-0.16,0.21-0.37,0.32-0.53L316.22,185C316.27,185.16,316.43,185.26,316.53,185.31z M315.54,184.32l21.75-6.93
				c0.1-0.16,0.1-0.32,0.21-0.53L315.27,184C315.43,184.11,315.48,184.26,315.54,184.32z M314.91,183.27l23.11-7.35
				c0-0.16,0.1-0.32,0.1-0.53l-23.43,7.51C314.75,183,314.8,183.16,314.91,183.27z M314.33,182.11l24.01-7.72
				c0-0.16,0.05-0.32,0.1-0.53l-24.27,7.72C314.22,181.85,314.28,181.95,314.33,182.11z M313.91,180.95l24.74-7.93
				c0-0.16,0.05-0.32,0.05-0.47l-24.95,8.04C313.8,180.64,313.86,180.8,313.91,180.95z M313.7,179.54c0.05,0.05-0.05,0.1,0,0.16
				l25.16-8.04c0-0.16,0.05-0.32,0.05-0.47l-25.06,7.99C313.8,179.27,313.75,179.38,313.7,179.54z M315.01,177.75
				c-0.05,0.05-0.1,0.16-0.21,0.16l24.11-7.72c0-0.16-0.05-0.26,0-0.42l-23.48,7.56C315.22,177.49,315.12,177.64,315.01,177.75z
				 M316.17,176.23l22.54-7.2c0-0.16-0.05-0.26-0.1-0.42l-22.22,7.14C316.38,175.91,316.27,176.02,316.17,176.23z M316.9,174.65
				l21.7-6.93c-0.05-0.16-0.05-0.26-0.1-0.42l-21.38,6.88C316.96,174.39,316.96,174.55,316.9,174.65z M317.27,173.23l21.01-6.67
				c-0.05-0.16-0.1-0.21-0.1-0.42l-20.75,6.67C317.32,172.97,317.27,173.07,317.27,173.23z M317.38,171.87l20.44-6.51
				c-0.05-0.16-0.1-0.21-0.16-0.37l-20.33,6.46C317.38,171.6,317.38,171.76,317.38,171.87z M317.27,170.55l19.86-6.36
				c-0.05-0.16-0.1-0.21-0.16-0.37l-19.75,6.3C317.27,170.29,317.27,170.5,317.27,170.55z M317.01,169.34l19.38-6.25
				c-0.05-0.16-0.21-0.26-0.26-0.32l-19.33,6.2C316.9,169.13,316.96,169.24,317.01,169.34z M335.18,161.78l-18.86,5.99
				c0.05,0.16,0.1,0.21,0.16,0.37l19.02-6.09C335.5,161.99,335.34,161.88,335.18,161.78z M334.08,160.83l-18.39,5.88
				c0.05,0.16,0.21,0.26,0.26,0.32l18.54-5.94C334.34,161.1,334.19,160.94,334.08,160.83z M332.61,159.99l-17.55,5.57
				c0.05,0.16,0.1,0.21,0.16,0.37l17.91-5.78C332.93,160.15,332.82,160.05,332.61,159.99z M330.77,159.31
				c-0.05,0.05-0.1-0.05-0.16,0l-15.5,4.94c-0.05,0.1-0.05,0.32-0.05,0.47l16.39-5.25C331.19,159.47,330.98,159.36,330.77,159.31z
				 M326.83,159.15l-10.03,3.2c-0.32,0.26-0.68,0.47-1,0.74l12.71-4.04C327.99,159.1,327.36,159.1,326.83,159.15z"/>
			<g>
				<path class="st4" d="M354.1,97.69c0.74,2.21-0.1,4.57-1.21,6.62c-2.99,5.62-7.83,10.24-13.61,12.92
					c-3.2,1.52-6.67,2.42-9.98,3.78c-9.61,3.99-17.44,11.98-21.17,21.7c1.1-6.72-2.42-13.4-6.72-18.7
					c-4.26-5.31-9.4-10.09-12.45-16.18c-2.63-5.25-2.68-13.03,2.63-15.55c3.89-1.84,8.77,0.21,12.77-1.47
					c1.42-0.63,2.68-1.89,2.63-3.41c-0.21-3.89-7.88-3.62-8.09-7.51c-0.21-4.47,11.56-3.15,10.03-7.41
					c-0.63-1.79-3.15-2.31-3.99-3.99c-0.89-1.68-0.84-4.04,0.68-5.25c1.94-1.58,4.89-0.32,7.35-0.89c2.78-0.63,4.57-3.47,5.15-6.3
					s0.26-5.73,0.68-8.56c1-6.99,6.72-13.03,13.61-14.5c6.88-1.47,14.55,1.79,18.28,7.77c1.52,2.47,2.36,5.78,0.74,8.14
					c-1.42,2-4.47,3.31-4.2,5.73c0.32,3.31,6.46,3.62,6.57,6.93c0.1,3.89-7.88,3.89-7.67,7.77c0.1,1.73,1.94,2.73,3.05,4.1
					c2.1,2.52,1.26,6.88-1.63,8.46c-1.16,0.63-2.52,0.89-3.41,1.79c-2.31,2.26-0.05,6.25,2.68,7.93
					C349.53,93.28,353.1,94.59,354.1,97.69z"/>
				<path class="st4" d="M333.92,97.95c1.63-0.89,3.36-1.73,4.68-3.1c2.68-2.94,2.52-7.35,2.73-11.35c0.21-3.99,1.63-8.67,5.46-9.72
					c3.2-0.89,7.25,1.05,9.61-1.26c0.89-0.84,1.26-2.1,1.89-3.15c2.73-4.57,9.93-4.2,13.92-0.68c3.94,3.52,5.46,8.98,6.78,14.13
					c0.47,1.89,0.53,4.52-1.31,5.04c-1.79,0.47-3.57-1.73-5.25-1.05c-1.37,0.53-1.47,2.47-0.95,3.89c0.47,1.37,1.31,2.78,1,4.26
					c-0.63,2.73-4.47,2.89-7.2,2.15c-2.73-0.74-6.25-1.47-7.83,0.89c1.73,5.52,3.2,12.24-0.68,16.6c-4.47,4.99-12.71,4.47-19.38,5.1
					c-12.4,1.16-21.17,10.61-28.16,20.96C308.81,123.32,318.74,106.2,333.92,97.95z"/>
			</g>
			<g>
				<path class="st17" d="M318.37,132.78c-0.05,0-0.05,0-0.1,0c-0.16-0.05-0.21-0.21-0.16-0.32c6.3-19.28,16.34-32.68,34.67-46.18
					c3.41-2.52,13.71-6.78,18.18-7.14c0.1,0,0.26,0.1,0.26,0.26c0,0.16-0.1,0.26-0.26,0.26c-4.26,0.37-14.6,4.62-17.86,7.04
					c-18.28,13.45-28.26,26.74-34.51,45.91C318.58,132.68,318.48,132.78,318.37,132.78z"/>
			</g>
			<path class="st17" d="M328.09,76.26l-2.1-5.78c-0.74-0.05-1.52,0.05-2.26,0.32l2.26,6.2c0.1,0.37-0.05,0.74-0.42,0.84
				c-0.37,0.1-0.74-0.05-0.84-0.42l-2.26-6.09c-0.68,0.42-1.26,1-1.73,1.63l1.89,5.15c0.1,0.37-0.05,0.74-0.42,0.84
				c-0.37,0.1-0.74-0.05-0.84-0.42l-1.47-4.04c-0.84,2.1-0.89,4.78,0.05,7.41c0,0.05,0.05,0.1,0.05,0.16
				c-0.47,0.26-1,0.58-1.42,0.95c-1.31,0.95-2.99,2.57-3.57,4.89l0.63,0.16c0.53-2.1,2.1-3.62,3.31-4.47
				c0.42-0.32,0.84-0.58,1.31-0.84c1,2.21,2.63,3.99,4.41,4.94l-1.42-3.83c-0.1-0.37,0.05-0.74,0.42-0.84
				c0.37-0.11,0.74,0.05,0.84,0.42l1.84,4.94c0.79,0.21,1.58,0.26,2.36,0.1l-2.1-5.78c-0.1-0.37,0.05-0.74,0.42-0.84
				c0.37-0.1,0.74,0.05,0.84,0.42l2.15,5.83c0.68-0.32,1.31-0.79,1.84-1.31l-1.94-5.25c-0.1-0.37,0.05-0.74,0.42-0.84
				c0.37-0.1,0.74,0.05,0.84,0.42l1.68,4.52c0.53-0.79,1-1.63,1.42-2.52l-1.05-2.84c-0.1-0.37,0.05-0.74,0.42-0.84
				c0.37-0.1,0.74,0.05,0.84,0.42l0.58,1.52c1.05-2.52,1.73-4.99,2.63-5.78c-1.47-0.32-3.52-1.68-5.78-2.94l0.74,1.94
				c0.1,0.37-0.05,0.74-0.42,0.84c-0.37,0.1-0.74-0.05-0.84-0.42l-1.21-3.31c-0.89-0.42-1.79-0.74-2.68-0.95l1.84,5.1
				c0.1,0.37-0.05,0.74-0.42,0.84C328.62,76.78,328.25,76.62,328.09,76.26z"/>
			<rect x="165.55" y="140.61" class="st31" width="58.63" height="65.19"/>
			<rect x="129.25" y="203.7" class="st31" width="131.23" height="5.04"/>
			<rect x="66.11" y="15.95" class="st31" width="257.52" height="166.74"/>
			<rect x="70.63" y="20.1" class="st17" width="248.48" height="137.32"/>
			<g>
				
					<rect x="183.24" y="167.92" transform="matrix(0.7071 -0.7071 0.7071 0.7071 -66.0565 181.1453)" class="st0" width="4.78" height="4.78"/>
				
					<rect x="192.46" y="167.91" transform="matrix(0.7071 -0.7071 0.7071 0.7071 -63.3506 187.6635)" class="st0" width="4.78" height="4.78"/>
				
					<rect x="201.69" y="167.93" transform="matrix(0.7071 -0.7071 0.7071 0.7071 -60.66 194.1879)" class="st0" width="4.78" height="4.78"/>
			</g>
			<path class="st2" d="M318.43-3.54c0,0.1,0,0.21,0,0.32c0,4.36,3.52,7.88,7.88,7.88s7.88-3.52,7.88-7.88c0-0.1,0-0.21,0-0.32
				H318.43z"/>
			<path class="st2" d="M346.64-22.72c0,0.16,0,0.37,0,0.53c0,7.2,5.83,13.03,13.03,13.03s13.03-5.83,13.03-13.03
				c0-0.16,0-0.37,0-0.53C372.69-22.72,346.64-22.72,346.64-22.72z"/>
			<path class="st4" d="M16.31-36.38c0,0.32,0,0.58,0,0.89c0,12.13,9.88,22.01,22.01,22.01s22.01-9.88,22.01-22.01
				c0-0.32,0-0.58,0-0.89C60.33-36.38,16.31-36.38,16.31-36.38z"/>
			<path class="st4" d="M39.37-36.38c0,0.21,0,0.42,0,0.63c0,8.83,7.14,15.97,15.97,15.97s15.97-7.14,15.97-15.97
				c0-0.21,0-0.42,0-0.63C71.31-36.38,39.37-36.38,39.37-36.38z"/>
			<g>
				<path class="st3" d="M30.12,173.97c-0.1,2.31,1.31,4.41,2.94,6.09c4.41,4.68,10.35,7.88,16.65,8.93c3.52,0.58,7.14,0.58,10.72,1
					c10.4,1.31,20.12,6.99,26.37,15.39c-2.89-6.25-1.21-13.66,1.52-19.96c2.73-6.3,6.46-12.29,7.77-19.02
					c1.16-5.78-0.89-13.4-6.72-14.39c-4.31-0.74-8.51,2.57-12.82,1.94c-1.52-0.21-3.15-1.1-3.47-2.63
					c-0.84-3.83,6.72-5.62,5.83-9.46c-1-4.41-12.08,0-11.71-4.47c0.16-1.89,2.42-3.05,2.84-4.94s-0.26-4.15-2.05-4.89
					c-2.31-1-4.83,1-7.35,1.1c-2.89,0.16-5.36-2.15-6.67-4.73c-1.31-2.57-1.79-5.52-2.94-8.14c-2.84-6.51-9.98-10.87-17.07-10.45
					c-7.09,0.42-13.66,5.62-15.71,12.45c-0.84,2.78-0.79,6.25,1.47,8.14c1.89,1.58,5.2,2,5.62,4.41c0.58,3.31-5.31,5.25-4.52,8.51
					c0.89,3.83,8.72,1.68,9.51,5.52c0.37,1.73-1.16,3.2-1.84,4.78c-1.37,2.99,0.63,6.99,3.83,7.77c1.26,0.32,2.68,0.16,3.83,0.79
					c2.84,1.58,1.73,6.04-0.47,8.41C33.38,168.56,30.33,170.71,30.12,173.97z"/>
				<path class="st1" d="M49.88,168.87c-1.84-0.42-3.73-0.79-5.36-1.79c-3.41-2.15-4.41-6.51-5.67-10.3
					c-1.26-3.78-3.89-7.99-7.88-7.99c-3.36,0-6.78,2.99-9.67,1.37c-1.1-0.63-1.79-1.73-2.68-2.57c-3.83-3.68-10.77-1.42-13.66,3.05
					s-2.89,10.19-2.84,15.55c0.05,1.94,0.68,4.52,2.63,4.52c1.84,0,2.99-2.63,4.83-2.42c1.47,0.16,2.1,2.05,2,3.52
					c-0.1,1.47-0.53,3.05,0.16,4.36c1.31,2.52,5.15,1.63,7.56,0.16c2.42-1.47,5.67-3.1,7.83-1.21c-0.21,5.83,0.16,12.77,5.1,15.92
					c5.67,3.62,13.55,0.95,20.17-0.21c12.35-2.21,23.43,4.68,32.94,12.87C80.98,186.79,66.79,172.81,49.88,168.87z"/>
				<path class="st35" d="M86.65,206.17c-4.2-10.98-7.56-22.27-10.14-33.73"/>
				
					<ellipse transform="matrix(0.9747 -0.2235 0.2235 0.9747 -36.3492 21.4104)" class="st0" cx="76.41" cy="171.28" rx="5.99" ry="2.26"/>
				<path class="st35" d="M76.2,171.08c-1.42-6.51-2.57-13.03-3.47-19.65"/>
				
					<ellipse transform="matrix(0.9483 -0.3174 0.3174 0.9483 -43.8308 30.7676)" class="st0" cx="72.52" cy="149.91" rx="7.2" ry="2.68"/>
				<path class="st35" d="M72.47,149.7c-0.68-5.46-1.21-10.93-1.58-16.39"/>
				
					<ellipse transform="matrix(0.9999 -0.0106 0.0106 0.9999 -1.3891 0.7627)" class="st0" cx="71.25" cy="131.42" rx="7.2" ry="2.68"/>
				<path class="st35" d="M70.78,130.99c-0.21-4.15-0.32-8.35-0.37-12.56"/>
				
					<ellipse transform="matrix(0.9999 -0.0106 0.0106 0.9999 -1.2287 0.7535)" class="st0" cx="70.46" cy="116.29" rx="9.67" ry="3.62"/>
				<path class="st35" d="M70.42,115.6c0.05-2.78,0.1-5.57,0.21-8.35"/>
			</g>
			<path class="st36" d="M53.29,22.72l-3.94-0.47c-0.37,0.05-0.74,0.05-1.1,0.16l6.15,0.68C53.97,22.99,53.66,22.83,53.29,22.72z
				 M55.71,23.83l-8.93-1c-0.21,0.05-0.37,0.16-0.58,0.21l9.98,1.16C56.02,24.04,55.86,23.93,55.71,23.83z M56.92,24.77l-11.66-1.31
				c-0.16,0.05-0.26,0.16-0.42,0.21l12.29,1.42C57.07,24.93,56.97,24.88,56.92,24.77z M57.49,25.67l-13.4-1.52
				c-0.1,0.05-0.21,0.16-0.32,0.21l13.82,1.58C57.6,25.82,57.55,25.72,57.49,25.67z M57.81,26.51l-14.6-1.68
				c-0.1,0.05-0.16,0.16-0.26,0.26l14.92,1.68C57.81,26.66,57.81,26.56,57.81,26.51z M57.91,27.29l-15.5-1.79
				c-0.05,0.1-0.16,0.16-0.21,0.26l15.71,1.79C57.91,27.5,57.91,27.4,57.91,27.29z M57.91,28.13L41.79,26.3
				c-0.05,0.1-0.1,0.16-0.21,0.26l16.29,1.89C57.91,28.29,57.91,28.24,57.91,28.13z M57.86,28.92l-16.6-1.89
				c-0.05,0.1-0.1,0.16-0.16,0.26l16.76,1.89C57.86,29.13,57.86,29.03,57.86,28.92z M57.6,29.82c0-0.05,0.05-0.05,0.05-0.1
				l-16.86-1.94c-0.05,0.1-0.1,0.16-0.16,0.26l16.81,1.94C57.49,29.92,57.55,29.87,57.6,29.82z M56.39,30.5
				c0.05,0,0.1-0.05,0.16-0.05l-16.18-1.84c-0.05,0.1-0.05,0.16-0.1,0.26l15.76,1.79C56.18,30.6,56.29,30.55,56.39,30.5z
				 M55.29,31.08l-15.13-1.73c-0.05,0.1-0.05,0.16-0.05,0.26l14.92,1.68C55.08,31.23,55.18,31.18,55.29,31.08z M54.45,31.81
				l-14.55-1.68c0,0.1-0.05,0.16-0.05,0.26l14.34,1.63C54.34,31.97,54.39,31.86,54.45,31.81z M53.87,32.55l-14.08-1.63
				c0,0.1,0,0.16-0.05,0.26l13.92,1.58C53.76,32.71,53.82,32.65,53.87,32.55z M53.45,33.34l-13.71-1.58c0,0.1,0,0.16,0,0.26
				l13.61,1.58C53.34,33.49,53.4,33.39,53.45,33.34z M53.13,34.12L39.79,32.6c0,0.1,0,0.16,0,0.26l13.24,1.52
				C53.08,34.28,53.13,34.18,53.13,34.12z M52.98,34.91l-13.03-1.47c0,0.1,0.05,0.21,0.05,0.26l12.98,1.47
				C52.98,35.07,52.98,34.96,52.98,34.91z M40.31,34.54l12.66,1.47c0-0.1,0-0.16,0-0.26l-12.77-1.47
				C40.21,34.33,40.26,34.44,40.31,34.54z M40.74,35.38l12.35,1.42c0-0.1-0.05-0.21-0.05-0.26l-12.45-1.42
				C40.63,35.17,40.68,35.28,40.74,35.38z M41.37,36.28l11.77,1.37c0-0.1,0-0.16,0-0.26L41.1,36.01
				C41.21,36.07,41.26,36.17,41.37,36.28z M42.26,37.17c0.05,0,0.05,0.05,0.1,0.05l10.4,1.21c0.05-0.05,0.1-0.16,0.16-0.26
				l-10.98-1.26C42.05,36.96,42.15,37.07,42.26,37.17z M44.52,38.27l6.72,0.79c0.26-0.05,0.53-0.1,0.79-0.16l-8.51-1
				C43.83,38.01,44.2,38.17,44.52,38.27z"/>
			<path class="st0" d="M331.19,196.56l6.15,0.26c0.58-0.1,1.16-0.16,1.68-0.37l-9.61-0.32
				C330.09,196.24,330.61,196.45,331.19,196.56z M327.3,195.14l13.97,0.47c0.32-0.1,0.53-0.26,0.89-0.42l-15.6-0.58
				C326.83,194.88,327.04,195.03,327.3,195.14z M325.36,193.82l18.23,0.63c0.26-0.1,0.37-0.26,0.63-0.37l-19.23-0.74
				C325.1,193.61,325.26,193.67,325.36,193.82z M324.31,192.51l20.96,0.74c0.16-0.1,0.32-0.26,0.47-0.37l-21.59-0.79
				C324.15,192.3,324.26,192.46,324.31,192.51z M323.73,191.25l22.85,0.84c0.16-0.1,0.21-0.26,0.37-0.42l-23.32-0.84
				C323.73,190.99,323.73,191.15,323.73,191.25z M323.47,190.04l24.22,0.89c0.05-0.16,0.21-0.26,0.32-0.42l-24.59-0.89
				C323.47,189.73,323.47,189.88,323.47,190.04z M323.36,188.73l25.22,0.95c0.05-0.16,0.16-0.26,0.32-0.42l-25.48-1
				C323.36,188.52,323.36,188.57,323.36,188.73z M323.36,187.52l25.95,0.95c0.05-0.16,0.16-0.26,0.21-0.42l-26.21-0.95
				C323.36,187.21,323.36,187.36,323.36,187.52z M323.68,186.1c0,0.1-0.05,0.1-0.05,0.16l26.37,1c0.05-0.16,0.16-0.26,0.21-0.42
				l-26.27-1C323.84,185.94,323.73,186,323.68,186.1z M325.47,184.89c-0.1,0-0.16,0.1-0.26,0.1l25.32,0.89
				c0.05-0.16,0.05-0.26,0.16-0.42l-24.64-0.89C325.78,184.68,325.62,184.79,325.47,184.89z M327.09,183.84l23.64,0.89
				c0.05-0.16,0.05-0.26,0.05-0.42l-23.32-0.84C327.41,183.58,327.25,183.69,327.09,183.84z M328.3,182.64l22.75,0.84
				c0-0.16,0.05-0.26,0.05-0.42l-22.43-0.79C328.46,182.37,328.41,182.53,328.3,182.64z M329.14,181.43l22.01,0.84
				c0-0.16,0-0.26,0.05-0.42l-21.75-0.79C329.25,181.16,329.2,181.27,329.14,181.43z M329.67,180.17l21.43,0.79
				c0-0.16,0-0.26-0.05-0.42l-21.28-0.84C329.83,179.9,329.77,180.06,329.67,180.17z M330.09,178.91l20.86,0.79
				c0-0.16,0-0.26-0.05-0.42l-20.7-0.79C330.14,178.64,330.09,178.8,330.09,178.91z M330.25,177.64l20.38,0.74
				c0-0.16-0.1-0.32-0.1-0.42l-20.28-0.74C330.19,177.38,330.25,177.54,330.25,177.64z M349.89,176.7l-19.8-0.79
				c0,0.16,0,0.26,0.05,0.42l19.96,0.74C350.1,177.01,350,176.86,349.89,176.7z M349.16,175.44l-19.28-0.74
				c0,0.16,0.1,0.32,0.1,0.42l19.49,0.74C349.32,175.75,349.26,175.6,349.16,175.44z M348.06,174.12l-18.39-0.74
				c0,0.16,0,0.26,0.05,0.42l18.81,0.68C348.32,174.44,348.21,174.28,348.06,174.12z M346.58,172.86c-0.1,0-0.1-0.05-0.16-0.05
				l-16.29-0.63c-0.05,0.1-0.16,0.26-0.21,0.42l17.18,0.63C346.9,173.18,346.74,173.02,346.58,172.86z M342.96,171.45l-10.51-0.42
				c-0.42,0.1-0.79,0.21-1.21,0.32l13.29,0.53C344.01,171.76,343.43,171.55,342.96,171.45z"/>
		</g>
	</g>
	<g transform="translate(843.0 349.0) scale(1.34 1.342560553633218) rotate(13.103768127982503 199.99999999999997 144.5)">
		<g transform="translate(-0.0 -0.0)">
			<path class="st37" d="M-214,61.51c2.53-1.18,4.92-1.12,7.2,0l0-99.53c-1.71-0.93-4.08-0.99-7.2,0L-214,61.51L-214,61.51z"/>
			
				<rect x="-309.05" y="-33.64" transform="matrix(2.429986e-06 1 -1 2.429986e-06 -247.4084 270.9153)" class="st1" width="99.77" height="90.78"/>
			
				<rect x="-236.02" y="-32.12" transform="matrix(2.429986e-06 1 -1 2.429986e-06 -255.5357 199.1506)" class="st38" width="17.35" height="7.86"/>
			<polygon class="st1" points="-152.11,94.15 -206.89,61.55 -206.89,-38.05 -151.76,-11.06 			"/>
			<polygon class="st17" points="-201.64,65.37 -154.02,92.96 -154.02,-9.39 -206.43,-34.58 -211.78,-34.44 			"/>
			
				<rect x="-304.75" y="-27.55" transform="matrix(2.429986e-06 1 -1 2.429986e-06 -239.5297 270.2017)" class="st39" width="99.77" height="85.78"/>
			<polygon class="st31" points="-211.9,65.13 -296.04,70.15 -296.04,-29.45 -211.9,-34.46 			"/>
			<polygon class="st31" points="-209.04,65.37 -161.42,92.96 -161.42,-9.15 -211.78,-34.49 			"/>
			<polygon class="st17" points="-211.9,65.13 -165,93.08 -165,-6.52 -211.9,-34.46 			"/>
			<polygon class="st31" points="-211.9,65.13 -168.58,92.36 -168.58,-7.23 -211.9,-34.46 			"/>
			
				<rect x="-209.16" y="37.8" transform="matrix(2.429986e-06 1 -1 2.429986e-06 -116.233 199.6888)" class="st17" width="102.4" height="7.86"/>
			<g>
				<polygon class="st17" points="-177.18,10.69 -205.46,-5.99 -205.46,-12.39 -177.18,4.3 				"/>
				<polygon class="st17" points="-177.18,24.19 -205.46,7.5 -205.46,1.11 -177.18,17.8 				"/>
				<polygon class="st17" points="-177.18,37.68 -205.46,21 -205.46,14.6 -177.18,31.29 				"/>
				<polygon class="st17" points="-177.18,51.18 -205.46,34.49 -205.46,28.1 -177.18,44.79 				"/>
				<polygon class="st17" points="-177.18,64.67 -205.46,47.98 -205.46,41.59 -177.18,58.28 				"/>
				<polygon class="st17" points="-177.18,78.17 -205.46,61.48 -205.46,55.09 -177.18,71.77 				"/>
			</g>
			<g>
				<polygon class="st17" points="-222.64,-7.42 -284.22,-4.36 -284.22,-10.75 -222.64,-13.81 				"/>
				<polygon class="st17" points="-222.64,6.07 -284.22,9.14 -284.22,2.74 -222.64,-0.32 				"/>
				<polygon class="st17" points="-222.64,19.57 -284.22,22.63 -284.22,16.24 -222.64,13.18 				"/>
				<polygon class="st17" points="-222.64,33.06 -284.22,36.12 -284.22,29.73 -222.64,26.67 				"/>
				<polygon class="st17" points="-222.64,46.56 -284.22,49.62 -284.22,43.23 -222.64,40.17 				"/>
				<polygon class="st17" points="-222.64,60.05 -284.22,63.11 -284.22,56.72 -222.64,53.66 				"/>
			</g>
			<polygon class="st27" points="-275.59,-9.48 -278.14,-12.15 -275.47,-14.7 -272.92,-12.03 			"/>
			<polygon class="st27" points="-305.52,39.28 -308.07,36.61 -305.4,34.06 -302.85,36.73 			"/>
			<polygon class="st17" points="-292.23,51.68 -294.78,49 -292.1,46.46 -289.56,49.13 			"/>
			<polygon class="st2" points="-313.34,-41.05 -314.6,-35.06 -320.58,-36.32 -319.32,-42.3 			"/>
			<polygon class="st0" points="-154.79,21.47 -148.88,19.94 -147.35,25.87 -153.26,27.4 			"/>
			<g>
				<path class="st0" d="M-269.27-22.9c-0.1,0-0.19-0.07-0.22-0.17c-1.25-5.07-5.49-8.81-9.04-11.51
					c-7.2-5.46-18.21-11.54-29.75-9.47c-0.12,0.02-0.24-0.06-0.26-0.18c-0.02-0.12,0.06-0.24,0.18-0.26
					c11.71-2.1,22.83,4.04,30.11,9.56c3.61,2.74,7.92,6.55,9.2,11.76c0.03,0.12-0.04,0.24-0.17,0.27
					C-269.23-22.9-269.25-22.9-269.27-22.9z"/>
			</g>
			<g>
				<path class="st0" d="M-331.38-4.21c-0.02,0-0.05,0-0.07-0.01c-0.12-0.04-0.18-0.17-0.15-0.29c0.57-1.74,1.19-3.2,2.4-4.63
					c1.05-1.25,2.21-2.28,3.26-2.92c5.53-3.34,10.17-4.48,14.18-3.49c0.12,0.03,0.2,0.15,0.17,0.27c-0.03,0.12-0.15,0.2-0.27,0.17
					c-3.89-0.96-8.42,0.17-13.84,3.44c-1.01,0.61-2.13,1.61-3.15,2.82c-1.16,1.37-1.76,2.78-2.31,4.47
					C-331.2-4.27-331.29-4.21-331.38-4.21z"/>
			</g>
			<g>
				<path class="st0" d="M-151.73,38.95c-8.82,0-15.72-1.88-24.35-6.39c-0.11-0.06-0.15-0.19-0.1-0.31c0.06-0.11,0.2-0.15,0.31-0.1
					c10.35,5.41,18.18,7.01,29.92,6.1c3.88-0.3,6.18-1.23,6.37-1.96c0.03-0.12,0.16-0.19,0.28-0.16c0.12,0.03,0.19,0.16,0.16,0.28
					c-0.29,1.08-3.02,2-6.78,2.29C-147.96,38.87-149.89,38.95-151.73,38.95z"/>
			</g>
			<g>
				<path class="st27" d="M-226.28,12.86c0.22-2.18-0.86-4.11-2-6.16c-0.39-0.7-0.79-1.42-1.14-2.16v14.84
					c0.32-0.6,0.69-1.19,1.05-1.77C-227.42,16.11-226.44,14.56-226.28,12.86z"/>
				<path class="st27" d="M-225.99-13.22c0.54-3.06-0.74-5.91-2.09-8.93c-0.46-1.04-0.94-2.11-1.33-3.19v19.46
					c0.39-0.83,0.84-1.63,1.29-2.41C-227.19-9.91-226.3-11.45-225.99-13.22z"/>
				<path class="st27" d="M-228.17,28.64c-0.25-0.64-0.6-1.27-0.93-1.87c-0.1-0.18-0.21-0.37-0.31-0.56v12.63
					C-228.04,35.41-226.93,31.83-228.17,28.64z"/>
				<path class="st27" d="M-222.43-26.18c0.42,1.29,1,2.59,1.56,3.84c0.1,0.22,0.2,0.44,0.29,0.66l0-15.18h-2
					C-223.55-33.37-223.55-29.6-222.43-26.18z"/>
				<path class="st27" d="M-223.17,23.45c0.14,1.1,0.68,2.08,1.26,3.1c0.35,0.62,0.7,1.26,0.96,1.93c0.16,0.42,0.28,0.85,0.38,1.28
					l0-12.88c-0.2,0.33-0.4,0.66-0.6,0.98C-222.33,19.7-223.42,21.44-223.17,23.45z"/>
				<path class="st27" d="M-220.93-8.05c-0.61,1.07-1.25,2.18-1.69,3.33c-1,2.64-0.97,5.66,0.07,8.28c0.39,0.99,0.94,1.97,1.47,2.92
					c0.17,0.31,0.34,0.61,0.51,0.92V-8.68C-220.69-8.47-220.81-8.26-220.93-8.05z"/>
				<path class="st17" d="M-229.41-36.71c0.01-0.05,0.03-0.1,0.04-0.14h-0.04V-36.71z"/>
				<path class="st17" d="M-227.97,17.85c0.97-1.55,1.97-3.15,2.15-4.95c0.23-2.32-0.93-4.41-2.05-6.43
					c-0.53-0.95-1.07-1.93-1.47-2.92c-0.03-0.06-0.04-0.13-0.07-0.19v1.17c0.35,0.73,0.74,1.45,1.14,2.16
					c1.14,2.05,2.22,3.98,2,6.16c-0.17,1.7-1.14,3.25-2.08,4.75c-0.36,0.58-0.73,1.17-1.05,1.77v1.02
					C-229.03,19.55-228.51,18.71-227.97,17.85z"/>
				<path class="st17" d="M-227.73-8.05c0.91-1.59,1.86-3.24,2.18-5.08c0.56-3.2-0.8-6.25-2.12-9.2c-0.56-1.26-1.14-2.55-1.56-3.84
					c-0.07-0.21-0.12-0.42-0.18-0.63v1.47c0.39,1.08,0.87,2.15,1.33,3.19c1.35,3.02,2.62,5.87,2.09,8.93
					c-0.31,1.77-1.19,3.31-2.13,4.94c-0.45,0.78-0.9,1.58-1.29,2.41v1.15C-228.97-5.88-228.34-6.98-227.73-8.05z"/>
				<path class="st17" d="M-226.95,39.57h-0.24"/>
				<path class="st17" d="M-222.55,3.56c-1.04-2.62-1.07-5.64-0.07-8.28c0.44-1.15,1.07-2.26,1.69-3.33
					c0.12-0.21,0.24-0.41,0.36-0.62v-0.94c-0.24,0.44-0.49,0.88-0.75,1.34c-0.62,1.09-1.27,2.21-1.72,3.4
					c-1.04,2.74-1.01,5.88,0.07,8.61c0.4,1.02,0.96,2.01,1.49,2.97c0.32,0.57,0.62,1.12,0.9,1.68V7.4
					c-0.17-0.31-0.34-0.62-0.51-0.92C-221.61,5.53-222.15,4.55-222.55,3.56z"/>
				<path class="st17" d="M-222.86-26.03c0.43,1.31,1.01,2.62,1.58,3.89c0.24,0.54,0.48,1.08,0.71,1.61v-1.13
					c-0.1-0.22-0.2-0.44-0.29-0.66c-0.56-1.26-1.14-2.55-1.56-3.84c-1.12-3.43-1.12-7.19-0.14-10.68h-0.47
					C-224.01-33.32-224-29.51-222.86-26.03z"/>
				<path class="st17" d="M-229.41,39.38h0.27c1.47-3.63,2.73-7.45,1.39-10.9c-0.26-0.67-0.62-1.31-0.96-1.93
					c-0.25-0.45-0.49-0.89-0.7-1.34v1c0.1,0.19,0.2,0.37,0.31,0.56c0.34,0.61,0.69,1.23,0.93,1.87c1.24,3.18,0.13,6.76-1.24,10.2
					C-229.41,38.84-229.41,39.38-229.41,39.38z"/>
				<path class="st27" d="M-227.75,28.48c1.34,3.45,0.07,7.27-1.39,10.9h1.78c1.46-3.6,2.76-7.39,1.46-10.74
					c-0.25-0.64-0.6-1.27-0.93-1.87c-0.57-1.02-1.16-2.08-1.31-3.27c-0.28-2.16,0.91-4.06,2.06-5.89c0.94-1.5,1.91-3.06,2.08-4.75
					c0.22-2.18-0.86-4.11-2-6.16c-0.53-0.96-1.09-1.95-1.49-2.97c-1.08-2.73-1.11-5.87-0.07-8.61c0.45-1.19,1.09-2.31,1.72-3.4
					c0.93-1.63,1.82-3.17,2.13-4.94c0.54-3.06-0.74-5.91-2.09-8.93c-0.57-1.27-1.15-2.57-1.58-3.89c-1.14-3.47-1.15-7.28-0.18-10.82
					h-1.8c-0.01,0.05-0.03,0.1-0.04,0.14v9.9c0.06,0.21,0.11,0.42,0.18,0.63c0.42,1.29,1,2.59,1.56,3.84c1.32,2.95,2.68,6,2.12,9.2
					c-0.32,1.85-1.27,3.49-2.18,5.08c-0.61,1.07-1.25,2.18-1.68,3.33l0,8.09c0.02,0.06,0.04,0.13,0.07,0.19
					c0.39,0.99,0.94,1.97,1.47,2.92c1.12,2.02,2.29,4.1,2.05,6.43c-0.18,1.8-1.18,3.4-2.15,4.95c-0.54,0.86-1.06,1.69-1.44,2.54
					v4.82c0.21,0.45,0.45,0.89,0.7,1.34C-228.36,27.17-228.01,27.81-227.75,28.48z"/>
				<path class="st17" d="M-225.85-8.28c-0.62,1.09-1.27,2.21-1.72,3.4c-1.04,2.74-1.01,5.88,0.07,8.61
					c0.4,1.02,0.96,2.01,1.49,2.97c1.14,2.05,2.22,3.98,2,6.16c-0.17,1.7-1.14,3.25-2.08,4.75c-1.15,1.83-2.33,3.73-2.06,5.89
					c0.15,1.19,0.74,2.25,1.31,3.27c0.34,0.61,0.69,1.23,0.93,1.87c1.3,3.35,0,7.14-1.46,10.74h0.49c1.47-3.63,2.73-7.45,1.39-10.9
					c-0.26-0.67-0.62-1.31-0.96-1.93c-0.57-1.03-1.11-2-1.26-3.1c-0.26-2,0.83-3.75,1.99-5.59c0.97-1.55,1.97-3.15,2.15-4.95
					c0.23-2.32-0.93-4.41-2.05-6.43c-0.53-0.95-1.07-1.93-1.47-2.92c-1.04-2.62-1.07-5.64-0.07-8.28c0.44-1.15,1.07-2.26,1.69-3.33
					c0.91-1.59,1.86-3.24,2.18-5.08c0.56-3.2-0.8-6.25-2.12-9.2c-0.56-1.26-1.14-2.55-1.56-3.84c-1.12-3.43-1.12-7.19-0.14-10.68
					h-0.47c-0.97,3.53-0.96,7.35,0.18,10.82c0.43,1.31,1.01,2.62,1.58,3.89c1.35,3.02,2.62,5.87,2.09,8.93
					C-224.04-11.45-224.92-9.91-225.85-8.28z"/>
				<path class="st27" d="M-225.46-8.05c-0.61,1.07-1.25,2.18-1.69,3.33c-1,2.64-0.97,5.66,0.07,8.28c0.39,0.99,0.94,1.97,1.47,2.92
					c1.12,2.02,2.29,4.1,2.05,6.43c-0.18,1.8-1.18,3.4-2.15,4.95c-1.16,1.85-2.25,3.59-1.99,5.59c0.14,1.1,0.68,2.08,1.26,3.1
					c0.35,0.62,0.7,1.26,0.96,1.93c1.34,3.45,0.07,7.27-1.39,10.9h1.78c1.46-3.6,2.76-7.39,1.46-10.74
					c-0.25-0.64-0.6-1.27-0.93-1.87c-0.57-1.02-1.16-2.08-1.31-3.27c-0.28-2.16,0.91-4.06,2.06-5.89c0.94-1.5,1.91-3.06,2.08-4.75
					c0.22-2.18-0.86-4.11-2-6.16c-0.53-0.96-1.09-1.95-1.49-2.97c-1.08-2.73-1.11-5.87-0.07-8.61c0.45-1.19,1.09-2.31,1.72-3.4
					c0.93-1.63,1.82-3.17,2.13-4.94c0.54-3.06-0.74-5.91-2.09-8.93c-0.57-1.27-1.15-2.57-1.58-3.89c-1.14-3.47-1.15-7.28-0.18-10.82
					h-1.8c-0.98,3.48-0.98,7.25,0.14,10.68c0.42,1.29,1,2.59,1.56,3.84c1.32,2.95,2.68,6,2.12,9.2
					C-223.6-11.29-224.55-9.65-225.46-8.05z"/>
				<path class="st17" d="M-223.59-8.28c-0.62,1.09-1.27,2.21-1.72,3.4c-1.04,2.74-1.01,5.88,0.07,8.61
					c0.4,1.02,0.96,2.01,1.49,2.97c1.14,2.05,2.22,3.98,2,6.16c-0.17,1.7-1.14,3.25-2.08,4.75c-1.15,1.83-2.33,3.73-2.06,5.89
					c0.15,1.19,0.74,2.25,1.31,3.27c0.34,0.61,0.69,1.23,0.93,1.87c1.3,3.35,0,7.14-1.46,10.74h0.49c1.47-3.63,2.73-7.45,1.39-10.9
					c-0.26-0.67-0.62-1.31-0.96-1.93c-0.57-1.03-1.11-2-1.26-3.1c-0.26-2,0.83-3.75,1.99-5.59c0.97-1.55,1.97-3.15,2.15-4.95
					c0.23-2.32-0.93-4.41-2.05-6.43c-0.53-0.95-1.07-1.93-1.47-2.92c-1.04-2.62-1.07-5.64-0.07-8.28c0.44-1.15,1.07-2.26,1.69-3.33
					c0.91-1.59,1.86-3.24,2.18-5.08c0.56-3.2-0.8-6.25-2.12-9.2c-0.56-1.26-1.14-2.55-1.56-3.84c-1.12-3.43-1.12-7.19-0.14-10.68
					h-0.47c-0.97,3.53-0.96,7.35,0.18,10.82c0.43,1.31,1.01,2.62,1.58,3.89c1.35,3.02,2.62,5.87,2.09,8.93
					C-221.77-11.45-222.65-9.91-223.59-8.28z"/>
				<path class="st27" d="M-223.19-8.05c-0.61,1.07-1.25,2.18-1.69,3.33c-1,2.64-0.97,5.66,0.07,8.28c0.39,0.99,0.94,1.97,1.47,2.92
					c1.12,2.02,2.29,4.1,2.05,6.43c-0.18,1.8-1.18,3.4-2.15,4.95c-1.16,1.85-2.25,3.59-1.99,5.59c0.14,1.1,0.68,2.08,1.26,3.1
					c0.35,0.62,0.7,1.26,0.96,1.93c1.34,3.45,0.07,7.27-1.39,10.9l1.78,0c1.46-3.6,2.76-7.39,1.46-10.74
					c-0.25-0.64-0.6-1.27-0.93-1.87c-0.57-1.02-1.16-2.08-1.31-3.27c-0.28-2.16,0.91-4.06,2.06-5.89c0.34-0.54,0.68-1.09,0.99-1.64
					V8.38c-0.28-0.56-0.59-1.11-0.9-1.68c-0.53-0.96-1.09-1.95-1.49-2.97c-1.08-2.73-1.11-5.87-0.07-8.61
					c0.45-1.19,1.09-2.31,1.72-3.4c0.26-0.45,0.51-0.89,0.75-1.34v-10.92c-0.23-0.53-0.47-1.07-0.71-1.61
					c-0.57-1.27-1.15-2.57-1.58-3.89c-1.14-3.47-1.15-7.28-0.18-10.82h-1.8c-0.98,3.48-0.98,7.25,0.14,10.68
					c0.42,1.29,1,2.59,1.56,3.84c1.32,2.95,2.68,6,2.12,9.2C-221.34-11.29-222.28-9.65-223.19-8.05z"/>
				<path class="st17" d="M-222.31,26.77c0.34,0.61,0.69,1.23,0.93,1.87c1.29,3.33-0.05,7.15-1.5,10.74h0.53
					c0.75-1.86,1.45-3.77,1.77-5.65v-3.97c-0.09-0.43-0.21-0.86-0.38-1.28c-0.26-0.67-0.62-1.31-0.96-1.93
					c-0.57-1.03-1.11-2-1.26-3.1c-0.26-2,0.83-3.75,1.99-5.59c0.2-0.32,0.4-0.65,0.6-0.98v-0.91c-0.31,0.56-0.65,1.1-0.99,1.64
					c-1.15,1.83-2.33,3.73-2.06,5.89C-223.46,24.69-222.87,25.75-222.31,26.77z"/>
				<path class="st27" d="M-220.57,39.38v-5.65c-0.32,1.88-1.02,3.79-1.77,5.65H-220.57z"/>
			</g>
			<polygon class="st37" points="-220.02,11.46 -222.56,8.79 -219.89,6.24 -217.35,8.91 			"/>
			<polygon class="st37" points="-238.85,34.75 -235.26,35.6 -236.11,39.19 -239.7,38.34 			"/>
			<polygon class="st23" points="-221.77,11.33 -222.38,14.22 -225.27,13.61 -224.66,10.72 			"/>
		</g>
	</g>
	<g transform="translate(1090.0 564.0) scale(0.9432314410480349 0.9433333333333334) rotate(0.0 114.5 150.0)">
		<g transform="translate(-0.0 -0.0)">
			<g>
				<g>
					<path class="st40" d="M-550.56-173.84c-0.35,0-0.7-0.11-1-0.33c-0.74-0.55-0.9-1.61-0.34-2.35l15.06-20.18
						c0.55-0.74,1.61-0.9,2.35-0.34c0.74,0.55,0.9,1.61,0.34,2.35l-15.06,20.18C-549.54-174.07-550.05-173.84-550.56-173.84z"/>
				</g>
				<g>
					<path class="st2" d="M-478.36-286.1c-6.09,8.54-12.97,18.27-19.95,28.26c-24.43,34.96-50.06,73.17-47.05,75.45
						c3.68,2.79,32.95-32.77,59.3-66.34c7.52-9.59,14.81-19.01,21.19-27.33c6.8-8.86,12.57-16.47,16.52-21.71
						c3.12-4.14,2.48-9.88-1.43-12.79l0,0c-3.94-2.93-9.68-1.86-12.74,2.37C-466.36-302.87-471.91-295.15-478.36-286.1z"/>
					<polygon class="st0" points="-454.54,-302.45 -453.43,-294.86 -461.03,-293.75 -462.14,-301.34 					"/>
					<path class="st0" d="M-468.2-279.15l-2.3-15.74l-1.77,0.26c-1.91,2.67-3.95,5.53-6.09,8.53c-1.85,2.6-3.78,5.32-5.77,8.11
						l0.17,1.14L-468.2-279.15z"/>
					<path class="st0" d="M-485.8-265.54l1.76,12.06l1.9-0.28c2.99-3.83,5.92-7.6,8.75-11.26l-0.33-2.29L-485.8-265.54z"/>
					<polygon class="st0" points="-494.68,-252.44 -493.83,-246.69 -499.59,-245.85 -500.44,-251.6 					"/>
				</g>
				<polygon class="st0" points="-450.8,-318.2 -442.05,-311.69 -446.77,-305.36 -455.52,-311.87 				"/>
				<g>
					<path class="st0" d="M-472.61-255.18c-0.55,0-1.06-0.36-1.21-0.92c-1.4-4.94,0.67-10.75,5.54-15.54
						c1.98-1.95,4.2-3.61,6.36-5.23c2.05-1.54,4.17-3.12,6-4.91c5.52-5.38,8.72-12.89,8.78-20.6c0.01-0.88-0.04-1.78-0.44-2.38
						c-0.21-0.32-0.84-0.56-1.56-0.84c-0.96-0.37-2.16-0.84-3.34-1.81c-0.25-0.21-0.49-0.4-0.71-0.58
						c-1.42-1.14-2.54-2.04-3.32-4.27c-0.23-0.66,0.11-1.37,0.77-1.61c0.66-0.23,1.38,0.11,1.61,0.77c0.55,1.55,1.21,2.08,2.53,3.15
						c0.23,0.19,0.48,0.39,0.74,0.6c0.86,0.72,1.77,1.06,2.64,1.4c1.02,0.4,2.09,0.81,2.74,1.79c0.78,1.16,0.87,2.51,0.87,3.79
						c-0.06,8.37-3.53,16.53-9.54,22.38c-1.95,1.9-4.14,3.54-6.25,5.12c-2.09,1.56-4.25,3.18-6.1,5c-4.2,4.14-6.03,9.02-4.88,13.06
						c0.19,0.67-0.2,1.36-0.87,1.55C-472.38-255.2-472.49-255.18-472.61-255.18z"/>
				</g>
			</g>
			<polygon class="st17" points="-532.49,-198.79 -530.33,-196.62 -532.49,-194.46 -534.66,-196.62 			"/>
		</g>
	</g>
	
		<g transform="translate(478.0 158.0) scale(1.9136363636363636 1.9085714285714286) rotate(320.73803875321966 109.99999999999999 175.0)">
		<g transform="translate(-0.0 -0.0)">
			<path class="st0" d="M63.6-20.18c7.09,4.18,12.12,10.34,14.61,17c9.87-6.54,20-17.44,28.14-31.24
				c16.6-28.13,4.59-65.97,4.59-65.97s-38.93,7.77-55.53,35.91c-8.14,13.8-12.79,27.93-13.74,39.73
				C48.69-25.79,56.51-24.36,63.6-20.18z"/>
			<path class="st31" d="M94.28-57.06c1.88,1.11,3.4,2.59,4.54,4.29c0.44-5.2-2.06-10.43-6.85-13.26
				c-6.67-3.94-15.27-1.72-19.21,4.95c-2.83,4.79-2.48,10.58,0.41,14.92c0.17-2.04,0.79-4.07,1.9-5.94
				C79.01-58.78,87.61-61,94.28-57.06z"/>
			<path class="st31" d="M96.92-46.83c1.11-1.88,1.73-3.91,1.9-5.94c-1.13-1.7-2.66-3.18-4.54-4.29
				c-6.67-3.94-15.27-1.72-19.21,4.95c-1.11,1.88-1.73,3.91-1.9,5.94c1.13,1.7,2.66,3.18,4.54,4.29
				C84.38-37.94,92.98-40.16,96.92-46.83z"/>
			<path class="st2" d="M99.66-33.88L76.34-5.16l9.25,20.33C98.23-2.8,102.53-19.07,99.66-33.88z"/>
			<path class="st2" d="M59.54-57.56l-13.87,34.3l-22.26,1.73C33.02-41.29,45.18-52.92,59.54-57.56z"/>
			<g>
				<path class="st2" d="M109.44-96.71c-0.13,0-0.26-0.03-0.38-0.1c-0.35-0.21-0.47-0.67-0.26-1.02l12.4-21.01
					c0.21-0.35,0.67-0.47,1.02-0.26c0.35,0.21,0.47,0.67,0.26,1.02l-12.4,21.01C109.94-96.84,109.69-96.71,109.44-96.71z"/>
			</g>
			<g>
				<path class="st41" d="M57.02,38.73c-0.02,0-0.05,0-0.07-0.01c-0.13-0.04-0.21-0.18-0.17-0.31c3.17-10.77,5.45-20.72,7.41-32.26
					c0.02-0.13,0.15-0.23,0.29-0.2c0.14,0.02,0.23,0.15,0.2,0.29c-1.96,11.56-4.25,21.53-7.43,32.32
					C57.22,38.66,57.12,38.73,57.02,38.73z"/>
			</g>
			<g>
				<path class="st41" d="M17.99,15.7c-0.06,0-0.13-0.02-0.18-0.07c-0.1-0.1-0.1-0.25,0-0.35c7.91-7.99,15.53-14.81,24.7-22.12
					c0.11-0.09,0.26-0.07,0.35,0.04c0.09,0.11,0.07,0.26-0.04,0.35C33.67,0.83,26.06,7.64,18.16,15.62
					C18.12,15.67,18.05,15.7,17.99,15.7z"/>
			</g>
			<polygon class="st42" points="53.11,49.22 51.09,43.78 56.53,41.76 58.55,47.2 			"/>
			
				<rect x="19.81" y="39.45" transform="matrix(-0.7423 0.6701 -0.6701 -0.7423 67.9346 58.5785)" class="st43" width="5.79" height="5.81"/>
			<polygon class="st41" points="23.1,4.24 21.72,0.54 25.43,-0.84 26.8,2.87 			"/>
			<g>
				<path class="st41" d="M27.6,36.55c-0.04,0-0.09-0.01-0.13-0.03c-0.12-0.07-0.16-0.22-0.09-0.34L45.06,6.21
					c0.07-0.12,0.22-0.16,0.34-0.09c0.12,0.07,0.16,0.22,0.09,0.34L27.81,36.43C27.76,36.51,27.68,36.55,27.6,36.55z"/>
			</g>
			<g>
				<path class="st41" d="M47.1,30.79c-0.03,0-0.06,0-0.09-0.02c-0.13-0.05-0.19-0.19-0.15-0.32l3.05-8.15
					c0.05-0.13,0.19-0.19,0.32-0.15c0.13,0.05,0.19,0.19,0.15,0.32l-3.05,8.15C47.29,30.72,47.2,30.79,47.1,30.79z"/>
			</g>
			<g>
				<path class="st2" d="M84.82-37.45c-2.94,0-5.84-0.79-8.38-2.29c-3.8-2.24-6.5-5.83-7.6-10.1c-1.1-4.27-0.47-8.72,1.77-12.51
					c2.96-5.01,8.41-8.12,14.23-8.12c2.94,0,5.84,0.79,8.38,2.29c7.84,4.63,10.46,14.77,5.83,22.61
					C96.1-40.56,90.65-37.45,84.82-37.45z M84.85-65.5c-4.07,0-7.88,2.18-9.95,5.68c-1.57,2.65-2.01,5.76-1.24,8.74
					c0.77,2.98,2.65,5.49,5.31,7.06c1.78,1.05,3.8,1.6,5.85,1.6c4.07,0,7.88-2.18,9.95-5.68c3.23-5.48,1.41-12.57-4.07-15.8
					C88.92-64.95,86.9-65.5,84.85-65.5z"/>
			</g>
			<path class="st2" d="M115.94-69.59c0.43-17.71-4.17-32.2-4.17-32.2s-14.91,2.98-30.2,11.91L115.94-69.59z"/>
		</g>
	</g>
	<g transform="translate(1417.0 418.0) scale(0.29 0.29) rotate(12.669303120336789 50.0 50.0)">
		<g transform="translate(-0.0 -0.0)">
			<path class="st23" d="M-2450.5-179.05c-15.9,0.94-31.54,0.94-46.91,0c-0.7-16.64-0.81-32.42,0-46.91
				c15.64-0.67,31.27-0.67,46.91,0C-2449.61-210.81-2449.67-195.14-2450.5-179.05z"/>
		</g>
	</g>
	<g transform="translate(200.0 557.0) scale(0.24 0.24) rotate(340.9948001192853 50.0 50.0)">
		<g transform="translate(-0.0 -0.0)">
			<path class="st1" d="M226.64-1208.11c-15.9,0.94-31.54,0.94-46.91,0c-0.7-16.64-0.81-32.42,0-46.91
				c15.64-0.67,31.27-0.67,46.91,0C227.53-1239.87,227.47-1224.2,226.64-1208.11z"/>
		</g>
	</g>
	<g transform="translate(811.0 286.0) scale(0.19 0.19) rotate(32.51808079299107 50.0 50.0)">
		<g transform="translate(-0.0 -0.0)">
			<path class="st0" d="M-2072.95,437.58c-15.9,0.94-31.54,0.94-46.91,0c-0.7-16.64-0.81-32.42,0-46.91
				c15.64-0.67,31.27-0.67,46.91,0C-2072.06,405.81-2072.12,421.49-2072.95,437.58z"/>
		</g>
	</g>
	<g transform="translate(159.0 497.0) scale(0.13 0.13) rotate(332.00220805094267 49.99999999999999 49.99999999999999)">
		<g transform="translate(-0.0 -0.0)">
			<path class="st0" d="M763.74-1901.21c-15.9,0.94-31.54,0.94-46.91,0c-0.7-16.64-0.81-32.42,0-46.91
				c15.64-0.67,31.27-0.67,46.91,0C764.63-1932.97,764.57-1917.3,763.74-1901.21z"/>
		</g>
	</g>
	<g transform="translate(653.0 794.0) scale(0.15 0.15) rotate(333.22203707920954 50.0 50.0)">
		<g transform="translate(-0.0 -0.0)">
			<path class="st0" d="M-428.95-3341.76c-15.9,0.94-31.54,0.94-46.91,0c-0.7-16.64-0.81-32.42,0-46.91
				c15.64-0.67,31.27-0.67,46.91,0C-428.06-3373.53-428.12-3357.85-428.95-3341.76z"/>
		</g>
	</g>
	<g transform="translate(974.0 715.0) scale(0.21 0.21) rotate(14.57762872916513 50.0 50.0)">
		<g transform="translate(-0.0 -0.0)">
			<path class="st0" d="M-2535.09-1137.44c-15.9,0.94-31.54,0.94-46.91,0c-0.7-16.64-0.81-32.42,0-46.91
				c15.64-0.67,31.27-0.67,46.91,0C-2534.2-1169.2-2534.27-1153.53-2535.09-1137.44z"/>
		</g>
	</g>
	<g transform="translate(242.0 376.0) scale(0.2 0.2) rotate(32.22595091271926 50.0 50.0)">
		<g transform="translate(-0.0 -0.0)">
			<path class="st0" d="M-845.04-576.01c-15.9,0.94-31.54,0.94-46.91,0c-0.7-16.64-0.81-32.42,0-46.91
				c15.64-0.67,31.27-0.67,46.91,0C-844.15-607.77-844.22-592.1-845.04-576.01z"/>
		</g>
	</g>
	
		<g transform="translate(959.0 571.0) scale(0.8666666666666667 0.8663594470046083) rotate(16.521317118282376 59.99999999999999 108.5)">
		<g transform="translate(-0.0 -0.0)">
			
				<rect x="-571.04" y="-136.13" transform="matrix(2.221255e-06 1 -1 2.221255e-06 -696.7551 427.7603)" class="st42" width="17.56" height="3.26"/>
			
				<linearGradient id="SVGID_2_" gradientUnits="userSpaceOnUse" x1="-1009.303" y1="238.8242" x2="-1006.0477" y2="238.8242" gradientTransform="matrix(0.8309 0.2464 -0.2465 0.8306 282.0013 -33.7688)">
				<stop  offset="0" style="stop-color:#81AEF2"/>
				<stop  offset="1" style="stop-color:#78A9EF"/>
			</linearGradient>
			<polygon style="fill:url(#SVGID_2_);" points="-615.47,-92.85 -612.22,-92.85 -612.22,-75.28 -615.47,-75.28 			"/>
			
				<rect x="-637.14" y="-146.45" transform="matrix(2.221256e-06 1 -1 2.221256e-06 -709.121 467.3253)" class="st4" width="97.82" height="51.1"/>
			
				<rect x="-594.62" y="-174.31" transform="matrix(2.221256e-06 1 -1 2.221256e-06 -742.6166 433.8298)" class="st17" width="12.79" height="39.83"/>
			<g>
				
					<rect x="-606.42" y="-133.55" transform="matrix(2.221256e-06 1 -1 2.221256e-06 -730.5045 472.8676)" class="st0" width="9.48" height="9.46"/>
				
					<rect x="-592.96" y="-133.55" transform="matrix(2.221256e-06 1 -1 2.221256e-06 -717.0419 459.405)" class="st0" width="9.48" height="9.46"/>
				
					<rect x="-579.5" y="-133.55" transform="matrix(2.221256e-06 1 -1 2.221256e-06 -703.5793 445.9424)" class="st0" width="9.48" height="9.46"/>
				
					<rect x="-606.42" y="-119.51" transform="matrix(2.221256e-06 1 -1 2.221256e-06 -716.4688 486.9033)" class="st0" width="9.48" height="9.46"/>
				
					<rect x="-592.96" y="-119.51" transform="matrix(2.221256e-06 1 -1 2.221256e-06 -703.0062 473.4406)" class="st0" width="9.48" height="9.46"/>
				
					<rect x="-579.5" y="-119.51" transform="matrix(2.221256e-06 1 -1 2.221256e-06 -689.5436 459.978)" class="st0" width="9.48" height="9.46"/>
				
					<rect x="-606.42" y="-105.48" transform="matrix(2.221256e-06 1 -1 2.221256e-06 -702.433 500.9389)" class="st0" width="9.48" height="9.46"/>
				
					<rect x="-592.96" y="-105.48" transform="matrix(2.221256e-06 1 -1 2.221256e-06 -688.9704 487.4763)" class="st0" width="9.48" height="9.46"/>
				
					<rect x="-579.5" y="-105.48" transform="matrix(2.221256e-06 1 -1 2.221256e-06 -675.5078 474.0137)" class="st0" width="9.48" height="9.46"/>
			</g>
			
				<rect x="-602.28" y="-148.4" transform="matrix(2.221256e-06 1 -1 2.221256e-06 -740.764 459.6136)" class="st0" width="4.19" height="15.65"/>
			
				<rect x="-593.56" y="-95.72" transform="matrix(2.221256e-06 1 -1 2.221256e-06 -672.6143 504.841)" class="st0" width="9.66" height="23.66"/>
			
				<rect x="-604.92" y="-145.76" transform="matrix(2.221256e-06 1 -1 2.221256e-06 -743.4022 462.2518)" class="st23" width="4.19" height="10.37"/>
			<g>
				<path class="st45" d="M-589.93-110.91v-1.51c0.93,0,1.69-0.76,1.69-1.7c0-0.93-0.76-1.69-1.69-1.69v-1.51
					c1.76,0,3.19,1.44,3.19,3.2C-586.74-112.35-588.17-110.91-589.93-110.91z"/>
			</g>
			<g>
				<path class="st45" d="M-574.05-126.54c-1.76,0-3.19-1.44-3.19-3.2c0-1.76,1.43-3.2,3.19-3.2v1.51c-0.93,0-1.69,0.76-1.69,1.7
					c0,0.93,0.76,1.69,1.69,1.69V-126.54z"/>
			</g>
			<g>
				<path class="st45" d="M-590.23-79.94v-1.51c1.37,0,2.48-1.12,2.48-2.49c0-1.37-1.11-2.49-2.48-2.49v-1.51
					c2.2,0,3.99,1.79,3.99,3.99C-586.25-81.73-588.03-79.94-590.23-79.94z"/>
			</g>
			<g>
				<path class="st45" d="M-590.16-98.54v-1.51c0.93,0,1.69-0.76,1.69-1.69s-0.76-1.7-1.69-1.7v-1.51c1.76,0,3.19,1.44,3.19,3.2
					C-586.96-99.98-588.4-98.54-590.16-98.54z"/>
			</g>
			<g>
				
					<rect x="-588.1" y="-100.86" transform="matrix(2.221256e-06 1 -1 2.221256e-06 -685.3951 489.2967)" class="st45" width="1.51" height="5.62"/>
			</g>
			<g>
				
					<rect x="-587.92" y="-120.46" transform="matrix(2.221256e-06 1 -1 2.221256e-06 -704.813 469.5275)" class="st45" width="1.51" height="5.62"/>
			</g>
			<g>
				
					<rect x="-603.38" y="-133.89" transform="matrix(2.221256e-06 1 -1 2.221256e-06 -733.7068 471.5568)" class="st45" width="1.51" height="5.62"/>
			</g>
			<g>
				<polygon class="st45" points="-574.4,-118.42 -573.21,-117.5 -576.65,-113.05 -577.84,-113.97 				"/>
			</g>
			<g>
				
					<rect x="-603.56" y="-117.52" transform="matrix(2.221256e-06 1 -1 2.221256e-06 -717.5106 488.1043)" class="st45" width="1.51" height="5.62"/>
			</g>
			<g>
				
					<rect x="-604.01" y="-127.55" transform="matrix(2.221255e-06 1 -1 2.221255e-06 -728.8751 475.2813)" class="st45" width="3.87" height="1.5"/>
			</g>
			<g>
				
					<rect x="-603.18" y="-101.71" transform="matrix(2.221256e-06 1 -1 2.221256e-06 -700.9312 499.0079)" class="st45" width="6.42" height="1.5"/>
			</g>
			<g>
				<polygon class="st45" points="-572,-98.65 -576.19,-100.58 -572.32,-103.62 -571.39,-102.44 -573.33,-100.92 -571.37,-100.02 
									"/>
			</g>
			<g>
				<polygon class="st45" points="-585.17,-126.47 -589.37,-128.39 -585.5,-131.44 -584.57,-130.26 -586.51,-128.73 
					-584.55,-127.83 				"/>
			</g>
			<g>
				<polygon class="st45" points="-590.7,-126.47 -591.33,-127.83 -589.37,-128.73 -591.31,-130.26 -590.38,-131.44 
					-586.51,-128.39 				"/>
			</g>
			
				<rect x="-603.63" y="-155.42" transform="matrix(2.221256e-06 1 -1 2.221256e-06 -756.1501 449.7723)" class="st46" width="1.34" height="4.46"/>
			
				<rect x="-601.28" y="-158.43" transform="matrix(2.221253e-06 1 -1 2.221253e-06 -756.809 441.2974)" class="st46" width="4.46" height="1.34"/>
			
				<rect x="-601.28" y="-152.1" transform="matrix(2.221254e-06 1 -1 2.221254e-06 -750.486 447.6204)" class="st46" width="4.46" height="1.34"/>
			
				<rect x="-595.71" y="-161.47" transform="matrix(2.221255e-06 1 -1 2.221255e-06 -754.2787 435.79)" class="st46" width="1.34" height="4.46"/>
			
				<rect x="-597.38" y="-152.1" transform="matrix(2.221259e-06 1 -1 2.221259e-06 -746.5776 443.712)" class="st46" width="4.46" height="1.34"/>
			
				<rect x="-593.47" y="-158.43" transform="matrix(2.221256e-06 1 -1 2.221256e-06 -748.9923 433.4807)" class="st46" width="4.46" height="1.34"/>
			
				<rect x="-591.96" y="-150.6" transform="matrix(2.221255e-06 1 -1 2.221255e-06 -741.1638 441.3091)" class="st46" width="1.45" height="1.34"/>
			
				<rect x="-589.56" y="-158.43" transform="matrix(2.221257e-06 1 -1 2.221257e-06 -745.084 429.5724)" class="st46" width="4.46" height="1.34"/>
			<polygon class="st46" points="-586.83,-153.32 -585.89,-152.37 -589.04,-149.22 -589.98,-150.16 			"/>
			<polygon class="st46" points="-582.32,-159.81 -581.37,-158.86 -584.52,-155.71 -585.47,-156.65 			"/>
			
				<rect x="-585.65" y="-152.1" transform="matrix(2.221256e-06 1 -1 2.221256e-06 -734.8527 431.987)" class="st46" width="4.46" height="1.34"/>
			
				<rect x="-581.74" y="-152.1" transform="matrix(2.221255e-06 1 -1 2.221255e-06 -730.9443 428.0787)" class="st46" width="4.46" height="1.34"/>
			
				<rect x="-577.84" y="-158.43" transform="matrix(2.221257e-06 1 -1 2.221257e-06 -733.3595 417.8479)" class="st46" width="4.46" height="1.34"/>
			
				<rect x="-576.27" y="-152.28" transform="matrix(2.221256e-06 1 -1 2.221256e-06 -725.6559 425.551)" class="st46" width="1.34" height="4.46"/>
			
				<rect x="-573.93" y="-158.43" transform="matrix(2.221256e-06 1 -1 2.221256e-06 -729.4507 413.9391)" class="st46" width="4.46" height="1.34"/>
			
				<rect x="-573.93" y="-152.1" transform="matrix(2.221257e-06 1 -1 2.221257e-06 -723.1277 420.2621)" class="st46" width="4.46" height="1.34"/>
			<polygon class="st27" points="-603.97,-163.72 -600,-161.95 -601.77,-157.98 -605.73,-159.74 			"/>
			<polygon class="st17" points="-605.14,-167.23 -601.17,-165.46 -602.94,-161.49 -606.9,-163.25 			"/>
			<polygon class="st22" points="-581.26,-176.39 -579.77,-174.43 -581.72,-172.94 -583.21,-174.9 			"/>
			<polygon class="st22" points="-590.77,-171.38 -589.28,-169.42 -591.24,-167.92 -592.73,-169.88 			"/>
			<polygon class="st22" points="-559.22,-163.34 -557.73,-161.39 -559.68,-159.89 -561.18,-161.85 			"/>
			<g>
				<path class="st23" d="M-571.81-156.01c-0.06,0-0.12-0.02-0.17-0.06c-0.1-0.09-0.11-0.25-0.02-0.35
					c3.09-3.48,7.04-6.13,11.43-7.69c0.13-0.05,0.27,0.02,0.32,0.15c0.05,0.13-0.02,0.27-0.15,0.32c-4.3,1.52-8.18,4.13-11.22,7.55
					C-571.67-156.04-571.74-156.01-571.81-156.01z"/>
			</g>
			<g>
				<path class="st23" d="M-591.94-158.72c-0.11,0-0.22-0.08-0.24-0.19c-0.69-2.85-1.89-5.51-3.57-7.91
					c-0.08-0.11-0.05-0.27,0.06-0.35c0.11-0.08,0.27-0.05,0.35,0.06c1.71,2.45,2.94,5.17,3.64,8.08c0.03,0.13-0.05,0.27-0.18,0.3
					C-591.9-158.72-591.92-158.72-591.94-158.72z"/>
			</g>
			<g>
				<path class="st23" d="M-589.22-163.37c-0.01,0-0.03,0-0.04,0c-0.14-0.02-0.23-0.15-0.21-0.29c0.72-4.49,2.61-8.74,5.48-12.28
					c0.09-0.11,0.24-0.12,0.35-0.04c0.11,0.09,0.12,0.25,0.04,0.35c-2.81,3.47-4.67,7.64-5.37,12.04
					C-588.99-163.46-589.1-163.37-589.22-163.37z"/>
			</g>
		</g>
	</g>
	<g transform="translate(334.0 525.0) scale(0.8268548827059465 0.8219154625700269) rotate(336.7102611708789 117.312 175.2005)">
		<g transform="translate(-0.0 -0.0)">
			<polygon class="st0" points="92.58,-273.16 98.36,-273.16 98.36,-248.41 92.58,-248.41 			"/>
			
				<rect x="79.13" y="-325.42" transform="matrix(-0.9403 -0.3403 0.3403 -0.9403 268.9908 -576.326)" class="st23" width="9.67" height="27.34"/>
			
				<rect x="101.2" y="-389.73" transform="matrix(-0.9403 -0.3403 0.3403 -0.9403 336.2942 -693.1428)" class="st0" width="12.34" height="27.34"/>
			
				<rect x="83.48" y="-384.08" transform="matrix(-0.9403 -0.3403 0.3403 -0.9403 305.6961 -640.0337)" class="st0" width="26.49" height="74.51"/>
			<path class="st0" d="M79.21-234.65l26.46,0l0-18.04c0-7.31-5.92-13.23-13.23-13.23l0,0c-7.31,0-13.23,5.92-13.23,13.23
				L79.21-234.65L79.21-234.65z"/>
			<g>
				<path class="st0" d="M94.03-249.85l0-9.62c23.08,0,41.86-18.78,41.86-41.86c0-23.08-18.78-41.86-41.86-41.86v-9.62
					c28.39,0,51.49,23.1,51.49,51.49C145.52-272.95,122.42-249.85,94.03-249.85z"/>
			</g>
			<ellipse class="st3" cx="108.94" cy="-347.05" rx="7.96" ry="7.91"/>
			<ellipse class="st3" cx="92.44" cy="-253.7" rx="7.96" ry="7.91"/>
			<polygon class="st0" points="49.28,-275.84 98.36,-275.84 98.36,-270.06 49.28,-270.06 			"/>
			<path class="st3" d="M32.61-222.89l90.74,0v-3.63c0-4.68-3.79-8.47-8.47-8.47l-73.79,0c-4.68,0-8.47,3.79-8.47,8.47L32.61-222.89
				z"/>
		</g>
	</g>
	<g transform="translate(384.0 311.0) scale(0.6636673559492539 0.6623579944602785) rotate(351.1974255578803 71.572 99.644)">
		<g transform="translate(-0.0 -0.0)">
			<polygon class="st3" points="-136.99,-238.87 -136.99,-292.74 -160.02,-292.74 -160.02,-239.06 -182.86,-196.84 -149.92,-196.84 
				-146.92,-196.84 -113.98,-196.84 			"/>
			
				<rect x="-155.75" y="-292.74" transform="matrix(-1 2.286587e-06 -2.286587e-06 -1 -296.839 -536.9001)" class="st3" width="14.66" height="48.58"/>
			<polygon class="st0" points="-141.16,-238.03 -141.16,-251.28 -155.81,-251.28 -155.81,-238.15 -175.2,-200.61 -154.47,-200.61 
				-141.53,-200.61 -120.8,-200.61 			"/>
			
				<rect x="-152.87" y="-209.68" transform="matrix(-1 2.286587e-06 -2.286587e-06 -1 -302.94 -416.5738)" class="st17" width="2.79" height="2.79"/>
			
				<rect x="-139.75" y="-206.89" transform="matrix(-1 2.286587e-06 -2.286587e-06 -1 -276.6971 -410.99)" class="st17" width="2.79" height="2.79"/>
			<polygon class="st17" points="-152.36,-215.48 -150.7,-216.16 -150.02,-214.5 -151.68,-213.82 			"/>
			<polygon class="st17" points="-155.2,-242.21 -153.55,-242.89 -152.86,-241.23 -154.52,-240.55 			"/>
			<polygon class="st17" points="-144.95,-217.63 -142.41,-215.45 -144.59,-212.92 -147.12,-215.09 			"/>
		</g>
	</g>
	
		<g transform="translate(319.0 421.0) scale(1.14072055515067 1.1341909977640234) rotate(336.91114374073754 15.779500000000002 46.2885)">
		<g transform="translate(-0.0 -0.0)">
			<path class="st3" d="M-9.12-226.13l-0.17,37.04c-0.01,4.15,2.57,7.5,7.38,7.51v0c4.33,0.01,7.63-3.34,7.63-7.49l0.17-37.06H-9.12
				z"/>
			<path class="st2" d="M-6.98-213.62l-0.15,23.96c0,2.96,2.34,5.14,5.23,5.14v-0.01c3.37,0,5.47-2.16,5.48-5.12l0.15-23.98
				L-6.98-213.62z"/>
			<polygon class="st17" points="-5.44,-203.56 -2.64,-203.56 -2.64,-200.76 -5.44,-200.76 			"/>
			<polygon class="st17" points="-1.59,-214.86 1.21,-214.86 1.21,-212.07 -1.59,-212.07 			"/>
			<polygon class="st17" points="-2.48,-190.69 0.1,-191.75 1.17,-189.17 -1.42,-188.11 			"/>
			<polygon class="st17" points="-2.08,-198.89 0.46,-196.72 -1.71,-194.18 -4.25,-196.35 			"/>
		</g>
	</g>
</g>
</svg>
