<?xml version="1.0" encoding="iso-8859-1" ?>
              <svg
                version="1.1"
                xmlns="http://www.w3.org/2000/svg"
                xmlns:xlink="http://www.w3.org/1999/xlink"
                viewBox="0 0 877.5 585"
                width="877.5"
                height="585"
              >
                <g transform="translate(377.213 185.015) scale(1.086 1.087) rotate(0 150.04604051565377 100.95676172953081)"><g clip-path="url(#clipPath_fIHlBCLkkO4x7WvT9a5x8)"><defs>
          <clipPath id="clipPath_fIHlBCLkkO4x7WvT9a5x8">
            <rect x="0" y="0" width="300" height="202" />
          </clipPath>
       </defs> <g>  <path fill="#151A4F" d="M299.664,110.28l-0.043-0.055c-0.005,0.035-0.013,0.067-0.018,0.099L299.664,110.28z"/>  <path fill="#151A4F" d="M273.174,161.199c0.323-0.319,0.643-0.639,0.961-0.961l-1.069,0.82L273.174,161.199z"/>  <path fill="#151A4F" d="M255.571,174.451l0.215,0.279c2.29-1.378,4.499-2.864,6.646-4.421l-0.537-0.698L255.571,174.451z"/>  <path fill="#151A4F" d="M293.455,131.391c1.041-2.44,1.963-4.937,2.794-7.469l-5.372,4.113L293.455,131.391z"/>  <polygon fill="#151A4F" points="278.249,147.729 273.399,141.416 279.724,136.577 284.574,142.889  "/>  <polygon fill="#151A4F" points="260.757,161.123 255.907,154.81 262.232,149.971 267.082,156.283  "/>  <polygon fill="#151A4F" points="243.265,174.519 238.415,168.207 244.74,163.367 249.59,169.68  "/>  <path fill="#151A4F" d="M228.752,185.629l3.322-2.543l-4.85-6.311l-6.322,4.841l3.747,4.876c0.326-0.061,0.649-0.103,0.976-0.165   C226.677,186.118,227.714,185.869,228.752,185.629z"/>  <path fill="#151A4F" d="M288.489,108.811l4.85,6.311l6.263-4.795c0.005-0.033,0.013-0.067,0.018-0.099l-4.807-6.257   L288.489,108.811z"/>  <polygon fill="#151A4F" points="277.304,117.377 282.154,123.69 275.829,128.529 270.979,122.217  "/>  <polygon fill="#151A4F" points="259.808,130.771 264.658,137.083 258.333,141.923 253.483,135.61  "/>  <polygon fill="#151A4F" points="242.315,144.166 247.165,150.478 240.84,155.318 235.99,149.005  "/>  <polygon fill="#151A4F" points="224.821,157.559 229.671,163.871 223.347,168.71 218.496,162.398  "/>  <polygon fill="#151A4F" points="293.675,95.482 288.825,89.169 295.15,84.33 300,90.643  "/>  <polygon fill="#151A4F" points="276.179,108.877 271.329,102.565 277.654,97.726 282.504,104.038  "/>  <polygon fill="#151A4F" points="258.682,122.271 253.831,115.959 260.156,111.12 265.006,117.432  "/>  <polygon fill="#151A4F" points="241.192,135.667 236.342,129.355 242.666,124.515 247.517,130.828  "/>  <polygon fill="#151A4F" points="223.703,149.062 218.853,142.75 225.177,137.911 230.028,144.223  "/>  <polygon fill="#151A4F" points="206.209,162.458 201.358,156.146 207.683,151.306 212.534,157.619  "/>  <polygon fill="#151A4F" points="292.732,65.133 297.582,71.446 291.257,76.285 286.407,69.973  "/>  <polygon fill="#151A4F" points="275.236,78.525 280.086,84.838 273.761,89.677 268.911,83.364  "/>  <polygon fill="#151A4F" points="257.744,91.92 262.594,98.232 256.27,103.071 251.419,96.759  "/>  <polygon fill="#151A4F" points="240.247,105.312 245.097,111.624 238.772,116.464 233.922,110.151  "/>  <polygon fill="#151A4F" points="222.752,118.707 227.602,125.02 221.278,129.859 216.427,123.547  "/>  <polygon fill="#151A4F" points="205.259,132.101 210.109,138.413 203.785,143.253 198.934,136.94  "/>  <path fill="#151A4F" d="M291.591,56.644l0.712-0.546c-1.134-2.463-2.374-4.858-3.707-7.188l-1.858,1.422L291.591,56.644z"/>  <polygon fill="#151A4F" points="274.111,70.024 269.26,63.712 275.585,58.872 280.435,65.185  "/>  <polygon fill="#151A4F" points="256.616,83.419 251.766,77.107 258.091,72.267 262.941,78.58  "/>  <polygon fill="#151A4F" points="239.123,96.816 234.273,90.504 240.598,85.664 245.448,91.977  "/>  <polygon fill="#151A4F" points="221.63,110.211 216.78,103.899 223.104,99.06 227.955,105.372  "/>  <polygon fill="#151A4F" points="204.138,123.605 199.287,117.293 205.612,112.454 210.462,118.766  "/>  <polygon fill="#151A4F" points="186.645,137.001 181.795,130.689 188.119,125.849 192.97,132.162  "/>  <polygon fill="#151A4F" points="273.171,39.674 278.021,45.986 271.696,50.826 266.846,44.513  "/>  <polygon fill="#151A4F" points="254.229,64.194 249.379,57.881 255.704,53.042 260.554,59.354  "/>  <polygon fill="#151A4F" points="236.739,77.591 231.888,71.279 238.213,66.439 243.064,72.752  "/>  <polygon fill="#151A4F" points="220.685,79.853 225.535,86.166 219.21,91.005 214.36,84.693  "/>  <polygon fill="#151A4F" points="203.192,93.249 208.042,99.562 201.718,104.401 196.867,98.088  "/>  <polygon fill="#151A4F" points="185.697,106.641 190.547,112.954 184.222,117.793 179.372,111.481  "/>  <path fill="#151A4F" d="M272.239,27.977c-1.841-1.764-3.738-3.461-5.714-5.066l4.566,5.942L272.239,27.977z"/>  <polygon fill="#151A4F" points="255.057,31.109 259.907,37.422 253.583,42.261 248.732,35.949  "/>  <polygon fill="#151A4F" points="236.118,55.632 231.267,49.32 237.592,44.48 242.442,50.793  "/>  <polygon fill="#151A4F" points="220.071,57.897 224.921,64.209 218.597,69.048 213.746,62.736  "/>  <polygon fill="#151A4F" points="202.577,71.291 207.427,77.604 201.103,82.443 196.252,76.131  "/>  <polygon fill="#151A4F" points="185.084,84.684 189.934,90.996 183.609,95.836 178.759,89.523  "/>  <polygon fill="#151A4F" points="166.146,109.213 161.295,102.901 167.62,98.062 172.471,104.374  "/>  <path fill="#151A4F" d="M251.212,23.024l6.322-4.841l-2.492-3.243c-1.209-0.713-2.432-1.403-3.673-2.061l-5.007,3.835   L251.212,23.024z"/>  <polygon fill="#151A4F" points="235.179,25.277 240.03,31.589 233.705,36.428 228.855,30.116  "/>  <polygon fill="#151A4F" points="217.685,38.67 222.535,44.983 216.21,49.822 211.36,43.51  "/>  <polygon fill="#151A4F" points="200.191,52.065 205.041,58.377 198.716,63.217 193.866,56.904  "/>  <polygon fill="#151A4F" points="182.697,65.459 187.547,71.771 181.222,76.61 176.372,70.298  "/>  <polygon fill="#151A4F" points="165.202,78.852 170.052,85.164 163.727,90.004 158.877,83.691  "/>  <path fill="#151A4F" d="M234.037,16.792l6.322-4.841l-4.233-5.509c-0.394-0.126-0.784-0.253-1.18-0.373l-5.761,4.41L234.037,16.792   z"/>  <polygon fill="#151A4F" points="218.005,19.046 222.855,25.358 216.53,30.198 211.68,23.885  "/>  <polygon fill="#151A4F" points="199.063,43.571 194.213,37.258 200.537,32.419 205.388,38.732  "/>  <polygon fill="#151A4F" points="181.569,56.965 176.718,50.653 183.043,45.814 187.894,52.126  "/>  <polygon fill="#151A4F" points="164.078,70.363 159.228,64.051 165.553,59.211 170.403,65.524  "/>  <polygon fill="#151A4F" points="146.583,83.758 141.732,77.445 148.057,72.606 152.908,78.919  "/>  <path fill="#151A4F" d="M214.155,10.961l6.322-4.841l-2.768-3.602c-1.69-0.183-3.392-0.307-5.101-0.398l-3.305,2.53L214.155,10.961   z"/>  <polygon fill="#151A4F" points="198.125,13.212 202.975,19.524 196.651,24.364 191.8,18.051  "/>  <polygon fill="#151A4F" points="180.629,26.606 185.48,32.919 179.155,37.758 174.304,31.446  "/>  <polygon fill="#151A4F" points="163.137,40 167.987,46.312 161.662,51.151 156.812,44.839  "/>  <polygon fill="#151A4F" points="145.641,53.392 150.492,59.705 144.167,64.544 139.316,58.232  "/>  <path fill="#151A4F" d="M200.136,2.314c-1.541,0.126-3.083,0.293-4.628,0.497l1.474,1.919L200.136,2.314z"/>  <polygon fill="#151A4F" points="180.949,6.981 185.799,13.293 179.474,18.133 174.624,11.82  "/>  <polygon fill="#151A4F" points="163.455,20.374 168.306,26.686 161.981,31.526 157.13,25.213  "/>  <polygon fill="#151A4F" points="145.959,33.767 150.81,40.08 144.485,44.919 139.634,38.607  "/>  <path fill="#151A4F" d="M133.329,53.467l-4.851-6.313l-1.293,0.989c-1.169,1.998-2.272,4.032-3.292,6.114l3.111,4.05   L133.329,53.467z"/> </g> <polygon fill="rgb(184,216,255)" points="129.951,185.974 17.069,202 0,82.198 112.883,66.172 "/> <g>  <polygon fill="rgb(164,195,255)" points="88.562,0 78.641,5.077 91.167,5.077  "/>  <polygon fill="rgb(164,195,255)" points="43.943,22.827 100.281,22.827 95.484,13.485 62.204,13.485  "/>  <polygon fill="rgb(164,195,255)" points="9.244,40.578 109.395,40.578 104.597,31.236 27.507,31.236  "/>  <polygon fill="rgb(164,195,255)" points="13.94,58.329 118.508,58.329 113.712,48.986 9.143,48.986  "/>  <polygon fill="rgb(164,195,255)" points="23.053,76.08 127.622,76.08 122.826,66.738 18.256,66.738  "/>  <polygon fill="rgb(164,195,255)" points="32.166,93.833 107.365,93.833 125.627,84.488 27.369,84.488  "/>  <polygon fill="rgb(164,195,255)" points="41.28,111.583 72.666,111.583 90.928,102.24 36.484,102.24  "/>  <polygon fill="rgb(164,195,255)" points="47.809,124.3 56.231,119.991 45.597,119.991  "/> </g> </g></g><g transform="translate(609.247 213.073) scale(1.364 1.366) rotate(0 87.67595307917888 73.66032210834553)"><g clip-path="url(#clipPath_hAIikBm5Jpp3Ae7oHWU9l)"><defs>
          <clipPath id="clipPath_hAIikBm5Jpp3Ae7oHWU9l">
            <rect x="0" y="0" width="175.336" height="147.358" />
          </clipPath>
       </defs><g><path d="M64.569 142.117c.003-1.323-.264-2.609-.212-3.955.997.035 2.358-.223 3.242.325.191.164.328.356.445.592 1.009-1.557 1.306-.332 2.43-.35 1.255-.02 1.137-1.185 2.452.282.95-1.594 3.302-.603 4.775-.67 1.848-.084 3.646-.104 5.476-.197l-.001-.002c-.237-.614-.25-1.176.364-1.732-1.382-.401-1.605-1.073-.792-2.219-1.334-.473-1.502-1.008-.727-2.27-.23.13-.556-.048-.977-.528-.342-1.077-.472-2.252-.775-3.255-.28-.929-1.126-1.12-.333-2.226-1.664-.428-1.614-3.238-2.125-4.524-.712-1.792-1.525-3.768-2.033-5.626-.491-1.798-.974-3.564-1.489-5.361-.334-1.165-1.981-3.277-1.017-4.398.182-.182.132-.305-.103-.364l-.171-.072c-.474-.39-.959-1.108-.998-1.728-.05-.796.566-1.039.024-1.661-.411-1.158 3.376.209 3.567.034 1.633-1.283 3.444.172 5.124-.556.182.199.518.394 1.005.587.426-.031 1.002-.511 1.505-.599.881-.154 1.698.163 2.558.179.769.014 1.492-.253 2.261-.258.952-.007 1.824.257 2.78.195 3.582-.233 7.245-.178 10.863-.107l.196.055v1.423l.01.024 1.375-.425.089.137c.449 1.241.693 2.494 1.124 3.716.396 1.123 1.543 2.69.429 3.778 1.675.448.786 1.073 1.052 2.133.297 1.182 1.467.626.477 2.342 1.116.25 1.413 1.396 1.666 2.396.306 1.211.756 2.198 1.129 3.381.372 1.179.619 2.2 1.065 3.342.361.925.916 2.278.071 3.084 1.382.442 1.605 1.17.737 2.216 1.389.316 1.55 1.403.717 2.25.247-.093.58.082.995.518.367 1.073 1.101 2.072.789 3.303-.274.822 1.133.881.343 2.168.198-.122.511.118.927.702 1.061.02 2.115.29 3.063.325 1.356.05 2.329-.501 3.8-.133.202.121.318.243.349.365.153.238.225.235.389.015 1.023-1.185 1.152-.009 2.079.015 1.119.029 1.12-1.176 2.286.082-.071-.229.296-.458 1.08-.674.611-.011.893.551 1.56.513.826-.047 1.713-.954 2.565-.35-.559 1.924.584 3.63.139 5.665-.071.507-.19 1.349-.873 1.366.344.529.592 1.132.745 1.695-.721.43-2.673.125-3.142-.678-.892 1.158-1.471 1.153-2.46-.011.052.265-.228.53-.834.787-.58-.004-1.16.134-1.739.1l-1.704-.382c-1.003-.023-1.462.748-2.293-.387-.936 1.487-3.69.55-5.123.638-2.069.127-4.497.32-6.554.123-1.956-.187-4.08-.24-6.05-.184-.934.026-1.955.422-2.898.157-.345-.097-1.352-.733-1.445-.583-1.074 1.353-1.308-.198-2.219-.193-.386.002-.548.802-1.156.766-.327-.02-.565-.532-.819-.531-.652.003-1.231.413-2.04.54-1.238.195-2.622-.54-3.796-.031-.186-.204-.533-.405-1.039-.603-.44.032-1.033.527-1.553.617-.91.158-1.754-.17-2.642-.186-.794-.014-1.541.26-2.335.269-.984.011-1.88-.281-2.87-.202-3.681.294-7.499.192-11.219.11l-.203-.056-1.437-.011-.052-1.511-.042-.16c-.04-1.154.17-2.233.173-3.361z" fill="rgb(104,153,250)"/><path d="M72.057 104.129c.177.544.495 1.071.94 1.437l.171.072c.235.059.285.182.103.364-.635.738-.006 2.252.401 3.008 2.119.666 4.293 1.818 6.343 2.695.957.41 1.926.8 2.88 1.205.501.213.933.567 1.466.718l1.381.128c.274.261.439.473.497.645 1.148.044 3.175 1.201 4.152 1.478.009.003.448.413.507.448.241.144.545-.204.73-.118.582.272.449 1.15 1.522.706-.34.187 2.815 1.473 3.014 1.561 1.436.635 2.817 1.381 4.26 1.986 1.226.514 2.472.967 3.708 1.467.976.395 2.811 1.711 3.879 1.132.311 1.146 1.633.844 2.435 1.351-.461-1.806-1.316-3.617-1.954-5.382-.487-1.348-.299-3.802-2.052-4.194.286-.496.545-1.03.353-1.599-.123-.363-.746-.325-.83-.743-.219-1.091.68-1.67-1.052-2.133 1.118-1.092-.031-2.65-.429-3.778-.437-1.239-.668-2.474-1.169-3.716-.013-.065-.045-.11-.096-.137l-1.509.425-.01-.024v-.477c-.275 0-.97-.297-1.27-.344-.16.134-.315.273-.465.418l-.399-.278c-1.223.148-2.47-.131-3.919-.098-.563.165-.827.329-.779.484-.787-.747-3.203-.339-4.294-.292-.412.182-.61.364-.597.538-.449-.689-1.286-.789-1.821.041-.586-.751-1.173-.741-1.797.062-.648-1.074-3.949-.498-5.002-.469-1.135.032-4.194-.353-4.875.716-.993-.893-.905-.136-1.837-.102-.852.031-1.052-.828-1.809.25-.095-.163-.221-.295-.377-.394-.146-.05-.296-.084-.449-.103-.112.254-.081.638.049 1.046z" fill="#382D16"/><path d="M.325 103.439c-.667-.512.632-6.575.805-7.423.547-2.678 1.365-5.146 1.371-7.916.006-2.549.413-4.907.777-7.421.321-2.22.7-4.502 2.77-5.785-.974-1.39-1.703-3.221-1.386-4.946.288-1.571 1.841-2.513 1.92-4.122.068-1.384-.952-2.494-.817-3.922.165-1.744 1.41-3.301 2.528-4.56-2.244-2.933-1.022-7.791-.356-11.147.412-2.078 1.086-4.068 1.251-6.195.169-2.171.073-4.324.366-6.491.292-2.159.932-4.196 1.414-6.312.436-1.911.356-3.721.392-5.659.042-2.247.548-4.589.895-6.807.293-1.873.907-3.886 2.636-4.921-.81-1.295-1.264-2.497-1.366-3.616-.402-1.564.446-4.305 1.098-5.699 1.608.324 3.147.823 4.33 1.494 2.542-2.254 6.902-2.685 9.259.036-.043-.591.96-1.18 2.994-1.758 4.28-.038 8.034-.299 12.259.48 1.591.293 2.824-.585 4.434-.636 1.557-.049 2.837.668 4.08 1.544-.206-.524 1.107-1.046 3.879-1.543l7.049.007c.941.001 1.919-.081 2.843.142.749.181 1.557.942 2.242 1.033.92.123 1.749-.659 2.606-.931.894-.283 1.817-.399 2.745-.223.697.133 1.316.441 1.927.792 1.203.691.989.845 2.189.405 1.572-.577 2.596-1.499 4.406-1.039 1.164.296 2.264 1.49 3.502 1.371.632-.061 1.398-.717 2.018-.96 1.009-.395 1.94-.549 3.019-.596 1.711-.074 3.459-.151 5.171-.101 2.025.059 3.985.564 6.019.532 1.663-.026 3.587-.744 5.195-.174 1.524.54 1.603 1.209 3.271.702 1.947-.591 3.433-.947 5.506-.928 1.997.018 4.01-.068 6.005.01 1.804.07 3.041.913 4.851.573 4.424-.833 8.658-.845 13.12-.176.731.263 1.153.528 1.265.794.554.518.815.511 1.41.033 1.195-.83 2.54-1.435 4.025-1.289 1.425.14 2.642 1.335 3.984 1.216 1.308-.116 2.333-1.226 3.777-1.234 1.487-.008 2.816.731 4.033 1.518-.257-.499 1.071-.996 3.914-1.465 2.265-.024 3.406 1.53 5.712.81 2.385-.745 5.244-1.302 7.672-.457-.669 1.985-1.541 3.69-1.355 5.815.168 1.919.422 3.713.161 5.645-.437 3.234-.096 8.819-3.433 10.653 2.237 3.367 1.888 5.999-1.048 8.761 2.057 3.544 1.764 5.621-1.229 8.828.597-.111 1.029.973 1.288 3.225-.585 4.142-.71 7.917-2.108 11.896-.547 1.558.23 2.814.043 4.459-.181 1.598-1.02 2.961-2.185 4.044 1.934 2.672.86 6.98.363 10.013-.286 1.743-.879 3.4-1.195 5.134-.363 1.995-.261 3.978-.353 5.99-.184 4.019-1.764 7.728-2.062 11.705-.279 3.721-.307 7.286-.908 11.003-2.104-.05-4.2-.177-6.296-.361-2.927-.462-5.738-.027-8.656.225-3.627.313-7.111-.525-10.715-.449-3.805.08-7.51.448-11.338.372-.945-.019-1.999.075-2.859-.393-.829-.451-1.367-1.852-2.375-.875-1.465 1.107-3.293 1.617-5.084 1.099-.818-.237-1.369-.799-2.107-1.123-1.217-.535-1.039-.141-2.13.502-1.136.669-2.521.927-3.794.597-1.07-.278-2.082-1.384-3.221-1.401-1.249-.019-2.61 1.238-3.884 1.465-1.447.258-3.026.146-4.5.177-3.862.081-7.819-1.105-11.623-.115-.674-.443-1.933-.881-3.765-1.312-1.238.055-2.316 1.115-3.573 1.286-1.067.145-2.236.067-3.312.093-3.056.074-6.01-.432-9.044-.467-2.85-.034-5.644.651-8.509.605-3.234-.051-6.358-.806-9.603-.459-3.02.323-5.966.689-9.005.271-3.407-.468-6.379-.168-9.785.108-3.563.289-6.998-.574-10.546-.485-3.809.095-7.519.421-11.344.37-.162-.042-.409-.082-.736-.121l-3.211-.07.027-3.75z" fill="rgb(104,153,250)"/><path d="M7.813 96.296c.342-.535.504-.848.535-1.163l-.003-.228-.058-.17c-.054-.117-.137-.244-.247-.389-.659-.971-.802-2.11-.672-3.335.13-1.224 2.167-3.179 1.957-3.825-.518-1.588-1.091-2.902-.791-4.78.301-1.877.337-4.818 1.06-6.925.723-2.107.926-4.282.824-6.505-.037-1.991 1.889-2.537 1.609-3.65-.347-1.413-.813-2.684-.568-4.287.345-2.293.676-4.658.983-7.005.109-.683.305-1.641.782-2.212.477-.571.435-1.176.341-2.133-.442-4.093.337-8.095 1.469-11.968.33-.633.624-.984.88-1.053.541-.44.567-.678.205-1.28-1.235-2.42-1.052-4.087.63-6.307.328-.426.492-.623.236-1.248-1.107-2.952-.814-4.373 1.291-6.822-.486.172-.774-1.099-.848-3.746.199-1.584 1.327-2.416 1.627-3.533.15-.559-.044-1.154-.259-1.812l-.159-.505-.073-.262-.013-.098-.009-.121-.015-.248c-.035-.67-.026-1.422.061-2.21.119-1.081.413-1.957.722-2.608 1.04.211 1.958.464 2.721.621.77.157 1.387.219 2.008.046.693-.161.926-.306 1.311-.432.36-.126.719-.233 1.085-.32.732-.174 1.492-.265 2.336-.257 1.706.034 3.56.031 5.226-.01 2.255-.073 4.11.256 5.27 1.819 2.788-2.455 5.228-2.464 8.107-.134 2.971-2.313 4.899-2.305 8.19.023-.175-.529.758-1.058 2.777-1.573 3.856.018 7.768-.791 11.464.563.317.12.608.199.95.022 2.559-1.293 4.77-.819 6.687.75.908-.866 1.977-1.449 3.473-1.45 1.496-.001 5.485-.343 8.063.074 2.578.417 4.362.309 6.582-.02 2.22-.33 5.139-.351 7.658.028 2.519.38 4.427.377 6.755-.016 2.328-.393 5.194-.422 7.619.004 2.425.425 4.501.319 6.828.003s5.047-.383 7.427-.013c2.38.371 4.56.356 6.981-.005 2.42-.361 4.788-.05 7.295-.069 2.507-.019 2.654.282 3.514 1.136.527.566.821.489 1.296.03 2.133-1.612 4.54-1.616 6.608.022.694.54.915.444 1.417-.051.84-.779 2.002-1.067 3.213-1.117.503-.011 1.154.074 1.749.208.605.134 1.182.317 1.679.501 1.013.368 1.638.742 2.278.738-.014.111-.014.199.002.264.185.733.44 1.539.573 2.688.067.572.103 1.225.09 1.963l-.02.569-.017.295-.004.101-.002.08c-.007.214-.027.434-.063.662-.286 1.826-.399 4.789-1.044 6.975s-1.124 4.345-.853 6.608c-.487.559-1.043 1.651-1.662 3.265-.089.968.955 2.168.71 3.738-.245 1.57-.463 5.451-1.193 7.981-.73 2.53-.886 3.992-.83 6.168.056 2.175-.341 5.444-1.072 7.94s-.914 4.129-.888 6.374c.027 2.245-.279 5.507-1.045 7.735-.767 2.228-.908 4.433-.896 6.763.013 2.33-.29 4.9-.995 7.158-.705 2.258-.963 4.774-.976 7.342-.013 2.568-.538 4.646-.891 6.999-.058.143-.126.363-.201.655l-2.912-.396v.001h-.085l-.085 2.975c-.017.03-.205.06-.533.083-2.654.058-5.385.328-7.818-.05-2.432-.378-4.347-.404-6.635.013-2.289.417-4.276.032-6.464.094-2.189.063-3.997-.289-5.25-1.807-1.883 1.743-4.323 2.431-6.031 1.385-1.708-1.046-2.44-1.009-4.076.001-1.635 1.01-3.665.415-6.152-1.25-.943.949-2.021 1.657-3.776 1.652-1.755-.005-5.377.28-7.877-.087-2.499-.368-4.089-.321-6.329-.004-2.24.317-5.412.363-8.037-.031-2.625-.394-3.987-.414-6.223.011-2.236.425-4.256.044-6.405.132-2.149.087-4.23-.253-5.45-1.776-2.913 2.428-5.532 2.403-8.025.029-2.516 2.521-6.239 2.143-8.124-.033.04.543-.883 1.085-2.751 1.616-3.897.035-7.948.834-11.637-.567-.396-.17-.684-.063-1.052.071-2.853 1.03-4.033.889-6.4-.78.189.482-1.017.961-3.565 1.418l-8.084-.009c-.864-.02-1.876-.264-2.525-.749-.324-.243-.543-.367-.769-.378l-.172.013-.091.022-.121.032c-.211.05-.453.128-.765.233-2.081.654-4.631.948-6.576.881.341-2.012 1.045-4.195 2.008-5.761z" fill="#fff"/></g></g></g><g transform="translate(643.104 225.032) scale(0.38 0.381) rotate(0 160.8421052631579 94.12073490813648)"><g clip-path="url(#clipPath_DBWD6xinJBwU73dFddgTI)"><defs>
          <clipPath id="clipPath_DBWD6xinJBwU73dFddgTI">
            <rect x="0" y="0" width="321.461" height="188.043" />
          </clipPath>
       </defs> <g>  <path fill="#1B236D" d="M278.896,188.043c-1.093,0-2.203-0.115-3.332-0.368c-9.682-2.174-13.625-12.883-15.67-21.74   c-8.533,6.535-18.149,13.502-29.425,15.901c-11.421,2.431-26.559-1.333-32.123-13.092c-1.412-2.983-2.137-6.282-2.839-9.472   c-1.097-4.985-2.133-9.695-5.6-12.73c-6.791-5.948-17.441-1.447-26.892,3.237c-34.521,17.11-73.841,19.385-105.182,6.091   c-35.15-14.91-58.917-49.843-57.795-84.95C1.246,33.098,33.536,0,69.178,0c0.057,0,0.108,0,0.165,0   c27.343,0.078,50.962,16.98,72.811,34.286c18.555,14.696,19.901,33.847,18.591,52.351c-0.058,0.827-0.773,1.451-1.602,1.391   c-0.826-0.059-1.449-0.775-1.39-1.602c1.711-24.185-3.348-38.608-17.461-49.788C118.854,19.658,95.718,3.075,69.334,3   c-0.052,0-0.105,0-0.157,0C35.081,3,4.195,34.74,3.036,71.016c-1.082,33.897,21.933,67.655,55.969,82.093   c30.547,12.958,68.931,10.709,102.678-6.017c10.32-5.116,22.015-9.974,30.2-2.808c4.208,3.686,5.4,9.104,6.553,14.344   c0.666,3.026,1.354,6.156,2.621,8.833c4.904,10.366,18.49,13.629,28.787,11.441c11.445-2.437,21.354-10.061,30.097-16.787   l1.9-1.463l0.483,2.349c1.725,8.384,5.042,19.759,13.896,21.746c5.753,1.295,11.178-1.88,16.921-5.238   c1.903-1.112,3.87-2.263,5.838-3.227c5.689-2.785,13.514-2.605,18.203,0.416c2.893,1.864,4.37,4.584,4.273,7.865   c-0.025,0.828-0.718,1.507-1.544,1.455c-0.828-0.024-1.479-0.716-1.455-1.544c0.065-2.204-0.91-3.973-2.899-5.255   c-3.813-2.457-10.515-2.563-15.258-0.243c-1.869,0.915-3.787,2.037-5.643,3.122C289.645,185.029,284.49,188.043,278.896,188.043z"/> </g> <ellipse fill="#1B236D" cx="98.083" cy="85.067" rx="90.834" ry="71.464"/> </g></g><g transform="translate(703.5396568839483 210.296) scale(-1.134 1.137) rotate(0 299.98236331569666 98.4608619173263)"><g clip-path="url(#clipPath_qpGBE46HNMEYI0RIpftX2)"><defs>
          <clipPath id="clipPath_qpGBE46HNMEYI0RIpftX2">
            <rect x="0" y="0" width="600" height="197" />
          </clipPath>
       </defs> <linearGradient id="SVGID_1_qpGBE46HNMEYI0RIpftX2" gradientUnits="userSpaceOnUse" x1="1647.1251" y1="1728.085" x2="1780.3164" y2="1899.8304" gradientTransform="matrix(0.1413 0 0 0.1413 -85.0113 -196.8086)">  <stop offset="0" stop-color="#FFBEB6"/>  <stop offset="1" stop-color="#F2A19C"/> </linearGradient> <rect x="149.242" y="44.674" fill="url(#SVGID_1_qpGBE46HNMEYI0RIpftX2)" width="11.72" height="24.408"/> <linearGradient id="SVGID_2_qpGBE46HNMEYI0RIpftX2" gradientUnits="userSpaceOnUse" x1="4032.0107" y1="1941.6066" x2="4504.8257" y2="1941.6066" gradientTransform="matrix(0.1413 0 0 0.1413 -85.0113 -196.8086)">  <stop offset="0" stop-color="#FBB03B"/>  <stop offset="1" stop-color="#F7931E"/> </linearGradient> <path fill="url(#SVGID_2_qpGBE46HNMEYI0RIpftX2)" d="M492.505,77.231c-5.496-8.939-7.941-13.795-7.618-21.361c0.028-0.667,16.187-15.253,22.205-17.28  c13.647,21.339,29.684,50.887,44.575,76.609c-5.062,2.19-9.806,2.05-21.892-4.033c-2.674-1.345-26.885-15.854-27.568-17.921  C501.826,92.093,493.141,78.266,492.505,77.231z"/> <path fill="#151A4F" d="M461.061,69.29c13.196-12.092,19.294-15.608,28.375-17.601c3.193,13.877,10.845,26.028,13.044,41.418  c-23.899,25.549-55.098,48.105-82.495,69.862c-2.431,1.931-4.944,3.882-7.896,4.843c-2.901,0.943-6.022,0.863-9.072,0.773  c-52.339-1.55-104.677-3.1-157.015-4.649c-5.182-5.356-3.007-14.859,2.514-19.864c5.522-5.005,13.668-5.328,30.737-8.825  c19.488-3.993,40.963-6.145,61.946-5.131c9.229,0.446,29.922,4.082,37.022-1.833c19.794-16.489,31.483-21.253,39.221-24.917  c5.246-2.483,19.293-6.766,22.726-8.794C448.233,89.811,452.386,77.242,461.061,69.29z"/> <path fill="#F2A19C" d="M25.525,91.369c0.664,0.984,1.027,2.162,1.796,3.066c0.956,1.124,2.596,2.52,1.653,3.656  c-0.791,0.952-2.368,0.113-3.046-0.922c-0.678-1.035-1.257-2.385-2.474-2.609c0.928,0.742,1.896,1.537,2.32,2.646  c0.424,1.109,0.062,2.614-1.056,3.018c-2.536-1.543-5.072-3.087-7.607-4.631c-0.879-0.535-1.847-1.199-1.994-2.215  c-0.089-0.614,0.152-1.231,0.473-1.762C17.629,88.246,23.32,88.104,25.525,91.369z"/> <path fill="#F2A19C" d="M67.847,50.334c0.147,0.574,0.419,1.432,1.009,1.371c1.493-0.154,1.938-2.252,2.37-3.689  c0.752-2.502,1.812-9.015,1.893-9.669c0.043-0.349,0.045-0.726-0.143-1.023c-0.359-0.564-1.251-0.535-1.771-0.117  c-0.52,0.418-0.763,1.084-0.982,1.713c-0.436,1.256-0.871,2.513-1.306,3.769C68.063,45.158,67.198,47.803,67.847,50.334z"/> <path fill="#F2A19C" d="M70.535,48.811c1.214-0.332,1.779-1.682,2.282-2.834c0.932-2.134,2.199-4.102,3.48-6.047  c0.548-0.833,1.12-1.715,1.191-2.709c0.072-0.996-0.611-2.548-1.553-2.213c-3.266,1.165-3.825,5.751-5.125,8.964  C70.179,45.537,69.574,47.423,70.535,48.811z"/> <path fill="#FFBEB6" d="M113.138,140.024c-1.126-5.803-4.642-10.801-7.726-15.844C96.624,109.809,90.5,96.251,83.931,80.741  c-2.554-6.029-6.495-17.45-6.873-17.725c-0.581-1.502,0.392-3.553,2.337-5.222c1.258-1.079,4.518-4.173,6.048-4.81  c4.13-1.719,8.11-4.535,9.072-6.87c0.997-2.422-1.075-2.185-3.299-3.572c-4.095-2.554-9.448-8.811-10.212-8.759  c-1.175,0.079-8.535,9.021-8.481,9.309c0.079,0.429,1.45,0.17,1.885,0.129c2.288-0.222,4.145-1.87,5.828-3.436  c1.071,1.319,2.357,2.462,3.792,3.373c-0.035,0.461,0.994,2.771,0.959,3.232C79.9,50.136,74.039,52.427,69.59,56.912  c-0.403,0.408-1.454,2.004-1.467,2.119c-0.17,1.67,0.71,2.889,1.148,4.191c8.474,25.214,8.569,56.17,19.251,82.606  c2.813,6.962,7.173,13.713,13.846,17.162c1.294,0.669,2.737,1.214,4.179,1.007c3.44-0.493,4.834-4.618,5.514-8.024  C113.109,150.711,114.16,145.29,113.138,140.024z"/> <g>     <rect x="57.308" y="45.331" transform="matrix(0.9995 -0.0302 0.0302 0.9995 -1.3614 1.8604)" fill="#23286B" width="7.235" height="1.364"/>     <rect x="61.802" y="42.676" transform="matrix(0.9995 -0.0302 0.0302 0.9995 -1.3246 2.6736)" fill="#428DFC" width="52.145" height="5.048"/>  <g>   <polygon fill="#E94A47" points="111.041,48.07 110.958,41.122 90.776,41.732 90.744,40.633 112.045,39.989 112.141,48.056   "/>  </g> </g> <path fill="#FFBEB6" d="M77.556,42.513c2.221,1.616,0.894,4.608-0.085,7.172c-2.191,5.744-2.554,6.032-2.921,7.498  c-0.274,1.095-2.687,9.84-3.577,2.616c-0.785-6.367,1.733-8.283,3.777-15.233C75.101,43.373,76.547,41.781,77.556,42.513z"/> <path fill="#FFBEB6" d="M45.362,95.133c-0.853-1.958-1.682-3.992-3.162-5.534c-2.726-2.841-6.985-3.398-10.884-3.947  c-9.5-1.339-22.17-3.584-31.244-6.696c-0.366,1.148,0.722,2.212,1.724,2.88c4.239,2.823,12.336,4.57,17.307,5.775  c-2.071,1.18-5.712,1.75-6.401,3.18c-0.386,0.803,1.927,3.778,2.889,5.667c0.392,0.771,0.805,1.565,1.475,2.112  c0.577,0.47,1.296,0.719,2.001,0.959c2.007,0.685,4.015,1.369,6.021,2.054c0.97-0.724,1.002-2.274,0.313-3.268  c-0.69-0.995-1.897-1.509-3.085-1.734c-0.75-0.142-1.523-0.193-2.239-0.457c-1.523-0.563-2.602-2.152-2.563-3.774  c5.004,1.845,10.448,2.437,15.74,1.787c8.051,12.692,13.299,26.843,18.902,40.79c11.02,27.434,27.402,30.376,28.614,35.129  c5.511-9.738-3.165-24.426,6.048-30.779C70.444,127.524,53.41,113.609,45.362,95.133z M19.735,87.76  c0.181,0.042,0.362,0.086,0.543,0.127c-0.116,0.011-0.232,0.02-0.348,0.031C19.865,87.864,19.801,87.811,19.735,87.76z"/> <path fill="#1D72D8" d="M164.342,83.49c0.922-3.775,1.146-11.343-0.549-14.84c-1.696-3.496-3.397-7.035-7.282-6.906  c-12.24,12.214-18.411,29.025-26.472,44.321c-5.028,9.542-9.159,16.579-16.83,26.615c-2.176,2.848-9.19-13.041-9.347-12.916  c-6.592,5.231-11.822,20.336-19.794,21.986c2.292,5.61,12.92,21.71,20.772,24.891c4.702,1.583,23.255-17.4,31.379-29.611  c5.155-7.749,10.22-15.558,15.286-23.366C158.404,103.029,161.319,95.857,164.342,83.49z"/> <linearGradient id="SVGID_3_qpGBE46HNMEYI0RIpftX2" gradientUnits="userSpaceOnUse" x1="4333.5923" y1="2559.9744" x2="4846.7871" y2="2559.9744" gradientTransform="matrix(0.1413 0 0 0.1413 -85.0113 -196.8086)">  <stop offset="0" stop-color="#FBB03B"/>  <stop offset="1" stop-color="#F7931E"/> </linearGradient> <path fill="url(#SVGID_3_qpGBE46HNMEYI0RIpftX2)" d="M530.871,167.872c-1.098-7.491-2.195-14.983-3.294-22.474c-0.096-0.66-0.185-1.368,0.113-1.964  c0.29-0.582,3.506-2.306,4.072-2.626c5.532-3.117,8.45-4.86,13.981-7.977c20.269,18.593,37.795,40.359,54.256,62.654  c-4.564,3.097-11.683,1.062-24.693-2.655c-2.877-0.823-40.098-13.491-41.155-15.395  C533.562,176.376,531.047,169.074,530.871,167.872z"/> <linearGradient id="SVGID_4_qpGBE46HNMEYI0RIpftX2" gradientUnits="userSpaceOnUse" x1="1641.3909" y1="1581.2875" x2="1293.9066" y2="1576.7542" gradientTransform="matrix(0.1413 0 0 0.1413 -85.0113 -196.8086)">  <stop offset="0" stop-color="#FFBEB6"/>  <stop offset="1" stop-color="#F2A19C"/> </linearGradient> <path fill="url(#SVGID_4_qpGBE46HNMEYI0RIpftX2)" d="M173.966,4.169c-7.119-2.968-15.42-0.148-21.662,4.387c-5.234,3.803-10.992,15.92-13.54,15.46  c-2.153-0.388-3.288,0.518-3.397,2.702c-0.534,10.787,3.387,20.819,6.669,22.289c9.293,4.161,26.247-0.561,30.198-4.227  c3.05-2.829,6.913-3.778,8.372-7.448c2.343-5.894,4.301-12.072,3.73-18.228C183.765,12.951,180.217,6.776,173.966,4.169z"/> <path fill="#E94A47" d="M148.112,10.964c0.776-2.26,2.232-4.248,3.988-5.871c7.15-6.609,18.944-6.543,27.086-1.205  c9.036,5.924,13.778,17.116,14.108,27.809c0.069,2.224-0.404,4.455-1.499,6.392c-5.176,9.161-15.508-0.715-20.49,9.776  c-0.943,1.984-1.387,4.173-1.425,6.369c-0.054,3.186-0.078,6.221,0.554,9.435c0.298,1.515-0.985,2.9-2.503,2.621  c-6.729-1.234-14.638-5.536-18.21-13.941c-4.322-10.169-3.978-21.099-2.936-31.946C147.073,17.429,147.143,13.792,148.112,10.964z"/> <g>  <path fill="#428DFC" d="M179.423,47.941c-0.387,0-0.856-0.171-1.408-0.514c-1.385-0.859-5.06-6.5-11.439-16.394   c-5.34-8.284-11.38-17.656-16.098-23.794c1.592,4.05,6.911,14.299,10.085,18.406c3.017,3.903,11.455,15.795,10.676,19.141   c-0.129,0.554-0.461,0.82-0.716,0.944c-2.27,1.114-6.1-4.867-12.15-14.721c-2.328-3.791-4.735-7.712-6.744-10.476   c-2.843-3.907-6.065-8.334-7.503-13.364c-0.083-0.292,0.086-0.596,0.378-0.68c0.292-0.08,0.596,0.086,0.68,0.378   c1.383,4.841,4.409,8.999,7.334,13.018c2.035,2.797,4.453,6.738,6.793,10.547c3.676,5.989,9.209,15.036,10.729,14.308   c0.029-0.014,0.091-0.045,0.129-0.207c0.538-2.311-5.852-12.239-10.476-18.219C157.287,23.2,147.62,6.284,149.18,5.077   c0.637-0.492,1.324,0.396,1.93,1.178c4.78,6.167,10.949,15.738,16.391,24.18c5.066,7.86,9.851,15.285,11.094,16.055   c0.621,0.386,0.825,0.349,0.828,0.348c0.684-1.13-4.228-10.946-7.485-15.396l-2.188-2.98c-4.08-5.549-8.3-11.289-12.073-17.206   c-1.479-2.319-2.64-5.837-1.9-8.468c0.326-1.164,1.02-2.033,2.002-2.515c0.273-0.133,0.603-0.02,0.736,0.251   c0.133,0.273,0.021,0.601-0.251,0.736c-0.703,0.344-1.185,0.958-1.427,1.825c-0.552,1.964,0.176,5.081,1.77,7.581   c3.753,5.887,7.961,11.611,12.031,17.145l2.189,2.983c1.934,2.641,9.203,14.829,7.355,16.823   C179.981,47.833,179.728,47.941,179.423,47.941z"/> </g> <g>  <path fill="#23286B" d="M142.521,22.7c-1.338,0-2.636-0.35-3.881-1.051c-0.265-0.148-0.359-0.483-0.209-0.749   c0.147-0.264,0.481-0.361,0.749-0.209c2.046,1.15,4.176,1.215,6.51,0.194c0.279-0.122,0.603,0.005,0.724,0.284   c0.122,0.278-0.004,0.601-0.284,0.723C144.901,22.43,143.696,22.7,142.521,22.7z"/> </g> <circle fill="#428DFC" cx="154.285" cy="36.361" r="10.941"/> <g>  <path fill="#23286B" d="M153.37,38.209c-0.293,0-0.588-0.077-0.855-0.241c-0.778-0.473-1.026-1.487-0.552-2.265l0.076-0.126   c8.803-14.474,12.821-21.081,25.544-31.678c1.994-1.659,4.791-2.519,7.122-2.203c1.633,0.225,2.952,1.007,3.816,2.261   c1.815,2.64-1.526,7.671-1.526,7.671l-2.14-2.739c0,0,1.477-2.293,0.947-3.065c-0.332-0.481-0.838-0.763-1.546-0.861   c-1.395-0.194-3.309,0.427-4.56,1.469c-12.301,10.246-16.229,16.705-24.836,30.857l-0.077,0.126   C154.469,37.928,153.925,38.209,153.37,38.209z"/> </g> <linearGradient id="SVGID_5_qpGBE46HNMEYI0RIpftX2" gradientUnits="userSpaceOnUse" x1="1945.0164" y1="2164.9114" x2="1649.1481" y2="2824.885" gradientTransform="matrix(0.1413 0 0 0.1413 -85.0113 -196.8086)">  <stop offset="0" stop-color="#428DFC"/>  <stop offset="1" stop-color="#1D72D8"/> </linearGradient> <path fill="url(#SVGID_5_qpGBE46HNMEYI0RIpftX2)" d="M140.334,144.774c-7.592-10.3-5.562-14.92-9.074-27.223c-1.613-5.645-3.001-11.462-2.667-17.323  c0.841-14.768,12.106-26.552,22.683-36.895c1.211-1.184,2.554-2.434,4.239-2.62c1.809-0.2,3.496,0.886,4.905,2.04  c11.509,9.415,17.009,37.335,23.9,50.511c13.463,25.739,17.876,29.161,46.919,30.047c-3.389,10.373-0.276,21.872-3.665,32.245  C178.088,178.852,145.464,151.736,140.334,144.774z"/> <linearGradient id="SVGID_6_qpGBE46HNMEYI0RIpftX2" gradientUnits="userSpaceOnUse" x1="2164.7551" y1="2470.7556" x2="4382.7944" y2="2470.7556" gradientTransform="matrix(0.1413 0 0 0.1413 -85.0113 -196.8086)">  <stop offset="0" stop-color="#23286B"/>  <stop offset="1" stop-color="#151A4F"/> </linearGradient> <path fill="url(#SVGID_6_qpGBE46HNMEYI0RIpftX2)" d="M364.924,136.245c-9.999,0-73.849-4.27-83.572-6.596c-29.454-7.047-37.803-0.233-60.484,12.821  c1.874,9.929,2.175,23.381,1.305,33.449c94.638-3.768,190.823-6.47,285.872,1.629c9.54,0.814,17.427-0.63,26.225-0.63  c0.122-14.283-1.306-20.156-6.106-33.609c-43.377-12.56-47.778-0.508-73.068-4.865c-22.477-3.872-19.794-7.695-45.085-8.794  C393.66,128.939,388.016,136.245,364.924,136.245z"/> <linearGradient id="SVGID_7_qpGBE46HNMEYI0RIpftX2" gradientUnits="userSpaceOnUse" x1="1594.3854" y1="2125.6519" x2="1004.4486" y2="2482.1938" gradientTransform="matrix(0.1413 0 0 0.1413 -85.0113 -196.8086)">  <stop offset="0" stop-color="#428DFC"/>  <stop offset="1" stop-color="#1D72D8"/> </linearGradient> <path fill="url(#SVGID_7_qpGBE46HNMEYI0RIpftX2)" d="M160.219,68.376c-0.683-2.978-1.347-7.855-4.399-7.695c-5.224,0.275-7.772,3.953-9.072,5.222  c-11.271,10.993-16.471,21.599-24.687,31.653c-6.281,7.686-17.772,30.36-25.347,36.777c-7.734,6.553-15.945-2.748-15.945-2.748  s-7.979,21.051-17.499,33.061c-0.417,2.455,19.516,6.513,23.548,5.964c2.468-0.336,18.961-14.584,27.491-22.535  c10.854-10.117,20.264-27.82,31.615-37.375C151.147,106.3,163.242,81.566,160.219,68.376z"/> <path id="texture_1_qpGBE46HNMEYI0RIpftX2" fill="#FFFFFF" d="M264.363,134.249c0.142,0.111,0.322,0.115,0.435-0.027l0,0  c0.111-0.142,0.115-0.322-0.027-0.435l0,0c-0.142-0.111-0.322-0.115-0.435,0.027l0,0  C264.224,133.956,264.221,134.138,264.363,134.249L264.363,134.249z M290.412,149.569c-0.003,0.18,0.139,0.292,0.319,0.295  c0.18,0.003,0.292-0.139,0.295-0.319l0,0c0.003-0.18-0.139-0.292-0.319-0.295C290.492,149.174,290.416,149.389,290.412,149.569  L290.412,149.569L290.412,149.569z M289.627,141.901c-0.003,0.18,0.139,0.292,0.319,0.295c0.18,0.003,0.292-0.139,0.295-0.319l0,0  c0.003-0.18-0.139-0.292-0.319-0.295l0,0C289.815,141.545,289.63,141.722,289.627,141.901L289.627,141.901z M274.698,144.526  c0.18,0.003,0.326-0.066,0.438-0.208c0.003-0.18-0.066-0.326-0.208-0.438c-0.18-0.003-0.326,0.066-0.364,0.173  C274.416,144.304,274.485,144.449,274.698,144.526z M276.979,137.1c0.18,0.003,0.326-0.066,0.438-0.208  c0.003-0.18-0.066-0.326-0.208-0.438c-0.18-0.003-0.326,0.066-0.365,0.173C276.694,136.878,276.798,137.097,276.979,137.1  L276.979,137.1z M303.89,141.827c0.069,0.146,0.285,0.222,0.43,0.153c0.145-0.069,0.222-0.285,0.153-0.43l0,0  c-0.069-0.146-0.285-0.222-0.43-0.153l0,0C303.898,141.466,303.821,141.681,303.89,141.827z M300.273,134.968  c0.069,0.146,0.285,0.222,0.43,0.153c0.145-0.069,0.222-0.285,0.153-0.43c-0.069-0.146-0.285-0.222-0.43-0.153l0,0  C300.279,134.609,300.203,134.822,300.273,134.968L300.273,134.968L300.273,134.968z M267.562,142.108  c0.107,0.038,0.361,0.008,0.365-0.173c0.039-0.107,0.008-0.361-0.173-0.364c-0.107-0.038-0.361-0.008-0.364,0.173l0,0  C267.278,141.886,267.347,142.031,267.562,142.108L267.562,142.108z M270.147,135.7c0.107,0.038,0.361,0.008,0.365-0.173  c0.039-0.107,0.042-0.288-0.173-0.364c-0.107-0.038-0.288-0.042-0.364,0.173l0,0C269.969,135.516,270.038,135.661,270.147,135.7  L270.147,135.7L270.147,135.7z M296.342,141.928c0.069,0.146,0.211,0.257,0.358,0.188c0.146-0.069,0.183-0.177,0.189-0.358l0,0  c-0.069-0.146-0.211-0.257-0.358-0.188l0,0C296.384,141.64,296.273,141.782,296.342,141.928L296.342,141.928z M293.69,135.594  c0.069,0.146,0.211,0.257,0.358,0.188c0.146-0.069,0.183-0.177,0.189-0.358l0,0c-0.069-0.146-0.211-0.257-0.358-0.188l0,0  C293.731,135.307,293.621,135.45,293.69,135.594L293.69,135.594z M281.298,141.302c-0.003,0.18,0.139,0.292,0.319,0.295  c0.18,0.003,0.292-0.139,0.295-0.319c0.003-0.18-0.139-0.292-0.319-0.295C281.413,140.978,281.302,141.121,281.298,141.302  L281.298,141.302z M268.574,149.311c-0.003,0.18,0.139,0.292,0.319,0.295s0.292-0.139,0.295-0.319  c0.003-0.18-0.139-0.292-0.319-0.295S268.577,149.13,268.574,149.311L268.574,149.311z M268.551,141.371  c-0.003,0.18,0.139,0.292,0.319,0.295c0.18,0.003,0.292-0.139,0.295-0.319s-0.139-0.292-0.319-0.295  C268.667,141.047,268.556,141.189,268.551,141.371L268.551,141.371z M268.423,133.392c-0.003,0.18,0.139,0.292,0.319,0.295  c0.18,0.003,0.292-0.139,0.295-0.319c0.003-0.18-0.139-0.292-0.319-0.295C268.573,133.142,268.461,133.283,268.423,133.392z   M299.484,136.504c0.142,0.111,0.322,0.115,0.435-0.027c0.111-0.142,0.115-0.322-0.027-0.435c-0.142-0.111-0.322-0.114-0.435,0.027  C299.311,136.141,299.342,136.394,299.484,136.504L299.484,136.504z M258.86,127.749c-0.077,0.216-0.008,0.361,0.208,0.438   M283.327,142.749c0.069,0.146,0.285,0.222,0.43,0.153c0.146-0.069,0.222-0.285,0.153-0.43c-0.069-0.145-0.285-0.222-0.43-0.153l0,0  C283.336,142.389,283.259,142.605,283.327,142.749L283.327,142.749L283.327,142.749z M279.001,146.056  c0.069,0.146,0.285,0.222,0.43,0.153c0.146-0.069,0.222-0.285,0.153-0.43c-0.069-0.146-0.211-0.257-0.43-0.153  C279.008,145.695,278.931,145.91,279.001,146.056L279.001,146.056z M276.189,138.636c0.069,0.146,0.285,0.222,0.43,0.153  c0.146-0.069,0.257-0.211,0.153-0.43c-0.069-0.146-0.285-0.222-0.465-0.225C276.196,138.275,276.119,138.491,276.189,138.636  L276.189,138.636z M262.296,136.48c-0.003,0.18,0.139,0.292,0.319,0.295l0,0c0.18,0.003,0.292-0.139,0.368-0.354  c0.003-0.18-0.139-0.292-0.354-0.368C262.41,136.158,262.299,136.3,262.296,136.48L262.296,136.48z M264.331,133.995  c0.069,0.146,0.177,0.183,0.285,0.222c0.146-0.069,0.183-0.177,0.222-0.285c-0.069-0.146-0.177-0.183-0.285-0.222l0,0  C264.408,133.781,264.298,133.923,264.331,133.995L264.331,133.995L264.331,133.995z"/> <path id="texture-2_4_qpGBE46HNMEYI0RIpftX2" fill="#FFFFFF" d="M245.021,132.826c0.099,0.056,0.177,0.035,0.233-0.065  c0.056-0.099,0.035-0.177-0.065-0.233c-0.099-0.056-0.177-0.035-0.233,0.065l0,0C244.901,132.692,244.999,132.748,245.021,132.826  L245.021,132.826z M262.14,132.961c0.022,0.078,0.121,0.134,0.199,0.112l0,0c0.078-0.022,0.134-0.121,0.112-0.199l0,0  c-0.022-0.078-0.121-0.134-0.199-0.112C262.075,132.728,262.04,132.906,262.14,132.961L262.14,132.961L262.14,132.961z   M253.508,132.327c0.022,0.078,0.043,0.156,0.142,0.212c0.078-0.022,0.156-0.043,0.212-0.142c-0.022-0.078-0.043-0.156-0.142-0.212  C253.543,132.151,253.487,132.25,253.508,132.327z M245.864,153.184c-0.035,0.177,0.086,0.311,0.262,0.346  c0.177,0.035,0.311-0.086,0.347-0.262l0,0c0.035-0.177-0.086-0.311-0.263-0.346C246.013,152.809,245.821,153.029,245.864,153.184  L245.864,153.184z M246.423,145.496c-0.035,0.177,0.086,0.311,0.263,0.346s0.311-0.086,0.347-0.262  c0.035-0.177-0.086-0.311-0.263-0.346l0,0C246.592,145.198,246.458,145.32,246.423,145.496z M247.061,137.788  c-0.035,0.177,0.086,0.311,0.263,0.346l0,0c0.177,0.035,0.311-0.086,0.347-0.262l0,0c0.035-0.177-0.086-0.311-0.263-0.346  C247.229,137.49,247.094,137.612,247.061,137.788z M231.266,145.49c0.177,0.035,0.333-0.008,0.467-0.129  c0.035-0.177-0.008-0.333-0.129-0.467c-0.177-0.035-0.333,0.008-0.389,0.107C231.024,145.222,231.068,145.378,231.266,145.49  L231.266,145.49z M234.722,138.594c0.177,0.035,0.333-0.008,0.467-0.129c0.035-0.177-0.008-0.333-0.129-0.467  c-0.177-0.035-0.333,0.008-0.389,0.107C234.558,138.305,234.623,138.538,234.722,138.594L234.722,138.594z M260.483,147.898  c0.043,0.156,0.242,0.268,0.397,0.225c0.156-0.043,0.269-0.242,0.225-0.397l0,0c-0.043-0.156-0.242-0.268-0.397-0.225l0,0  C260.553,147.545,260.439,147.743,260.483,147.898z M258.112,140.516c0.043,0.156,0.242,0.268,0.397,0.225  c0.156-0.043,0.269-0.242,0.225-0.397c-0.043-0.156-0.242-0.268-0.397-0.225l0,0C258.181,140.163,258.069,140.361,258.112,140.516  L258.112,140.516z M255.762,133.214c0.043,0.156,0.242,0.268,0.397,0.225l0,0c0.156-0.043,0.269-0.242,0.225-0.397l0,0  c-0.043-0.156-0.242-0.268-0.397-0.225C255.754,132.88,255.719,133.057,255.762,133.214L255.762,133.214z M224.658,141.871  c0.099,0.056,0.354,0.069,0.389-0.107c0.056-0.099,0.069-0.354-0.107-0.389c-0.099-0.056-0.354-0.069-0.389,0.107l0,0  C224.417,141.603,224.459,141.759,224.658,141.871z M253.031,146.688c0.043,0.156,0.164,0.29,0.319,0.247  c0.156-0.043,0.212-0.142,0.247-0.319l0,0c-0.043-0.156-0.164-0.29-0.319-0.247l0,0  C253.123,146.412,252.989,146.533,253.031,146.688L253.031,146.688z M251.519,139.991c0.043,0.156,0.164,0.29,0.319,0.247  c0.156-0.043,0.212-0.142,0.247-0.319l0,0c-0.043-0.156-0.164-0.29-0.319-0.247l0,0  C251.611,139.714,251.477,139.836,251.519,139.991L251.519,139.991z M250.084,133.271c0.043,0.156,0.164,0.29,0.319,0.247l0,0  c0.156-0.043,0.212-0.142,0.247-0.319l0,0c-0.043-0.156-0.164-0.29-0.319-0.247l0,0  C250.097,133.017,250.042,133.116,250.084,133.271L250.084,133.271z M238.326,143.461c-0.035,0.177,0.086,0.311,0.262,0.346  c0.176,0.035,0.311-0.086,0.347-0.262c0.035-0.177-0.086-0.311-0.262-0.346C238.497,143.163,238.283,143.305,238.326,143.461  L238.326,143.461z M239.475,136.698c-0.035,0.177,0.086,0.311,0.184,0.367l0,0c0.177,0.035,0.311-0.086,0.347-0.262  c0.035-0.177-0.086-0.311-0.262-0.346C239.643,136.401,239.509,136.521,239.475,136.698L239.475,136.698z M264.087,138.199  c0.121,0.134,0.22,0.19,0.354,0.069l0,0c0.134-0.121,0.169-0.298,0.069-0.354l0,0c-0.121-0.134-0.298-0.169-0.432-0.049  C264.079,137.868,264.044,138.044,264.087,138.199L264.087,138.199L264.087,138.199z M260.191,132.578  c0.121,0.134,0.298,0.169,0.432,0.049c0.134-0.121,0.169-0.298,0.049-0.432c-0.121-0.134-0.298-0.169-0.354-0.069  C260.106,132.267,260.071,132.443,260.191,132.578C260.171,132.5,260.191,132.578,260.191,132.578L260.191,132.578z M224.403,149.14  c-0.035,0.177,0.086,0.311,0.262,0.346s0.311-0.086,0.347-0.262c0.035-0.177-0.086-0.311-0.263-0.347  C224.572,148.843,224.437,148.962,224.403,149.14L224.403,149.14z M225.684,141.338c-0.035,0.177,0.086,0.311,0.262,0.346  s0.311-0.086,0.347-0.262c0.035-0.177-0.086-0.311-0.262-0.346C225.93,141.018,225.717,141.161,225.684,141.338L225.684,141.338z   M257.067,141.893c0.121,0.134,0.298,0.169,0.432,0.049c0.134-0.121,0.169-0.298,0.049-0.432c-0.121-0.134-0.298-0.169-0.432-0.049  C256.961,141.504,256.948,141.759,257.067,141.893L257.067,141.893z M252.426,135.388c0.121,0.134,0.298,0.169,0.432,0.049  c0.134-0.121,0.169-0.298,0.049-0.432c-0.121-0.134-0.298-0.169-0.432-0.049C252.418,135.055,252.306,135.253,252.426,135.388  L252.426,135.388z M240.073,145.239c0.043,0.156,0.242,0.268,0.397,0.225c0.156-0.043,0.269-0.242,0.225-0.397  c-0.043-0.156-0.242-0.268-0.397-0.225l0,0C240.143,144.884,240.029,145.083,240.073,145.239L240.073,145.239L240.073,145.239z   M238.281,137.53c0.043,0.156,0.242,0.268,0.397,0.225l0,0c0.156-0.043,0.269-0.242,0.225-0.397l0,0  c-0.043-0.156-0.242-0.268-0.397-0.225C238.352,137.176,238.216,137.297,238.281,137.53L238.281,137.53z M235.237,147.743  c0.043,0.156,0.242,0.268,0.397,0.225c0.156-0.043,0.269-0.242,0.225-0.397c-0.043-0.156-0.164-0.29-0.397-0.225  C235.306,147.39,235.195,147.588,235.237,147.743L235.237,147.743z M233.757,139.948c0.043,0.156,0.242,0.268,0.397,0.225  c0.156-0.043,0.29-0.164,0.225-0.397c-0.043-0.156-0.242-0.268-0.419-0.303C233.826,139.594,233.714,139.793,233.757,139.948  L233.757,139.948z M248.654,138.102c0.121,0.134,0.298,0.169,0.453,0.127c0.134-0.121,0.169-0.298,0.127-0.453  c-0.121-0.134-0.298-0.169-0.453-0.127l0,0C248.624,137.692,248.611,137.947,248.654,138.102L248.654,138.102L248.654,138.102z"/> </g></g><g transform="translate(713.313 228.265) scale(0.302 0.302) rotate(0 156.05960264900662 199.83443708609272)"><g clip-path="url(#clipPath_MyJfwnh41Mnv1uZ_KFFzW)"><defs>
          <clipPath id="clipPath_MyJfwnh41Mnv1uZ_KFFzW">
            <rect x="0" y="0" width="312" height="400" />
          </clipPath>
       </defs> <g>  <path fill="#151A4F" d="M246.656,289.234l-0.035-0.045c-0.004,0.029-0.011,0.055-0.015,0.082L246.656,289.234z"/>  <path fill="#151A4F" d="M224.852,331.234c0.266-0.263,0.529-0.527,0.791-0.793l-0.88,0.676L224.852,331.234z"/>  <path fill="#151A4F" d="M210.363,342.165l0.177,0.23c1.885-1.137,3.703-2.362,5.47-3.647l-0.442-0.576L210.363,342.165z"/>  <path fill="#151A4F" d="M241.545,306.647c0.857-2.013,1.616-4.072,2.3-6.161l-4.422,3.393L241.545,306.647z"/>     <rect x="226.359" y="312.259" transform="matrix(-0.6085 -0.7936 0.7936 -0.6085 118.96 689.7713)" fill="#151A4F" width="6.561" height="6.56"/>     <rect x="211.96" y="323.308" transform="matrix(-0.6085 -0.7936 0.7936 -0.6085 87.032 696.1157)" fill="#151A4F" width="6.561" height="6.56"/>     <rect x="197.56" y="334.358" transform="matrix(-0.6085 -0.7936 0.7936 -0.6085 55.1024 702.4617)" fill="#151A4F" width="6.561" height="6.56"/>  <path fill="#151A4F" d="M188.288,351.385l2.734-2.098l-3.992-5.206l-5.204,3.993l3.084,4.022c0.268-0.05,0.534-0.085,0.803-0.136   C186.58,351.789,187.433,351.583,188.288,351.385z"/>  <path fill="#151A4F" d="M237.458,288.022l3.992,5.206l5.155-3.955c0.004-0.027,0.011-0.055,0.015-0.082l-3.957-5.161   L237.458,288.022z"/>     <rect x="224.361" y="296.392" transform="matrix(0.6085 0.7936 -0.7936 0.6085 326.9442 -63.3196)" fill="#151A4F" width="6.561" height="6.56"/>     <rect x="209.961" y="307.44" transform="matrix(0.6085 0.7936 -0.7936 0.6085 330.0731 -47.5667)" fill="#151A4F" width="6.561" height="6.56"/>     <rect x="195.563" y="318.488" transform="matrix(0.6085 0.7936 -0.7936 0.6085 333.2034 -31.8144)" fill="#151A4F" width="6.561" height="6.56"/>     <rect x="181.164" y="329.535" transform="matrix(0.6085 0.7936 -0.7936 0.6085 336.3327 -16.0623)" fill="#151A4F" width="6.561" height="6.56"/>     <rect x="239.056" y="269.162" transform="matrix(-0.6085 -0.7936 0.7936 -0.6085 173.5851 630.5273)" fill="#151A4F" width="6.561" height="6.56"/>     <rect x="224.655" y="280.211" transform="matrix(-0.6085 -0.7936 0.7936 -0.6085 141.6525 636.8712)" fill="#151A4F" width="6.561" height="6.56"/>     <rect x="210.252" y="291.259" transform="matrix(-0.6085 -0.7936 0.7936 -0.6085 109.7181 643.2119)" fill="#151A4F" width="6.561" height="6.56"/>     <rect x="195.855" y="302.309" transform="matrix(-0.6085 -0.7936 0.7936 -0.6085 77.7924 649.5598)" fill="#151A4F" width="6.561" height="6.56"/>     <rect x="181.459" y="313.359" transform="matrix(-0.6085 -0.7936 0.7936 -0.6085 45.8679 655.9082)" fill="#151A4F" width="6.561" height="6.56"/>     <rect x="167.059" y="324.408" transform="matrix(-0.6085 -0.7936 0.7936 -0.6085 13.9373 662.2532)" fill="#151A4F" width="6.561" height="6.56"/>     <rect x="237.059" y="253.3" transform="matrix(0.6085 0.7936 -0.7936 0.6085 297.7184 -90.2688)" fill="#151A4F" width="6.561" height="6.56"/>     <rect x="222.658" y="264.346" transform="matrix(0.6085 0.7936 -0.7936 0.6085 300.8465 -74.5154)" fill="#151A4F" width="6.561" height="6.56"/>     <rect x="208.262" y="275.394" transform="matrix(0.6085 0.7936 -0.7936 0.6085 303.9765 -58.765)" fill="#151A4F" width="6.561" height="6.56"/>     <rect x="193.86" y="286.441" transform="matrix(0.6085 0.7936 -0.7936 0.6085 307.1048 -43.0111)" fill="#151A4F" width="6.561" height="6.56"/>     <rect x="179.461" y="297.49" transform="matrix(0.6085 0.7936 -0.7936 0.6085 310.2351 -27.258)" fill="#151A4F" width="6.561" height="6.56"/>     <rect x="165.063" y="308.538" transform="matrix(0.6085 0.7936 -0.7936 0.6085 313.3654 -11.5068)" fill="#151A4F" width="6.561" height="6.56"/>  <path fill="#151A4F" d="M240.011,244.992l0.586-0.45c-0.933-2.032-1.954-4.007-3.051-5.929l-1.529,1.173L240.011,244.992z"/>     <rect x="222.952" y="248.162" transform="matrix(-0.6085 -0.7936 0.7936 -0.6085 164.3476 583.9697)" fill="#151A4F" width="6.561" height="6.56"/>     <rect x="208.553" y="259.211" transform="matrix(-0.6085 -0.7936 0.7936 -0.6085 132.4175 590.315)" fill="#151A4F" width="6.561" height="6.56"/>     <rect x="194.153" y="270.261" transform="matrix(-0.6085 -0.7936 0.7936 -0.6085 100.4873 596.6616)" fill="#151A4F" width="6.561" height="6.56"/>     <rect x="179.753" y="281.31" transform="matrix(-0.6085 -0.7936 0.7936 -0.6085 68.5576 603.0061)" fill="#151A4F" width="6.561" height="6.56"/>     <rect x="165.355" y="292.36" transform="matrix(-0.6085 -0.7936 0.7936 -0.6085 36.629 609.3519)" fill="#151A4F" width="6.561" height="6.56"/>     <rect x="150.955" y="303.409" transform="matrix(-0.6085 -0.7936 0.7936 -0.6085 4.6997 615.6968)" fill="#151A4F" width="6.561" height="6.56"/>     <rect x="220.958" y="232.3" transform="matrix(0.6085 0.7936 -0.7936 0.6085 274.7495 -85.7129)" fill="#151A4F" width="6.561" height="6.56"/>     <rect x="206.588" y="243.353" transform="matrix(-0.6085 -0.7936 0.7936 -0.6085 141.8422 563.2479)" fill="#151A4F" width="6.561" height="6.56"/>     <rect x="192.19" y="254.404" transform="matrix(-0.6085 -0.7936 0.7936 -0.6085 109.9142 569.597)" fill="#151A4F" width="6.561" height="6.56"/>     <rect x="177.758" y="265.442" transform="matrix(0.6085 0.7936 -0.7936 0.6085 284.1363 -38.4542)" fill="#151A4F" width="6.561" height="6.56"/>     <rect x="163.361" y="276.492" transform="matrix(0.6085 0.7936 -0.7936 0.6085 287.268 -22.703)" fill="#151A4F" width="6.561" height="6.56"/>     <rect x="148.961" y="287.538" transform="matrix(0.6085 0.7936 -0.7936 0.6085 290.3958 -6.9502)" fill="#151A4F" width="6.561" height="6.56"/>  <path fill="#151A4F" d="M224.082,221.346c-1.515-1.455-3.077-2.855-4.703-4.179l3.758,4.901L224.082,221.346z"/>     <rect x="206.049" y="225.237" transform="matrix(0.6085 0.7936 -0.7936 0.6085 263.3068 -76.6477)" fill="#151A4F" width="6.561" height="6.56"/>     <rect x="191.679" y="236.289" transform="matrix(-0.6085 -0.7936 0.7936 -0.6085 123.468 540.0556)" fill="#151A4F" width="6.561" height="6.56"/>     <rect x="177.253" y="247.332" transform="matrix(0.6085 0.7936 -0.7936 0.6085 269.5666 -45.1444)" fill="#151A4F" width="6.561" height="6.56"/>     <rect x="162.854" y="258.38" transform="matrix(0.6085 0.7936 -0.7936 0.6085 272.6965 -29.3915)" fill="#151A4F" width="6.561" height="6.56"/>     <rect x="148.456" y="269.427" transform="matrix(0.6085 0.7936 -0.7936 0.6085 275.8259 -13.6404)" fill="#151A4F" width="6.561" height="6.56"/>     <rect x="134.082" y="280.487" transform="matrix(-0.6085 -0.7936 0.7936 -0.6085 -4.2496 565.4377)" fill="#151A4F" width="6.561" height="6.56"/>  <path fill="#151A4F" d="M206.775,217.26l5.204-3.993l-2.051-2.675c-0.995-0.588-2.002-1.157-3.023-1.7l-4.121,3.163L206.775,217.26   z"/>     <rect x="189.688" y="220.426" transform="matrix(0.6085 0.7936 -0.7936 0.6085 253.083 -65.5472)" fill="#151A4F" width="6.561" height="6.56"/>     <rect x="175.289" y="231.474" transform="matrix(0.6085 0.7936 -0.7936 0.6085 256.2127 -49.7949)" fill="#151A4F" width="6.561" height="6.56"/>     <rect x="160.89" y="242.522" transform="matrix(0.6085 0.7936 -0.7936 0.6085 259.3427 -34.042)" fill="#151A4F" width="6.561" height="6.56"/>     <rect x="146.491" y="253.57" transform="matrix(0.6085 0.7936 -0.7936 0.6085 262.4725 -18.2899)" fill="#151A4F" width="6.561" height="6.56"/>     <rect x="132.092" y="264.617" transform="matrix(0.6085 0.7936 -0.7936 0.6085 265.6011 -2.5377)" fill="#151A4F" width="6.561" height="6.56"/>  <path fill="#151A4F" d="M192.638,212.12l5.204-3.993l-3.484-4.544c-0.324-0.104-0.645-0.209-0.971-0.308l-4.742,3.638   L192.638,212.12z"/>     <rect x="175.552" y="215.287" transform="matrix(0.6085 0.7936 -0.7936 0.6085 243.4697 -56.3412)" fill="#151A4F" width="6.561" height="6.56"/>     <rect x="161.178" y="226.34" transform="matrix(-0.6085 -0.7936 0.7936 -0.6085 82.3038 499.8473)" fill="#151A4F" width="6.561" height="6.56"/>     <rect x="146.779" y="237.389" transform="matrix(-0.6085 -0.7936 0.7936 -0.6085 50.3739 506.1921)" fill="#151A4F" width="6.561" height="6.56"/>     <rect x="132.381" y="248.44" transform="matrix(-0.6085 -0.7936 0.7936 -0.6085 18.446 512.5414)" fill="#151A4F" width="6.561" height="6.56"/>     <rect x="117.979" y="259.488" transform="matrix(-0.6085 -0.7936 0.7936 -0.6085 -13.4859 518.8834)" fill="#151A4F" width="6.561" height="6.56"/>  <path fill="#151A4F" d="M176.273,207.31l5.204-3.993l-2.278-2.971c-1.391-0.151-2.792-0.253-4.199-0.328l-2.72,2.087   L176.273,207.31z"/>     <rect x="159.189" y="210.475" transform="matrix(0.6085 0.7936 -0.7936 0.6085 233.2448 -45.2396)" fill="#151A4F" width="6.561" height="6.56"/>     <rect x="144.789" y="221.524" transform="matrix(0.6085 0.7936 -0.7936 0.6085 236.3748 -29.4866)" fill="#151A4F" width="6.561" height="6.56"/>     <rect x="130.391" y="232.571" transform="matrix(0.6085 0.7936 -0.7936 0.6085 239.5045 -13.7351)" fill="#151A4F" width="6.561" height="6.56"/>     <rect x="115.991" y="243.618" transform="matrix(0.6085 0.7936 -0.7936 0.6085 242.6332 2.0176)" fill="#151A4F" width="6.561" height="6.56"/>  <path fill="#151A4F" d="M164.734,200.178c-1.268,0.104-2.538,0.242-3.809,0.41l1.213,1.583L164.734,200.178z"/>     <rect x="145.052" y="205.336" transform="matrix(0.6085 0.7936 -0.7936 0.6085 223.6309 -36.033)" fill="#151A4F" width="6.561" height="6.56"/>     <rect x="130.653" y="216.383" transform="matrix(0.6085 0.7936 -0.7936 0.6085 226.7606 -20.2809)" fill="#151A4F" width="6.561" height="6.56"/>     <rect x="116.253" y="227.431" transform="matrix(0.6085 0.7936 -0.7936 0.6085 229.8895 -4.5282)" fill="#151A4F" width="6.561" height="6.56"/>  <path fill="#151A4F" d="M109.744,242.371l-3.993-5.207l-1.064,0.816c-0.962,1.648-1.87,3.326-2.71,5.043l2.561,3.341   L109.744,242.371z"/> </g> <path fill="#E94A47" d="M134.995,133.26c-3.844-6.611-13.874-8.526-19.881-3.793c-1.926,1.518-3.514,3.608-5.835,4.394  c-5.792,1.961-11.301-5.262-17.353-4.388c-10.35,1.493-7.58,21.984-17.927,23.499c-5.771,0.845-10.708-5.67-16.48-4.841  c-8.259,1.187-9.436,15.481-17.741,16.285c-3.072,0.297-5.935-1.533-8.989-1.971c-3.055-0.439-7.017,1.959-5.937,4.85  c1.722,7.883,1.482,7.883,3.785,15.279c4.422,14.189,8.287,28.841,20.366,37.498c12.079,8.656,25.001,13.911,39.27,18.051  c12.986,3.767,28.001,6.604,41.465,5.362c17.508-1.615,33.343-11.757,45.311-24.64c11.968-12.884,20.601-28.442,29.115-43.831  c-3.459,3.236-9.199,0.45-12.27-3.156c-3.072-3.606-5.671-8.276-10.267-9.423c-3.912-0.976-8.155,0.998-12.015-0.17  c-7.598-2.3-8.849-14.848-16.711-15.945c-3.038-0.424-6.168,1.165-9.134,0.387C138.396,145.297,137.787,138.063,134.995,133.26z"/> <path fill="#F2A19C" d="M131.65,235.713c-0.977-0.463-1.953-0.925-2.93-1.388c1.028-17.106,0.942-34.278-0.255-51.372  c-7.041,4.573-15.737,6.529-24.057,5.412c2.459,16.188,2.625,32.722,0.495,48.956C113.751,236.025,122.71,235.485,131.65,235.713z"/> <polygon fill="#428DFC" points="106.964,351.67 14.05,364.889 0,266.07 92.915,252.851 "/> <g>  <polygon fill="#A1C3FC" points="72.896,198.269 64.73,202.457 75.04,202.457  "/>  <polygon fill="#A1C3FC" points="36.17,217.098 82.542,217.098 78.594,209.392 51.201,209.392  "/>  <polygon fill="#A1C3FC" points="7.609,231.74 90.044,231.74 86.095,224.034 22.641,224.034  "/>  <polygon fill="#A1C3FC" points="11.474,246.382 97.545,246.382 93.597,238.675 7.526,238.675  "/>  <polygon fill="#A1C3FC" points="18.975,261.024 105.047,261.024 101.099,253.318 15.027,253.318  "/>  <polygon fill="#A1C3FC" points="26.476,275.667 88.373,275.667 103.405,267.959 22.528,267.959  "/>  <polygon fill="#A1C3FC" points="33.978,290.308 59.812,290.308 74.844,282.602 30.03,282.602  "/>  <polygon fill="#A1C3FC" points="39.352,300.798 46.284,297.244 37.531,297.244  "/> </g> <circle fill="#D9E021" cx="281.312" cy="111.632" r="4.881"/> <rect x="215.376" y="9.882" transform="matrix(0.2967 -0.955 0.955 0.2967 141.4022 216.7813)" fill="#A1C3FC" width="5.012" height="5.011"/> <rect x="243.321" y="17.77" transform="matrix(0.2967 -0.955 0.955 0.2967 152.4365 256.1738)" fill="#E94A47" width="13.647" height="13.643"/> <rect x="224.07" y="67.392" transform="matrix(0.2967 -0.955 0.955 0.2967 91.5113 272.6873)" fill="#1D72D8" width="13.647" height="13.643"/> <g>  <path fill="#23286B" d="M234.199,41.721c-0.205,0-0.4-0.116-0.493-0.315c-6.386-13.764-2.448-31.51,9.162-41.278   c0.229-0.194,0.571-0.163,0.764,0.066s0.163,0.572-0.066,0.764c-11.249,9.463-15.064,26.656-8.876,39.992   c0.126,0.271,0.007,0.594-0.264,0.721C234.355,41.704,234.276,41.721,234.199,41.721z"/> </g> <g>  <path fill="#23286B" d="M282.064,94.915c-0.142,0-0.284-0.055-0.391-0.166c-0.209-0.215-0.201-0.559,0.014-0.767   c7.86-7.582,21.649-8.155,30.113-1.256c0.232,0.189,0.267,0.53,0.078,0.762c-0.188,0.234-0.529,0.267-0.763,0.078   c-8.058-6.569-21.19-6.021-28.674,1.197C282.336,94.864,282.199,94.915,282.064,94.915z"/> </g> <path fill="#FFBEB6" d="M114.213,200.806c4.989-0.413,9.544-3.12,13.236-6.503c7.853-7.197,12.462-17.812,12.357-28.466  c-0.034-3.446-0.543-6.909-1.737-10.141c-4.191-11.346-17.57-18.407-29.299-15.462c-4.584,1.151-8.837,3.656-11.984,7.183  c-6.358,7.123-7.642,17.542-6.427,27.013c0.835,6.505,2.787,13.036,6.842,18.189C101.256,197.772,107.679,201.346,114.213,200.806z"/> <path fill="#FFFFFF" d="M97.329,177.372c3.604,5.1,10.3,6.049,16.542,5.84c5.937-0.197,10.043-2.707,14.734-6.828  c-2.383,4.877-2.193,5.908-5.549,9.724c-3.552,4.039-7.019,6.206-13.411,5.014c-1.247-0.232-4.329-2.12-5.309-2.927  C100.019,184.651,99.639,182.461,97.329,177.372z"/> <g>  <path fill="#E94A47" d="M96.128,206.089c-0.146,0-0.292-0.059-0.398-0.174c-1.641-1.775-0.172-4.159,1.009-6.074l0.331-0.541   c1.772-2.942,1.785-6.901,0.034-9.854c-0.202-0.342-0.429-0.682-0.656-1.025c-0.898-1.352-1.826-2.749-1.572-4.42   c0.212-1.394,1.195-2.493,2.145-3.554c1.078-1.204,2.01-2.245,1.585-3.429c-0.244-0.681-1.09-1.185-1.907-1.67   c-1.143-0.68-2.439-1.451-2.199-2.911c0.317-1.945,2.018-3.006,3.662-4.031c0.675-0.42,1.312-0.819,1.851-1.27   c1.197-1.003,0-3.457-0.397-4.184c-0.243-0.448-0.517-0.882-0.791-1.317c-0.652-1.039-1.328-2.113-1.614-3.367   c-0.579-2.545,0.639-5.461,3.103-7.433c2.085-1.667,5.202-2.721,7.96-3.575c0.286-0.089,0.59,0.071,0.678,0.357   c0.089,0.286-0.071,0.59-0.358,0.679c-2.663,0.827-5.666,1.836-7.604,3.387c-1.625,1.3-3.314,3.741-2.722,6.345   c0.244,1.073,0.842,2.024,1.473,3.03c0.285,0.453,0.571,0.908,0.825,1.375c0.634,1.169,1.919,4.046,0.138,5.537   c-0.597,0.499-1.296,0.936-1.973,1.358c-1.505,0.939-2.927,1.825-3.166,3.286c-0.114,0.695,0.565,1.138,1.683,1.802   c0.938,0.559,2.001,1.19,2.375,2.238c0.64,1.793-0.599,3.178-1.799,4.518c-0.845,0.944-1.718,1.92-1.882,2.994   c-0.191,1.256,0.583,2.423,1.403,3.657c0.237,0.358,0.474,0.714,0.687,1.072c1.949,3.286,1.933,7.693-0.038,10.965l-0.337,0.551   c-1.257,2.038-2.138,3.684-1.136,4.767c0.204,0.22,0.189,0.564-0.031,0.767C96.392,206.041,96.26,206.089,96.128,206.089z"/> </g> <path fill="#FFBEB6" d="M307.839,53.022c-3.993,0.266-7.504,2.784-11.256,4.178c-1.31,0.486-2.977,0.9-3.941-0.112  c-1.144-1.198-0.209-3.144,0.712-4.524c5.211-7.8,15.876-27.079,11.436-25.574c-9.526,5.271-9.464,19.549-17.888,26.446  c-1.608-0.151-0.554-1.995,0.299-3.367c3.055-4.906,6.111-9.815,9.166-14.721c1.522-2.445,3.074-4.927,5.218-6.849  c1.888-1.694,4.485-3.849,3.437-6.16c-2.623-0.748-5.161,1.313-6.996,3.334c-3.434,3.781-6.404,7.984-8.82,12.485  c-1.817,3.386-3.339,6.963-5.665,10.022c-1.079,1.418-2.353,2.803-3.547,4.219c-0.187-0.269-0.357-0.552-0.479-0.873  c-0.706-1.851,0.117-3.898,0.929-5.702c3.727-8.288,12.498-24.482,11.179-24.863c-4.963-1.433-14.471,18.215-17.986,29.547  c-0.42,1.356-0.887,2.771-1.916,3.748c-3.204,3.043-7.805-2.434-10.142-6.184c-2.336-3.751-7.11-8.61-9.787-6.725  c4.071,10.733,14.195,19.908,12.926,31.317c-0.751,6.752-5.433,12.303-9.749,17.548c-14.992,18.225-23.68,33.23-36.571,52.999  c-1.713,2.626-8.1,13.571-6.507,16.271c0.999,1.693,3.392-0.295,5.155,0.573c5.083,2.503,9.272,6.777,11.674,11.91  c17.106-21.629,25.878-48.461,36.979-73.705c2.583-5.873,5.41-11.833,10.053-16.259c3.547-3.383,8.021-5.732,11.294-9.378  c0.43-0.479,0.832-0.998,1.205-1.543c4.561-3.713,10.43-9.969,14.015-11.789C304.905,57.947,310.973,52.813,307.839,53.022z"/> <linearGradient id="SVGID_1_MyJfwnh41Mnv1uZ_KFFzW" gradientUnits="userSpaceOnUse" x1="1037.8551" y1="1957.451" x2="1909.9214" y2="2427.7634" gradientTransform="matrix(0.206 0 0 0.206 -150.4047 -185.7284)">  <stop offset="0" stop-color="#D6D7D8"/>  <stop offset="1" stop-color="#EEEEEE"/> </linearGradient> <path fill="url(#SVGID_1_MyJfwnh41Mnv1uZ_KFFzW)" d="M42.54,380.571c3.259-35.041,6.753-70.063,10.477-105.058c1.684-15.822,3.277-34.064,15.015-44.801  c9.392-8.593,31.086-8.317,37.952-5.785c0,0,3.459,7.523,13.012,7.593c5.441,0.04,9.593-4.355,10.277-9.682  c12.29-1.808,21.721-1.608,31.111,5.462c28.919-34.289,46.707-63.386,64.075-98.241c6.839,4.337,15.292,9.897,22.132,14.235  c-18.48,51.628-36.959,89.48-59.279,139.568c-2.675,6.004-2.881,24.888-3.768,31.401c-0.705,5.173-0.218,10.424,0.099,15.635  c1.038,17.126,0.208,34.363-2.475,51.31c-2.657-3.545-13.67-5.583-18.08-5.149c-4.409,0.434-8.59,2.114-12.914,3.072  c-14.492,3.208-29.405-1.816-44.227-2.575C84.75,376.471,63.462,384.144,42.54,380.571z"/> <polygon fill="#23286B" points="117.913,259.19 104.623,245.896 117.913,232.602 131.203,245.896 "/> <polygon fill="#23286B" points="117.913,364.492 104.622,351.198 117.913,262.974 131.204,351.198 "/> <g>  <path fill="#E94A47" d="M201.239,166.088c-3.957,0-7.696-3.767-8.936-5.154c-2.888-3.226-6.137-6.863-10.125-6.286   c-1.039,0.15-2.013,0.585-3.044,1.048c-1.133,0.508-2.303,1.032-3.592,1.16c-4.472,0.457-7.762-3.955-9.32-6.621   c-0.21-0.358-0.417-0.723-0.628-1.089c-1.695-2.963-3.449-6.03-6.454-7.198c-2.992-1.161-6.318-0.081-9.534,0.965   c-0.951,0.31-1.935,0.631-2.898,0.89c-3.175,0.849-6.799,0.41-9.02-1.097c-1.365-0.926-2.18-2.227-2.36-3.763   c-0.035-0.297,0.178-0.567,0.475-0.603c0.304-0.032,0.566,0.179,0.601,0.475c0.145,1.231,0.781,2.237,1.892,2.992   c1.946,1.321,5.289,1.713,8.131,0.947c0.935-0.249,1.905-0.566,2.843-0.872c3.395-1.107,6.906-2.251,10.262-0.945   c3.364,1.307,5.213,4.542,7.002,7.669c0.209,0.364,0.415,0.726,0.623,1.081c1.427,2.442,4.407,6.466,8.276,6.089   c1.113-0.113,2.154-0.578,3.256-1.073c1.054-0.473,2.144-0.961,3.333-1.133c4.556-0.658,8.169,3.375,11.069,6.617   c1.425,1.593,6.345,6.54,10.528,4.183c0.262-0.149,0.592-0.054,0.739,0.206c0.148,0.261,0.054,0.591-0.206,0.739   C203.191,165.861,202.209,166.088,201.239,166.088z"/> </g> <path fill="#E94A47" d="M87.743,155.89c4.215-10.428,14.082-18.637,25.261-19.84s23.044,5.271,27.183,15.727  C125.324,162.764,104.134,164.424,87.743,155.89z"/> <path fill="#FFBEB6" d="M217.298,378.562c1.523-0.665,2.67-1.726,2.686-3.353c-0.502-1.677-14.739-1.272-22.108-1.908  c-4.8-0.414-9.716-0.82-14.37,0.428c-2.094,0.561-4.139,1.449-6.219,2.04c-0.469-0.097-0.923-0.202-1.372-0.307  c6.282-2.027,14.565-5.299,14.059-8.163c-2.313-2.368-10.417,0.342-13.506,1.533c-5.558,2.144-10.114,3.038-14.449,4.273  c-4.549-0.181-9.856-0.059-14.091,1.027c-22.547,5.78-46.304,1.351-69.151-3.096c-11.127-2.165-22.256-4.331-33.383-6.496  c2.165,8.511,0.955,15.667,3.12,24.178c15.182-0.361,32.745,1.47,47.351,0c10.888-1.095,21.866-5.231,32.5-2.651  c6.737,1.635,13.121,4.711,19.99,5.631c11.068,1.484,22.715-2.715,33.302,0.84c8.845,2.97,16.449,9.148,25.535,7.028  c3.433-0.802-16.918-9.859-26.845-13.952c7.027-3.722,15.425-0.61,23.376-0.56c7.806,0.049,16.886,1.883,22.703-3.539  C227.424,379.707,223.525,378.968,217.298,378.562z"/> <linearGradient id="SVGID_2_MyJfwnh41Mnv1uZ_KFFzW" gradientUnits="userSpaceOnUse" x1="912.3228" y1="2330.1392" x2="1146.4465" y2="2700.7397" gradientTransform="matrix(0.206 0 0 0.206 -150.4047 -185.7284)">  <stop offset="0" stop-color="#D6D7D8"/>  <stop offset="1" stop-color="#EEEEEE"/> </linearGradient> <path fill="url(#SVGID_2_MyJfwnh41Mnv1uZ_KFFzW)" d="M48.152,360.153c20.061,3.797,32.25,4.313,52.326,7.539c0.301,7.326,1.629,14.609,3.931,21.57  c-31.72,0.852-48.992,0.816-80.656,0.722c-11.386-1.085-10.38-32.421-8.312-48.913c2.118-16.891,17.623-38.51,22.951-54.677  c7.129-21.638,9.546-26.622,23.314-47.728c2.499-3.833,7.353-12.466,11.386-10.305c-3.361,11.343-5.682,24.745-9.043,36.088  c-6.564,22.149-7.684,17.313-8.848,40.385c-0.543,10.762-3.421,32.701-7.048,43.388C48.025,348.597,47.762,360.08,48.152,360.153z"/> <rect x="72.008" y="282.053" fill="#FFFFFF" width="31.447" height="16.271"/> <g>  <path fill="#23286B" d="M272.462,380.802c-0.259,0-0.488-0.185-0.533-0.449c-1.538-8.823-9.07-16.647-19.188-19.932   c-10.064-3.269-20.834-2.02-29.092-0.569c-0.297,0.059-0.576-0.146-0.628-0.44c-0.051-0.295,0.146-0.576,0.441-0.628   c8.382-1.472,19.324-2.734,29.615,0.607c10.496,3.408,18.316,11.563,19.922,20.777c0.051,0.295-0.147,0.576-0.442,0.627   C272.524,380.799,272.492,380.802,272.462,380.802z"/> </g> <g>  <path fill="#23286B" d="M167.88,316.627c-0.116,0-0.232-0.037-0.332-0.113c-3.49-2.706-5.56-7.269-5.536-12.208   c0.025-4.94,2.139-9.483,5.656-12.153c0.651-0.495,1.346-0.94,2.019-1.37c1.157-0.741,2.251-1.44,3.15-2.378   c3.943-4.114,2.488-10.147,0.947-16.534c-1.529-6.343-3.11-12.899,1.048-17.521c1.489-1.654,3.477-2.683,5.401-3.68l0.669-0.347   c6.592-3.451,15.129-11.473,11.634-19.436c-0.516-1.177-1.259-2.223-2.046-3.33c-0.867-1.222-1.766-2.485-2.321-3.933   c-1.775-4.622,0.494-9.806,3.528-12.893c3.276-3.33,7.744-5.285,11.685-7.008c0.277-0.118,0.594,0.007,0.713,0.28   c0.12,0.275-0.005,0.594-0.28,0.714c-3.852,1.685-8.217,3.593-11.347,6.775c-2.792,2.84-4.893,7.571-3.29,11.742   c0.508,1.321,1.326,2.474,2.194,3.694c0.784,1.103,1.594,2.244,2.154,3.522c3.393,7.734-3.531,16.336-12.126,20.834l-0.675,0.349   c-1.837,0.95-3.738,1.933-5.093,3.44c-3.777,4.199-2.33,10.194-0.8,16.542c1.541,6.39,3.135,12.997-1.22,17.539   c-0.989,1.031-2.189,1.8-3.349,2.543c-0.654,0.418-1.331,0.85-1.948,1.32c-3.251,2.466-5.205,6.69-5.227,11.294   c-0.022,4.603,1.89,8.845,5.117,11.345c0.236,0.183,0.28,0.524,0.097,0.761C168.202,316.555,168.041,316.627,167.88,316.627z"/> </g> </g></g><g transform="translate(658.193 244.223) scale(0.344 0.345) rotate(0 58.54651162790699 40.46376811594204)"><g clip-path="url(#clipPath_qcQ5svuCHulPmgilhO7Pc)"><defs>
          <clipPath id="clipPath_qcQ5svuCHulPmgilhO7Pc">
            <rect x="0" y="0" width="116.982" height="80.915" />
          </clipPath>
       </defs> <g>  <g>   <path fill="rgb(255,255,255)" d="M25.087,78.938C25.087,78.938,25.087,78.938,25.087,78.938c-5.715,0-11.748-2.882-15.745-7.522    C4.1,65.331,2.268,57.536,1.167,50.713c-2.271-14.07-1.245-24.692,3.229-33.425c2.191-4.277,6.119-10.08,14.9-11.098L21.01,6    c0.683-0.073,1.354-0.109,2.012-0.109c5.393,0,10.398,2.391,14.473,6.912c3.375,3.744,5.756,8.749,7.281,15.301    c2.669,11.471,2.022,23.919-1.824,35.053c-2.43,7.033-5.851,11.617-10.458,14.013C30.234,78.344,27.742,78.938,25.087,78.938z     M23.021,14.007c-0.371,0-0.751,0.021-1.132,0.062l-1.678,0.187c-3.93,0.455-6.344,2.344-8.592,6.733    C7.973,28.106,7.198,37.141,9.18,49.42c0.92,5.703,2.39,12.146,6.312,16.699c2.461,2.857,6.228,4.703,9.595,4.703h0    c1.339,0,2.572-0.287,3.663-0.854c2.675-1.392,4.811-4.486,6.53-9.462c3.353-9.707,3.918-20.562,1.59-30.563    c-1.205-5.18-2.973-9.009-5.405-11.707C28.936,15.43,26.095,14.007,23.021,14.007z"/>  </g>  <g>   <path fill="rgb(255,255,255)" d="M58.133,80.915c-3.35-24.43-4.826-49.316-4.387-73.969l8.115,0.145    c-0.416,23.379,0.919,46.973,3.97,70.169l0.062-0.007l0.294,2.664L58.133,80.915z"/>  </g>  <g>   <path fill="rgb(255,255,255)" d="M83.654,75.173c-0.356-7.774-0.895-14.673-3.903-20.367c-1.748-3.31-4.964-6.479-8.608-7.832    c-2.135,1.911-4.443,3.652-6.949,5.156l-1.616,0.969l-1.783-0.608c-1.747-0.597-3.126-1.978-3.784-3.789    c-0.725-1.997-0.511-4.256,0.573-6.045c0.891-1.471,2.749-3.387,6.538-4.151c1.512-0.305,2.999-0.401,4.444-0.325    c5.988-6.326,10.491-14.329,14.609-21.647l5.682-10.099l7.073,3.98l-5.682,10.099c-3.613,6.421-7.754,13.779-13.159,20.259    c4.292,2.442,7.752,6.292,9.839,10.243c3.793,7.179,4.433,15.021,4.835,23.787L83.654,75.173z"/>  </g>  <g>   <path fill="rgb(255,255,255)" d="M107.916,59.781c-0.027-19.673-0.718-39.601-2.052-59.23L113.962,0c1.347,19.809,2.043,39.918,2.071,59.77    L107.916,59.781z"/>  </g>  <g>   <rect x="108.866" y="72.287" fill="rgb(255,255,255)" width="8.116" height="5.749"/>  </g> </g> </g></g>
              </svg>