<?xml version="1.0" encoding="UTF-8"?><svg version="1.1" id="Layer_1" xmlns="http://www.w3.org/2000/svg" xmlns:xlink="http://www.w3.org/1999/xlink" x="0px" y="0px" viewBox="0 0 916 610.7" style="enable-background:new 0 0 916 610.7;" xml:space="preserve" width="916px" height="611px">

<g>
	
		<linearGradient id="SVGID_1_" gradientUnits="userSpaceOnUse" x1="-873.9876" y1="259.1559" x2="-428.3957" y2="259.1559" gradientTransform="matrix(-0.988 0 0 -0.991 -173.8783 644.843)">
		<stop offset="0" style="stop-color:#CBDEFD"/>
		<stop offset="1" style="stop-color:#B3CFF6"/>
	</linearGradient>
	<path d="M260.6,470.5h417.8c6.2,0,11.2-5,11.2-11.3V316.8c0-6.2-5-11.3-11.2-11.3H260.6c-6.2,0-11.2,5-11.2,11.3v142.4
		C249.4,465.5,254.4,470.5,260.6,470.5z" style="fill:url(#SVGID_1_);"/>
	
		<linearGradient id="SVGID_2_" gradientUnits="userSpaceOnUse" x1="541.8627" y1="329.1414" x2="646.8397" y2="329.1414" gradientTransform="matrix(0.988 0 0 -0.991 -509.8266 644.843)">
		<stop offset="0" style="stop-color:#B9D3FD"/>
		<stop offset="1" style="stop-color:#89B3F4"/>
	</linearGradient>
	<path d="M128.3,198c0.3-0.3,0.5-0.6,0.8-0.9c-0.2,0-0.3,0-0.5,0c2.5-10.1-2.4-20.9-9.3-28.8c-3-3.5-6.6-6.7-11.1-8.1
		c-4.6-1.4-9.6-0.7-14.3,0.5c-13.7,3.5-26.3,10.9-36,21.2c-3.1,3.3-6.1,7.6-5.3,12.2c1,5,6.7,9.6,4.3,14.2c-2.4,4.7-10.5,3-13.5,7.4
		c-4.5,6.8,9.5,14.9,5.9,22.2c-1.8,3.7-6.9,4.1-10.7,5.7c-7.3,3.2-10.2,13.7-5.7,20.2c4.1,5.8,13.1,10,11.4,16.9
		c-0.6,2.4-2.5,4.3-4.2,6.1c-5.7,5.9-10.8,12.6-13.2,20.5c-2.5,7.8-2.1,16.8,2.3,23.7c2.3,3.5,5.4,6.4,8.7,9
		c16.2,13.2,22.5,27.2,35.5,43.6c8.1,10.3,26.2,76,30.6,94.4c3.3-26.9,11.1-106.9,14.3-111.4c3.2-4.4,4.9-10.7,2.2-15.4
		c-2-3.5-5.8-5.3-9.1-7.7c-3.3-2.3-6.3-6-5.6-9.9c0.4-1.8,1.5-3.4,2.7-4.8c3.7-4.6,8-8.7,10.7-13.9c2.7-5.2,3.5-12,0-16.8
		c-3.2-4.5-9.5-6.4-14.4-9.2c4.2-3.2,10.3-5.4,13.7-9.5c2.6-3.1,3.6-7.6,2.5-11.6c-1.2-4.2-4.3-7.4-6.9-11c0.5-2.1,0.4-4.1-0.9-6
		c-0.6-1-1.5-1.8-2.5-2.4c-0.1-2.1,0.3-4.1,1.7-5.7c2.1-2.4,5.7-3.1,8-5.3c3.7-3.5,2.5-10.7-2.2-12.8c-2.7-1.2-6.6-1.5-7.1-4.4
		c-0.1-0.3,0-0.7,0-1C118.4,212.9,125.8,206.8,128.3,198z" style="fill:url(#SVGID_2_);"/>
	
		<linearGradient id="SVGID_3_" gradientUnits="userSpaceOnUse" x1="608.6227" y1="305.8564" x2="690.5762" y2="305.8564" gradientTransform="matrix(0.988 0 0 -0.991 -509.8266 644.843)">
		<stop offset="0" style="stop-color:#DEEAFE"/>
		<stop offset="1" style="stop-color:#E9F1FE"/>
	</linearGradient>
	<path d="M164.3,352.1c-1.9-4.8-6.4-8.5-7.3-13.6c-1.3-7.4,5.2-13.5,9.4-19.8c6.3-9.4,7.8-21.9,3.8-32.5
		c-4-10.6-13.3-19.1-24.2-22c-7-1.9-14.6-1.7-20.8-5.3c-8.4-5-15.1-17.1-24.4-13.8c-6.5,2.3-8,11.1-5.8,17.6
		c2.1,6.5,6.7,12.1,8.7,18.7c3.8,12.6-2.3,25.7-7.2,37.9c-4.9,12.2-8.2,27.2-0.1,37.5c4,5,10.3,8.3,12.6,14.3
		c3.1,8.1-2.6,16.6-5.4,24.9c-5.2,15.3,0.7,33.8,14,43.1c0.4-19.5,9.5-38.7,24.3-51.4c5.7-4.9,12.3-8.9,17.2-14.6
		S167.1,359.1,164.3,352.1z" style="fill:url(#SVGID_3_);"/>
	<path d="M99,468.4c0.3,0,0.5-0.2,0.6-0.5c4.2-29.9,10.5-57.9,18.8-83.3c0.1-0.3-0.1-0.6-0.4-0.7
		c-0.3-0.1-0.6,0.1-0.7,0.4c-8.3,25.5-14.6,53.6-18.8,83.5C98.4,468,98.6,468.3,99,468.4C98.9,468.4,99,468.4,99,468.4z" style="fill:#23286B;"/>
	
		<ellipse transform="matrix(0.5645 -0.8254 0.8254 0.5645 -261.8071 262.9738)" cx="118.3" cy="379.6" rx="8.2" ry="13.2" style="fill:#C6DDFE;"/>
	<path d="M119.7,379.3c0.2,0,0.5-0.1,0.5-0.4c4.2-12.4,9.1-24.5,14.3-35.9c0.1-0.3,0-0.6-0.3-0.8
		c-0.3-0.1-0.6,0-0.8,0.3c-5.3,11.4-10.1,23.5-14.4,36c-0.1,0.3,0.1,0.6,0.4,0.7C119.5,379.3,119.6,379.3,119.7,379.3z" style="fill:#23286B;"/>
	
		<ellipse transform="matrix(0.5635 -0.8261 0.8261 0.5635 -219.9497 260.1478)" cx="136.2" cy="338.2" rx="8.2" ry="19.9" style="fill:#C6DDFE;"/>
	<path d="M135.9,339.4c0.2,0,0.4-0.1,0.5-0.3c1.6-3.3,3.2-6.7,4.9-9.9c4.6-8.9,9.6-17.5,14.9-25.8
		c0.2-0.3,0.1-0.6-0.2-0.8c-0.3-0.2-0.6-0.1-0.8,0.2c-5.3,8.3-10.4,17-15,25.9c-1.7,3.2-3.3,6.6-4.9,9.9c-0.1,0.3,0,0.6,0.3,0.8
		C135.7,339.4,135.8,339.4,135.9,339.4z" style="fill:#23286B;"/>
	
		<ellipse transform="matrix(0.7097 -0.7045 0.7045 0.7097 -165.3307 197.1726)" cx="156.6" cy="299.2" rx="7.7" ry="22.4" style="fill:#C6DDFE;"/>
	<path d="M158.5,299.4c0.2,0,0.4-0.1,0.5-0.3c7.1-10.7,14.9-20.8,23.1-30.1c0.2-0.2,0.2-0.6-0.1-0.8
		c-0.2-0.2-0.6-0.2-0.8,0.1c-8.2,9.4-16,19.5-23.2,30.2c-0.2,0.3-0.1,0.6,0.2,0.8C158.3,299.4,158.4,299.4,158.5,299.4z" style="fill:#23286B;"/>
	
		<ellipse transform="matrix(0.9173 -0.3983 0.3983 0.9173 -90.4992 95.8077)" cx="185.3" cy="265.7" rx="10.5" ry="30.5" style="fill:#C6DDFE;"/>
	<path d="M186,264.4c0.2,0,0.3-0.1,0.4-0.2c8.4-9.2,17.4-17.6,26.8-25.2c0.2-0.2,0.3-0.6,0.1-0.8
		c-0.2-0.2-0.6-0.3-0.8-0.1c-9.4,7.6-18.4,16.1-26.9,25.3c-0.2,0.2-0.2,0.6,0,0.8C185.7,264.4,185.9,264.4,186,264.4z" style="fill:#23286B;"/>
	
		<ellipse transform="matrix(0.7719 -0.6357 0.6357 0.7719 -99.9565 191.4032)" cx="216.8" cy="235" rx="10.5" ry="35.5" style="fill:#C6DDFE;"/>
	<path d="M111.2,479.8C111.2,479.8,111.2,479.8,111.2,479.8c0.3,0,0.6-0.3,0.6-0.6c-2.2-48.1-3.6-105,2.8-162.9
		c0.3-2.7,0.6-5.3,0.9-8c0-0.3-0.2-0.6-0.5-0.6c-0.3,0-0.6,0.2-0.6,0.5c-0.3,2.7-0.6,5.3-0.9,8c-6.4,58-5,114.9-2.8,163
		C110.7,479.5,110.9,479.8,111.2,479.8z" style="fill:#1D72D8;"/>
	
		<ellipse transform="matrix(0.9637 -0.2669 0.2669 0.9637 -77.3139 41.7048)" cx="114.8" cy="305.3" rx="12.1" ry="4.5" style="fill:#23286B;"/>
	<path d="M115.5,305c0.3,0,0.5-0.2,0.6-0.5c2.1-16.4,4.9-32.5,8.2-47.7c0.1-0.3-0.1-0.6-0.4-0.7
		c-0.3-0.1-0.6,0.1-0.7,0.4c-3.3,15.3-6.1,31.4-8.3,47.8C114.8,304.6,115.1,304.9,115.5,305C115.4,305,115.4,305,115.5,305z" style="fill:#1D72D8;"/>
	<ellipse transform="matrix(0.9638 -0.2668 0.2668 0.9638 -63.2946 42.0512)" cx="123.1" cy="254" rx="15.2" ry="4.5" style="fill:#23286B;"/>
	<path d="M124.5,253.4c0.3,0,0.5-0.2,0.6-0.4c3.1-13.9,6.8-27.5,11-40.4c0.1-0.3-0.1-0.6-0.4-0.7
		c-0.3-0.1-0.6,0.1-0.7,0.4c-4.2,13-7.9,26.6-11,40.5c-0.1,0.3,0.1,0.6,0.4,0.7C124.5,253.4,124.5,253.4,124.5,253.4z" style="fill:#1D72D8;"/>
	
		<ellipse transform="matrix(8.614422e-02 -0.9963 0.9963 8.614422e-02 -84.4544 325.673)" cx="135.3" cy="208.9" rx="7.2" ry="19.2" style="fill:#23286B;"/>
	<path d="M137.2,207.8c0.2,0,0.5-0.2,0.5-0.4c3.1-9.2,6.5-18.4,10.1-27.1c0.1-0.3,0-0.6-0.3-0.7c-0.3-0.1-0.6,0-0.7,0.3
		c-3.6,8.8-7,17.9-10.1,27.2c-0.1,0.3,0.1,0.6,0.4,0.7C137.1,207.8,137.1,207.8,137.2,207.8z" style="fill:#1D72D8;"/>
	
		<ellipse transform="matrix(0.1574 -0.9875 0.9875 0.1574 -49.3403 294.7232)" cx="148" cy="176.3" rx="6.6" ry="20.1" style="fill:#23286B;"/>
	<path d="M149.1,176.4c0.2,0,0.4-0.1,0.5-0.3c2.3-5.5,4.8-11,7.4-16.3c0.8-1.6,1.6-3.2,2.3-4.8c0.1-0.3,0-0.6-0.3-0.8
		c-0.3-0.1-0.6,0-0.8,0.3c-0.8,1.6-1.6,3.2-2.4,4.8c-2.5,5.3-5,10.8-7.4,16.3c-0.1,0.3,0,0.6,0.3,0.7
		C148.9,176.4,149,176.4,149.1,176.4z" style="fill:#1D72D8;"/>
	<ellipse transform="matrix(0.1574 -0.9875 0.9875 0.1574 -14.9101 284.1046)" cx="159" cy="150.8" rx="8" ry="22.9" style="fill:#23286B;"/>
	<path d="M161.8,149.3c0.2,0,0.4-0.1,0.5-0.3c2.1-4,4.2-7.9,6.4-11.7c0.2-0.3,0.1-0.6-0.2-0.8c-0.3-0.2-0.6-0.1-0.8,0.2
		c-2.2,3.8-4.3,7.8-6.4,11.8c-0.1,0.3,0,0.6,0.2,0.8C161.6,149.3,161.7,149.3,161.8,149.3z" style="fill:#1D72D8;"/>
	
		<linearGradient id="SVGID_4_" gradientUnits="userSpaceOnUse" x1="588.6166" y1="188.7293" x2="658.7131" y2="188.7293" gradientTransform="matrix(0.988 0 0 -0.991 -509.8266 644.843)">
		<stop offset="0" style="stop-color:#EEEEEE"/>
		<stop offset="1" style="stop-color:#D6D7D8"/>
	</linearGradient>
	<rect x="71.7" y="414" width="69.3" height="87.7" style="fill:url(#SVGID_4_);"/>
	
		<linearGradient id="SVGID_5_" gradientUnits="userSpaceOnUse" x1="-949.4872" y1="224.1584" x2="-750.2706" y2="171.733" gradientTransform="matrix(-0.988 0 0 -0.991 -173.8783 644.843)">
		<stop offset="0" style="stop-color:#CBDEFD"/>
		<stop offset="1" style="stop-color:#B3CFF6"/>
	</linearGradient>
	<path d="M732.2,501.7h-31.6c-6.2,0-11.2-5-11.2-11.3V380.3c0-6.2,5-11.3,11.2-11.3h31.6c6.2,0,11.2,5,11.2,11.3v110.1
		C743.4,496.6,738.4,501.7,732.2,501.7z" style="fill:url(#SVGID_5_);"/>
	
		<linearGradient id="SVGID_6_" gradientUnits="userSpaceOnUse" x1="-508.7116" y1="232.4678" x2="-330.4653" y2="197.5175" gradientTransform="matrix(-0.988 0 0 -0.991 -173.8783 644.843)">
		<stop offset="0" style="stop-color:#CBDEFD"/>
		<stop offset="1" style="stop-color:#B3CFF6"/>
	</linearGradient>
	<path d="M238.5,501.7h-31.6c-6.2,0-11.2-5-11.2-11.3V380.3c0-6.2,5-11.3,11.2-11.3h31.6c6.2,0,11.2,5,11.2,11.3v110.1
		C249.7,496.6,244.6,501.7,238.5,501.7z" style="fill:url(#SVGID_6_);"/>
	<path d="M262.4,429.1h414.2c7.2,0,13,5.8,13,13v46.5c0,7.2-5.8,13-13,13H262.4c-7.2,0-13-5.8-13-13v-46.5
		C249.5,434.9,255.3,429.1,262.4,429.1z" style="fill:#D0E1FD;"/>
	<path d="M585.2,425.7c8.4,7.9,35.2,0.2,46.7,0.2c11.5,0,38.3,7.6,46.7-0.2c7.8-7.3,0.3-32.8,0.3-43.6
		c0-10.7,7.6-36.3-0.3-43.6c-8.4-7.9-35.2-0.2-46.7-0.2c-11.5,0-38.3-7.6-46.7,0.2c-7.8,7.3-0.3,32.8-0.3,43.6
		C584.9,392.8,577.3,418.4,585.2,425.7z" style="fill:#D9E7FE;"/>
	<path d="M367.6,425.7c8.4,7.9,35.2,0.2,46.7,0.2c11.5,0,38.3,7.6,46.7-0.2c7.8-7.3,0.3-32.8,0.3-43.6
		c0-10.7,7.6-36.3-0.3-43.6c-8.4-7.9-35.2-0.2-46.7-0.2c-11.5,0-38.3-7.6-46.7,0.2c-7.8,7.3-0.3,32.8-0.3,43.6
		C367.3,392.8,359.8,418.4,367.6,425.7z" style="fill:#E3EDFE;"/>
	<path d="M261.4,425.7c8.4,7.9,35.2,0.2,46.7,0.2c11.5,0,38.3,7.6,46.7-0.2c7.8-7.3,0.3-32.8,0.3-43.6
		c0-10.7,7.6-36.3-0.3-43.6c-8.4-7.9-35.2-0.2-46.7-0.2c-11.5,0-38.3-7.6-46.7,0.2c-7.8,7.3-0.3,32.8-0.3,43.6
		C261.2,392.8,253.6,418.4,261.4,425.7z" style="fill:#A1C3FC;"/>
	<path d="M652.3,378.3c9.1,0,16.5-7.4,16.5-16.6c0-9.1-7.4-16.6-16.5-16.6s-16.5,7.4-16.5,16.6
		C635.8,370.9,643.2,378.3,652.3,378.3z M652.3,346.3c8.5,0,15.4,6.9,15.4,15.4c0,8.5-6.9,15.4-15.4,15.4c-8.5,0-15.4-6.9-15.4-15.4
		C636.9,353.2,643.9,346.3,652.3,346.3z" style="fill:#FFFFFF;"/>
	<path d="M325.5,414.1c9.1,0,16.5-7.4,16.5-16.6c0-9.1-7.4-16.6-16.5-16.6s-16.5,7.4-16.5,16.6
		C308.9,406.7,316.3,414.1,325.5,414.1z M325.5,382.1c8.5,0,15.4,6.9,15.4,15.4c0,8.5-6.9,15.4-15.4,15.4S310,406,310,397.5
		C310,389,317,382.1,325.5,382.1z" style="fill:#FFFFFF;"/>
	<path d="M656.1,428.8h1.1c0-13.5,11-24.5,24.5-24.5v-1.1C667.6,403.1,656.1,414.7,656.1,428.8z" style="fill:#FFFFFF;"/>
	<path d="M602.7,415.5h31.9c0.3,0,0.6-0.3,0.6-0.6v-32c0-0.3-0.3-0.6-0.6-0.6h-31.9c-0.3,0-0.6,0.3-0.6,0.6v32
		C602.1,415.3,602.4,415.5,602.7,415.5z M634.1,414.4h-30.8v-30.9h30.8V414.4z" style="fill:#FFFFFF;"/>
	<path d="M582,358.4h25.9c0.3,0,0.6-0.3,0.6-0.6v-22.5h-1.1v21.9H582V358.4z" style="fill:#FFFFFF;"/>
	<polygon points="364.2,347.3 464.5,347.3 464.2,346.1 364.4,346.1 	" style="fill:#FFFFFF;"/>
	<polygon points="365.5,397.7 463.2,397.7 463.1,396.6 365.7,396.6 	" style="fill:#FFFFFF;"/>
	<polygon points="364.2,409.9 464.6,409.9 464.5,408.7 364.2,408.7 	" style="fill:#FFFFFF;"/>
	<path d="M297.8,378.4c6.3,0,11.5-5.2,11.5-11.5c0-6.3-5.1-11.5-11.5-11.5s-11.5,5.2-11.5,11.5
		C286.4,373.3,291.5,378.4,297.8,378.4z M297.8,356.6c5.7,0,10.3,4.6,10.3,10.4s-4.6,10.4-10.3,10.4s-10.3-4.6-10.3-10.4
		C287.5,361.2,292.1,356.6,297.8,356.6z" style="fill:#FFFFFF;"/>
	<path d="M259.7,423.4c6.3,0,11.3-5.2,11.3-11.5c0-6.3-5.1-11.5-12.1-11.5l-0.1,1.1c6.3,0,11.1,4.6,11.1,10.4
		s-4.9,10.4-10.6,10.4L259.7,423.4z" style="fill:#FFFFFF;"/>
	<rect x="353.3" y="44.6" width="191.2" height="191.8" style="fill:#EEEEEE;"/>
	<rect x="366.9" y="58.3" width="163.9" height="164.4" style="fill:#FFFFFF;"/>
</g>
<g>
	<path id="R_hand_6_xGruMkGDCgbOE6Pbps4Fx" d="M535.9,522.6c0,0,2.6,42-1.2,43.5c-3.8,1.5-15.9-1.1-20.5-2.7
		c-4.6-1.5-11.4,0-15.6,3c-4.2,3-18.2,12.1-18.2,12.1s6.8,3.7,16.5-1.1c1-0.5,2.1-1.1,3.2-1.9c11.4-7.6,18.2-1.5,16.7-0.8
		c-1.5,0.8-8.4,1.5-11,1.5s-7.4-0.4-8.2,3.8c0,0,28.8,1.7,38.1,0.2c9.3-1.5,8.7,0.5,13.9-16.5c5.2-17,9.5-32.6,9.5-32.6L535.9,522.6
		z" style="fill:#FFBEB5;"/>
	<path id="R_shoe_1_xGruMkGDCgbOE6Pbps4Fx" d="M437.1,287.4l-33.7,11.3l-18.6-86.3c0,0,7.5-2.9,13.6,6.6
		c6.2,9.6,31.1,32.5,31.1,32.5L437.1,287.4z" style="fill:#FBDD9D;"/>
	<path id="L_shoe_1_xGruMkGDCgbOE6Pbps4Fx" d="M497.3,187.5l-34.9-6.8l26.6-84.2c0,0,7.9,1.2,8.5,12.5
		c0.6,11.3,13.4,44.4,13.4,44.4L497.3,187.5z" style="fill:#FBDD9D;"/>
	<g id="L_trousersxGruMkGDCgbOE6Pbps4Fx">
		
			<linearGradient id="SVGID_7_" gradientUnits="userSpaceOnUse" x1="-6739.9839" y1="-5367.7163" x2="-5009.6064" y2="-7347.5942" gradientTransform="matrix(-5.201820e-02 0 0 -5.194410e-02 240.4319 -78.1928)">
			<stop offset="0" style="stop-color:#A1C3FC"/>
			<stop offset="1" style="stop-color:#6EA2ED"/>
		</linearGradient>
		<path d="M488.6,208.8c0,0,0.6,0.4,1.6,1.1c18.4-8.3,34.7-15.6,38.8-17.2c10.8-4.2,31-16.4,37.1,1.9
			c1.6,4.8,3.8,18.5,6.1,36.1c6.8-0.7,10.3,3.1,2.8,22.4c4.1,33.5,8.2,72.5,10.2,92.9c2.5-5.1,52.5-104.2,55.1-123
			c2.8-19.2-18.3-27-35.7-33.8c-2.7-1.1-6.8-2.6-11.8-4.5c-27.4-10.5-82.1-31.1-82.1-31.1L495.8,191L488.6,208.8z" style="fill:url(#SVGID_7_);"/>
	</g>
	<g id="R_trousersxGruMkGDCgbOE6Pbps4Fx">
		<path d="M426.3,239l10.8,50.1c7,0.5,17.8-4.7,27.7-13.1c9.8-8.4,15-6.6,26.7-6.1c11.7,0.5,19.2-9.4,24.9-11.7
			c5.6-2.3,4.2,14.5,0,27.6c-3.4,10.5-2.3,31.5-1.7,39.5c7.1,1.8,19,5.5,29.9,12.9c17,11.5,27,14.6,38,18.2c1.2,0.4,2.5,0.8,3.9,1.2
			c-1.9-18.7-14.8-146.2-20.4-163.1c-6.1-18.3-26.3-6.1-37.1-1.9C518.3,196.8,426.3,239,426.3,239z" style="fill:#A1C3FC;"/>
	</g>
	<path id="texturexGruMkGDCgbOE6Pbps4Fx" d="M515.6,315.9c-0.1,0.1-0.1,0.2,0,0.2c0.1,0.1,0.2,0.1,0.2,0
		c0.1-0.1,0.1-0.2,0-0.2C515.8,315.8,515.7,315.8,515.6,315.9z M518.4,313.4c0.1,0.1,0.1,0.2,0,0.2c-0.1,0.1-0.2,0.1-0.2,0
		c-0.1-0.1-0.1-0.2,0-0.2C518.2,313.3,518.3,313.3,518.4,313.4z M520.9,310.9c0.1,0.1,0.1,0.2,0,0.2c-0.1,0.1-0.2,0.1-0.2,0
		c-0.1-0.1-0.1-0.2,0-0.2C520.7,310.8,520.8,310.8,520.9,310.9z M515.3,323.6c0,0.1-0.1,0.1-0.1,0.1c-0.1,0-0.1-0.1-0.1-0.1
		c0-0.1,0.1-0.1,0.1-0.1C515.3,323.4,515.3,323.5,515.3,323.6z M518.9,323.6c0,0.1-0.1,0.1-0.1,0.1c-0.1,0-0.1-0.1-0.1-0.1
		c0-0.1,0.1-0.1,0.1-0.1C518.8,323.4,518.9,323.5,518.9,323.6z M522.4,323.6c0,0.1-0.1,0.1-0.1,0.1c-0.1,0-0.1-0.1-0.1-0.1
		c0-0.1,0.1-0.1,0.1-0.1C522.4,323.4,522.4,323.5,522.4,323.6z M526,323.6c0,0.1-0.1,0.1-0.1,0.1c-0.1,0-0.1-0.1-0.1-0.1
		c0-0.1,0.1-0.1,0.1-0.1C525.9,323.4,526,323.5,526,323.6z M515.6,305.3c0.1,0,0.1,0.1,0.1,0.2c0,0.1-0.1,0.1-0.2,0.1
		c-0.1,0-0.1-0.1-0.1-0.2C515.4,305.3,515.5,305.3,515.6,305.3z M516.3,320.1c0,0.1,0,0.2-0.1,0.2c-0.1,0-0.2,0-0.2-0.1
		c0-0.1,0-0.2,0.1-0.2C516.2,320,516.3,320,516.3,320.1z M519.6,318.7c0,0.1,0,0.2-0.1,0.2c-0.1,0-0.2,0-0.2-0.1
		c0-0.1,0-0.2,0.1-0.2C519.5,318.6,519.6,318.6,519.6,318.7z M522.9,317.4c0,0.1,0,0.2-0.1,0.2c-0.1,0-0.2,0-0.2-0.1
		c0-0.1,0-0.2,0.1-0.2C522.8,317.3,522.9,317.3,522.9,317.4z M526.2,316c0,0.1,0,0.2-0.1,0.2s-0.2,0-0.2-0.1c0-0.1,0-0.2,0.1-0.2
		C526.1,315.9,526.2,315.9,526.2,316z M515.6,308.9c0.1,0,0.1,0.1,0.1,0.2c0,0.1-0.1,0.1-0.2,0.1c-0.1,0-0.1-0.1-0.1-0.2
		C515.4,308.9,515.5,308.8,515.6,308.9z M516.9,304.9c0.1,0,0.1,0.1,0.1,0.2c0,0.1-0.1,0.1-0.2,0.1c-0.1,0-0.1-0.1-0.1-0.2
		C516.7,304.9,516.8,304.9,516.9,304.9z M517.9,321.2c0,0.1,0,0.2-0.1,0.2c-0.1,0-0.2,0-0.2-0.1c0-0.1,0-0.2,0.1-0.2
		C517.7,321.1,517.8,321.1,517.9,321.2z M521.6,319.3c0,0.1,0,0.2-0.1,0.2c-0.1,0-0.2,0-0.2-0.1c0-0.1,0-0.2,0.1-0.2
		C521.4,319.2,521.5,319.2,521.6,319.3z M525.3,317.4c0,0.1,0,0.2-0.1,0.2c-0.1,0-0.2,0-0.2-0.1c0-0.1,0-0.2,0.1-0.2
		C525.2,317.3,525.3,317.3,525.3,317.4z M529.1,315.5c0,0.1,0,0.2-0.1,0.2c-0.1,0-0.2,0-0.2-0.1c0-0.1,0-0.2,0.1-0.2
		C528.9,315.4,529,315.4,529.1,315.5z M516.9,316.9c0.1,0.1,0.1,0.2,0,0.2c-0.1,0.1-0.2,0.1-0.2,0c-0.1-0.1-0.1-0.2,0-0.2
		C516.7,316.9,516.8,316.9,516.9,316.9z M519.6,313.7c0.1,0.1,0.1,0.2,0,0.2c-0.1,0.1-0.2,0.1-0.2,0c-0.1-0.1-0.1-0.2,0-0.2
		C519.5,313.7,519.6,313.7,519.6,313.7z M522.4,310.5c0.1,0.1,0.1,0.2,0,0.2c-0.1,0.1-0.2,0.1-0.2,0c-0.1-0.1-0.1-0.2,0-0.2
		C522.2,310.5,522.3,310.5,522.4,310.5z M525.1,307.4c0.1,0.1,0.1,0.2,0,0.2c-0.1,0.1-0.2,0.1-0.2,0c-0.1-0.1-0.1-0.2,0-0.2
		C524.9,307.3,525,307.3,525.1,307.4z M520.6,324.2c0,0.1-0.1,0.2-0.2,0.2c-0.1,0-0.2-0.1-0.2-0.2c0-0.1,0.1-0.2,0.2-0.2
		C520.5,324,520.6,324.1,520.6,324.2z M524.8,323.9c0,0.1-0.1,0.2-0.2,0.2c-0.1,0-0.2-0.1-0.2-0.2c0-0.1,0.1-0.2,0.2-0.2
		C524.7,323.7,524.8,323.8,524.8,323.9z M529,323.5c0,0.1-0.1,0.2-0.2,0.2c-0.1,0-0.2-0.1-0.2-0.2c0-0.1,0.1-0.2,0.2-0.2
		C528.9,323.4,529,323.4,529,323.5z M533.2,323.2c0,0.1-0.1,0.2-0.2,0.2c-0.1,0-0.2-0.1-0.2-0.2c0-0.1,0.1-0.2,0.2-0.2
		C533.1,323,533.2,323.1,533.2,323.2z M517.3,322c0.1,0.1,0,0.1,0,0.2c-0.1,0.1-0.1,0-0.2,0c-0.1-0.1,0-0.1,0-0.2
		C517.1,321.9,517.2,321.9,517.3,322z M519.8,319.8c0.1,0.1,0,0.1,0,0.2c-0.1,0.1-0.1,0-0.2,0c-0.1-0.1,0-0.1,0-0.2
		C519.6,319.7,519.7,319.7,519.8,319.8z M522.3,317.5c0.1,0.1,0,0.1,0,0.2c-0.1,0.1-0.1,0-0.2,0c-0.1-0.1,0-0.1,0-0.2
		C522.1,317.5,522.2,317.5,522.3,317.5z M524.8,315.3c0.1,0.1,0,0.1,0,0.2c-0.1,0.1-0.1,0-0.2,0c-0.1-0.1,0-0.1,0-0.2
		C524.6,315.2,524.7,315.2,524.8,315.3z M525.6,327.3c0,0.1-0.1,0.1-0.1,0.1c-0.1,0-0.1-0.1-0.1-0.1c0-0.1,0.1-0.1,0.1-0.1
		C525.6,327.2,525.6,327.2,525.6,327.3z M529,327.5c0,0.1-0.1,0.1-0.1,0.1c-0.1,0-0.1-0.1-0.1-0.1c0-0.1,0.1-0.1,0.1-0.1
		C528.9,327.4,529,327.4,529,327.5z M515.7,318.9c0.1,0,0.1,0.1,0.1,0.2c0,0.1-0.1,0.1-0.2,0.1c-0.1,0-0.1-0.1-0.1-0.2
		C515.5,318.9,515.6,318.8,515.7,318.9z M517.1,315.9c0.1,0,0.1,0.1,0.1,0.2c0,0.1-0.1,0.1-0.2,0.1c-0.1,0-0.1-0.1-0.1-0.2
		C517,315.9,517.1,315.8,517.1,315.9z M518.6,312.8c0.1,0,0.1,0.1,0.1,0.2c0,0.1-0.1,0.1-0.2,0.1c-0.1,0-0.1-0.1-0.1-0.2
		C518.4,312.8,518.5,312.8,518.6,312.8z M520,309.8c0.1,0,0.1,0.1,0.1,0.2c0,0.1-0.1,0.1-0.2,0.1c-0.1,0-0.1-0.1-0.1-0.2
		C519.9,309.8,520,309.8,520,309.8z M520,323.7c0,0.1,0,0.2-0.1,0.2c-0.1,0-0.2,0-0.2-0.1c0-0.1,0-0.2,0.1-0.2
		C519.9,323.6,520,323.6,520,323.7z M523.2,322.6c0,0.1,0,0.2-0.1,0.2c-0.1,0-0.2,0-0.2-0.1s0-0.2,0.1-0.2
		C523.1,322.5,523.2,322.5,523.2,322.6z M526.4,321.5c0,0.1,0,0.2-0.1,0.2c-0.1,0-0.2,0-0.2-0.1c0-0.1,0-0.2,0.1-0.2
		C526.2,321.4,526.3,321.4,526.4,321.5z M529.5,320.4c0,0.1,0,0.2-0.1,0.2c-0.1,0-0.2,0-0.2-0.1c0-0.1,0-0.2,0.1-0.2
		C529.4,320.3,529.5,320.3,529.5,320.4z M520.5,321.4c0.1,0,0.1,0.2,0.1,0.3c0,0.1-0.2,0.1-0.3,0.1c-0.1,0-0.1-0.2-0.1-0.3
		C520.3,321.4,520.4,321.4,520.5,321.4z M522.7,317.3c0.1,0.1,0.1,0.2,0.1,0.3c0,0.1-0.2,0.1-0.3,0.1c-0.1-0.1-0.1-0.2-0.1-0.3
		C522.5,317.3,522.6,317.3,522.7,317.3z M524.9,313.3c0.1,0,0.1,0.2,0.1,0.3c0,0.1-0.2,0.1-0.3,0.1c-0.1,0-0.1-0.2-0.1-0.3
		C524.7,313.2,524.8,313.2,524.9,313.3z M527.1,309.2c0.1,0,0.1,0.2,0.1,0.3c-0.1,0.1-0.2,0.1-0.3,0.1c-0.1,0-0.1-0.2-0.1-0.3
		C526.9,309.2,527,309.1,527.1,309.2z M525,327.1c0,0.1,0,0.2-0.1,0.2c-0.1,0-0.2,0-0.2-0.1c0-0.1,0-0.2,0.1-0.2
		C524.8,326.9,524.9,327,525,327.1z M529.4,325.8c0,0.1,0,0.2-0.1,0.2c-0.1,0-0.2,0-0.2-0.1c0-0.1,0-0.2,0.1-0.2
		C529.3,325.6,529.4,325.7,529.4,325.8z M533.8,324.4c0,0.1,0,0.2-0.1,0.2c-0.1,0-0.2,0-0.2-0.1c0-0.1,0-0.2,0.1-0.2
		C533.7,324.3,533.8,324.3,533.8,324.4z M538.3,323.1c0,0.1,0,0.2-0.1,0.2c-0.1,0-0.2,0-0.2-0.1c0-0.1,0-0.2,0.1-0.2
		C538.1,322.9,538.3,323,538.3,323.1z M516.8,322.5c0.1,0,0.2,0.1,0.2,0.2c0,0.1-0.1,0.2-0.2,0.2c-0.1,0-0.2-0.1-0.2-0.2
		C516.6,322.6,516.7,322.5,516.8,322.5z M517.2,317.9c0.1,0,0.2,0.1,0.2,0.2c0,0.1-0.1,0.2-0.2,0.2c-0.1,0-0.2-0.1-0.2-0.2
		C517,318,517.1,317.9,517.2,317.9z M517.7,313.3c0.1,0,0.2,0.1,0.2,0.2c0,0.1-0.1,0.2-0.2,0.2c-0.1,0-0.2-0.1-0.2-0.2
		C517.5,313.4,517.6,313.3,517.7,313.3z M518.1,308.7c0.1,0,0.2,0.1,0.2,0.2c0,0.1-0.1,0.2-0.2,0.2c-0.1,0-0.2-0.1-0.2-0.2
		C517.9,308.8,518,308.7,518.1,308.7z M518.6,304.1c0.1,0,0.2,0.1,0.2,0.2c0,0.1-0.1,0.2-0.2,0.2c-0.1,0-0.2-0.1-0.2-0.2
		C518.4,304.1,518.5,304.1,518.6,304.1z M521.6,325.1c0.1,0.1,0.1,0.2,0,0.3c-0.1,0.1-0.2,0.1-0.3,0c-0.1-0.1-0.1-0.2,0-0.3
		C521.4,325,521.5,325,521.6,325.1z M525.2,322.1c0.1,0.1,0.1,0.2,0,0.3c-0.1,0.1-0.2,0.1-0.3,0c-0.1-0.1-0.1-0.2,0-0.3
		C525,322.1,525.1,322.1,525.2,322.1z M528.7,319.2c0.1,0.1,0.1,0.2,0,0.3c-0.1,0.1-0.2,0.1-0.3,0c-0.1-0.1-0.1-0.2,0-0.3
		C528.6,319.1,528.7,319.1,528.7,319.2z M532.3,316.3c0.1,0.1,0.1,0.2,0,0.3c-0.1,0.1-0.2,0.1-0.3,0c-0.1-0.1-0.1-0.2,0-0.3
		C532.1,316.2,532.3,316.2,532.3,316.3z M535.9,313.4c0.1,0.1,0.1,0.2,0,0.3c-0.1,0.1-0.2,0.1-0.3,0c-0.1-0.1-0.1-0.2,0-0.3
		C535.7,313.3,535.9,313.3,535.9,313.4z M537,331.7c0,0.1-0.1,0.2-0.2,0.2c-0.1,0-0.2-0.1-0.2-0.2c0-0.1,0.1-0.2,0.2-0.2
		C536.9,331.5,537,331.6,537,331.7z M541.6,332.2c0,0.1-0.1,0.2-0.2,0.2c-0.1,0-0.2-0.1-0.2-0.2c0-0.1,0.1-0.2,0.2-0.2
		C541.5,332,541.6,332,541.6,332.2z M523.7,326.4c0,0,0,0.1,0,0.1c0,0-0.1,0-0.1,0c0,0,0-0.1,0-0.1
		C523.6,326.4,523.7,326.4,523.7,326.4z M525.6,324.9c0,0,0,0.1,0,0.1c0,0-0.1,0-0.1,0c0,0,0-0.1,0-0.1
		C525.5,324.8,525.6,324.8,525.6,324.9z M527.5,323.3c0,0,0,0.1,0,0.1c0,0-0.1,0-0.1,0c0,0,0-0.1,0-0.1
		C527.4,323.3,527.4,323.3,527.5,323.3z M518.8,323.7c0.1,0,0.1,0.1,0.1,0.1c0,0.1-0.1,0.1-0.1,0.1c-0.1,0-0.1-0.1-0.1-0.1
		C518.7,323.8,518.7,323.7,518.8,323.7z M519,321.3c0.1,0,0.1,0.1,0.1,0.1c0,0.1-0.1,0.1-0.1,0.1c-0.1,0-0.1-0.1-0.1-0.1
		C518.9,321.3,519,321.3,519,321.3z M519.2,318.9c0.1,0,0.1,0.1,0.1,0.1c0,0.1-0.1,0.1-0.1,0.1c-0.1,0-0.1-0.1-0.1-0.1
		C519.1,318.9,519.2,318.9,519.2,318.9z M528.6,327.9c0,0.1,0,0.1-0.1,0.1c-0.1,0-0.1,0-0.1-0.1c0-0.1,0-0.1,0.1-0.1
		C528.5,327.8,528.6,327.8,528.6,327.9z M530.9,327.2c0,0.1,0,0.1-0.1,0.1c-0.1,0-0.1,0-0.1-0.1c0-0.1,0-0.1,0.1-0.1
		C530.8,327.1,530.9,327.1,530.9,327.2z M515.5,322.9c0.1,0,0.1,0,0.1,0.1c0,0.1,0,0.1-0.1,0.1c-0.1,0-0.1,0-0.1-0.1
		C515.5,323,515.5,322.9,515.5,322.9z M514.8,320.6c0.1,0,0.1,0,0.1,0.1c0,0.1,0,0.1-0.1,0.1c-0.1,0-0.1,0-0.1-0.1
		C514.7,320.7,514.8,320.6,514.8,320.6z M520.9,325.7c0,0,0.1,0.1,0,0.1c0,0-0.1,0.1-0.1,0c0,0-0.1-0.1,0-0.1
		C520.8,325.7,520.9,325.7,520.9,325.7z M522.1,323.5c0,0,0.1,0.1,0,0.1c0,0-0.1,0.1-0.1,0c0,0-0.1-0.1,0-0.1
		C522,323.5,522,323.5,522.1,323.5z M523.2,321.4c0,0,0.1,0.1,0,0.1c0,0-0.1,0.1-0.1,0c0,0-0.1-0.1,0-0.1
		C523.1,321.4,523.2,321.4,523.2,321.4z M524.3,319.3c0,0,0.1,0.1,0,0.1c0,0-0.1,0.1-0.1,0c0,0-0.1-0.1,0-0.1
		C524.2,319.3,524.3,319.2,524.3,319.3z M521.3,324.1c0.1,0,0.1,0.1,0.1,0.1c0,0.1-0.1,0.1-0.1,0.1c-0.1,0-0.1-0.1-0.1-0.1
		C521.1,324.1,521.2,324.1,521.3,324.1z M521.6,321.3c0.1,0,0.1,0.1,0.1,0.1c0,0.1-0.1,0.1-0.1,0.1c-0.1,0-0.1-0.1-0.1-0.1
		C521.4,321.4,521.5,321.3,521.6,321.3z M521.9,318.5c0.1,0,0.1,0.1,0.1,0.1c0,0.1-0.1,0.1-0.1,0.1c-0.1,0-0.1-0.1-0.1-0.1
		C521.8,318.6,521.8,318.5,521.9,318.5z M526.9,327.3c0,0.1,0,0.1,0,0.2c-0.1,0-0.1,0-0.2,0c0,0,0-0.1,0-0.2
		C526.8,327.3,526.9,327.3,526.9,327.3z M529.1,325.6c0,0.1,0,0.1,0,0.2c-0.1,0-0.1,0-0.2,0c0-0.1,0-0.1,0-0.2
		C529,325.5,529.1,325.5,529.1,325.6z M531.3,323.8c0,0.1,0,0.1,0,0.2c-0.1,0-0.1,0-0.2,0c0-0.1,0-0.1,0-0.2
		C531.2,323.8,531.3,323.8,531.3,323.8z M517.3,323.1c0.1,0,0.1,0,0.1,0.1c0,0.1,0,0.1-0.1,0.1c-0.1,0-0.1,0-0.1-0.1
		C517.2,323.2,517.3,323.1,517.3,323.1z M516.6,320.4c0.1,0,0.1,0,0.1,0.1c0,0.1,0,0.1-0.1,0.1s-0.1,0-0.1-0.1
		C516.5,320.5,516.5,320.4,516.6,320.4z M515.8,317.7c0.1,0,0.1,0,0.1,0.1c0,0.1,0,0.1-0.1,0.1c-0.1,0-0.1,0-0.1-0.1
		C515.7,317.8,515.7,317.7,515.8,317.7z M523.5,326.4c0.1,0,0.1,0.1,0,0.2c0,0.1-0.1,0.1-0.2,0c-0.1,0-0.1-0.1,0-0.2
		C523.4,326.4,523.5,326.4,523.5,326.4z M524.9,323.9c0.1,0,0.1,0.1,0,0.2c0,0.1-0.1,0.1-0.2,0c-0.1,0-0.1-0.1,0-0.2
		C524.8,323.9,524.8,323.9,524.9,323.9z M526.3,321.5c0.1,0,0.1,0.1,0,0.2c0,0.1-0.1,0.1-0.2,0c-0.1,0-0.1-0.1,0-0.2
		C526.1,321.5,526.2,321.5,526.3,321.5z M527.6,319c0.1,0,0.1,0.1,0,0.2c0,0.1-0.1,0.1-0.2,0c-0.1,0-0.1-0.1,0-0.2
		C527.5,319,527.6,319,527.6,319z M532.4,329.1c0,0.1,0,0.1-0.1,0.1c-0.1,0-0.1,0-0.1-0.1c0-0.1,0-0.1,0.1-0.1
		C532.3,329,532.3,329,532.4,329.1z M535.1,328.3c0,0.1,0,0.1-0.1,0.1c-0.1,0-0.1,0-0.1-0.1c0-0.1,0-0.1,0.1-0.1
		C535,328.2,535,328.3,535.1,328.3z M526,327.2c0.1,0,0.1,0.1,0.1,0.1c0,0.1-0.1,0.1-0.1,0.1c-0.1,0-0.1-0.1-0.1-0.1
		C525.9,327.3,525.9,327.2,526,327.2z M526.6,324.4c0.1,0,0.1,0.1,0.1,0.1c0,0.1-0.1,0.1-0.1,0.1c-0.1,0-0.1-0.1-0.1-0.1
		C526.5,324.5,526.6,324.4,526.6,324.4z M527.2,321.7c0.1,0,0.1,0.1,0.1,0.1c0,0.1-0.1,0.1-0.1,0.1c-0.1,0-0.1-0.1-0.1-0.1
		C527.1,321.7,527.2,321.7,527.2,321.7z M533.8,329.6c0,0.1,0,0.1,0,0.2c-0.1,0-0.1,0-0.2,0c0-0.1,0-0.1,0-0.2
		C533.7,329.5,533.8,329.5,533.8,329.6z M536.2,328c0,0.1,0,0.1,0,0.2c-0.1,0-0.1,0-0.2,0c0-0.1,0-0.1,0-0.2
		C536.1,328,536.2,328,536.2,328z M516.4,323.5c0.1,0,0.1,0,0.2,0c0,0.1,0,0.1,0,0.2c-0.1,0-0.1,0-0.2,0
		C516.3,323.6,516.3,323.5,516.4,323.5z M529.9,327.4c0.1,0,0.1,0.1,0,0.2c0,0.1-0.1,0.1-0.2,0c-0.1,0-0.1-0.1,0-0.2
		C529.8,327.4,529.9,327.4,529.9,327.4z M531.6,325.1c0.1,0,0.1,0.1,0,0.2c0,0.1-0.1,0.1-0.2,0c-0.1,0-0.1-0.1,0-0.2
		C531.4,325.1,531.5,325,531.6,325.1z M533.2,322.7c0.1,0,0.1,0.1,0,0.2c0,0.1-0.1,0.1-0.2,0c-0.1,0-0.1-0.1,0-0.2
		C533.1,322.7,533.1,322.7,533.2,322.7z M536.9,333.4c0,0.1,0,0.1-0.1,0.1c-0.1,0-0.1,0-0.1-0.1c0-0.1,0-0.1,0.1-0.1
		C536.8,333.3,536.9,333.4,536.9,333.4z M539.7,332.9c0,0.1,0,0.1-0.1,0.1c-0.1,0-0.1,0-0.1-0.1c0-0.1,0-0.1,0.1-0.1
		C539.6,332.8,539.7,332.9,539.7,332.9z M522.4,325.8c0.1,0,0.1,0,0.1,0.1c0,0.1,0,0.1-0.1,0.1c-0.1,0-0.1,0-0.1-0.1
		C522.3,325.8,522.3,325.8,522.4,325.8z M521.9,323c0.1,0,0.1,0,0.1,0.1c0,0.1,0,0.1-0.1,0.1c-0.1,0-0.1,0-0.1-0.1
		C521.8,323,521.8,323,521.9,323z M521.4,320.2c0.1,0,0.1,0,0.1,0.1c0,0.1,0,0.1-0.1,0.1c-0.1,0-0.1,0-0.1-0.1
		C521.3,320.2,521.3,320.2,521.4,320.2z M528.6,328.8c0,0,0.1,0.1,0.1,0.1c0,0-0.1,0.1-0.1,0.1c0,0-0.1-0.1-0.1-0.1
		C528.5,328.8,528.5,328.8,528.6,328.8z M529.2,326.7c0,0,0.1,0.1,0.1,0.1c0,0-0.1,0.1-0.1,0.1c0,0-0.1-0.1-0.1-0.1
		C529.1,326.7,529.1,326.7,529.2,326.7z M535.7,332c0,0,0,0.1,0,0.1c0,0-0.1,0-0.1,0c0,0,0-0.1,0-0.1
		C535.7,331.9,535.7,332,535.7,332z M524.8,325.2c0,0,0.1,0,0.1,0.1c0,0,0,0.1-0.1,0.1c0,0-0.1,0-0.1-0.1
		C524.7,325.3,524.7,325.2,524.8,325.2z M532.3,329.5c0,0,0,0.1,0,0.1c0,0-0.1,0-0.1,0c0,0,0-0.1,0-0.1
		C532.2,329.4,532.3,329.4,532.3,329.5z M533.7,327.8c0,0,0,0.1,0,0.1c0,0-0.1,0-0.1,0c0,0,0-0.1,0-0.1
		C533.6,327.7,533.6,327.7,533.7,327.8z M523.7,324.9c0.1,0,0.2,0,0.2,0.1c0,0.1,0,0.2-0.1,0.2c-0.1,0-0.2,0-0.2-0.1
		C523.6,325,523.6,325,523.7,324.9z M522.6,321.5c0.1,0,0.2,0,0.2,0.1c0,0.1,0,0.2-0.1,0.2c-0.1,0-0.2,0-0.2-0.1
		C522.4,321.6,522.5,321.5,522.6,321.5z M533.2,329.1c0.1,0,0.1,0.1,0.1,0.2c0,0.1-0.1,0.1-0.2,0.1c-0.1,0-0.1-0.1-0.1-0.2
		C533.1,329.1,533.2,329.1,533.2,329.1z M534.9,325.9c0.1,0,0.1,0.1,0.1,0.2c0,0.1-0.1,0.1-0.2,0.1c-0.1,0-0.1-0.1-0.1-0.2
		C534.7,325.9,534.8,325.9,534.9,325.9z M536.5,322.7c0.1,0,0.1,0.1,0.1,0.2c0,0.1-0.1,0.1-0.2,0.1c-0.1,0-0.1-0.1-0.1-0.2
		C536.3,322.7,536.4,322.6,536.5,322.7z M542.1,334.5c0,0.1,0,0.2-0.1,0.2c-0.1,0-0.2,0-0.2-0.1c0-0.1,0-0.2,0.1-0.2
		C542,334.3,542.1,334.4,542.1,334.5z M545.5,333.3c0,0.1,0,0.2-0.1,0.2c-0.1,0-0.2,0-0.2-0.1c0-0.1,0-0.2,0.1-0.2
		C545.4,333.2,545.5,333.2,545.5,333.3z M515.1,323.5c0.1-0.1,0.2,0,0.2,0c0.1,0.1,0,0.2,0,0.2c-0.1,0.1-0.2,0-0.2,0
		C515,323.7,515,323.6,515.1,323.5z M529.1,326c0.1,0,0.1,0.1,0.1,0.2c0,0.1-0.1,0.1-0.2,0.1c-0.1,0-0.1-0.1-0.1-0.2
		C529,326,529.1,326,529.1,326z M529.4,322.4c0.1,0,0.1,0.1,0.1,0.2s-0.1,0.1-0.2,0.1c-0.1,0-0.1-0.1-0.1-0.2
		C529.3,322.4,529.3,322.3,529.4,322.4z M529.7,318.7c0.1,0,0.1,0.1,0.1,0.2c0,0.1-0.1,0.1-0.2,0.1c-0.1,0-0.1-0.1-0.1-0.2
		C529.5,318.8,529.6,318.7,529.7,318.7z M537.9,330.4c0.1,0.1,0,0.2,0,0.2c-0.1,0.1-0.2,0-0.2,0c-0.1-0.1,0-0.2,0-0.2
		C537.8,330.3,537.9,330.3,537.9,330.4z M540.7,328c0.1,0.1,0,0.2,0,0.2c-0.1,0.1-0.2,0-0.2,0c-0.1-0.1,0-0.2,0-0.2
		C540.5,328,540.6,328,540.7,328z M543.4,325.7c0.1,0.1,0,0.2,0,0.2c-0.1,0.1-0.2,0-0.2,0c-0.1-0.1,0-0.2,0-0.2
		C543.3,325.6,543.4,325.6,543.4,325.7z M533.6,330.5c0.1,0,0.1,0.1,0.1,0.1c0,0.1-0.1,0.1-0.1,0.1c-0.1,0-0.1-0.1-0.1-0.1
		C533.4,330.5,533.5,330.5,533.6,330.5z M534.3,328.1c0.1,0,0.1,0.1,0.1,0.1c0,0.1-0.1,0.1-0.1,0.1c-0.1,0-0.1-0.1-0.1-0.1
		C534.2,328.1,534.3,328.1,534.3,328.1z M541.8,334.5c0,0.1,0,0.1,0,0.1c-0.1,0-0.1,0-0.1,0c0-0.1,0-0.1,0-0.1
		C541.7,334.4,541.7,334.4,541.8,334.5z M529.3,328.8c0.1,0,0.1,0,0.1,0.1c0,0.1,0,0.1-0.1,0.1c-0.1,0-0.1,0-0.1-0.1
		C529.2,328.8,529.2,328.8,529.3,328.8z M529.1,326.3c0.1,0,0.1,0,0.1,0.1c0,0.1,0,0.1-0.1,0.1c-0.1,0-0.1,0-0.1-0.1
		C529,326.3,529,326.3,529.1,326.3z M537.7,331.5c0,0,0,0.1,0,0.1c0,0-0.1,0.1-0.1,0c0,0,0-0.1,0-0.1
		C537.6,331.5,537.7,331.5,537.7,331.5z M539.3,329.6c0,0,0,0.1,0,0.1c0,0-0.1,0-0.1,0c0,0,0-0.1,0-0.1
		C539.2,329.5,539.3,329.5,539.3,329.6z M533.4,329.6c0.1,0,0.1,0.1,0.1,0.1c0,0.1-0.1,0.1-0.1,0.1c-0.1,0-0.1-0.1-0.1-0.1
		C533.3,329.7,533.3,329.6,533.4,329.6z M533.2,326.3c0.1,0,0.1,0.1,0.1,0.1c0,0.1-0.1,0.1-0.1,0.1c-0.1,0-0.1-0.1-0.1-0.1
		C533,326.3,533.1,326.3,533.2,326.3z M541.1,335.5c0.1,0.1,0.1,0.1,0,0.2c-0.1,0.1-0.1,0.1-0.2,0c-0.1-0.1-0.1-0.1,0-0.2
		C540.9,335.5,541,335.5,541.1,335.5z M543.3,333c0.1,0.1,0.1,0.1,0,0.2c-0.1,0.1-0.1,0.1-0.2,0c-0.1-0.1-0.1-0.1,0-0.2
		C543.1,332.9,543.2,332.9,543.3,333z M545.5,330.4c0.1,0.1,0.1,0.1,0,0.2c-0.1,0.1-0.1,0.1-0.2,0c-0.1-0.1-0.1-0.1,0-0.2
		C545.3,330.4,545.4,330.4,545.5,330.4z M525.9,326.7c0.1,0,0.2,0,0.2,0.1c0,0.1,0,0.2-0.1,0.2c-0.1,0-0.2,0-0.2-0.1
		C525.8,326.8,525.8,326.7,525.9,326.7z M538,332c0.1,0,0.1,0.1,0.1,0.2c0,0.1-0.1,0.1-0.2,0.1c-0.1,0-0.1-0.1-0.1-0.2
		C537.9,332,537.9,332,538,332z M539.1,328.8c0.1,0,0.1,0.1,0.1,0.2c0,0.1-0.1,0.1-0.2,0.1c-0.1,0-0.1-0.1-0.1-0.2
		C538.9,328.8,539,328.8,539.1,328.8z M540.1,325.6c0.1,0,0.1,0.1,0.1,0.2c0,0.1-0.1,0.1-0.2,0.1c-0.1,0-0.1-0.1-0.1-0.2
		C540,325.6,540.1,325.6,540.1,325.6z M544.9,338c0,0.1,0,0.2-0.1,0.2c-0.1,0-0.2,0-0.2-0.1c0-0.1,0-0.2,0.1-0.2
		C544.8,337.9,544.9,337.9,544.9,338z M547.9,336.5c0,0.1,0,0.2-0.1,0.2c-0.1,0-0.2,0-0.2-0.1c0-0.1,0-0.2,0.1-0.2
		C547.8,336.4,547.9,336.4,547.9,336.5z M550.9,335c0,0.1,0,0.2-0.1,0.2c-0.1,0-0.2,0-0.2-0.1c0-0.1,0-0.2,0.1-0.2
		C550.8,334.9,550.9,334.9,550.9,335z M540.2,333.7c0.1,0,0.2,0.1,0.2,0.2c0,0.1-0.1,0.2-0.2,0.2s-0.2-0.1-0.2-0.2
		C540,333.8,540.1,333.7,540.2,333.7z M540,329.3c0.1,0,0.2,0.1,0.2,0.2c0,0.1-0.1,0.2-0.2,0.2c-0.1,0-0.2-0.1-0.2-0.2
		C539.8,329.4,539.9,329.3,540,329.3z M539.8,324.9c0.1,0,0.2,0.1,0.2,0.2c0,0.1-0.1,0.2-0.2,0.2c-0.1,0-0.2-0.1-0.2-0.2
		C539.6,325,539.7,324.9,539.8,324.9z M549.8,337.3c0.1,0.1,0.1,0.2,0,0.3c-0.1,0.1-0.2,0.1-0.3,0c-0.1-0.1-0.1-0.2,0-0.3
		C549.6,337.2,549.7,337.2,549.8,337.3z M552.8,334.1c0.1,0.1,0.1,0.2,0,0.3c-0.1,0.1-0.2,0.1-0.3,0c-0.1-0.1-0.1-0.2,0-0.3
		C552.6,334,552.7,334,552.8,334.1z M555.7,330.8c0.1,0.1,0.1,0.2,0,0.3c-0.1,0.1-0.2,0.1-0.3,0c-0.1-0.1-0.1-0.2,0-0.3
		C555.5,330.7,555.6,330.7,555.7,330.8z M562.8,346.2c0,0.1-0.1,0.2-0.2,0.2c-0.1,0-0.2-0.1-0.2-0.2c0-0.1,0.1-0.2,0.2-0.2
		C562.7,346,562.8,346.1,562.8,346.2z M544.6,336.5c0.1,0,0.1,0.1,0.1,0.2c0,0.1-0.1,0.1-0.2,0.1c-0.1,0-0.1-0.1-0.1-0.2
		C544.4,336.6,544.5,336.5,544.6,336.5z M546.1,332.4c0.1,0,0.1,0.1,0.1,0.2c0,0.1-0.1,0.1-0.2,0.1c-0.1,0-0.1-0.1-0.1-0.2
		C545.9,332.4,546,332.4,546.1,332.4z M547.6,328.3c0.1,0,0.1,0.1,0.1,0.2c0,0.1-0.1,0.1-0.2,0.1c-0.1,0-0.1-0.1-0.1-0.2
		C547.4,328.3,547.5,328.2,547.6,328.3z M549.1,324.1c0.1,0,0.1,0.1,0.1,0.2c0,0.1-0.1,0.1-0.2,0.1s-0.1-0.1-0.1-0.2
		C548.9,324.2,549,324.1,549.1,324.1z M554.9,340.4c0,0.1,0,0.2-0.1,0.2c-0.1,0-0.2,0-0.2-0.1c0-0.1,0-0.2,0.1-0.2
		C554.8,340.3,554.9,340.3,554.9,340.4z M558.9,338.6c0,0.1,0,0.2-0.1,0.2c-0.1,0-0.2,0-0.2-0.1c0-0.1,0-0.2,0.1-0.2
		C558.8,338.4,558.9,338.5,558.9,338.6z M562.9,336.7c0,0.1,0,0.2-0.1,0.2c-0.1,0-0.2,0-0.2-0.1c0-0.1,0-0.2,0.1-0.2
		C562.7,336.6,562.8,336.6,562.9,336.7z M532.3,329c0.1,0,0.2,0,0.2,0.1c0,0.1,0,0.2-0.1,0.2c-0.1,0-0.2,0-0.2-0.1
		C532.2,329.1,532.2,329,532.3,329z M530.5,325c0.1,0,0.2,0,0.2,0.1c0,0.1,0,0.2-0.1,0.2c-0.1,0-0.2,0-0.2-0.1
		C530.3,325.2,530.4,325,530.5,325z M551.4,340.3c0,0,0.1,0.1,0.1,0.1c0,0-0.1,0.1-0.1,0.1c0,0-0.1-0.1-0.1-0.1
		C551.3,340.3,551.4,340.3,551.4,340.3z M547.3,338.6C547.3,338.6,547.4,338.6,547.3,338.6c0.1,0.1,0.1,0.2,0,0.2
		C547.3,338.8,547.2,338.7,547.3,338.6C547.2,338.6,547.3,338.6,547.3,338.6z M555.5,341.6c0,0,0,0.1,0,0.1c0,0-0.1,0-0.1,0
		c0,0,0-0.1,0-0.1C555.4,341.5,555.5,341.5,555.5,341.6z M554.4,343c0.1,0,0.1,0.1,0.1,0.1c0,0.1-0.1,0.1-0.1,0.1s-0.1-0.1-0.1-0.1
		C554.3,343,554.4,343,554.4,343z M554.9,340.8c0.1,0,0.1,0.1,0.1,0.1c0,0.1-0.1,0.1-0.1,0.1c-0.1,0-0.1-0.1-0.1-0.1
		C554.8,340.8,554.8,340.8,554.9,340.8z M562.1,345.7c0,0,0,0.1,0,0.1c0,0-0.1,0-0.1,0c0,0,0-0.1,0-0.1
		C562,345.6,562,345.6,562.1,345.7z M550.1,339.7c0.1,0,0.1,0,0.1,0.1c0,0.1,0,0.1-0.1,0.1c-0.1,0-0.1,0-0.1-0.1
		C550.1,339.8,550.1,339.7,550.1,339.7z M558.2,343.5c0,0,0.1,0.1,0,0.1c0,0-0.1,0.1-0.1,0c0,0-0.1-0.1,0-0.1
		C558.1,343.5,558.2,343.5,558.2,343.5z M559.5,341.6c0,0,0.1,0.1,0,0.1c0,0-0.1,0.1-0.1,0c0,0-0.1-0.1,0-0.1
		C559.4,341.6,559.5,341.6,559.5,341.6z M558.9,344.6c0,0,0.1,0.1,0,0.1c0,0-0.1,0.1-0.1,0c0,0-0.1-0.1,0-0.1
		C558.8,344.6,558.9,344.6,558.9,344.6z M555.3,342.8C555.4,342.8,555.4,342.8,555.3,342.8c0.1,0.1,0,0.2,0,0.2
		C555.3,342.9,555.2,342.9,555.3,342.8C555.2,342.8,555.3,342.8,555.3,342.8z M562.4,346.1c0,0,0,0.1,0,0.1c0,0-0.1,0-0.1,0
		c0,0,0-0.1,0-0.1C562.3,346.1,562.3,346.1,562.4,346.1z M564.2,344.6c0.1,0,0.1,0.1,0.1,0.1c0,0.1-0.1,0.1-0.1,0.1
		c-0.1,0-0.1-0.1-0.1-0.1C564.1,344.7,564.2,344.6,564.2,344.6z M564.8,341.9c0.1,0,0.1,0.1,0.1,0.1c0,0.1-0.1,0.1-0.1,0.1
		c-0.1,0-0.1-0.1-0.1-0.1C564.7,341.9,564.7,341.9,564.8,341.9z M571.4,349.6c0,0.1,0,0.1,0,0.2c-0.1,0-0.1,0-0.2,0
		c0-0.1,0-0.1,0-0.2C571.3,349.5,571.4,349.5,571.4,349.6z M573.8,348c0,0.1,0,0.1,0,0.2c-0.1,0-0.1,0-0.2,0c0-0.1,0-0.1,0-0.2
		C573.7,347.9,573.8,347.9,573.8,348z M559.4,343.3c0.1,0,0.1,0,0.1,0.1c0,0.1,0,0.1-0.1,0.1c-0.1,0-0.1,0-0.1-0.1
		C559.3,343.4,559.3,343.3,559.4,343.3z M558.8,340.6c0.1,0,0.1,0,0.1,0.1c0,0.1,0,0.1-0.1,0.1c-0.1,0-0.1,0-0.1-0.1
		C558.7,340.6,558.8,340.6,558.8,340.6z M567.4,347.6c0.1,0,0.1,0.1,0,0.2c0,0.1-0.1,0.1-0.2,0c-0.1,0-0.1-0.1,0-0.2
		C567.3,347.6,567.4,347.6,567.4,347.6z M569,345.3c0.1,0,0.1,0.1,0,0.2c0,0.1-0.1,0.1-0.2,0c-0.1,0-0.1-0.1,0-0.2
		C568.9,345.2,568.9,345.2,569,345.3z M570.6,342.9c0.1,0,0.1,0.1,0,0.2c0,0.1-0.1,0.1-0.2,0c-0.1,0-0.1-0.1,0-0.2
		C570.4,342.9,570.5,342.9,570.6,342.9z M568.7,348c0.1,0,0.1,0.1,0,0.1c0,0.1-0.1,0.1-0.1,0c-0.1,0-0.1-0.1,0-0.1
		C568.6,348,568.6,348,568.7,348z M569.8,345.8c0.1,0,0.1,0.1,0,0.1s-0.1,0.1-0.1,0c0,0-0.1-0.1,0-0.1
		C569.7,345.8,569.7,345.8,569.8,345.8z M560.3,345c0.1,0,0.1,0,0.1,0.1c0,0.1,0,0.1-0.1,0.1c-0.1,0-0.1,0-0.1-0.1
		C560.2,345.1,560.3,345,560.3,345z M572.7,349.6c0,0,0,0.1,0,0.1c0,0-0.1,0-0.1,0c0,0,0-0.1,0-0.1
		C572.6,349.5,572.6,349.5,572.7,349.6z M574.6,348c0,0,0,0.1,0,0.1c0,0-0.1,0-0.1,0c0,0,0-0.1,0-0.1
		C574.5,347.9,574.5,347.9,574.6,348z M565,345.7c0.1,0,0.1,0.1,0.1,0.1c0,0.1-0.1,0.1-0.1,0.1c-0.1,0-0.1-0.1-0.1-0.1
		C564.9,345.7,565,345.7,565,345.7z M565.2,343.3c0.1,0,0.1,0.1,0.1,0.1c0,0.1-0.1,0.1-0.1,0.1c-0.1,0-0.1-0.1-0.1-0.1
		C565.1,343.3,565.2,343.2,565.2,343.3z M566.6,345.5c0.1,0,0.2,0.1,0.2,0.2c0,0.1-0.1,0.2-0.2,0.2c-0.1,0-0.2-0.1-0.2-0.2
		C566.5,345.6,566.5,345.5,566.6,345.5z M566.7,341.4c0.1,0,0.2,0.1,0.2,0.2c0,0.1-0.1,0.2-0.2,0.2c-0.1,0-0.2-0.1-0.2-0.2
		C566.5,341.5,566.6,341.4,566.7,341.4z M566.7,337.3c0.1,0,0.2,0.1,0.2,0.2c0,0.1-0.1,0.2-0.2,0.2c-0.1,0-0.2-0.1-0.2-0.2
		C566.5,337.4,566.6,337.3,566.7,337.3z M575.4,349.3c0.1,0.1,0.1,0.2,0,0.2c-0.1,0.1-0.2,0.1-0.2,0c-0.1-0.1-0.1-0.2,0-0.2
		C575.2,349.3,575.3,349.3,575.4,349.3z M578.3,346.4c0.1,0.1,0.1,0.2,0,0.2c-0.1,0.1-0.2,0.1-0.2,0c-0.1-0.1-0.1-0.2,0-0.2
		C578.1,346.4,578.2,346.4,578.3,346.4z M581.2,343.6c0.1,0.1,0.1,0.2,0,0.2c-0.1,0.1-0.2,0.1-0.2,0c-0.1-0.1-0.1-0.2,0-0.2
		C581,343.5,581.2,343.5,581.2,343.6z M561,344.4c0.1,0,0.2,0,0.2,0.1c0,0.1,0,0.2-0.1,0.2c-0.1,0-0.2,0-0.2-0.1
		C560.9,344.6,560.9,344.5,561,344.4z M559.5,340.6c0.1,0,0.2,0,0.2,0.1c0,0.1,0,0.2-0.1,0.2c-0.1,0-0.2,0-0.2-0.1
		C559.4,340.8,559.4,340.7,559.5,340.6z M557.9,336.8c0.1,0,0.2,0,0.2,0.1s0,0.2-0.1,0.2c-0.1,0-0.2,0-0.2-0.1
		C557.8,337,557.8,336.9,557.9,336.8z M570.6,348.3c0.1,0,0.1,0.1,0.1,0.2c0,0.1-0.1,0.1-0.2,0.1c-0.1,0-0.1-0.1-0.1-0.2
		C570.4,348.3,570.5,348.2,570.6,348.3z M572.2,344.5c0.1,0,0.1,0.1,0.1,0.2c0,0.1-0.1,0.1-0.2,0.1c-0.1,0-0.1-0.1-0.1-0.2
		C572,344.5,572.1,344.4,572.2,344.5z M573.7,340.7c0.1,0,0.1,0.1,0.1,0.2c0,0.1-0.1,0.1-0.2,0.1c-0.1,0-0.1-0.1-0.1-0.2
		C573.6,340.7,573.7,340.7,573.7,340.7z M575.3,336.9c0.1,0,0.1,0.1,0.1,0.2c0,0.1-0.1,0.1-0.2,0.1c-0.1,0-0.1-0.1-0.1-0.2
		C575.1,336.9,575.2,336.9,575.3,336.9z M580,352.4c0,0.1,0,0.2-0.1,0.2c-0.1,0-0.2,0-0.2-0.1c0-0.1,0-0.2,0.1-0.2
		C579.8,352.2,579.9,352.3,580,352.4z M583.8,350.8c0,0.1,0,0.2-0.1,0.2c-0.1,0-0.2,0-0.2-0.1c0-0.1,0-0.2,0.1-0.2
		C583.6,350.7,583.7,350.7,583.8,350.8z M571.8,349.9c0.1,0,0.1,0.1,0.1,0.2c0,0.1-0.1,0.1-0.2,0.1c-0.1,0-0.1-0.1-0.1-0.2
		C571.7,349.9,571.8,349.9,571.8,349.9z M572.8,346.9c0.1,0,0.1,0.1,0.1,0.2c0,0.1-0.1,0.1-0.2,0.1c-0.1,0-0.1-0.1-0.1-0.2
		C572.7,346.9,572.7,346.9,572.8,346.9z M573.8,344c0.1,0,0.1,0.1,0.1,0.2c0,0.1-0.1,0.1-0.2,0.1c-0.1,0-0.1-0.1-0.1-0.2
		C573.6,344,573.7,344,573.8,344z M582.8,351.9c0,0.1,0,0.1-0.1,0.2c-0.1,0-0.1,0-0.2-0.1c0-0.1,0-0.1,0.1-0.2
		C582.7,351.8,582.8,351.8,582.8,351.9z M561.8,344.8c0.1,0,0.1,0,0.2,0.1c0,0.1,0,0.1-0.1,0.2c-0.1,0-0.1,0-0.2-0.1
		C561.7,344.9,561.8,344.8,561.8,344.8z M576.1,350.5c0.1,0,0.1,0.1,0,0.2c0,0.1-0.1,0.1-0.2,0c-0.1,0-0.1-0.1,0-0.2
		C575.9,350.5,576,350.5,576.1,350.5z M578.1,348.2c0.1,0,0.1,0.1,0,0.2c0,0.1-0.1,0.1-0.2,0c-0.1,0-0.1-0.1,0-0.2
		C577.9,348.1,578,348.1,578.1,348.2z M580.1,345.8c0.1,0,0.1,0.1,0,0.2c0,0.1-0.1,0.1-0.2,0c-0.1,0-0.1-0.1,0-0.2
		C580,345.8,580.1,345.8,580.1,345.8z M568.1,347.9c0.1,0,0.1,0,0.1,0.1c0,0.1,0,0.1-0.1,0.1c-0.1,0-0.1,0-0.1-0.1
		C567.9,347.9,568,347.9,568.1,347.9z M567.8,344.8c0.1,0,0.1,0,0.1,0.1c0,0.1,0,0.1-0.1,0.1c-0.1,0-0.1,0-0.1-0.1
		C567.7,344.9,567.8,344.8,567.8,344.8z M567.6,341.7c0.1,0,0.1,0,0.1,0.1c0,0.1,0,0.1-0.1,0.1c-0.1,0-0.1,0-0.1-0.1
		C567.5,341.8,567.5,341.7,567.6,341.7z M573.3,347.8c0.1,0,0.1,0.1,0.1,0.1c0,0.1-0.1,0.1-0.1,0.1c-0.1,0-0.1-0.1-0.1-0.1
		C573.2,347.9,573.2,347.8,573.3,347.8z M573.3,344.6c0.1,0,0.1,0.1,0.1,0.1c0,0.1-0.1,0.1-0.1,0.1c-0.1,0-0.1-0.1-0.1-0.1
		C573.1,344.6,573.2,344.6,573.3,344.6z M582.6,351.6c0.1,0.1,0.1,0.1,0,0.2c-0.1,0.1-0.1,0.1-0.2,0c-0.1-0.1-0.1-0.1,0-0.2
		C582.4,351.5,582.5,351.5,582.6,351.6z M584.8,349.2c0.1,0.1,0.1,0.1,0,0.2c-0.1,0.1-0.1,0.1-0.2,0c-0.1-0.1-0.1-0.1,0-0.2
		C584.7,349.2,584.7,349.2,584.8,349.2z M577.7,350.2c0.1,0,0.1,0.1,0.1,0.2c0,0.1-0.1,0.1-0.2,0.1c-0.1,0-0.1-0.1-0.1-0.2
		C577.6,350.2,577.7,350.2,577.7,350.2z M578.9,347.2c0.1,0,0.1,0.1,0.1,0.2c0,0.1-0.1,0.1-0.2,0.1c-0.1,0-0.1-0.1-0.1-0.2
		C578.8,347.2,578.8,347.2,578.9,347.2z M580.1,344.2c0.1,0,0.1,0.1,0.1,0.2c0,0.1-0.1,0.1-0.2,0.1c-0.1,0-0.1-0.1-0.1-0.2
		C580,344.2,580,344.2,580.1,344.2z M567.7,347.4c0.1,0,0.1,0,0.2,0.1c0,0.1,0,0.1-0.1,0.2c-0.1,0-0.1,0-0.2-0.1
		C567.6,347.5,567.6,347.4,567.7,347.4z M566.4,344.4c0.1,0,0.1,0,0.2,0.1c0,0.1,0,0.1-0.1,0.2s-0.1,0-0.2-0.1
		C566.3,344.5,566.4,344.5,566.4,344.4z" style="fill:#FFFFFF;"/>
	<path id="R_hand_2_xGruMkGDCgbOE6Pbps4Fx" d="M341.3,350.1l2.1,2.6c0.8,0.6,1.9,1.3,3.1,2.1
		c4.7,2.8,13.6,4.1,19.1,3.6c12-1,21.8-9.6,27-9.1c4.5,0.4,23.4,11.6,35.1,18.7l11-22.4c-17-5.9-41.6-12.3-49.4-15.7
		c-14.7-6.3-26.3-8.4-26.3-8.4c-4.6,8.3,12.4,8.7,11.9,12.1c-0.5,3.4-0.1,3.3-14.9,6.5C343.4,343.7,339,347.2,341.3,350.1z" style="fill:#FFBEB5;"/>
	<path d="M417.4,388.9c0,0,15.1,14.6,38.8,17c23.8,2.4,56.7,28.8,56.7,28.8s3-4.1,10.6-2.1c0.4,0.1,0.7,0.2,1,0.3
		c0.6,0.2,1.2,0.4,1.7,0.7c0.8,0.4,1.6,0.9,2.2,1.4c0.2,0.1,0.4,0.3,0.5,0.4c0.2,0.2,0.4,0.3,0.5,0.5c0.2,0.2,0.3,0.3,0.5,0.5
		c1,1.1,1.6,2.1,2.1,2.9c0,0,0,0.1,0,0.1c0,0.1,0.1,0.1,0.1,0.1c0,0.1,0,0.1,0.1,0.1c0.3,0.7,0.3,1.4,0.1,2.1c0,0.1-0.1,0.2-0.1,0.3
		l-3.7,9.3c0.3,0.3,0.6,0.5,0.9,0.8c0.3,0.3,0.5,0.5,0.8,0.8c6.2,6.5,4.1,13.7,4.7,14.9c1.5,2.6,5.5,5,3.3,6.9
		c-0.8,0.7-3.1,1.7-5.4,2.8l0.4,6l0,0.2l1.3,19.3l0.3,3.7l0.2,3.4v0.1l0.6,8.4l0,0.2l0.3,3.8l43.2,16.2c0,0,8.7-6.3,4.4-28.1
		c-4.4-21.8-16.6-62.5-1.2-87.8c15.5-25.3,38.4-30.1,34.1-44.7c-4.4-14.6-22.6-18.2-33.7-21.8c-11.1-3.6-21-6.7-38-18.2
		c-17-11.5-36.5-14.2-36.5-14.2l-0.8,44.3c0,0-5.2,0.4-24.6-11.1C463.4,345.7,440,343,440,343L417.4,388.9z" style="fill:#23286B;"/>
	
		<linearGradient id="neck_2_xGruMkGDCgbOE6Pbps4Fx_1_" gradientUnits="userSpaceOnUse" x1="-5410.6704" y1="-10011.0938" x2="-5371.4224" y2="-10212.0859" gradientTransform="matrix(-5.201820e-02 0 0 -5.194410e-02 240.4319 -78.1928)">
		<stop offset="3.820000e-02" style="stop-color:#FFBEB5"/>
		<stop offset="1" style="stop-color:#F99A91"/>
	</linearGradient>
	<path id="neck_2_xGruMkGDCgbOE6Pbps4Fx" d="M528.6,451.4l3.6-9.3c0.4-0.9,0.3-1.9-0.1-2.8c-1-2-3.4-5.3-8.6-6.7
		c-7.6-2.1-10.6,2.1-10.6,2.1s-0.9,7.1-2.5,12.2" style="fill:url(#neck_2_xGruMkGDCgbOE6Pbps4Fx_1_);"/>
	<path id="face_3_xGruMkGDCgbOE6Pbps4Fx" d="M528.6,451.4c8.3,6.9,5.7,15.2,6.4,16.5c1.5,2.6,5.5,5,3.3,6.9
		c-2.2,1.8-13.5,5.9-13.5,5.9c-4.6-13.3-17.8-18.3-20.3-18.5c-2.5-0.2-5.7-0.3-6.3-4.1c-0.8-5,6.5-4.7,9.7-6.7
		c1-0.6,1.8-2.4,2.5-4.6C510.5,446.8,521.7,445.7,528.6,451.4z" style="fill:#FFBEB5;"/>
	<g id="hair_3_xGruMkGDCgbOE6Pbps4Fx">
		<path id="hair_4_xGruMkGDCgbOE6Pbps4Fx" d="M486.9,483.4c12,7.3,19.3,10.3,18.5,19l14.9,10c0,0,9.5-16.5,4.4-31.7
			c-0.1,0,0,0,0,0c-4.6-13.3-17.8-18.3-20.3-18.5c-2.5-0.2-6.1-0.5-6.3-4.6c-0.2-4.4,6.5-4.1,9.8-6.2c1.2-0.7,2.2-3.2,3-6
			c0.1-0.2,0.1-0.3,0.1-0.5c0,0-17.3-9-27.9,3.5C472.5,460.8,475,476,486.9,483.4z" style="fill:#201D6B;"/>
		<path id="hair_7_xGruMkGDCgbOE6Pbps4Fx" d="M521.2,474.7c7.1,10.6,8.4,23.5,3.5,35.3c-0.2,0.4-0.8,0.2-0.6-0.2
			c4.9-11.6,3.7-24.4-3.4-34.8C520.4,474.7,521,474.4,521.2,474.7L521.2,474.7z" style="fill:#201D6B;"/>
	</g>
	<g id="eye_2_xGruMkGDCgbOE6Pbps4Fx">
		<path id="eyexGruMkGDCgbOE6Pbps4Fx" d="M526.8,476.5c1.6-2.6-1.1-5.6-3.9-4.2c-0.4,0.2-0.7-0.4-0.3-0.5
			c1.4-0.7,3.2-0.5,4.4,0.7c1.1,1.2,1.2,3,0.4,4.4C527.1,477.2,526.6,476.9,526.8,476.5L526.8,476.5z" style="fill:#1C2868;"/>
	</g>
	<path d="M535.8,518.6c0.1,0.1,0.1,0.2,0.1,0.2c0,0.1-0.1,0.1-0.2,0.1c0,0-0.1,0-0.1-0.1l0-0.2
		C535.7,518.6,535.8,518.6,535.8,518.6z M539.3,520.4c0.1-0.1,0.1-0.1,0.2-0.1c0.1,0,0.1,0.1,0.1,0.2c0,0.1-0.1,0.1-0.2,0.1
		C539.3,520.6,539.3,520.5,539.3,520.4z M535.7,509.5c0-0.1,0.1-0.1,0.2-0.1c0.1,0,0.1,0.1,0.1,0.2c0,0.1-0.1,0.1-0.2,0.1
		C535.7,509.7,535.6,509.6,535.7,509.5z M537.4,505.8c0-0.1,0.1-0.1,0.2-0.1c0.1,0.1,0.1,0.2,0.1,0.2c0,0.1-0.1,0.1-0.2,0.1
		C537.4,506,537.4,505.9,537.4,505.8z M539.2,502.1c0-0.1,0.1-0.1,0.2-0.1c0.1,0,0.1,0.1,0.1,0.2c0,0.1-0.1,0.1-0.2,0.1
		C539.2,502.3,539.1,502.2,539.2,502.1z M540.9,498.4c0-0.1,0.1-0.1,0.2-0.1s0.1,0.1,0.1,0.2c0,0.1-0.1,0.1-0.2,0.1
		C540.9,498.6,540.9,498.5,540.9,498.4z M536,515.5c0.1,0,0.2,0,0.2,0.1c0,0.1,0,0.2-0.1,0.2c-0.1,0-0.2,0-0.2-0.1
		C535.9,515.6,535.9,515.5,536,515.5z M539.9,514.1c0.1,0,0.2,0,0.2,0.1c0,0.1,0,0.2-0.1,0.2c-0.1,0-0.2,0-0.2-0.1
		C539.7,514.3,539.8,514.2,539.9,514.1z M543.7,512.8c0.1,0,0.2,0,0.2,0.1c0,0.1,0,0.2-0.1,0.2c-0.1,0-0.2,0-0.2-0.1
		C543.6,512.9,543.6,512.8,543.7,512.8z M547.5,511.4c0.1,0,0.2,0,0.2,0.1c0,0.1,0,0.2-0.1,0.2c-0.1,0-0.2,0-0.2-0.1
		C547.4,511.5,547.5,511.4,547.5,511.4z M551.4,510c0.1,0,0.2,0,0.2,0.1c0,0.1,0,0.2-0.1,0.2c-0.1,0-0.2,0-0.2-0.1
		C551.3,510.2,551.3,510.1,551.4,510z M536.5,512.8c0.1-0.1,0.1-0.1,0.2,0l0,0c0,0,0,0.1,0,0.1c0,0.1,0,0.1,0,0.2
		c-0.1,0.1-0.2,0.1-0.2,0C536.4,513,536.4,512.9,536.5,512.8z M539.5,510.1c0.1-0.1,0.2-0.1,0.2,0c0.1,0.1,0.1,0.2,0,0.2
		c-0.1,0.1-0.2,0.1-0.2,0C539.5,510.2,539.5,510.1,539.5,510.1z M542.6,507.3c0.1-0.1,0.2-0.1,0.2,0c0.1,0.1,0.1,0.2,0,0.2
		c-0.1,0.1-0.2,0.1-0.2,0C542.5,507.5,542.5,507.4,542.6,507.3z M545.6,504.6c0.1-0.1,0.2-0.1,0.2,0c0.1,0.1,0.1,0.2,0,0.2
		c-0.1,0.1-0.2,0.1-0.2,0C545.5,504.8,545.5,504.7,545.6,504.6z M548.7,501.9c0.1-0.1,0.2-0.1,0.2,0c0.1,0.1,0.1,0.2,0,0.2
		c-0.1,0.1-0.2,0.1-0.2,0C548.6,502,548.6,501.9,548.7,501.9z M538.2,517.2c0.1,0,0.2,0.1,0.2,0.2c0,0.1-0.1,0.2-0.2,0.2
		c-0.1,0-0.2-0.1-0.2-0.2C538,517.2,538.1,517.1,538.2,517.2z M542.3,517.4c0.1,0,0.2,0.1,0.2,0.2c0,0.1-0.1,0.2-0.2,0.2
		c-0.1,0-0.2-0.1-0.2-0.2C542.1,517.4,542.2,517.4,542.3,517.4z M546.4,517.6c0.1,0,0.2,0.1,0.2,0.2c0,0.1-0.1,0.2-0.2,0.2
		c-0.1,0-0.2-0.1-0.2-0.2C546.2,517.6,546.3,517.6,546.4,517.6z M550.4,517.8c0.1,0,0.2,0.1,0.2,0.2c0,0.1-0.1,0.2-0.2,0.2
		c-0.1,0-0.2-0.1-0.2-0.2C550.3,517.9,550.3,517.8,550.4,517.8z M554.5,518c0.1,0,0.2,0.1,0.2,0.2c0,0.1-0.1,0.2-0.2,0.2
		c-0.1,0-0.2-0.1-0.2-0.2C554.3,518.1,554.4,518,554.5,518z M535.8,511.9c0,0,0.1,0,0.1,0c0,0,0,0,0,0.1c0,0,0,0.1,0,0.1
		c0,0-0.1,0-0.1,0c0,0-0.1,0-0.1,0C535.7,511.9,535.7,511.9,535.8,511.9z M537.8,510.5c0.1,0,0.1,0,0.1,0c0,0.1,0,0.1,0,0.1
		c-0.1,0-0.1,0-0.1,0C537.7,510.6,537.7,510.5,537.8,510.5z M539.8,509.2c0.1,0,0.1,0,0.1,0c0,0,0,0.1,0,0.1c-0.1,0-0.1,0-0.1,0
		C539.7,509.3,539.7,509.2,539.8,509.2z M541.8,507.8c0.1,0,0.1,0,0.1,0c0,0,0,0.1,0,0.1c0,0-0.1,0-0.1,0
		C541.7,507.9,541.7,507.9,541.8,507.8z M536.5,515.4c0.1,0,0.1,0.1,0.1,0.1c0,0.1-0.1,0.1-0.1,0.1c-0.1,0-0.1-0.1-0.1-0.1
		C536.4,515.5,536.5,515.4,536.5,515.4z M538.9,515.9c0.1,0,0.1,0.1,0.1,0.1c0,0.1-0.1,0.1-0.1,0.1c-0.1,0-0.1-0.1-0.1-0.1
		C538.8,515.9,538.8,515.9,538.9,515.9z M541.2,516.4c0.1,0,0.1,0.1,0.1,0.1c0,0.1-0.1,0.1-0.1,0.1s-0.1-0.1-0.1-0.1
		C541.1,516.4,541.2,516.4,541.2,516.4z M543.6,516.8c0.1,0,0.1,0.1,0.1,0.1c0,0.1-0.1,0.1-0.1,0.1c-0.1,0-0.1-0.1-0.1-0.1
		C543.5,516.9,543.5,516.8,543.6,516.8z M535.3,509.4c0.1,0,0.1,0.1,0,0.1c0,0-0.1,0.1-0.1,0c0,0-0.1-0.1,0-0.1
		S535.2,509.4,535.3,509.4z M536.4,507.4c0-0.1,0.1-0.1,0.1,0c0,0,0,0,0,0c0,0,0,0.1,0,0.1l0,0c0,0-0.1,0-0.1,0
		C536.4,507.5,536.4,507.5,536.4,507.4z M537.9,505.4c0.1,0,0.1,0.1,0,0.1c0,0.1-0.1,0.1-0.1,0c0,0-0.1-0.1,0-0.1
		C537.8,505.4,537.9,505.4,537.9,505.4z M539.1,503.4c0-0.1,0.1-0.1,0.1,0c0,0,0.1,0.1,0,0.1c0,0.1-0.1,0.1-0.1,0
		C539.1,503.5,539.1,503.5,539.1,503.4z M537.7,513.2c0.1,0,0.1,0,0.1,0.1c0,0.1,0,0.1-0.1,0.1c-0.1,0-0.1,0-0.1-0.1
		C537.7,513.2,537.7,513.2,537.7,513.2z M540.1,512.7c0.1,0,0.1,0,0.1,0.1c0,0.1,0,0.1-0.1,0.1c-0.1,0-0.1,0-0.1-0.1
		C540,512.8,540.1,512.7,540.1,512.7z M542.5,512.2c0.1,0,0.1,0,0.1,0.1c0,0.1,0,0.1-0.1,0.1c-0.1,0-0.1,0-0.1-0.1
		C542.4,512.3,542.4,512.2,542.5,512.2z M544.8,511.8c0.1,0,0.1,0,0.1,0.1c0,0.1,0,0.1-0.1,0.1c-0.1,0-0.1,0-0.1-0.1
		C544.7,511.8,544.8,511.8,544.8,511.8z M536.8,517.7c0-0.1,0.1-0.1,0.1,0c0,0,0.1,0.1,0,0.1c0,0.1-0.1,0.1-0.1,0
		C536.8,517.8,536.8,517.8,536.8,517.7z M539,519c0,0,0.1,0.1,0,0.1s-0.1,0.1-0.1,0c0,0-0.1-0.1,0-0.1C538.8,519,538.9,519,539,519z
		 M541,520.4c0.1,0,0.1,0.1,0,0.1c0,0-0.1,0.1-0.1,0c0,0-0.1-0.1,0-0.1S540.9,520.3,541,520.4z M543,521.7c0.1,0,0.1,0.1,0,0.1
		c0,0.1-0.1,0.1-0.1,0c0,0-0.1-0.1,0-0.1C542.9,521.7,542.9,521.6,543,521.7z M535.9,508.9c0,0,0.1,0,0.1,0c0,0,0,0.1,0,0.1
		c0,0-0.1,0-0.1,0C535.8,508.9,535.8,508.9,535.9,508.9z M537.3,507.9C537.3,507.8,537.4,507.8,537.3,507.9c0.1,0.1,0.1,0.1,0.1,0.1
		c0,0-0.1,0-0.1,0C537.2,507.9,537.3,507.9,537.3,507.9z M538.7,506.8c0,0,0.1,0,0.1,0c0,0,0,0.1,0,0.1c0,0-0.1,0-0.1,0
		C538.7,506.9,538.7,506.9,538.7,506.8z M536.7,512.8C536.7,512.7,536.8,512.7,536.7,512.8c0.1,0,0.1,0,0.1,0.1c0,0,0,0.1-0.1,0.1
		c0,0,0,0,0,0C536.7,512.9,536.7,512.8,536.7,512.8C536.7,512.8,536.7,512.8,536.7,512.8z M538.5,513
		C538.5,513,538.6,513.1,538.5,513c0.1,0.1,0,0.2,0,0.1C538.4,513.2,538.4,513.1,538.5,513C538.4,513,538.5,513,538.5,513z
		 M540.2,513.3C540.2,513.3,540.3,513.4,540.2,513.3c0.1,0.1,0,0.2,0,0.1C540.1,513.4,540.1,513.4,540.2,513.3
		C540.1,513.3,540.2,513.3,540.2,513.3z M535.6,517.5c0,0,0.1,0,0.1,0c0,0,0,0.1,0,0.1c0,0-0.1,0-0.1,0
		C535.5,517.6,535.6,517.5,535.6,517.5z M536.6,518.9c0,0,0.1,0,0.1,0c0,0,0,0.1,0,0.1c0,0-0.1,0-0.1,0
		C536.6,519,536.6,519,536.6,518.9z M535.9,510.9C535.9,510.9,536,510.9,535.9,510.9c0.1,0.1,0.1,0.1,0,0.1
		C535.9,511.1,535.8,511,535.9,510.9C535.8,511,535.9,510.9,535.9,510.9z M537.6,510.5C537.6,510.5,537.7,510.5,537.6,510.5
		c0.1,0.1,0.1,0.1,0,0.1C537.6,510.6,537.5,510.6,537.6,510.5C537.5,510.6,537.5,510.5,537.6,510.5z M539.3,510.1
		C539.3,510.1,539.4,510.1,539.3,510.1c0.1,0.1,0.1,0.1,0,0.1C539.3,510.3,539.2,510.2,539.3,510.1
		C539.2,510.2,539.2,510.1,539.3,510.1z M541,509.7C541,509.7,541,509.7,541,509.7c0.1,0.1,0.1,0.1,0,0.1
		C541,509.9,540.9,509.8,541,509.7C540.9,509.8,540.9,509.7,541,509.7z M536.9,515.1C536.9,515.1,536.9,515.2,536.9,515.1
		c0,0.1-0.1,0.1-0.1,0.1c0,0-0.1-0.1,0-0.1C536.8,515.1,536.8,515.1,536.9,515.1z M538.4,516c0,0,0,0.1,0,0.1c0,0-0.1,0-0.1,0
		c0,0-0.1-0.1,0-0.1C538.3,516,538.3,516,538.4,516z M539.8,516.9c0,0,0.1,0.1,0,0.1c0,0-0.1,0.1-0.1,0
		C539.7,517,539.7,517,539.8,516.9C539.8,516.9,539.8,516.9,539.8,516.9z M534.8,506.8c0,0,0.1-0.1,0.1,0c0,0,0,0.1,0,0.1
		c0,0-0.1,0-0.1,0S534.8,506.8,534.8,506.8C534.8,506.8,534.8,506.8,534.8,506.8z M535.8,505.3C535.9,505.3,535.9,505.3,535.8,505.3
		c0,0.1,0,0.1-0.1,0.1c0,0-0.1-0.1,0-0.1C535.8,505.3,535.8,505.2,535.8,505.3z M536.8,503.8c0,0,0.1,0.1,0,0.1c0,0-0.1,0.1-0.1,0
		c0,0,0-0.1,0-0.1C536.7,503.8,536.7,503.8,536.8,503.8z M535.2,506.4c0,0,0.1,0,0.1,0c0,0,0,0.1,0,0.1
		C535.3,506.6,535.3,506.5,535.2,506.4C535.2,506.5,535.2,506.5,535.2,506.4z M536.5,505.4C536.5,505.4,536.6,505.4,536.5,505.4
		c0.1,0,0.1,0.1,0.1,0.1C536.6,505.6,536.5,505.6,536.5,505.4C536.5,505.5,536.5,505.5,536.5,505.4z M537.9,504.4
		C537.9,504.5,537.9,504.5,537.9,504.4c0,0.1-0.1,0.1-0.1,0.1c0,0,0-0.1,0-0.1C537.8,504.4,537.9,504.4,537.9,504.4z M536.2,510
		C536.3,510,536.3,510.1,536.2,510c0.1,0.1,0,0.1,0,0.1C536.2,510.1,536.2,510.1,536.2,510C536.2,510,536.2,510,536.2,510z
		 M537.8,510.2C537.9,510.2,537.9,510.2,537.8,510.2c0.1,0.1,0,0.1,0,0.1C537.8,510.3,537.8,510.3,537.8,510.2
		C537.8,510.2,537.8,510.2,537.8,510.2z M539.5,510.4C539.5,510.4,539.5,510.4,539.5,510.4c0.1,0.1,0,0.1,0,0.1
		C539.4,510.5,539.4,510.5,539.5,510.4C539.4,510.4,539.4,510.4,539.5,510.4z M536.3,515.8C536.3,515.8,536.4,515.8,536.3,515.8
		c0.1,0,0.1,0.1,0.1,0.1C536.4,515.9,536.3,515.9,536.3,515.8C536.3,515.9,536.3,515.8,536.3,515.8z M535.1,503
		C535.1,503.1,535.1,503.1,535.1,503c0,0.1,0,0.1-0.1,0.1C535,503.1,535,503.1,535.1,503C535,503,535.1,503,535.1,503z M535.9,501.6
		C535.9,501.6,535.9,501.7,535.9,501.6c0,0.1,0,0.1-0.1,0.1c0,0,0-0.1,0-0.1C535.8,501.6,535.9,501.6,535.9,501.6z M535.4,508.3
		C535.4,508.3,535.4,508.3,535.4,508.3c0.1,0.1,0.1,0.1,0,0.1C535.4,508.4,535.3,508.4,535.4,508.3
		C535.3,508.3,535.3,508.3,535.4,508.3z M536.9,507.9C537,507.8,537,507.9,536.9,507.9c0.1,0.1,0.1,0.1,0,0.1
		C536.9,508,536.9,508,536.9,507.9C536.9,507.9,536.9,507.9,536.9,507.9z M538.5,507.4C538.5,507.4,538.6,507.4,538.5,507.4
		c0.1,0.1,0.1,0.1,0,0.1C538.5,507.5,538.4,507.5,538.5,507.4C538.4,507.5,538.4,507.4,538.5,507.4z M540,507
		C540.1,507,540.1,507,540,507c0.1,0.1,0.1,0.1,0,0.1C540,507.1,540,507.1,540,507C540,507,540,507,540,507z M536.5,512.2
		C536.5,512.2,536.5,512.2,536.5,512.2c0,0.1,0,0.1-0.1,0.1c0,0,0-0.1,0-0.1C536.4,512.2,536.4,512.1,536.5,512.2z M537.9,513
		C537.9,513,537.9,513,537.9,513c0,0.1,0,0.1-0.1,0.1C537.8,513.1,537.7,513,537.9,513C537.8,512.9,537.8,512.9,537.9,513z
		 M539.3,513.8C539.3,513.8,539.3,513.8,539.3,513.8c0,0.1,0,0.1-0.1,0.1C539.2,513.9,539.2,513.8,539.3,513.8
		C539.2,513.7,539.2,513.7,539.3,513.8z M535.3,506.6C535.3,506.6,535.3,506.6,535.3,506.6C535.3,506.7,535.3,506.7,535.3,506.6
		C535.3,506.7,535.3,506.6,535.3,506.6C535.3,506.6,535.3,506.6,535.3,506.6z M536.3,506.5C536.3,506.5,536.3,506.5,536.3,506.5
		C536.3,506.6,536.3,506.6,536.3,506.5C536.3,506.6,536.3,506.6,536.3,506.5C536.3,506.5,536.3,506.5,536.3,506.5z M535.1,510.2
		C535.1,510.2,535.1,510.2,535.1,510.2C535.1,510.2,535,510.2,535.1,510.2L535.1,510.2C535.1,510.2,535.1,510.2,535.1,510.2z
		 M534.6,503.1C534.6,503.1,534.6,503.1,534.6,503.1C534.7,503.1,534.7,503.1,534.6,503.1C534.6,503.1,534.6,503.1,534.6,503.1
		C534.6,503.1,534.6,503.1,534.6,503.1C534.6,503.1,534.6,503.1,534.6,503.1z M535.6,508.3C535.6,508.3,535.6,508.3,535.6,508.3
		C535.6,508.4,535.6,508.4,535.6,508.3C535.5,508.4,535.5,508.3,535.6,508.3C535.5,508.3,535.6,508.3,535.6,508.3z M536.5,508.6
		C536.6,508.6,536.6,508.6,536.5,508.6C536.6,508.7,536.5,508.7,536.5,508.6C536.5,508.7,536.5,508.7,536.5,508.6
		C536.5,508.6,536.5,508.6,536.5,508.6z M535.3,504.9C535.3,504.8,535.4,504.9,535.3,504.9C535.4,504.9,535.4,504.9,535.3,504.9
		C535.3,504.9,535.3,504.9,535.3,504.9C535.3,504.9,535.3,504.9,535.3,504.9z M536.2,504.4C536.2,504.4,536.3,504.4,536.2,504.4
		C536.3,504.4,536.3,504.5,536.2,504.4C536.2,504.5,536.2,504.5,536.2,504.4C536.2,504.4,536.2,504.4,536.2,504.4z M535.7,506
		c0.1-0.1,0.1-0.1,0.2,0c0.1,0.1,0.1,0.1,0,0.2c-0.1,0.1-0.1,0.1-0.2,0C535.6,506.2,535.6,506.1,535.7,506z M538.2,508.2
		c0.1-0.1,0.1-0.1,0.2,0c0.1,0,0.1,0.1,0,0.2c-0.1,0.1-0.1,0.1-0.2,0C538.1,508.3,538.1,508.2,538.2,508.2z M540.6,510.3
		c0.1-0.1,0.1-0.1,0.2,0c0.1,0.1,0.1,0.1,0,0.2c-0.1,0.1-0.1,0.1-0.2,0C540.6,510.4,540.6,510.4,540.6,510.3z M543.1,512.4
		c0.1-0.1,0.1-0.1,0.2,0c0.1,0.1,0.1,0.1,0,0.2c-0.1,0.1-0.1,0.1-0.2,0C543,512.6,543,512.5,543.1,512.4z M535.2,496.9
		c0.1-0.1,0.1-0.1,0.2,0c0.1,0,0.1,0.1,0,0.2c-0.1,0.1-0.1,0.1-0.2,0C535.2,497,535.2,496.9,535.2,496.9z M537.4,494.4
		c0-0.1,0.1-0.1,0.2,0c0.1,0,0.1,0.1,0,0.2c-0.1,0.1-0.1,0.1-0.2,0C537.3,494.5,537.3,494.4,537.4,494.4z M539.5,491.9
		c0.1-0.1,0.1-0.1,0.2,0c0.1,0.1,0.1,0.1,0,0.2c0,0.1-0.1,0.1-0.2,0C539.5,492.1,539.5,492,539.5,491.9z M541.7,489.5
		c0.1-0.1,0.1-0.1,0.2,0c0.1,0.1,0.1,0.1,0,0.2c-0.1,0.1-0.1,0.1-0.2,0C541.6,489.6,541.6,489.5,541.7,489.5z M537.5,501.3
		c0.1,0,0.1,0.1,0.1,0.1c0,0.1-0.1,0.1-0.1,0.1s-0.1-0.1-0.1-0.1C537.3,501.4,537.4,501.3,537.5,501.3z M540.7,501.1
		c0.1,0,0.1,0.1,0.1,0.1c0,0.1-0.1,0.1-0.1,0.1c-0.1,0-0.1-0.1-0.2-0.1C540.6,501.1,540.6,501.1,540.7,501.1z M544,500.9
		c0.1,0,0.1,0.1,0.1,0.1c0,0.1-0.1,0.1-0.1,0.1c-0.1,0-0.1-0.1-0.1-0.1C543.8,500.9,543.9,500.9,544,500.9z M547.2,500.6
		c0.1,0,0.1,0.1,0.1,0.1c0,0.1-0.1,0.1-0.1,0.1c-0.1,0-0.1-0.1-0.1-0.1C547.1,500.7,547.1,500.6,547.2,500.6z M535.9,511.9
		C535.9,511.9,535.9,511.9,535.9,511.9c0.1,0,0.1,0,0.2,0.1c0,0.1,0,0.2-0.1,0.2c-0.1,0-0.2,0-0.2-0.1c0,0,0-0.1,0-0.1
		C535.8,512,535.9,512,535.9,511.9z M537.4,514.8c0.1,0,0.2,0,0.2,0.1c0,0.1,0,0.2-0.1,0.2c-0.1,0-0.2,0-0.2-0.1
		C537.3,515,537.3,514.9,537.4,514.8z M538.8,517.7c0.1,0,0.2,0,0.2,0.1c0,0.1,0,0.2-0.1,0.2c-0.1,0-0.2,0-0.2-0.1
		C538.7,517.9,538.7,517.8,538.8,517.7z M534.5,490.9c0.1,0,0.1,0.1,0.1,0.2c0,0.1-0.1,0.1-0.2,0.1c-0.1,0-0.1-0.1-0.1-0.2
		C534.4,490.9,534.5,490.9,534.5,490.9z M535.6,487.8c0.1,0,0.1,0.1,0.1,0.2c0,0.1-0.1,0.1-0.2,0.1c-0.1,0-0.1-0.1-0.1-0.2
		C535.4,487.9,535.5,487.8,535.6,487.8z M536.6,484.8c0.1,0,0.1,0.1,0.1,0.2c0,0.1-0.1,0.1-0.2,0.1c-0.1,0-0.1-0.1-0.1-0.2
		C536.5,484.8,536.5,484.7,536.6,484.8z M535.2,499.6c0.1,0,0.2,0,0.2,0.1c0,0.1,0,0.2-0.1,0.2c-0.1,0-0.2,0-0.2-0.1
		C535.1,499.7,535.1,499.6,535.2,499.6z M538.1,498.1c0.1,0,0.2,0,0.2,0.1c0,0.1,0,0.2-0.1,0.2c-0.1,0-0.2,0-0.2-0.1
		C538,498.2,538,498.1,538.1,498.1z M541,496.7c0.1,0,0.2,0,0.2,0.1c0,0.1,0,0.2-0.1,0.2c-0.1,0-0.2,0-0.2-0.1
		C540.9,496.8,541,496.7,541,496.7z M543.9,495.2c0.1,0,0.2,0,0.2,0.1c0,0.1,0,0.1-0.1,0.2c-0.1,0-0.2,0-0.2-0.1
		C543.8,495.3,543.9,495.2,543.9,495.2z M546.9,493.8c0.1,0,0.2,0,0.2,0.1c0,0.1,0,0.2-0.1,0.2c-0.1,0-0.2,0-0.2-0.1
		C546.8,493.9,546.8,493.8,546.9,493.8z M535.6,503.3c0.1,0,0.1,0.1,0.1,0.2c0,0.1-0.1,0.1-0.2,0.1c-0.1,0-0.1-0.1-0.1-0.2
		C535.4,503.3,535.5,503.3,535.6,503.3z M538.6,504.3c0.1,0,0.1,0.1,0.1,0.2c0,0.1-0.1,0.1-0.2,0.1c-0.1,0-0.1-0.1-0.1-0.2
		C538.5,504.3,538.6,504.3,538.6,504.3z M541.7,505.3c0.1,0,0.1,0.1,0.1,0.2c0,0.1-0.1,0.1-0.2,0.1c-0.1,0-0.1-0.1-0.1-0.2
		C541.6,505.4,541.7,505.3,541.7,505.3z M544.8,506.4c0.1,0,0.1,0.1,0.1,0.2c0,0.1-0.1,0.1-0.2,0.1c-0.1,0-0.1-0.1-0.1-0.2
		C544.7,506.4,544.8,506.4,544.8,506.4z M547.9,507.4c0.1,0,0.1,0.1,0.1,0.2c0,0.1-0.1,0.1-0.2,0.1c-0.1,0-0.1-0.1-0.1-0.2
		C547.8,507.4,547.8,507.4,547.9,507.4z M535,491.9c0-0.1,0.1-0.1,0.2,0c0.1,0,0.1,0.1,0.1,0.2c0,0.1-0.1,0.1-0.2,0
		C535,492,535,491.9,535,491.9z M536.7,489.3c0.1,0,0.1,0.1,0,0.2c0,0.1-0.1,0.1-0.2,0c-0.1,0-0.1-0.1,0-0.2
		C536.6,489.3,536.7,489.3,536.7,489.3z M538,486.9c0-0.1,0.1-0.1,0.2-0.1c0.1,0,0.1,0.1,0,0.2c0,0.1-0.1,0.1-0.2,0.1
		C538,487,538,487,538,486.9z M536.2,497.9c0.1,0,0.1,0,0.1,0.1c0,0.1,0,0.1-0.1,0.2c-0.1,0-0.1,0-0.2-0.1
		C536.1,498,536.1,497.9,536.2,497.9z M539,497.2c0.1,0,0.1,0,0.1,0.1c0,0.1,0,0.1-0.1,0.1c-0.1,0-0.1,0-0.1-0.1
		C538.9,497.3,538.9,497.2,539,497.2z M541.8,496.5c0.1,0,0.1,0,0.2,0.1c0,0.1,0,0.1-0.1,0.1c-0.1,0-0.1,0-0.2-0.1
		C541.7,496.6,541.7,496.5,541.8,496.5z M544.6,495.8c0.1,0,0.1,0,0.1,0.1c0,0.1,0,0.1-0.1,0.1c-0.1,0-0.1,0-0.1-0.1
		C544.5,495.9,544.6,495.8,544.6,495.8z M535.4,502.3c0-0.1,0.1-0.1,0.2,0c0.1,0,0.1,0.1,0,0.2c0,0.1-0.1,0.1-0.2,0
		C535.4,502.4,535.3,502.4,535.4,502.3z M537.8,503.8c0-0.1,0.1-0.1,0.2,0c0.1,0,0.1,0.1,0.1,0.2c0,0.1-0.1,0.1-0.2,0
		C537.8,503.9,537.8,503.9,537.8,503.8z M540.3,505.3c0-0.1,0.1-0.1,0.2,0c0.1,0,0.1,0.1,0,0.2c0,0.1-0.1,0.1-0.2,0
		C540.3,505.4,540.3,505.3,540.3,505.3z M542.8,506.8c0-0.1,0.1-0.1,0.2,0c0.1,0,0.1,0.1,0,0.2c0,0.1-0.1,0.1-0.2,0
		C542.8,506.9,542.8,506.8,542.8,506.8z M536.4,495c0.1,0,0.1,0,0.2,0c0,0.1,0,0.1,0,0.2c-0.1,0-0.1,0-0.2,0
		C536.4,495.1,536.4,495,536.4,495z M538.7,493.2c0.1,0,0.1,0,0.2,0c0,0.1,0,0.1,0,0.2c-0.1,0.1-0.1,0-0.2,0
		C538.7,493.3,538.7,493.3,538.7,493.2z M541.1,491.5c0.1,0,0.1,0,0.2,0c0,0.1,0,0.1,0,0.2c-0.1,0-0.1,0-0.2,0
		C541,491.6,541,491.6,541.1,491.5z M543.4,489.8c0.1,0,0.1,0,0.2,0c0,0.1,0,0.1,0,0.2c-0.1,0-0.1,0-0.2,0
		C543.4,489.9,543.4,489.8,543.4,489.8z M535,499.9c0.1,0,0.1,0.1,0.1,0.1s-0.1,0.1-0.1,0.1c-0.1,0-0.1-0.1-0.1-0.1
		C534.9,499.9,534.9,499.9,535,499.9z M537.8,500.3c0.1,0,0.1,0.1,0.1,0.1c0,0.1-0.1,0.1-0.1,0.1s-0.1-0.1-0.1-0.1
		C537.7,500.3,537.8,500.3,537.8,500.3z M540.7,500.7c0.1,0,0.1,0.1,0.1,0.1c0,0.1-0.1,0.1-0.1,0.1c-0.1,0-0.1-0.1-0.1-0.1
		C540.6,500.8,540.6,500.7,540.7,500.7z M543.6,501.2c0.1,0,0.1,0.1,0.1,0.1s-0.1,0.1-0.1,0.1c-0.1,0-0.1-0.1-0.1-0.1
		C543.4,501.2,543.5,501.1,543.6,501.2z M546.4,501.6c0.1,0,0.1,0.1,0.1,0.1s-0.1,0.1-0.1,0.1c-0.1,0-0.1-0.1-0.1-0.1
		C546.3,501.6,546.4,501.6,546.4,501.6z M534.9,505.1c0.1,0,0.1,0,0.2,0c0,0.1,0,0.1,0,0.2c-0.1,0-0.1,0-0.2,0
		C534.8,505.2,534.8,505.1,534.9,505.1z M536.6,507.4c0.1,0,0.1,0,0.2,0c0,0.1,0,0.1,0,0.2c-0.1,0-0.1,0-0.2,0
		C536.6,507.5,536.6,507.5,536.6,507.4C536.6,507.4,536.6,507.4,536.6,507.4z M538.3,509.7c0.1,0,0.1,0,0.2,0c0,0.1,0,0.1,0,0.2
		c-0.1,0-0.1,0-0.2,0C538.3,509.8,538.3,509.8,538.3,509.7z M540.1,512c0.1,0,0.1,0,0.2,0c0,0.1,0,0.1,0,0.2c-0.1,0.1-0.1,0-0.2,0
		C540,512.1,540,512.1,540.1,512z M535.5,494.6C535.5,494.6,535.6,494.6,535.5,494.6c0.1,0.1,0.1,0.1,0,0.1
		C535.5,494.7,535.5,494.7,535.5,494.6C535.4,494.7,535.5,494.6,535.5,494.6z M536.7,494.1C536.8,494,536.8,494.1,536.7,494.1
		c0.1,0.1,0.1,0.1,0.1,0.1C536.8,494.2,536.7,494.2,536.7,494.1C536.7,494.1,536.7,494.1,536.7,494.1z M535.6,498.8
		C535.6,498.9,535.6,498.9,535.6,498.8c0,0.1,0,0.1,0,0.1C535.5,498.9,535.5,498.9,535.6,498.8C535.5,498.8,535.6,498.8,535.6,498.8
		z M536.9,499.3C536.9,499.3,536.9,499.4,536.9,499.3c0,0.1,0,0.1,0,0.1C536.8,499.4,536.8,499.4,536.9,499.3
		C536.8,499.3,536.9,499.3,536.9,499.3z M534.8,492.3C534.8,492.3,534.8,492.3,534.8,492.3C534.8,492.4,534.7,492.4,534.8,492.3
		C534.7,492.3,534.7,492.3,534.8,492.3C534.7,492.2,534.8,492.2,534.8,492.3z M535.7,491.3C535.7,491.3,535.7,491.3,535.7,491.3
		C535.7,491.4,535.7,491.4,535.7,491.3C535.6,491.3,535.6,491.3,535.7,491.3C535.7,491.2,535.7,491.2,535.7,491.3z M535.3,496.6
		C535.3,496.6,535.4,496.6,535.3,496.6c0.1,0.1,0,0.1,0,0.1C535.3,496.7,535.2,496.7,535.3,496.6
		C535.2,496.6,535.3,496.6,535.3,496.6z M536.7,496.6C536.7,496.6,536.7,496.6,536.7,496.6c0.1,0.1,0,0.1,0,0.1
		C536.6,496.7,536.6,496.7,536.7,496.6C536.6,496.6,536.6,496.6,536.7,496.6z M538.1,496.5C538.1,496.5,538.1,496.6,538.1,496.5
		c0.1,0.1,0,0.1,0,0.1C538,496.7,538,496.6,538.1,496.5C538,496.6,538,496.5,538.1,496.5z M535,501C535,501.1,535,501.1,535,501
		C535,501.1,535,501.1,535,501C534.9,501.1,534.9,501.1,535,501C535,501,535,501,535,501z M536,502C536,502,536,502,536,502
		C536,502.1,536,502.1,536,502C535.9,502,535.9,502,536,502C536,502,536,502,536,502z M533.9,479.3c0.1,0,0.1,0.1,0.1,0.2
		c0,0.1-0.1,0.1-0.2,0.1c-0.1,0-0.1-0.1-0.1-0.2C533.7,479.4,533.8,479.3,533.9,479.3z M536.6,490.3c0.1-0.1,0.2,0,0.2,0.1
		c0,0.1,0,0.2-0.1,0.2c-0.1,0.1-0.2,0-0.2-0.1C536.5,490.4,536.5,490.3,536.6,490.3z M539.9,488.3c0.1-0.1,0.2,0,0.2,0.1
		c0.1,0.1,0,0.2-0.1,0.2c-0.1,0-0.2,0-0.2-0.1C539.8,488.4,539.8,488.3,539.9,488.3z M543.1,486.3c0.1,0,0.2,0,0.2,0.1
		c0,0.1,0,0.2-0.1,0.2c-0.1,0.1-0.2,0-0.2-0.1C543,486.4,543,486.3,543.1,486.3z M546.4,484.3c0.1-0.1,0.2,0,0.2,0.1
		c0.1,0.1,0,0.2-0.1,0.2s-0.2,0-0.2-0.1C546.3,484.4,546.3,484.3,546.4,484.3z M537.5,496c0.1,0,0.1,0.1,0.1,0.2
		c0,0.1-0.1,0.1-0.2,0.1c-0.1,0-0.1-0.1-0.1-0.2C537.4,496.1,537.4,496,537.5,496z M541.2,496.9c0.1,0,0.1,0.1,0.1,0.2
		c0,0.1-0.1,0.1-0.2,0.1c-0.1,0-0.1-0.1-0.1-0.2C541.1,496.9,541.2,496.9,541.2,496.9z M544.9,497.8c0.1,0,0.1,0.1,0.1,0.2
		c0,0.1-0.1,0.1-0.2,0.1c-0.1,0-0.1-0.1-0.1-0.2C544.8,497.8,544.9,497.8,544.9,497.8z M548.7,498.7c0.1,0,0.1,0.1,0.1,0.2
		c0,0.1-0.1,0.1-0.2,0.1c-0.1,0-0.1-0.1-0.1-0.2C548.5,498.7,548.6,498.7,548.7,498.7z M535.9,503.9c0.1-0.1,0.2,0,0.2,0.1
		c0.1,0.1,0,0.2-0.1,0.2c-0.1,0-0.2,0-0.2-0.1C535.8,504.1,535.8,504,535.9,503.9z M537.9,507.2c0.1-0.1,0.2,0,0.2,0.1
		c0.1,0.1,0,0.2-0.1,0.2c-0.1,0.1-0.2,0-0.2-0.1C537.8,507.3,537.8,507.2,537.9,507.2z M539.9,510.4c0.1,0,0.2,0,0.2,0.1
		c0.1,0.1,0,0.2-0.1,0.2c-0.1,0-0.2,0-0.2-0.1C539.8,510.6,539.8,510.5,539.9,510.4z M535.7,486.5c0.1-0.1,0.1-0.1,0.2,0
		c0.1,0.1,0.1,0.2,0,0.2c-0.1,0.1-0.2,0.1-0.2,0C535.7,486.7,535.7,486.6,535.7,486.5z M538,483.4c0.1-0.1,0.2-0.1,0.2,0
		c0.1,0.1,0.1,0.2,0,0.2c-0.1,0.1-0.2,0.1-0.2,0C537.9,483.6,537.9,483.5,538,483.4z M540.2,480.3c0.1-0.1,0.2-0.1,0.2,0
		c0.1,0.1,0.1,0.2,0,0.2c-0.1,0.1-0.2,0.1-0.2,0C540.2,480.5,540.2,480.4,540.2,480.3z M542.5,477.2c0.1-0.1,0.2-0.1,0.2,0
		c0.1,0.1,0.1,0.2,0,0.2c-0.1,0.1-0.2,0.1-0.2,0C542.4,477.4,542.4,477.3,542.5,477.2z M535.9,493.2c0.1,0,0.2,0.1,0.2,0.1
		c0,0.1-0.1,0.2-0.1,0.2c-0.1,0-0.2-0.1-0.2-0.1C535.7,493.3,535.8,493.2,535.9,493.2z M539.7,492.6c0.1,0,0.2,0.1,0.2,0.1
		c0,0.1-0.1,0.2-0.1,0.2c-0.1,0-0.2-0.1-0.2-0.1C539.5,492.7,539.6,492.7,539.7,492.6z M543.4,492c0.1,0,0.2,0,0.2,0.1
		c0,0.1,0,0.2-0.1,0.2c-0.1,0-0.2,0-0.2-0.1C543.3,492.1,543.3,492.1,543.4,492z M547.2,491.4c0.1,0,0.2,0.1,0.2,0.1s0,0.2-0.1,0.2
		c-0.1,0-0.2-0.1-0.2-0.1C547,491.5,547.1,491.5,547.2,491.4z M551,490.8c0.1,0,0.2,0.1,0.2,0.1c0,0.1,0,0.2-0.1,0.2
		c-0.1,0-0.2-0.1-0.2-0.1C550.8,490.9,550.9,490.9,551,490.8z M534.8,497.5c0.1-0.1,0.2-0.1,0.2,0c0.1,0.1,0.1,0.2,0,0.2
		c-0.1,0.1-0.1,0.1-0.2,0C534.7,497.7,534.7,497.6,534.8,497.5z M537.9,499.8c0.1-0.1,0.2-0.1,0.2,0c0.1,0.1,0.1,0.2,0,0.2
		c-0.1,0.1-0.2,0.1-0.2,0C537.8,500,537.8,499.9,537.9,499.8z M540.9,502c0.1-0.1,0.2-0.1,0.2,0c0.1,0.1,0.1,0.1,0,0.2
		c-0.1,0.1-0.1,0.1-0.2,0C540.9,502.2,540.9,502.1,540.9,502z M544,504.3c0.1-0.1,0.2-0.1,0.2,0c0.1,0.1,0.1,0.2,0,0.2
		c-0.1,0.1-0.2,0.1-0.2,0C544,504.4,544,504.3,544,504.3z M547.1,506.5c0.1-0.1,0.2-0.1,0.2,0c0.1,0.1,0.1,0.2,0,0.2
		c-0.1,0.1-0.1,0.1-0.2,0C547.1,506.7,547.1,506.6,547.1,506.5z M535.1,495.8c0.1-0.1,0.1-0.1,0.2,0c0.1,0,0.1,0.1,0,0.2
		c-0.1,0.1-0.1,0.1-0.2,0C535.1,496,535.1,495.9,535.1,495.8z M537.7,497.9c0-0.1,0.1-0.1,0.2,0c0.1,0,0.1,0.1,0,0.2
		c-0.1,0.1-0.1,0.1-0.2,0C537.7,498.1,537.7,498,537.7,497.9z M540.3,500c0.1-0.1,0.1-0.1,0.2,0c0.1,0.1,0.1,0.1,0,0.2
		c0,0.1-0.1,0.1-0.2,0C540.2,500.1,540.2,500,540.3,500z M542.9,502.1c0.1-0.1,0.1-0.1,0.2,0c0.1,0.1,0.1,0.1,0,0.2
		c-0.1,0.1-0.1,0.1-0.2,0C542.8,502.2,542.8,502.1,542.9,502.1z M534.3,486.5c0.1-0.1,0.1-0.1,0.2,0c0.1,0.1,0.1,0.1,0,0.2
		c-0.1,0.1-0.1,0.1-0.2,0C534.3,486.6,534.3,486.6,534.3,486.5z M536.4,483.9c0.1-0.1,0.1-0.1,0.2,0c0.1,0.1,0.1,0.1,0,0.2
		c-0.1,0.1-0.1,0.1-0.2,0C536.4,484.1,536.3,484,536.4,483.9z M538.5,481.3c0-0.1,0.1-0.1,0.2,0c0.1,0,0.1,0.1,0,0.2
		c-0.1,0.1-0.1,0.1-0.2,0C538.4,481.5,538.4,481.4,538.5,481.3z M540.5,478.8c0-0.1,0.1-0.1,0.2,0c0.1,0.1,0.1,0.1,0,0.2
		c-0.1,0.1-0.1,0.1-0.2,0C540.5,478.9,540.5,478.8,540.5,478.8z M536.7,491c0.1,0,0.1,0,0.2,0.1c0,0.1-0.1,0.1-0.1,0.2
		c-0.1,0-0.1-0.1-0.2-0.1C536.6,491,536.7,491,536.7,491z M540,490.6c0.1,0,0.1,0,0.2,0.1c0,0.1-0.1,0.1-0.1,0.2
		c-0.1,0-0.1-0.1-0.2-0.1C539.9,490.7,540,490.6,540,490.6z M543.3,490.2c0.1,0,0.1,0.1,0.2,0.1c0,0.1-0.1,0.1-0.1,0.2
		c-0.1,0-0.1-0.1-0.2-0.1C543.2,490.3,543.3,490.2,543.3,490.2z M546.6,489.9c0.1,0,0.1,0.1,0.2,0.1c0,0.1-0.1,0.1-0.1,0.2
		c-0.1,0-0.1-0.1-0.2-0.1C546.5,490,546.6,489.9,546.6,489.9z M535.6,501.8c0.1,0,0.2,0,0.2,0.1c0,0.1,0,0.2-0.1,0.2
		c-0.1,0-0.1,0-0.2-0.1C535.5,501.9,535.5,501.8,535.6,501.8z M537.2,504.7c0.1,0,0.2,0,0.2,0.1c0,0.1,0,0.2-0.1,0.2
		c-0.1,0-0.2,0-0.2-0.1C537.1,504.8,537.1,504.8,537.2,504.7z M538.7,507.6c0.1,0,0.2,0,0.2,0.1c0,0.1,0,0.1-0.1,0.2
		c-0.1,0-0.2,0-0.2-0.1C538.7,507.7,538.7,507.6,538.7,507.6z M533.4,480.5c0.1,0,0.1,0.1,0.1,0.2c0,0.1-0.1,0.1-0.2,0.1
		c-0.1,0-0.1-0.1-0.1-0.2C533.2,480.5,533.3,480.5,533.4,480.5z M534.3,477.3c0.1,0,0.1,0.1,0.1,0.2c0,0.1-0.1,0.1-0.2,0.1
		c-0.1,0-0.1-0.1-0.1-0.2C534.1,477.4,534.2,477.3,534.3,477.3z M534.4,489.3c0.1,0,0.2,0,0.2,0.1c0,0.1,0,0.2-0.1,0.2
		c-0.1,0-0.2,0-0.2-0.1C534.3,489.4,534.3,489.3,534.4,489.3z M537.3,487.7c0.1,0,0.1,0,0.2,0.1c0,0.1,0,0.2-0.1,0.2
		c-0.1,0-0.2,0-0.2-0.1C537.2,487.8,537.2,487.7,537.3,487.7z M540.2,486.1c0.1,0,0.2,0,0.2,0.1c0,0.1,0,0.2-0.1,0.2
		c-0.1,0-0.2,0-0.2-0.1C540.1,486.2,540.1,486.1,540.2,486.1z M543.1,484.5c0.1,0,0.2,0,0.2,0.1c0,0.1,0,0.1-0.1,0.2
		c-0.1,0-0.2,0-0.2-0.1C543,484.6,543,484.5,543.1,484.5z M546,482.9c0.1,0,0.1,0,0.2,0.1c0,0.1,0,0.2-0.1,0.2c-0.1,0-0.2,0-0.2-0.1
		C545.9,483,545.9,483,546,482.9z M534.9,493c0.1,0,0.1,0.1,0.1,0.2c0,0.1-0.1,0.1-0.2,0.1c-0.1,0-0.1-0.1-0.1-0.2
		C534.7,493.1,534.8,493,534.9,493z M538.1,494c0.1,0,0.1,0.1,0.1,0.2c0,0.1-0.1,0.1-0.2,0.1c-0.1,0-0.1-0.1-0.1-0.2
		C537.9,494,538,493.9,538.1,494z M541.2,494.9c0.1,0,0.1,0.1,0.1,0.2c0,0.1-0.1,0.1-0.2,0.1c-0.1,0-0.1-0.1-0.1-0.2
		C541.1,494.9,541.2,494.9,541.2,494.9z M544.4,495.8c0.1,0,0.1,0.1,0.1,0.2c0,0.1-0.1,0.1-0.2,0.1c-0.1,0-0.1-0.1-0.1-0.2
		C544.3,495.8,544.4,495.8,544.4,495.8z M547.6,496.8c0.1,0,0.1,0.1,0.1,0.2c0,0.1-0.1,0.1-0.2,0.1c-0.1,0-0.1-0.1-0.1-0.2
		C547.4,496.8,547.5,496.7,547.6,496.8z M533.3,483.6c0,0,0.1,0.1,0,0.1c0,0,0,0-0.1,0L533.3,483.6
		C533.3,483.6,533.3,483.6,533.3,483.6z M534.4,481.8c0,0,0.1,0.1,0,0.1c0,0-0.1,0.1-0.1,0c-0.1,0-0.1-0.1,0-0.1
		C534.3,481.8,534.4,481.8,534.4,481.8z M535.6,479.9c0,0,0.1,0.1,0,0.1c0,0-0.1,0.1-0.1,0c-0.1,0-0.1-0.1,0-0.1
		C535.5,479.9,535.5,479.9,535.6,479.9z M534,488.2c0,0,0.1,0,0.1,0.1c0,0.1,0,0.1-0.1,0.1c-0.1,0-0.1,0-0.1-0.1
		C533.9,488.2,534,488.2,534,488.2z M536.1,487.7c0.1,0,0.1,0,0.1,0.1c0,0.1,0,0.1-0.1,0.1c-0.1,0-0.1,0-0.1-0.1
		C536,487.7,536.1,487.7,536.1,487.7z M538.2,487.2c0.1,0,0.1,0,0.1,0.1c0,0.1,0,0.1-0.1,0.1s-0.1,0-0.1-0.1
		C538.1,487.2,538.2,487.2,538.2,487.2z M540.3,486.6c0.1,0,0.1,0,0.1,0.1s0,0.1-0.1,0.1c0,0-0.1,0-0.1-0.1
		C540.2,486.7,540.3,486.6,540.3,486.6z M535.3,492.6c0.1,0,0.1,0.1,0,0.1c0,0-0.1,0.1-0.1,0c0,0-0.1-0.1,0-0.1
		C535.3,492.6,535.3,492.5,535.3,492.6z M537.2,493.7c0.1,0,0.1,0.1,0,0.1c0,0-0.1,0.1-0.1,0c0,0-0.1-0.1,0-0.1
		C537.1,493.7,537.2,493.7,537.2,493.7z M539,494.8c0.1,0,0.1,0.1,0,0.1c0,0-0.1,0.1-0.1,0c0,0-0.1-0.1,0-0.1
		C539,494.8,539,494.8,539,494.8z M534.2,486c0.1,0,0.1,0,0.1,0c0,0,0,0.1,0,0.1c0,0-0.1,0-0.1,0C534.1,486.1,534.1,486,534.2,486z
		 M535.9,484.7c0.1,0,0.1,0,0.1,0c0,0,0,0.1,0,0.1c0,0-0.1,0-0.1,0C535.9,484.8,535.9,484.7,535.9,484.7z M537.7,483.4
		c0,0,0.1,0,0.1,0c0,0,0,0.1,0,0.1c0,0-0.1,0-0.1,0C537.6,483.5,537.6,483.5,537.7,483.4z M539.4,482.2c0,0,0.1,0,0.1,0
		c0,0,0,0.1,0,0.1c0,0-0.1,0-0.1,0C539.4,482.2,539.4,482.2,539.4,482.2z M535.2,490c0.1,0,0.1,0.1,0.1,0.1c0,0.1-0.1,0.1-0.1,0.1
		c-0.1,0-0.1-0.1-0.1-0.1C535.1,490,535.2,490,535.2,490z M537.4,490.3c0.1,0,0.1,0.1,0.1,0.1c0,0.1-0.1,0.1-0.1,0.1
		c-0.1,0-0.1-0.1-0.1-0.1C537.3,490.3,537.3,490.3,537.4,490.3z M539.5,490.6c0.1,0,0.1,0.1,0.1,0.1c0,0.1-0.1,0.1-0.1,0.1
		c0,0-0.1-0.1-0.1-0.1C539.4,490.7,539.5,490.6,539.5,490.6z M541.7,491c0,0,0.1,0.1,0.1,0.1c0,0.1-0.1,0.1-0.1,0.1
		c0,0-0.1-0.1-0.1-0.1C541.6,491,541.6,491,541.7,491z M534.3,495.3c0,0,0.1,0,0.1,0c0,0,0,0.1,0,0.1c0,0-0.1,0-0.1,0
		C534.2,495.4,534.2,495.3,534.3,495.3z M535.6,497c0,0,0.1,0,0.1,0c0,0,0,0.1,0,0.1c0,0-0.1,0-0.1,0
		C535.5,497.1,535.5,497.1,535.6,497z M536.8,498.8c0,0,0.1,0,0.1,0c0,0,0,0.1,0,0.1c0,0-0.1,0-0.1,0
		C536.8,498.9,536.8,498.8,536.8,498.8z M535.5,491.5c0.1-0.1,0.2-0.1,0.2,0c0.1,0.1,0.1,0.2,0,0.2c-0.1,0.1-0.2,0.1-0.2,0
		C535.4,491.7,535.4,491.6,535.5,491.5z M538.4,494c0.1-0.1,0.2-0.1,0.2,0c0.1,0.1,0.1,0.2,0,0.2c-0.1,0.1-0.2,0.1-0.2,0
		C538.4,494.2,538.4,494.1,538.4,494z M541.4,496.5c0.1-0.1,0.2-0.1,0.2,0c0.1,0.1,0.1,0.2,0,0.2c-0.1,0.1-0.2,0.1-0.2,0
		C541.4,496.6,541.4,496.5,541.4,496.5z M544.4,498.9c0.1-0.1,0.2-0.1,0.2,0c0.1,0.1,0.1,0.2,0,0.2c-0.1,0.1-0.2,0.1-0.2,0
		C544.3,499.1,544.3,499,544.4,498.9z M534.7,480.7c0.1-0.1,0.2-0.1,0.2,0c0.1,0.1,0.1,0.2,0,0.2c-0.1,0.1-0.2,0.1-0.2,0
		C534.6,480.8,534.6,480.7,534.7,480.7z M537.2,477.7c0.1-0.1,0.2-0.1,0.2,0c0.1,0.1,0.1,0.2,0,0.2c-0.1,0.1-0.2,0.1-0.2,0
		C537.1,477.9,537.1,477.8,537.2,477.7z M539.6,474.7c0.1-0.1,0.2-0.1,0.2,0c0.1,0.1,0.1,0.2,0,0.2c-0.1,0.1-0.2,0.1-0.2,0
		C539.6,474.9,539.6,474.8,539.6,474.7z M542.1,471.8c0.1-0.1,0.2-0.1,0.2,0c0.1,0.1,0.1,0.2,0,0.2c-0.1,0.1-0.2,0.1-0.2,0
		C542,471.9,542,471.8,542.1,471.8z M533.6,486.2c0.1,0,0.2,0.1,0.2,0.2c0,0.1-0.1,0.2-0.1,0.2c-0.1,0-0.2-0.1-0.2-0.2
		C533.5,486.3,533.5,486.2,533.6,486.2z M537.5,485.9c0.1,0,0.2,0.1,0.2,0.2c0,0.1-0.1,0.2-0.1,0.2c-0.1,0-0.2-0.1-0.2-0.1
		C537.3,486,537.4,485.9,537.5,485.9z M541.3,485.5c0.1,0,0.2,0.1,0.2,0.1c0,0.1-0.1,0.2-0.1,0.2c-0.1,0-0.2-0.1-0.2-0.1
		C541.1,485.6,541.2,485.5,541.3,485.5z M545.1,485.2c0.1,0,0.2,0.1,0.2,0.1c0,0.1-0.1,0.2-0.1,0.2c-0.1,0-0.2-0.1-0.2-0.2
		C545,485.3,545.1,485.2,545.1,485.2z M549,484.8c0.1,0,0.2,0.1,0.2,0.1c0,0.1-0.1,0.2-0.1,0.2c-0.1,0-0.2-0.1-0.2-0.2
		C548.8,484.9,548.9,484.8,549,484.8z M535.9,498.5c0.1,0,0.2,0,0.2,0.1c0,0.1,0,0.2-0.1,0.2c-0.1,0.1-0.2,0-0.2-0.1
		C535.8,498.6,535.8,498.5,535.9,498.5z M537.7,501.9c0.1,0,0.2,0,0.2,0.1c0,0.1,0,0.2-0.1,0.2c-0.1,0-0.2,0-0.2-0.1
		C537.6,502,537.6,502,537.7,501.9z M539.5,505.3c0.1,0,0.2,0,0.2,0.1c0,0.1,0,0.2-0.1,0.2c-0.1,0-0.2,0-0.2-0.1
		C539.4,505.4,539.4,505.4,539.5,505.3z M536,466.3c0.1,0,0.1,0.1,0.1,0.2c0,0.1-0.1,0.1-0.2,0.1c-0.1,0-0.1-0.1-0.1-0.2
		C535.8,466.3,535.9,466.3,536,466.3z M534.7,483.9c0.1,0,0.2,0,0.2,0.1c0.1,0.1,0,0.2-0.1,0.2c-0.1,0-0.2,0-0.2-0.1
		C534.6,484,534.6,483.9,534.7,483.9z M538.1,482.1c0.1,0,0.2,0,0.2,0.1c0.1,0.1,0,0.2-0.1,0.2c-0.1,0.1-0.2,0-0.2-0.1
		C538,482.2,538,482.1,538.1,482.1z M541.5,480.3c0.1,0,0.2,0,0.2,0.1c0,0.1,0,0.2-0.1,0.2c-0.1,0.1-0.2,0-0.2-0.1
		C541.4,480.4,541.5,480.3,541.5,480.3z M544.9,478.5c0.1,0,0.2,0,0.2,0.1c0,0.1,0,0.2-0.1,0.2c-0.1,0.1-0.2,0-0.2-0.1
		C544.8,478.6,544.9,478.5,544.9,478.5z M548.4,476.7c0.1,0,0.2,0,0.2,0.1c0,0.1,0,0.2-0.1,0.2c-0.1,0.1-0.2,0-0.2-0.1
		C548.2,476.8,548.3,476.7,548.4,476.7z M535.2,488.3c0.1,0,0.1,0.1,0.1,0.2c0,0.1-0.1,0.1-0.2,0.1c-0.1,0-0.1-0.1-0.1-0.2
		C535.1,488.3,535.2,488.2,535.2,488.3z M538.9,489.4c0.1,0,0.1,0.1,0.1,0.2c0,0.1-0.1,0.1-0.2,0.1c-0.1,0-0.1-0.1-0.1-0.2
		C538.7,489.4,538.8,489.4,538.9,489.4z M542.6,490.5c0.1,0,0.1,0.1,0.1,0.2c0,0.1-0.1,0.1-0.2,0.1c-0.1,0-0.1-0.1-0.1-0.2
		C542.4,490.6,542.5,490.5,542.6,490.5z M546.3,491.7c0.1,0,0.1,0.1,0.1,0.2c0,0.1-0.1,0.1-0.2,0.1c-0.1,0-0.1-0.1-0.1-0.2
		C546.1,491.7,546.2,491.7,546.3,491.7z M550,492.8c0.1,0,0.1,0.1,0.1,0.2c0,0.1-0.1,0.1-0.2,0.1c-0.1,0-0.1-0.1-0.1-0.2
		C549.8,492.8,549.9,492.8,550,492.8z" style="fill:#FFFFFF;"/>
</g>
<g>
	<polygon points="720.1,87.7 713.3,95 720.6,101.8 727.4,94.4 	" style="fill:#23286B;"/>
	<polygon points="812.7,110 803.9,114.5 808.4,123.4 817.3,118.9 	" style="fill:#23286B;"/>
	<polygon points="749.6,80.7 742.8,88 750.2,94.8 756.9,87.4 	" style="fill:#23286B;"/>
	<polygon points="720,94.7 723.3,94.7 723.3,68.8 750.9,56.3 750.9,87.7 754.2,87.7 754.2,51.2 720,66.7 	" style="fill:#23286B;"/>
	<polygon points="651.7,217.6 658.4,224.9 665.7,218.1 659,210.8 	" style="fill:#23286B;"/>
	<polygon points="622.2,210.6 628.9,217.9 636.2,211.1 629.5,203.8 	" style="fill:#23286B;"/>
	<polygon points="655.7,217.8 659,217.8 659,189.8 624.9,174.3 624.9,210.8 628.2,210.8 628.2,179.4 655.7,191.9 	" style="fill:#23286B;"/>
	<rect x="812.6" y="82.4" width="3.3" height="36" style="fill:#23286B;"/>
	<polygon points="636.6,43.1 645.5,38.6 640.9,29.7 632.1,34.2 	" style="fill:#23286B;"/>
	<rect x="633.5" y="35.1" width="3.3" height="36" style="fill:#23286B;"/>
	<polygon points="652.4,62.2 654.1,56.5 648.5,54.8 646.7,60.5 	" style="fill:#A1C3FC;"/>
	<polygon points="669.9,167.4 674.7,152 659.3,147.2 654.6,162.7 	" style="fill:#E94A47;"/>
	<polygon points="765.5,153.4 778,143.2 767.8,130.7 755.3,140.9 	" style="fill:#A1C3FC;"/>
	<path d="M792,82.9c0.4,0,0.8-0.3,0.8-0.7c2.5-17.1,17.4-31.6,34.5-33.6c0.5-0.1,0.8-0.5,0.7-0.9
		c-0.1-0.5-0.5-0.8-0.9-0.7c-17.8,2.1-33.3,17.2-36,35c-0.1,0.5,0.2,0.9,0.7,0.9C791.9,82.9,791.9,82.9,792,82.9z" style="fill:#E94A47;"/>
	<path d="M827.4,136.7c0.2,0,0.4-0.1,0.5-0.2c7.5-6.4,17.7-14.2,29.8-16.9c12.2-2.7,24.4,0.7,31.3,8.7
		c0.3,0.4,0.8,0.4,1.2,0.1c0.3-0.3,0.4-0.8,0.1-1.2c-7.2-8.5-20.1-12.1-32.9-9.2c-12.5,2.8-22.9,10.7-30.5,17.3
		c-0.3,0.3-0.4,0.8-0.1,1.2C827,136.6,827.2,136.7,827.4,136.7z" style="fill:#E94A47;"/>
</g>
<g>
	<rect x="682.1" y="569.5" width="79.8" height="6.3" style="fill:#89B3F4;"/>
	<polygon points="741.1,570.5 801.1,573.2 843.5,483.5 783.6,483.4 	" style="fill:#89B3F4;"/>
	<polygon points="800.5,573.1 806.2,575.8 849.1,486.1 843.5,483.4 	" style="fill:#A1C3FC;"/>
	<rect x="726.7" y="569.5" width="79.5" height="6.3" style="fill:#A1C3FC;"/>
	<polygon points="749.6,561.4 802.2,561.6 836.7,489.3 784.7,489.2 	" style="fill:#1C2868;"/>
	<rect x="806.4" y="497.2" width="7.6" height="7.6" style="fill:#56598D;"/>
	<rect x="813.2" y="499.1" width="2.1" height="2.1" style="fill:#888BAF;"/>
	<rect x="777.5" y="533.9" width="4.1" height="4.1" style="fill:#E94A47;"/>
	<rect x="773.1" y="538.6" width="4.1" height="4.1" style="fill:#1D72D8;"/>
	<rect x="710.9" y="570.4" width="9.1" height="4.1" style="fill:#1D72D8;"/>
	<rect x="701.4" y="570.4" width="6.3" height="4.1" style="fill:#1D72D8;"/>
</g>
</svg>