<svg id="Layer_1" data-name="Layer 1" xmlns="http://www.w3.org/2000/svg" xmlns:xlink="http://www.w3.org/1999/xlink" viewBox="0 0 817.2 544.8"><defs><style>.cls-1{fill:none;}.cls-2{clip-path:url(#clip-path);}.cls-3{fill:#5658f8;}.cls-4{fill:#2bcc9e;}.cls-5{fill:#fff;}.cls-6{fill:#eaeaea;}.cls-7{fill:#f4aa16;}.cls-8{fill:#231f20;}.cls-9{fill:#d0a8ef;}.cls-10{fill:url(#linear-gradient);}.cls-11{fill:url(#linear-gradient-2);}.cls-12{fill:#ffbeb6;}.cls-13{fill:#f0afaf;opacity:0.86;isolation:isolate;}.cls-14{fill:#1c2868;}</style><clipPath id="clip-path"><rect class="cls-1" width="817.2" height="544.8"/></clipPath><linearGradient id="linear-gradient" x1="579.62" y1="1426.79" x2="503.05" y2="1307.69" gradientTransform="translate(332.68 -145.64) scale(0.29 0.29)" gradientUnits="userSpaceOnUse"><stop offset="0" stop-color="#ffbeb6"/><stop offset="1" stop-color="#f2a19c"/></linearGradient><linearGradient id="linear-gradient-2" x1="758.68" y1="1371.48" x2="763.03" y2="1298.22" xlink:href="#linear-gradient"/></defs><g class="cls-2"><path class="cls-3" d="M371.49,373.46c-6.41-3-12.47-2.85-18.23,0V121c4.34-2.37,10.32-2.5,18.23,0V373.46Z"/><rect class="cls-3" x="370.71" y="120.94" width="230.37" height="252.64"/><rect class="cls-4" x="395.32" y="123.96" width="19.95" height="43.92"/><polygon class="cls-3" points="214.72 456.27 353.48 373.57 353.48 120.94 213.81 189.4 214.72 456.27"/><polygon class="cls-5" points="340.18 383.26 219.56 453.24 219.56 193.63 352.31 129.72 365.87 130.09 340.18 383.26"/><rect class="cls-4" x="366.18" y="130.02" width="217.67" height="252.64"/><polygon class="cls-6" points="366.18 382.66 579.31 395.38 579.31 142.75 366.18 130.02 366.18 382.66"/><polygon class="cls-6" points="358.92 383.26 238.3 453.24 238.3 194.24 365.87 129.96 358.92 383.26"/><polygon class="cls-4" points="366.18 382.66 247.37 453.54 247.37 200.91 366.18 130.02 366.18 382.66"/><polygon class="cls-6" points="366.18 382.66 256.44 451.73 256.44 199.09 366.18 130.02 366.18 382.66"/><rect class="cls-4" x="219.56" y="193.64" width="19.95" height="259.3"/><polygon class="cls-5" points="278.2 244.57 349.85 202.24 349.85 186.02 278.2 228.35 278.2 244.57"/><polygon class="cls-5" points="278.2 278.8 349.85 236.47 349.85 220.25 278.2 262.58 278.2 278.8"/><polygon class="cls-5" points="278.2 313.03 349.85 270.7 349.85 254.48 278.2 296.81 278.2 313.03"/><polygon class="cls-5" points="278.2 347.26 349.85 304.93 349.85 288.71 278.2 331.04 278.2 347.26"/><polygon class="cls-5" points="278.2 381.49 349.85 339.16 349.85 322.94 278.2 365.28 278.2 381.49"/><polygon class="cls-5" points="278.2 415.72 349.85 373.39 349.85 357.17 278.2 399.5 278.2 415.72"/><polygon class="cls-5" points="393.39 198.62 549.38 206.38 549.38 190.17 393.39 182.4 393.39 198.62"/><polygon class="cls-5" points="393.39 232.85 549.38 240.62 549.38 224.4 393.39 216.63 393.39 232.85"/><polygon class="cls-5" points="393.39 267.08 549.38 274.84 549.38 258.63 393.39 250.86 393.39 267.08"/><polygon class="cls-5" points="393.39 301.31 549.38 309.07 549.38 292.86 393.39 285.09 393.39 301.31"/><polygon class="cls-5" points="393.39 335.54 549.38 343.31 549.38 327.09 393.39 319.32 393.39 335.54"/><polygon class="cls-5" points="393.39 369.77 549.38 377.54 549.38 361.32 393.39 353.55 393.39 369.77"/><polygon class="cls-4" points="527.51 193.39 533.96 186.61 527.2 180.15 520.75 186.93 527.51 193.39"/><polygon class="cls-7" points="603.34 317.08 609.79 310.3 603.02 303.83 596.57 310.61 603.34 317.08"/><polygon class="cls-5" points="569.66 348.52 576.11 341.74 569.35 335.28 562.9 342.06 569.66 348.52"/><rect class="cls-4" x="624.57" y="111.56" width="15.49" height="15.51" transform="translate(-11.03 132.45) rotate(-11.86)"/><polygon class="cls-4" points="221.51 271.91 206.52 268.03 202.64 283.05 217.63 286.93 221.51 271.91"/><path class="cls-8" d="M511.49,159.36a.58.58,0,0,0,.56-.43c3.18-12.87,13.9-22.36,22.89-29.19,18.25-13.86,46.14-29.27,75.38-24a.57.57,0,0,0,.66-.47.58.58,0,0,0-.46-.67c-29.65-5.32-57.84,10.25-76.27,24.24-9.14,6.94-20,16.61-23.32,29.83a.58.58,0,0,0,.42.7Z"/><path class="cls-8" d="M668.85,206.76a.57.57,0,0,0,.54-.75,32.37,32.37,0,0,0-6.07-11.73,35.36,35.36,0,0,0-8.26-7.4c-14-8.46-25.76-11.36-35.93-8.85a.57.57,0,1,0,.27,1.11c9.86-2.42,21.33.43,35.07,8.73a34.21,34.21,0,0,1,8,7.15,31.48,31.48,0,0,1,5.85,11.35A.58.58,0,0,0,668.85,206.76Z"/><path class="cls-8" d="M213.75,316.23c22.35,0,39.81-4.77,61.67-16.21a.58.58,0,1,0-.53-1c-26.21,13.73-46,17.78-75.79,15.49-9.82-.76-15.64-3.12-16.15-5a.58.58,0,0,0-.7-.4.57.57,0,0,0-.4.71c.74,2.73,7.64,5.07,17.17,5.8C204.2,316,209.08,316.23,213.75,316.23Z"/><path class="cls-9" d="M402.59,250.06c-.55-5.53,2.18-10.43,5.06-15.62,1-1.79,2-3.61,2.88-5.47V266.6c-.82-1.52-1.75-3-2.67-4.48C405.48,258.3,403,254.36,402.59,250.06Z"/><path class="cls-9" d="M401.87,183.92c-1.36-7.77,1.87-15,5.29-22.66,1.17-2.64,2.37-5.36,3.37-8.08v49.37c-1-2.1-2.14-4.13-3.27-6.11C404.89,192.31,402.66,188.4,401.87,183.92Z"/><path class="cls-9" d="M407.38,290.1a38.94,38.94,0,0,1,2.37-4.75l.78-1.42v32C407.07,307.25,404.25,298.17,407.38,290.1Z"/><path class="cls-9" d="M392.85,151a104.23,104.23,0,0,1-4,9.75l-.75,1.67V124h5.07A46.94,46.94,0,0,1,392.85,151Z"/><path class="cls-9" d="M394.71,276.91c-.36,2.8-1.73,5.27-3.18,7.88a39.1,39.1,0,0,0-2.44,4.89,21.34,21.34,0,0,0-.95,3.24V260.25c.5.83,1,1.66,1.53,2.48C392.59,267.41,395.36,271.84,394.71,276.91Z"/><path class="cls-9" d="M389,197a59.76,59.76,0,0,1,4.27,8.45,29.48,29.48,0,0,1-.16,21,64.81,64.81,0,0,1-3.72,7.4l-1.29,2.35V195.43Z"/><path class="cls-5" d="M410.53,124.33c0-.12-.07-.24-.1-.37h.1Z"/><path class="cls-5" d="M406.89,262.73c-2.45-3.93-5-8-5.44-12.55-.59-5.89,2.36-11.19,5.2-16.31a63.13,63.13,0,0,0,3.71-7.4c.07-.15.11-.32.17-.48v3c-.87,1.86-1.88,3.69-2.87,5.47-2.89,5.19-5.62,10.09-5.07,15.62.43,4.3,2.89,8.24,5.27,12.06.92,1.47,1.85,3,2.67,4.48v2.57A53.94,53.94,0,0,0,406.89,262.73Z"/><path class="cls-5" d="M406.26,197c-2.31-4-4.7-8.21-5.52-12.9-1.42-8.1,2-15.84,5.37-23.32a104.23,104.23,0,0,0,4-9.75c.17-.52.31-1.06.46-1.6v3.74c-1,2.72-2.2,5.44-3.37,8.07-3.42,7.67-6.65,14.9-5.29,22.66.79,4.49,3,8.39,5.39,12.53,1.13,2,2.28,4,3.27,6.1v2.92A60.29,60.29,0,0,0,406.26,197Z"/><path class="cls-5" d="M393.14,226.47a29.43,29.43,0,0,0,.17-21A60.84,60.84,0,0,0,389,197l-.9-1.58v-2.38c.61,1.12,1.24,2.25,1.9,3.39a61,61,0,0,1,4.34,8.62,30.56,30.56,0,0,1-.17,21.84,64.74,64.74,0,0,1-3.78,7.54c-.8,1.43-1.58,2.85-2.29,4.26v-2.48l1.29-2.35A62.36,62.36,0,0,0,393.14,226.47Z"/><path class="cls-5" d="M393.94,151.4a104.85,104.85,0,0,1-4,9.86q-.93,2.06-1.8,4.08v-2.88l.75-1.67a104.23,104.23,0,0,0,4-9.75A46.86,46.86,0,0,0,393.2,124h1.2A48.08,48.08,0,0,1,393.94,151.4Z"/><path class="cls-5" d="M410.53,317.33h-.69c-3.72-9.21-6.92-18.9-3.53-27.65a40.52,40.52,0,0,1,2.44-4.89c.64-1.15,1.25-2.26,1.78-3.39v2.53l-.78,1.42a38.94,38.94,0,0,0-2.37,4.75c-3.13,8.07-.31,17.15,3.15,25.87Z"/><path class="cls-9" d="M406.31,289.68c-3.39,8.75-.18,18.43,3.53,27.65h-4.5c-3.7-9.13-7-18.74-3.7-27.23a40.43,40.43,0,0,1,2.37-4.75c1.44-2.59,2.93-5.27,3.32-8.29.7-5.49-2.3-10.3-5.21-14.94-2.38-3.82-4.85-7.76-5.27-12.06-.55-5.53,2.18-10.43,5.06-15.62a64.74,64.74,0,0,0,3.78-7.54,30.62,30.62,0,0,0,.18-21.84,60.5,60.5,0,0,0-4.35-8.62c-2.37-4.14-4.6-8-5.39-12.52-1.36-7.77,1.87-15,5.29-22.66a104.85,104.85,0,0,0,4-9.86,48.08,48.08,0,0,0,.45-27.44h4.55c0,.13.07.25.11.37v25.11c-.15.54-.29,1.07-.47,1.6a101.49,101.49,0,0,1-3.95,9.75c-3.34,7.48-6.79,15.21-5.37,23.32.82,4.69,3.21,8.86,5.52,12.9a60.29,60.29,0,0,1,4.27,8.45V226c-.06.16-.11.33-.17.48a65.69,65.69,0,0,1-3.71,7.41c-2.85,5.11-5.79,10.41-5.21,16.3.46,4.56,3,8.62,5.45,12.55a56.12,56.12,0,0,1,3.64,6.45V281.4c-.53,1.13-1.14,2.24-1.78,3.39A40.52,40.52,0,0,0,406.31,289.68Z"/><path class="cls-5" d="M401.52,196.44a61.58,61.58,0,0,1,4.35,8.62,30.62,30.62,0,0,1-.18,21.84,64.74,64.74,0,0,1-3.78,7.54c-2.88,5.19-5.61,10.09-5.06,15.62.42,4.3,2.89,8.24,5.27,12.06,2.91,4.65,5.91,9.45,5.21,14.94-.39,3-1.88,5.7-3.32,8.29a38.94,38.94,0,0,0-2.37,4.75c-3.29,8.49,0,18.1,3.7,27.23H404.1c-3.71-9.21-6.92-18.9-3.53-27.65a40.52,40.52,0,0,1,2.44-4.89c1.45-2.61,2.82-5.07,3.18-7.87.65-5.08-2.11-9.51-5-14.19-2.45-3.93-5-8-5.44-12.55-.59-5.89,2.36-11.19,5.2-16.3a63.92,63.92,0,0,0,3.71-7.4,29.43,29.43,0,0,0,.17-21,59.34,59.34,0,0,0-4.27-8.46c-2.31-4-4.7-8.21-5.52-12.89-1.42-8.11,2-15.85,5.37-23.33a104.23,104.23,0,0,0,4-9.75,46.94,46.94,0,0,0,.36-27.08h1.19a48.08,48.08,0,0,1-.46,27.44,104.85,104.85,0,0,1-4,9.86c-3.42,7.66-6.65,14.89-5.29,22.66C396.92,188.4,399.15,192.31,401.52,196.44Z"/><path class="cls-9" d="M400.52,197a59.76,59.76,0,0,1,4.27,8.45,29.48,29.48,0,0,1-.16,21,64.81,64.81,0,0,1-3.72,7.4c-2.84,5.12-5.79,10.42-5.2,16.31.45,4.56,3,8.62,5.44,12.55,2.93,4.68,5.69,9.11,5,14.18-.36,2.81-1.73,5.27-3.18,7.88a40.46,40.46,0,0,0-2.43,4.89c-3.4,8.75-.19,18.43,3.52,27.65h-4.5c-3.7-9.13-7-18.74-3.7-27.23a40.43,40.43,0,0,1,2.37-4.75c1.44-2.59,2.93-5.27,3.32-8.29.7-5.49-2.3-10.3-5.21-14.94-2.38-3.82-4.85-7.76-5.27-12.06-.55-5.53,2.18-10.43,5.06-15.62A64.74,64.74,0,0,0,400,226.9a30.62,30.62,0,0,0,.18-21.84,60.5,60.5,0,0,0-4.35-8.62c-2.37-4.14-4.6-8-5.39-12.52-1.36-7.77,1.87-15,5.29-22.66a104.85,104.85,0,0,0,4-9.86,48,48,0,0,0,.46-27.44h4.55a46.94,46.94,0,0,1-.36,27.08,104.23,104.23,0,0,1-4,9.75C397,168.27,393.58,176,395,184.12,395.82,188.8,398.21,193,400.52,197Z"/><path class="cls-5" d="M395.78,196.44a60.46,60.46,0,0,1,4.34,8.62A30.56,30.56,0,0,1,400,226.9a64.74,64.74,0,0,1-3.78,7.54c-2.88,5.19-5.61,10.09-5.06,15.62.42,4.3,2.89,8.24,5.27,12.06,2.91,4.65,5.91,9.45,5.21,14.94-.39,3-1.88,5.7-3.32,8.29a38.94,38.94,0,0,0-2.37,4.75c-3.29,8.49,0,18.1,3.7,27.23h-1.24c-3.71-9.21-6.92-18.9-3.53-27.65a40.52,40.52,0,0,1,2.44-4.89c1.45-2.61,2.82-5.07,3.18-7.87.65-5.08-2.11-9.51-5-14.19-2.46-3.93-5-8-5.44-12.55-.59-5.89,2.36-11.19,5.2-16.3a63.92,63.92,0,0,0,3.71-7.4,29.43,29.43,0,0,0,.17-21,59.34,59.34,0,0,0-4.27-8.46c-2.31-4-4.7-8.21-5.52-12.89-1.42-8.11,2-15.85,5.37-23.33a104.23,104.23,0,0,0,4-9.75,46.86,46.86,0,0,0,.35-27.08h1.2a48.08,48.08,0,0,1-.46,27.44,104.85,104.85,0,0,1-4,9.86c-3.42,7.66-6.65,14.89-5.29,22.66C391.18,188.4,393.41,192.31,395.78,196.44Z"/><path class="cls-9" d="M394.78,197a59.76,59.76,0,0,1,4.27,8.45,29.48,29.48,0,0,1-.16,21,64.81,64.81,0,0,1-3.72,7.4c-2.84,5.12-5.79,10.42-5.2,16.31.45,4.56,3,8.62,5.44,12.55,2.93,4.68,5.69,9.11,5,14.18-.36,2.81-1.73,5.27-3.18,7.88a40.46,40.46,0,0,0-2.43,4.89c-3.4,8.75-.19,18.43,3.52,27.65h-4.5c-3.7-9.13-7-18.74-3.7-27.23a40.43,40.43,0,0,1,2.37-4.75c1.44-2.59,2.93-5.27,3.32-8.29.7-5.49-2.3-10.3-5.21-14.94-.85-1.37-1.72-2.76-2.5-4.17V238.7c.71-1.42,1.5-2.83,2.3-4.27a65.32,65.32,0,0,0,3.77-7.53,30.59,30.59,0,0,0,.18-21.85,60.92,60.92,0,0,0-4.35-8.61c-.65-1.14-1.29-2.27-1.9-3.39V165.34c.58-1.35,1.19-2.71,1.8-4.08a104.85,104.85,0,0,0,4-9.86A48,48,0,0,0,394.4,124H399a46.94,46.94,0,0,1-.36,27.08,104.23,104.23,0,0,1-4,9.75c-3.34,7.48-6.79,15.22-5.37,23.33C390.08,188.8,392.47,193,394.78,197Z"/><path class="cls-5" d="M392.53,285.35a38.94,38.94,0,0,0-2.37,4.75c-3.27,8.43.13,18.15,3.8,27.23h-1.34A71.83,71.83,0,0,1,388.14,303V292.92a21.34,21.34,0,0,1,.95-3.24,40.52,40.52,0,0,1,2.44-4.89c1.45-2.61,2.82-5.07,3.18-7.87.65-5.08-2.11-9.51-5-14.19-.51-.82-1-1.65-1.53-2.48V258c.78,1.42,1.64,2.8,2.5,4.17,2.91,4.65,5.91,9.46,5.21,14.94C395.46,280.08,394,282.76,392.53,285.35Z"/><path class="cls-9" d="M388.14,317.33V303a71.63,71.63,0,0,0,4.48,14.33Z"/><polygon class="cls-7" points="386.73 246.51 393.18 239.74 386.42 233.27 379.97 240.05 386.73 246.51"/><rect class="cls-7" x="426.3" y="306.54" width="9.35" height="9.37" transform="translate(-60.09 107.61) rotate(-13.31)"/><rect class="cls-4" x="391.87" y="245.32" width="7.48" height="7.5" transform="translate(-42.73 86.59) rotate(-11.86)"/><path id="R_shoe_1_-i1EADBJQO1s4JJTPsmTHsjh" data-name="R shoe 1 -i1EADBJQO1s4JJTPsmTHsjh" class="cls-8" d="M543.63,469.47l7.5,20.85H498.3s2.69-5.2,11.77-9.08,17.44-11.77,17.44-11.77h16.12"/><path id="L_shoe_1_-i1EADBJQO1s4JJTPsmTHsjh" data-name="L shoe 1 -i1EADBJQO1s4JJTPsmTHsjh" class="cls-8" d="M616.86,469.47l7.5,20.85H571.53s2.69-5.2,11.77-9.08,17.44-11.77,17.44-11.77h16.12"/><path id="L_hand_1_-i1EADBJQO1s4JJTPsmTHsjh" data-name="L hand 1 -i1EADBJQO1s4JJTPsmTHsjh" class="cls-10" d="M510,266a68,68,0,0,1-15.79-14c-6.65-8.42-11.71-14.73-12.44-14.4s-2,1.9.33,4.93,4.08,5.13,2.7,7-6.38,7.11.92,10.92,9.47,1.91,12.11,7a70.82,70.82,0,0,1,4.21,10.26l8-11.58"/><path id="R_leg_1_-i1EADBJQO1s4JJTPsmTHsjh" data-name="R leg 1 -i1EADBJQO1s4JJTPsmTHsjh" class="cls-7" d="M570.08,349.83c-4.81,14-9.94,30.12-8,44.39s-2.17,22.17-4,26.12-2.17,12.89,1.18,25.52a37.19,37.19,0,0,1-2,23.61H527.44s.79-47.42,1.52-71.83,2-30.25,4.14-37.42,8.62-47.75,8.62-47.75l4.61-.46c11.51,3.74,22.5,2.69,30.72.72C578,321.15,574.16,337.85,570.08,349.83Z"/><path id="L_leg_1_-i1EADBJQO1s4JJTPsmTHsjh" data-name="L leg 1 -i1EADBJQO1s4JJTPsmTHsjh" class="cls-7" d="M624.82,469.47H600.74S573.89,402,566.26,385.94s-11.84-35.32-16-50.39a198.08,198.08,0,0,1-5.27-24.07c14.15,5,27.64,2.76,36.45,0,1.19,3.16,5.73,16,5.73,29.6,0,15.65,4.6,28.54,8.75,35.45A74,74,0,0,1,606,404.15c1.84,12,6,13.82,11.52,22.57S629.75,458,624.82,469.47Z"/><path id="sweater_1_-i1EADBJQO1s4JJTPsmTHsjh" data-name="sweater 1 -i1EADBJQO1s4JJTPsmTHsjh" class="cls-8" d="M591.53,307.33s-26.85,15.26-53.49,1.12c0,0,10.26-56.23,10.79-64.06,0,0,7.63,1.64,10.46-5.33C559.29,239.13,589.82,277.54,591.53,307.33Z"/><path id="L_sleeve_1_-i1EADBJQO1s4JJTPsmTHsjh" data-name="L sleeve 1 -i1EADBJQO1s4JJTPsmTHsjh" class="cls-8" d="M564.62,246.89a151.47,151.47,0,0,1,12.43,19.53c.46,27.1-12.1,39-24.54,46.11-12.83,7.24-27.11,2.37-31.91-1.51-2-1.65-6.91-5.2-16.19-5.2s-16.18-8-16.18-8L510,266c19.74,13.22,27,11.64,35.59,7.43,10.2-5,13.69-34.2,13.69-34.2A72.63,72.63,0,0,0,564.62,246.89Z"/><path id="neck_1_-i1EADBJQO1s4JJTPsmTHsjh" data-name="neck 1 -i1EADBJQO1s4JJTPsmTHsjh" class="cls-11" d="M559.29,239.13c-2.83,7-10.46,5.32-10.46,5.32.19-4.93.26-11.33.13-12.91a17.85,17.85,0,0,0,7.7-.13A19.22,19.22,0,0,0,559.29,239.13Z"/><path id="face_1_-i1EADBJQO1s4JJTPsmTHsjh" data-name="face 1 -i1EADBJQO1s4JJTPsmTHsjh" class="cls-12" d="M558.43,224.06c-.72,3-2,4.94-1.77,7.9-3.16.85-9.48.92-11.91-2.24-2.31-3-1.65-6.05-2.37-6.31s-2.11-1.12-2-1.91,2.77-2.5,3.75-5.26a2.57,2.57,0,0,1,.33-.73h0a.2.2,0,0,1,.07-.13,11.43,11.43,0,0,1,3.29-4.27h0c.79.46,8.68,5.19,10.33,10.19a2.11,2.11,0,0,1,.2.92A3,3,0,0,1,558.43,224.06Z"/><path id="hair_1_-i1EADBJQO1s4JJTPsmTHsjh" data-name="hair 1 -i1EADBJQO1s4JJTPsmTHsjh" class="cls-4" d="M603,275.3c-2.18-3.62-5.33-5.65-8.29-8.48-5.53-5.2-1.45-12.24-2.24-18.42a7.7,7.7,0,0,0-1.91-5.53c-3.42-3.88-13.29-6.11-15.26-10.32a14.65,14.65,0,0,1-1.25-6.64,16.19,16.19,0,0,0-.14-2.57,11.63,11.63,0,0,0-.33-2.17c-.92-4.34-3.15-11.38-11.84-13.09a17.6,17.6,0,0,0-14,3.12s8.68,4.94,10.39,10.2a6.37,6.37,0,0,1,.25,2.6c-1.45,6.11-5.33,7.82,6.18,22.82s21.05,36.57,21.65,39.07h16.64s1.06-9-6.12-15.19-7.43-7.3-6.11-13c.32-1.44.72-2.89,1-4.27-.59,4.14-1.64,8.42,1,12.1,1.84,2.5,4.8,4,6.91,6.25a22.82,22.82,0,0,1,6,14,.3.3,0,0,0,.59,0A23.59,23.59,0,0,0,603,275.3Z"/><path id="texture_1_-i1EADBJQO1s4JJTPsmTHsjh" data-name="texture 1 -i1EADBJQO1s4JJTPsmTHsjh" class="cls-13" d="M570.87,315.89a.26.26,0,0,0-.2.06h0a.24.24,0,0,0,.07.2h0a.22.22,0,0,0,.19-.07h0C571,316,570.93,315.89,570.87,315.89Zm-3-1.25a.27.27,0,0,0-.2.06.24.24,0,0,0,.07.2.25.25,0,0,0,.2-.07C567.91,314.7,567.91,314.64,567.84,314.64Zm-6.64,11.05c0-.07-.14-.14-.2-.07s-.13.13-.07.2a.13.13,0,0,0,.2.06h0c.07-.06.13-.13.07-.19Zm-1.25-3a.08.08,0,0,0-.14-.07h0c-.06,0-.13.14-.06.2s.13.13.2.07.06-.13,0-.2Zm-1.25-3c0-.06-.14-.13-.2-.06s-.13.13-.07.2a.13.13,0,0,0,.2.06h0c.07,0,.07-.06.07-.2Zm-1.25-3c0-.07-.14-.13-.2-.07h0c-.07.07-.13.13-.07.2s.13.13.2.07h0c.07,0,.07-.14.07-.2Zm8.42,3.81a.13.13,0,0,0-.2,0,.14.14,0,0,0,.2.2h0c.06-.06.06-.2,0-.2Zm-2.31-2.36a.11.11,0,0,0-.19,0l-.07.06c0,.07,0,.07.07.13h.13c.06,0,.06-.13.06-.19Zm-2.36-2.31a.13.13,0,0,0-.2,0,.12.12,0,0,0,0,.2h0a.12.12,0,0,0,.2,0c.06,0,.06-.13,0-.2Zm-7,9.54a.15.15,0,0,0-.13.13.14.14,0,0,0,.13.13.13.13,0,0,0,.13-.13c0-.06,0-.13-.13-.13Zm0-3.29a.14.14,0,0,0,0,.27h0a.14.14,0,0,0,.13-.14h0a.14.14,0,0,0-.13-.13Zm20.07.27a.28.28,0,0,0-.33,0h0a.39.39,0,0,0,0,.39.41.41,0,0,0,.4,0h0a.42.42,0,0,0-.07-.39Zm-4.67-4.08a.41.41,0,0,0-.4,0,.44.44,0,0,0,0,.39.41.41,0,0,0,.4,0h0a.45.45,0,0,0,0-.39ZM560.08,342a.26.26,0,1,0,0,.52h0a.28.28,0,0,0,.26-.26.24.24,0,0,0-.26-.26Zm-.46-6.19a.29.29,0,0,0-.27.27h0a.27.27,0,0,0,.53,0h0c0-.2-.07-.27-.26-.27Zm-.4-6.18a.27.27,0,0,0,0,.53h0a.28.28,0,0,0,.26-.26h0a.24.24,0,0,0-.26-.27Zm-.46-6.18a.28.28,0,0,0-.26.26h0a.26.26,0,1,0,.52,0,.24.24,0,0,0-.26-.26Zm-.39-6.18a.26.26,0,1,0,0,.52.28.28,0,0,0,.26-.26h0c0-.2-.13-.33-.26-.26Zm23.29-1.58a.24.24,0,0,0-.33.13.24.24,0,0,0,.13.33.25.25,0,0,0,.33-.13c.06-.14,0-.33-.13-.33Zm-5.86-2a.24.24,0,0,0-.33.13h0a.25.25,0,0,0,.13.33.24.24,0,0,0,.33-.14h0a.23.23,0,0,0-.13-.32Zm-3.55,22.09a.25.25,0,0,0-.33-.13.24.24,0,0,0-.13.33.24.24,0,0,0,.33.13h0c.19-.06.19-.19.13-.33Zm-2.76-5.52a.24.24,0,0,0-.33-.13.24.24,0,0,0-.13.33.23.23,0,0,0,.32.13h0a.24.24,0,0,0,.14-.33Zm-2.77-5.59a.24.24,0,0,0-.33-.13.24.24,0,0,0-.13.33.25.25,0,0,0,.33.13c.13,0,.2-.2.13-.33ZM564,319.17a.25.25,0,0,0-.33-.13.24.24,0,0,0-.13.33h0a.24.24,0,0,0,.33.13h0a.24.24,0,0,0,.13-.33Zm-13.55,12.5a.24.24,0,0,0-.33.13h0a.24.24,0,0,0,.13.33c.13.07.26-.06.33-.2s0-.19-.13-.26Zm2-5.85a.24.24,0,0,0-.33.13.25.25,0,0,0,.13.33h0a.25.25,0,0,0,.33-.13h0c.07-.2,0-.33-.13-.33Zm2-5.92c-.13-.07-.26.06-.33.2a.23.23,0,0,0,.14.32h0a.23.23,0,0,0,.32-.13.29.29,0,0,0-.13-.39Zm20.33,8.42c-.06-.14-.19-.14-.33-.07s-.13.2-.06.33.2.13.33.07h0c.06-.14.13-.27.06-.33Zm-3-4.74a.06.06,0,0,0-.06-.06h-.2c-.13.06-.13.19-.07.32h0c.07.14.2.14.33.07s.07-.07.07-.13a.24.24,0,0,0-.07-.2Zm-3-4.67c-.06-.13-.19-.13-.33-.06s-.13.19-.06.32.2.14.33.07h0c.13-.07.19-.26.06-.33Zm-14.28,17.83c-.13,0-.26.06-.26.19h0c0,.14.07.27.13.27h0c.13,0,.27-.07.27-.2a.2.2,0,0,0-.14-.26Zm1.25-5.4c-.13,0-.26.07-.26.2h0c0,.13.07.26.13.26h0c.13,0,.27-.06.27-.19a.2.2,0,0,0-.14-.27ZM557,326c-.13,0-.26.06-.26.2h0c-.06.13,0,.26.13.26h0c.13,0,.27-.07.27-.2h0c0-.13-.07-.26-.14-.26Zm1.19-5.39c-.13,0-.26.06-.26.19s.06.27.19.27.27-.07.27-.2-.07-.26-.2-.26Zm1.25-5.4c-.13,0-.26.07-.26.2s.06.26.19.26.27-.06.27-.2h0c0-.13-.07-.26-.2-.26Zm20.4,4.54c-.14-.07-.27-.07-.33.07h0a.22.22,0,0,0,.06.32h0a.23.23,0,0,0,.33-.06h0c.07-.07,0-.2-.06-.33Zm-4.54-3.16c-.14-.06-.27-.06-.33.07s-.07.26.06.33.27.06.33-.07.07-.26-.06-.33Zm-9,17.76c-.13,0-.2.13-.2.27s.14.19.27.19.2-.13.2-.26-.14-.26-.27-.2Zm-.92-5.46c-.13,0-.2.14-.2.27s.13.19.27.19.19-.13.19-.26h0c0-.13-.13-.26-.26-.2Zm-.92-5.46c-.13,0-.2.14-.2.27h0c0,.13.13.19.27.19s.19-.13.19-.26-.13-.26-.26-.2Zm-.92-5.46c-.13,0-.2.14-.2.27s0,.06.07.13h0a.24.24,0,0,0,.19.06c.14,0,.2-.13.2-.26s-.13-.26-.26-.2ZM549,325.23c-.13-.07-.27-.07-.33.06s-.07.26.06.33.27.07.33-.07a.28.28,0,0,0-.06-.32Zm28.22-5.86a.12.12,0,0,0-.19,0,.12.12,0,0,0,0,.2.12.12,0,0,0,.19,0h0a.12.12,0,0,0,0-.2ZM575,317a.13.13,0,0,0-.2,0,.14.14,0,1,0,.2.2h0a.13.13,0,0,0,0-.2Zm-2.24-2.36a.12.12,0,0,0-.2,0,.12.12,0,0,0,0,.19h0a.12.12,0,0,0,.2,0,.11.11,0,0,0,0-.19Zm-8.49,9.53a.14.14,0,0,0,0,.27.14.14,0,0,0,.13-.14.14.14,0,0,0-.13-.13Zm.07-3.29a.14.14,0,0,0-.13.14h0a.14.14,0,0,0,.13.13h0a.14.14,0,0,0,0-.27Zm.13-3.22a.14.14,0,0,0-.13.13h0a.13.13,0,1,0,.26,0A.14.14,0,0,0,564.42,317.66Zm15.33-4.93a.26.26,0,0,0-.2.06h0a.23.23,0,0,0,.07.2.27.27,0,0,0,.2-.06.23.23,0,0,0-.07-.2Zm-9,8.68a.08.08,0,0,0-.14-.06h0c-.06,0-.13.06-.06.19h0c0,.07.13.13.2.07s.06-.13,0-.2Zm-1.12-3a.13.13,0,0,0-.2-.06h0c-.07,0-.13.13-.07.2s.14.13.2.06a.23.23,0,0,0,.07-.2Zm-1.19-3.09c0-.06-.13-.13-.19-.06a.13.13,0,0,0-.07.2c0,.06.07.13.13.06h0c.13-.07.2-.13.13-.2ZM558.17,321a.26.26,0,0,0-.2.06h0a.24.24,0,0,0,.07.2c.06.06.13,0,.19-.07A.12.12,0,0,0,558.17,321Zm1.38-3a.27.27,0,0,0-.2.06h0a.24.24,0,0,0,.07.2h0a.25.25,0,0,0,.2-.07c0-.06,0-.19-.07-.19Zm1.32-3a.26.26,0,0,0-.2.06.24.24,0,0,0,.07.2.22.22,0,0,0,.19-.07c.07-.13,0-.19-.06-.19Zm18.68,7.49a.24.24,0,0,0-.19-.06h0a.23.23,0,0,0-.07.2h0a.26.26,0,0,0,.2.06h0a.13.13,0,0,0,.06-.2Zm-2-3.15a.22.22,0,0,0-.19-.07h0a.24.24,0,0,0-.07.2.26.26,0,0,0,.2.06c.13,0,.13-.06.06-.19Zm-2-3.09a.24.24,0,0,0-.2-.07c-.06,0-.06.13-.06.2h0a.12.12,0,0,0,.19,0c.07,0,.13-.07.07-.13ZM564,325.29c-.06,0-.13.07-.19.13s0,.13.13.2a.25.25,0,0,0,.2-.07h0c0-.13-.07-.26-.14-.26Zm.79-3.62c-.06,0-.13.07-.19.14s0,.13.13.19.2,0,.2-.13h0c0-.13-.07-.2-.14-.2Zm.79-3.68c-.06,0-.13.07-.19.13s0,.13.13.2.13,0,.2-.13h0c0-.07-.07-.13-.14-.2Zm.79-3.62c-.06,0-.19.07-.19.13a.18.18,0,0,0,.13.2c.06,0,.13,0,.19-.13h0c0-.13-.06-.2-.13-.2Zm14.28-.79c-.06-.06-.2-.06-.2.07s0,.2.07.2h0c.06.06.13,0,.2-.07a.32.32,0,0,0-.07-.2Zm-8.88,10.07c0-.07-.07-.13-.2-.13h0c-.06,0-.13.06-.13.19s.07.13.2.13h.06c.07-.06.13-.13.07-.19Zm-.79-3.82c-.07,0-.13.13-.13.2s.13.13.19.13.14-.06.14-.2h0c-.07-.06-.14-.13-.2-.13Zm-.66-3.68c-.06,0-.13.06-.13.2s.06.13.2.13.13-.07.13-.2h0c-.07-.07-.13-.13-.2-.13Zm-12.57,4.41c-.06-.07-.13,0-.19.06h0c-.07.07,0,.13.06.2a.13.13,0,0,0,.2,0h0c0-.07,0-.2-.07-.26Zm2.18-3a.13.13,0,0,0-.2.07c-.07.06,0,.13.06.19h0a.12.12,0,0,0,.2,0h0c0-.13,0-.19-.06-.26ZM577.32,339a.23.23,0,0,0-.2.33.23.23,0,0,0,.33.2.23.23,0,0,0,.19-.33C577.64,339,577.51,339,577.32,339Zm-1-6.31a.23.23,0,0,0-.2.33.23.23,0,0,0,.33.19.23.23,0,0,0,.2-.32.36.36,0,0,0-.33-.2Zm-1-6.32a.21.21,0,0,0-.2.27c.07.13.14.26.27.19h0a.22.22,0,0,0,.19-.32.2.2,0,0,0-.26-.14Zm-1-6.31a.23.23,0,0,0-.19.33h0a.23.23,0,0,0,.33.2.23.23,0,0,0,.19-.33c-.06-.13-.19-.27-.33-.2Zm-1-6.31a.23.23,0,0,0-.2.32c0,.14.13.27.26.2a.23.23,0,0,0,.2-.33c0-.13-.13-.26-.26-.19Zm-22,19a.33.33,0,0,0-.4.07.31.31,0,0,0,.07.39.3.3,0,0,0,.39-.06C551.52,332.92,551.46,332.79,551.33,332.72Zm3.81-5.19a.3.3,0,0,0-.39.06.31.31,0,0,0,.06.4c.13.13.27.06.4-.07a.4.4,0,0,0-.07-.39Zm3.75-5.2a.31.31,0,0,0-.39.07h0a.3.3,0,0,0,.06.39.31.31,0,0,0,.4-.06.33.33,0,0,0-.07-.4Zm3.75-5.13a.31.31,0,0,0-.39.07h0a.3.3,0,0,0,.06.39.31.31,0,0,0,.4-.06c.06-.14.06-.33-.07-.4Zm19.87,3.62a.25.25,0,0,0-.39-.07.26.26,0,0,0-.07.4.25.25,0,0,0,.4.06.3.3,0,0,0,.06-.39Zm-3.35-5.46a.26.26,0,0,0-.4-.07h0c-.13.07-.13.27-.06.4s.26.13.39.06A.31.31,0,0,0,579.16,315.36Zm-14.28,20.26c-.13-.07-.26.06-.33.2h0c-.06.13.07.26.2.32a.37.37,0,0,0,.33-.19c0-.2-.07-.33-.2-.33Zm1.51-6.25c-.13-.07-.26.06-.33.2h0c-.06.13.07.26.2.33h0c.13.06.26-.07.33-.2h0a.36.36,0,0,0-.2-.33Zm1.45-6.18a.37.37,0,0,0-.33.19.35.35,0,0,0,.2.33c.13.07.26-.06.33-.2h0c.06-.19,0-.32-.2-.32Zm1.51-6.25a.33.33,0,0,0-.32.2.34.34,0,0,0,.19.32.36.36,0,0,0,.33-.19c.07-.13-.06-.27-.2-.33Zm-.59,20.72a.37.37,0,0,0-.33.19c-.06.14.07.27.2.33A.37.37,0,0,0,569,338c0-.14-.07-.33-.2-.33Zm1.19-6.25a.27.27,0,0,0-.14.52.35.35,0,0,0,.33-.19.22.22,0,0,0-.19-.33Zm1.25-6.25a.35.35,0,0,0-.33.2c-.07.13.06.26.19.33h0a.35.35,0,0,0,.33-.2c.07-.13-.06-.26-.19-.33Zm1.25-6.25a.35.35,0,0,0-.33.2h0a.37.37,0,0,0,.19.33.35.35,0,0,0,.33-.2h0a.37.37,0,0,0-.19-.33Zm-15.27-3.09a.24.24,0,0,0-.33-.07h0a.23.23,0,0,0-.06.33c.06.13.26.13.39.07s.07-.2,0-.33Zm22.17,5.92a.25.25,0,0,0-.19.33.25.25,0,0,0,.33.2.25.25,0,0,0,.19-.33h0a.23.23,0,0,0-.33-.2Zm-1.24-6.25a.25.25,0,0,0-.2.33c.06.13.2.26.33.2s.19-.14.19-.33a.23.23,0,0,0-.32-.2Zm-20,14.21c-.13-.07-.26-.07-.33.06h0a.33.33,0,0,0,.07.4.33.33,0,0,0,.4-.07c.06-.13,0-.26-.14-.39Zm3.56-5.26c-.14-.07-.27-.07-.33.06h0a.31.31,0,0,0,.06.4.33.33,0,0,0,.4-.07c0-.13,0-.33-.13-.39Zm3.55-5.33a.31.31,0,0,0-.4.06.33.33,0,0,0,.07.4.31.31,0,0,0,.39-.07c.07-.13.07-.33-.06-.39Zm3.49,7.63c-.07-.07-.2,0-.27.06h0c-.06.14,0,.2.13.27s.2,0,.27-.14S568.83,326.74,568.7,326.74Zm1.9-4.41c-.13-.06-.19,0-.26.07h0c-.06.13,0,.19.13.26s.2,0,.27-.13-.07-.2-.14-.2Zm1.91-4.47c-.13-.07-.2,0-.26.13s0,.2.13.26.2,0,.26-.13h0a.46.46,0,0,0-.13-.26Zm1.84-4.41c-.13-.06-.19,0-.26.13s0,.2.13.27h0c.07.06.2,0,.27-.07h0a.24.24,0,0,0-.14-.33Zm4.48,8c-.13,0-.2.06-.2.19h0a.18.18,0,0,0,.2.2h0a.18.18,0,0,0,.2-.2c0-.13-.07-.19-.2-.19Zm.06-4.81c-.13,0-.19.07-.19.2s.06.2.19.2h0a.18.18,0,0,0,.2-.2h0a.18.18,0,0,0-.2-.2ZM562,319.24a.19.19,0,0,0-.26,0h0a.21.21,0,0,0,0,.26h0a.18.18,0,0,0,.26-.26Zm3.43-3.35a.2.2,0,0,0-.27,0,.21.21,0,0,0,0,.26.23.23,0,0,0,.27,0,.21.21,0,0,0,0-.26Zm14.73-.14c-.06,0-.13,0-.13.07s0,.13.07.13h0a.26.26,0,0,0,.13-.06c0-.07-.07-.07-.07-.14Zm.4-2.56c-.07,0-.13,0-.13.06h0c0,.07,0,.14.06.14h0c.07,0,.13,0,.13-.07h0c.07-.07,0-.13-.06-.13Zm-3.49,6.71c-.06-.07-.2,0-.26.06h0c-.07.07-.07.2.06.2h0a.17.17,0,0,0,.27-.06h0c.06-.07.06-.14-.07-.2Zm2.3-3.69c-.06-.06-.19,0-.26.07s0,.2.07.26h0c.06.07.19,0,.26-.06h0c.07-.13.07-.2-.07-.27Zm2.37-3.68c-.06-.06-.19,0-.26.07s0,.19.07.26h0c.06.06.19,0,.26-.07a.38.38,0,0,0-.07-.26Z"/><path id="lips_1_-i1EADBJQO1s4JJTPsmTHsjh" data-name="lips 1 -i1EADBJQO1s4JJTPsmTHsjh" class="cls-14" d="M546.33,225.51a2.53,2.53,0,0,1-3.43.72,2.58,2.58,0,0,1-.92-1.11c-.13-.33.4-.66.53-.27A1.85,1.85,0,0,0,545,226a2,2,0,0,0,.92-.72c.13-.33.65,0,.46.26Z"/></g></svg>