<svg id="Layer_1" data-name="Layer 1" xmlns="http://www.w3.org/2000/svg" xmlns:xlink="http://www.w3.org/1999/xlink" viewBox="0 0 832.68 555.84"><defs><style>.cls-1{fill:none;}.cls-2{clip-path:url(#clip-path);}.cls-3{fill:url(#linear-gradient);}.cls-4{fill:#2bcc9e;}.cls-5{fill:#5658f8;}.cls-6{fill:#f4aa16;}.cls-7{fill:#231f20;}.cls-8{fill:url(#linear-gradient-2);}.cls-9{fill:url(#linear-gradient-3);}.cls-10{fill:url(#linear-gradient-4);}.cls-11{fill:#d0a8ef;}.cls-12{fill:url(#linear-gradient-5);}.cls-13{fill:#ffbeb6;}.cls-14{fill:url(#linear-gradient-6);}.cls-15{fill:#fff;}</style><clipPath id="clip-path"><rect class="cls-1" width="832.68" height="555.84"/></clipPath><linearGradient id="linear-gradient" x1="546.35" y1="431.42" x2="797.46" y2="973.22" gradientTransform="translate(-29.36 -180.18) scale(0.77 0.77)" gradientUnits="userSpaceOnUse"><stop offset="0" stop-color="#eee"/><stop offset="1" stop-color="#dce3ea"/></linearGradient><linearGradient id="linear-gradient-2" x1="570.28" y1="595.45" x2="592.97" y2="595.45" gradientTransform="translate(-29.36 -180.18) scale(0.77 0.77)" gradientUnits="userSpaceOnUse"><stop offset="0" stop-color="#ffbeb6"/><stop offset="1" stop-color="#f2a19c"/></linearGradient><linearGradient id="linear-gradient-3" x1="614.12" y1="568.82" x2="637.06" y2="568.82" xlink:href="#linear-gradient-2"/><linearGradient id="linear-gradient-4" x1="596.59" y1="642.06" x2="647.01" y2="589.22" xlink:href="#linear-gradient-2"/><linearGradient id="linear-gradient-5" x1="663.54" y1="499.06" x2="670.08" y2="467.53" xlink:href="#linear-gradient-2"/><linearGradient id="linear-gradient-6" x1="-722.67" y1="194.77" x2="-700.91" y2="194.77" gradientTransform="matrix(-0.72, -0.26, -0.26, 0.73, 10.19, -168.64)" gradientUnits="userSpaceOnUse"><stop offset="0" stop-color="#28306d"/><stop offset="0.51" stop-color="#1f275f"/><stop offset="1" stop-color="#171f51"/></linearGradient></defs><g class="cls-2"><g id="geometryrjZv4mkbAGlB14X18Zo9-"><rect id="monitorrjZv4mkbAGlB14X18Zo9-" class="cls-3" x="222.61" y="93.91" width="395.76" height="241.57"/><rect id="_1rjZv4mkbAGlB14X18Zo9-" data-name=" 1rjZv4mkbAGlB14X18Zo9-" class="cls-4" x="266.34" y="136.36" width="39.35" height="39.4"/><rect id="_2rjZv4mkbAGlB14X18Zo9-" data-name=" 2rjZv4mkbAGlB14X18Zo9-" class="cls-4" x="266.34" y="195.19" width="39.35" height="39.4"/><path id="rounded_rectrjZv4mkbAGlB14X18Zo9-" data-name="rounded rectrjZv4mkbAGlB14X18Zo9-" class="cls-4" d="M243.15,440.28h76.67a18.41,18.41,0,0,1,18.4,18.43h0a18.4,18.4,0,0,1-18.4,18.42H243.15a18.41,18.41,0,0,1-18.4-18.42h0A18.42,18.42,0,0,1,243.15,440.28Z"/><ellipse id="circlerjZv4mkbAGlB14X18Zo9-" class="cls-5" cx="623.01" cy="444.91" rx="32.18" ry="32.23"/><path id="half_a_circlerjZv4mkbAGlB14X18Zo9-" data-name="half a circlerjZv4mkbAGlB14X18Zo9-" class="cls-6" d="M188.62,414.42a49,49,0,0,0,90.31-37.48Z"/></g><g id="womanrjZv4mkbAGlB14X18Zo9-"><path id="R_shoerjZv4mkbAGlB14X18Zo9-" data-name="R shoerjZv4mkbAGlB14X18Zo9-" class="cls-5" d="M554.2,450.35l9.59,26.78H496.1s3.47-6.71,15-11.67,21-15.12,21-15.12H554.2"/><path id="L_shoerjZv4mkbAGlB14X18Zo9-" data-name="L shoerjZv4mkbAGlB14X18Zo9-" class="cls-5" d="M503,450.35l9.59,26.78H444.85s3.47-6.71,15-11.67,22.37-15.12,22.37-15.12H503"/><path id="R_trousersrjZv4mkbAGlB14X18Zo9-" data-name="R trousersrjZv4mkbAGlB14X18Zo9-" class="cls-7" d="M521.1,261.46s2.71,6.27-2.38,32.82h0a190.16,190.16,0,0,0,8.16,41c6.8,20.75,41.4,81.07,27.32,115H532.11s-29.7-76.25-34.46-97-15.74-82.07-21.53-93h0l45,1.09"/><path id="L_trousersrjZv4mkbAGlB14X18Zo9-" data-name="L trousersrjZv4mkbAGlB14X18Zo9-" class="cls-7" d="M519.4,258.4s7.82,14-4.08,46.28-12.23,42.2-11.55,51,7.14,19.06,5.1,37.78,3.78,21.2,2.42,36.17S503,450.35,503,450.35H482.26s-14.18-77.27-15.2-101.09,17.35-65.91,16.66-89.16h0Z"/><g id="pencilrjZv4mkbAGlB14X18Zo9-"><polygon class="cls-5" points="511.46 365.82 501.06 369.69 363.11 226.39 373.51 222.53 511.46 365.82"/><polygon class="cls-5" points="522.53 355.42 526.78 345.16 388.98 201.73 384.73 211.99 522.53 355.42"/><polygon class="cls-4" points="373.51 222.53 511.46 365.82 522.53 355.42 384.73 211.99 373.51 222.53"/></g><path id="R_handrjZv4mkbAGlB14X18Zo9-" data-name="R handrjZv4mkbAGlB14X18Zo9-" class="cls-8" d="M410.33,275.52s3-3.58,3.83-4.95,2.22,1.24,1.48,3.1-1.36,3.83-2.1,4.33c0,0,7.17-6.19,9.64-7.8s5.43,4.09,4.44,9.28-2.65,9-4.14,9.6C423.48,289.08,415.52,287.15,410.33,275.52Z"/><path id="R_hand-2rjZv4mkbAGlB14X18Zo9-" data-name="R hand-2rjZv4mkbAGlB14X18Zo9-" class="cls-9" d="M461.82,267.22c-5.41,0-10.16-.25-10.16-.25l-7.53-7.84c5-.87,13.82-7,15.87-8.47Z"/><path id="L_handrjZv4mkbAGlB14X18Zo9-" data-name="L handrjZv4mkbAGlB14X18Zo9-" class="cls-5" d="M501.54,260.2c-5.72,1.2-9.15,2.94-17.9,10.05l-.77.64c-9.31,7.65-20.2,4.08-20.2,4.08l-4.58-41.61s2.38.21,13.16-1.89a37.59,37.59,0,0,0,7.74-2.12c4.61-2,6.38-5.58,7.87-14.39,1.11-6.57.81-15,.27-21.64a12.84,12.84,0,0,0,8.44-3.57,70.43,70.43,0,0,1,15.81,11.79c4.85,10.54,6.87,20.46,7.44,31.8C519.83,252.84,507.43,259,501.54,260.2Z"/><path id="L_hand-2rjZv4mkbAGlB14X18Zo9-" data-name="L hand-2rjZv4mkbAGlB14X18Zo9-" class="cls-10" d="M483.84,291.17c-4.84,2.92-13.78,8.17-19.69,10.56-8.43,3.42-13.65,4.42-27.31,4.22s-12.24-15.69-12.24-15.69a16,16,0,0,0,10.64,4.64c2,.2,5.22-1,.4-5s-2-7.64-1.61-6.64,4,3.42,11.45,8.65.6,5.42,10,.8c7.42-3.64,16.6-16.49,20.16-21.79Z"/><path id="sweaterrjZv4mkbAGlB14X18Zo9-" class="cls-11" d="M539.57,269.63q-6.3,1.32-11.9,2.13c-21,3.09-35,1.36-44-1.51a39.28,39.28,0,0,1-10.1-4.67,18.21,18.21,0,0,1-4.72-4.16c4.9-9.47,8.09-21.1,10.17-32.07a236,236,0,0,0,3.91-36.92l1.2.58a11.87,11.87,0,0,0,3,.31,12.84,12.84,0,0,0,8.44-3.57,70.43,70.43,0,0,1,15.81,11.79,77,77,0,0,1,7.74,8.7c10.75,14.12,8.81,19.87,14.71,28.23a.1.1,0,0,0,0,.05C539.76,246.87,547.77,257.07,539.57,269.63Z"/><path id="L_sleeverjZv4mkbAGlB14X18Zo9-" data-name="L sleeverjZv4mkbAGlB14X18Zo9-" class="cls-5" d="M527.67,271.76a21.29,21.29,0,0,1-3.36,2.19c-5.83,3-8.94,6-16.48,16.75S487.78,301,487.78,301l-14.24-35.38-2.83-7s2.56-.48,13.28-5.88,13-8.09,11.55-22-12.64-38.28-12.64-38.28l1.2.58a11.87,11.87,0,0,0,3,.31,12.84,12.84,0,0,0,8.44-3.57,70.43,70.43,0,0,1,15.81,11.79,77,77,0,0,1,7.74,8.7c10.75,14.12,8.81,19.87,14.71,28.23a.1.1,0,0,0,0,.05c.23.69.47,1.38.71,2.08C540.2,257.34,533.46,267.15,527.67,271.76Z"/><path id="neckrjZv4mkbAGlB14X18Zo9-" class="cls-12" d="M491.6,181.25a35.32,35.32,0,0,1-1.22,4.65,44,44,0,0,1-3.32,7.42,11.82,11.82,0,0,1-3-.31l-1.18-.57h0a88.42,88.42,0,0,0-.17-11.16c.47.06.94.1,1.41.13A35.78,35.78,0,0,0,491.6,181.25Z"/><path id="facerjZv4mkbAGlB14X18Zo9-" class="cls-13" d="M491.6,181.25c-4.64.62-14.18.5-17.17-3.8-3.58-5.15-2.32-10-3.32-10.49s-2.9-1.88-2.53-3,4.27-3.23,6.09-7c.17-.35.34-.69.52-1h0a.9.9,0,0,1,.12-.24.41.41,0,0,1,.07-.11l0,0,.1-.15c.24-.38.6-.94,1.08-1.56.23-.3.48-.61.77-.94a13.76,13.76,0,0,1,1.07-1.11l.08-.08.29-.28.55-.47a5,5,0,0,1,.46-.34l.22-.17.43-.29.1-.06s0,0,0,0a5.82,5.82,0,0,0-.24,1c0,.11,0,.24-.05.36a7.18,7.18,0,0,0,0,1.39c0,.08,0,.15,0,.24s0,.16,0,.24a3.35,3.35,0,0,0,.07.53v.06a7.2,7.2,0,0,0,.16.78,1.53,1.53,0,0,0,.07.29v0c.05.19.11.39.18.59v0c0,.1.07.2.11.3a13,13,0,0,0,.55,1.34c.07.15.16.31.24.47l.13.22c0,.08.07.16.12.24l.08.12c.06.13.14.24.21.37l.24.37.25.37c.22.32.47.65.73,1l.46.56a26.18,26.18,0,0,0,1.92,2l.44.41a22.68,22.68,0,0,1,3.57,4.25l.4.79a16.94,16.94,0,0,1,.94,2.29A21.35,21.35,0,0,1,491.6,181.25Z"/><path id="eyeglassesrjZv4mkbAGlB14X18Zo9-" class="cls-14" d="M470.37,161.09a2.47,2.47,0,0,0,.54-.05,3.47,3.47,0,0,0,2.47-2.55,3.83,3.83,0,0,1,2.26,1.91,5.45,5.45,0,0,0-.56,2.35,5.2,5.2,0,0,0,1,3.21,3.33,3.33,0,0,0,2.6,1.4,3.36,3.36,0,0,0,.63-.06,3.49,3.49,0,0,0,2-1.27,5.22,5.22,0,0,0,1.09-3.2c0-2.51-1.59-4.58-3.61-4.6a3.31,3.31,0,0,0-2.62,1.33,2,2,0,0,0-.2.3,4.16,4.16,0,0,0-2.46-1.93,6,6,0,0,0,.07-.74c0-2.17-1.38-3.95-3.12-4h0c-1.75,0-3.19,1.73-3.21,3.91S468.62,161.07,470.37,161.09Zm5.29,1.66a4.6,4.6,0,0,1,.95-2.83,2.92,2.92,0,0,1,1.67-1.07,2.84,2.84,0,0,1,.51,0c1.7,0,3.06,1.83,3,4a4.55,4.55,0,0,1-1,2.83,2.59,2.59,0,0,1-3.63.65,2.52,2.52,0,0,1-.68-.7A4.57,4.57,0,0,1,475.66,162.75Zm-7.84-5.63c0-1.85,1.2-3.35,2.63-3.33s2.57,1.54,2.55,3.39-1.2,3.35-2.63,3.34S467.8,159,467.82,157.12Z"/><path id="hairrjZv4mkbAGlB14X18Zo9-" class="cls-7" d="M524.06,186.29c-2-4.26-6.12-7.25-8.1-11.32a17.84,17.84,0,0,1-.93-7.53c.4-7.83-2.3-12.21-3.2-13.44a.18.18,0,0,0-.05-.07,17.78,17.78,0,0,0-10.25-8.19c-10-3.06-23.43-3.7-26.34,10.17a17.69,17.69,0,0,1,5.37-5.85c-.09.26-2.07,5.54,4.49,12.2,1.19,2,2.43,3.91,3.45,6,4.58,9.21.85,19-6.58,25.38-.28.24.13.65.41.41,5.82-5,9.81-12.2,8.65-20.07-.54-3.73-2.43-7-4.37-10.15a22.15,22.15,0,0,1,3.18,3.85l.4.79a16.94,16.94,0,0,1,.94,2.29c1.69,5.13.78,10.63-.75,15.18a43.82,43.82,0,0,1-4.8,9.88c21.5,6.65,36.88,3.46,36.88,3.46a17.55,17.55,0,0,0-.07-14.4,15.82,15.82,0,0,1,1.58,13.9c-.12.35.44.5.56.15A16.71,16.71,0,0,0,524.06,186.29Z"/><polyline id="top_of_pencilrjZv4mkbAGlB14X18Zo9-" data-name="top of pencilrjZv4mkbAGlB14X18Zo9-" class="cls-15" points="363.11 226.39 340.65 179.19 388.98 201.73 384.73 211.99 373.51 222.53 363.11 226.39"/></g></g></svg>