<svg id="Layer_1" data-name="Layer 1" xmlns="http://www.w3.org/2000/svg" xmlns:xlink="http://www.w3.org/1999/xlink" viewBox="0 0 817.2 545.73"><defs><style>.cls-1{fill:none;}.cls-2{clip-path:url(#clip-path);}.cls-3{fill:#eaeaea;}.cls-4{fill:#fff;}.cls-5{fill:#eee;}.cls-6{fill:#ffa29d;}.cls-7{fill:#f4aa16;}.cls-8{fill:#2bcc9e;}.cls-9{fill:#ffbfb7;}.cls-10{fill:#5658f8;}.cls-11{fill:#0073dc;}.cls-12{fill:#008eff;}.cls-13{fill:#d0a8ef;}.cls-14{fill:#1b236d;}.cls-15{fill:#ffbeb6;}.cls-16{fill:#231f20;}.cls-17{fill:#d6d7d8;}.cls-18{fill:#f2a19c;}.cls-19{fill:url(#linear-gradient);}.cls-20{fill:url(#linear-gradient-2);}.cls-21{fill:#f93f32;}.cls-22{fill:url(#linear-gradient-3);}</style><clipPath id="clip-path"><rect class="cls-1" width="817.2" height="545.73"/></clipPath><linearGradient id="linear-gradient" x1="122.37" y1="427.92" x2="110.88" y2="441.78" gradientTransform="matrix(0.89, 0, 0, -0.89, 515.31, 696.49)" gradientUnits="userSpaceOnUse"><stop offset="0" stop-color="#ffbeb6"/><stop offset="1" stop-color="#f8afa9"/></linearGradient><linearGradient id="linear-gradient-2" x1="123.5" y1="430.27" x2="112.35" y2="443.72" xlink:href="#linear-gradient"/><linearGradient id="linear-gradient-3" x1="132.68" y1="318.76" x2="150.17" y2="328.68" xlink:href="#linear-gradient"/></defs><g class="cls-2"><rect class="cls-3" x="350.63" y="277.01" width="105.07" height="117.44"/><rect class="cls-3" x="285.52" y="390.64" width="235.3" height="9.11"/><rect class="cls-3" x="176.38" y="52.53" width="461.72" height="300.3"/><rect class="cls-4" x="184.52" y="60.01" width="445.44" height="247.31"/><ellipse class="cls-5" cx="210.35" cy="329.61" rx="13.16" ry="13.22"/><path class="cls-6" d="M265.42,277.08c.16,1.85.31,3.71.46,5.56a1.36,1.36,0,0,1-1.64-.44,4.45,4.45,0,0,1-.7-1.71,27.15,27.15,0,0,0-1-3.16,3.79,3.79,0,0,1-.37-1.46,3.19,3.19,0,0,1,.28-1.09,39.85,39.85,0,0,1,1.75-3.89l8.87,3.36c0,.3,0,.6-.07.9l-2.66-.09a3.88,3.88,0,0,0-2.14.33c0,2.09,0,4.19,0,6.28a.76.76,0,0,1-.2.62c-.3.23-.71-.08-.92-.39a9.22,9.22,0,0,1-1-2.76C265.79,278.46,265.6,277.77,265.42,277.08Z"/><g id="shoes_10_-i1d-0yMfOqBH424Tcdb0jTi" data-name="shoes 10 -i1d-0yMfOqBH424Tcdb0jTi"><path id="R_shoe_10_-i1d-0yMfOqBH424Tcdb0jTi" data-name="R shoe 10 -i1d-0yMfOqBH424Tcdb0jTi" class="cls-7" d="M298.66,453.1l-10.92,30.55h77.13s-4-7.65-17.14-13.32-23.89-17.25-23.89-17.25H298.66"/></g><path class="cls-8" d="M254,366a133.86,133.86,0,0,1,5,26.7c.71,8.56,1,18.16,7.2,24.1,4.06,3.88,10.08,5.49,13.45,10s3.25,10.68,5.38,15.89c3.82,9.3,12.28,14.7,12.28,14.7s20.81.65,41.14-.3c-8.18-4.88-6.11-12.59-11.76-20.26a564.45,564.45,0,0,1-38.71-60.21c-5.37-9.65-10.51-19.55-17.63-28-1.62-1.92-3.61-3.89-6.12-4a9.18,9.18,0,0,0-5,1.76c-32.23,19.42-61.56,34-84.7,48.47-10,7.74,9.53,38.69,18.28,46.13q15.59-16.12,31.16-32.27c6.72-7,13.46-13.93,19.29-21.66C248,380.74,252.21,373.77,254,366Z"/><g id="shoes_9_-i1d-0yMfOqBH424Tcdb0jTi" data-name="shoes 9 -i1d-0yMfOqBH424Tcdb0jTi"><path id="R_shoe_9_-i1d-0yMfOqBH424Tcdb0jTi" data-name="R shoe 9 -i1d-0yMfOqBH424Tcdb0jTi" class="cls-7" d="M324,453.1l-6.83,30.55H394.3s-4-7.65-17.14-13.32-23.89-17.25-23.89-17.25H328.1"/></g><path class="cls-8" d="M196.92,440.3c17-8.92,30.18-23.64,41.82-38.92,8.25-10.83,16.09-22.47,19-35.77.94,11.46,2.71,24.44,12.1,31,3.09,2.17,7,3.68,8.6,7.12.91,2,.83,4.27,1,6.45a27,27,0,0,0,9.6,18.42c6.14,5.06,13.84,12.81,20.46,17.24,6.83,4.56,7.94,4.63,12.71,11.33,9.5-.25,23.19-.39,32.45-2.53-2.6-3.53-5.19-7.05-7.7-10.64-23.93-34.18-40.71-74.36-72.3-101.57-1.89-1.63-4.09-3.29-6.58-3.12a10,10,0,0,0-4.33,1.76c-16.29,9.84-28.65,16.81-44.94,26.65A194.31,194.31,0,0,0,201.6,379.9c-8.48,6.92-18.12,15-18.12,15s.57,17.3-1.81,16.85a83.36,83.36,0,0,0-1.09-24.26s-13.87-6-19.86-10.42c-7.24,8.42-10.93,21.58-10.11,32.67a43,43,0,0,0,14.61,29,26.12,26.12,0,0,0,9.95,5.67C182.46,446.41,190.22,443.82,196.92,440.3Z"/><path class="cls-6" d="M258.69,266.34q-9.85,15.78-19,32a18.81,18.81,0,0,0-11-5.94A204.55,204.55,0,0,0,241.93,264Z"/><path class="cls-9" d="M226.32,277.05c-3.5-1.57-3.42-10-3-13.86a29.07,29.07,0,0,1,10.05-18.87c1.67-1.41,2-.78,4.17-1,3.85-.4,10.88,1.5,12.71,4.92a22.58,22.58,0,0,0,3.67,5.14c1.28,1.17,2.48.48,4.19,2.84.71,1,3.87,8.43,3.87,13.34s-.07,7.28-4.57,8.84c-1.9.66-12.94,1-16.57.75C234.9,278.72,231,279.12,226.32,277.05Z"/><path class="cls-10" d="M182.72,391.8a197.11,197.11,0,0,1-22.66-14.13c13.22-15.64,26.53-31.42,36.24-49.46,5.26-9.77,9.51-20.28,16.86-28.59,6.2-7,10.08-11.57,19.09-14-.14,1.29-.56,2.13,11.69,5.43,1.08.29,3.61,14,3.84,15.11s-1.45,13.7-1.83,14.62c-3.43,8.29-13.42,22.66-21.19,30.45C206.53,369.49,193.21,380,182.72,391.8Z"/><path class="cls-9" d="M270.93,333.66a5.91,5.91,0,0,0-1.57.57c-3.26,1.53-4.4,1.81-7.66,3.34-1.15.54-1.8,1.62-5,4-1,.76-.45,2.31.77,2.68a5.13,5.13,0,0,0,2.95-.69c1.73-.9,2.84-1.65,4.57-2.56,2.29-1.19,5.09-2.38,7.3-1.06a18.55,18.55,0,0,0-1.87,6.88c-.17,2.19-.6,4.55-.87,6.73a50.75,50.75,0,0,1-1.56,7c-.72,2.89-1.92,8.19,1,8.57,1.51.2,1.59-2.54,1.91-4,1.13-5.18,2.22-8.86,3.58-14,.22-.83.8-2.5,1.23-1.76s-1.26,3.91-2.76,8.67c-.77,2.43-4.37,10.44-2.43,12.09,1.34,1.13,2.21-1.15,2.91-2.76a9.31,9.31,0,0,1,.48-1.5c-.9,1.38.62,2.4,1.19,1.86,1.32-1.26,2.69-6,3.08-7.06,2.52-6.87,5.07-13.92,5.06-21.23a3.07,3.07,0,0,0-.41-1.85,3.2,3.2,0,0,0-1.7-1l-7.29-2.45A6,6,0,0,0,270.93,333.66Z"/><path class="cls-9" d="M263.23,269a4.36,4.36,0,0,1,1.83-.27c4,0,6.1,1,10.06,1a3.61,3.61,0,0,1,1.6.24c1,.47,1.76,2.39,2.28,3.36,3.16,5.88,5.39,8.81,9,14.18.79,1.17,2.24,7.24,2.35,8.65s-.62-.3-2,.11c-.28-.58-1.15-.56-1.72-.25a6,6,0,0,1-1.71.9c-1.24.2-3.69-6.21-4.39-7.26-2.36-3.54-5.74-2.61-8.65-5.32-1.59-1.47-3-2.71-5.08-4.7-1.5-1.43-3.85-3.89-2.22-5.17,2.1-1.63,3.95,1.17,6.06,2.79,1.74,1.34,3.2,2.52,5.71,4.13a17.68,17.68,0,0,1-3.78-5c-.28-.52-.38-1.17-.84-1.54a3,3,0,0,0-1.08-.45c-2.31-.6-5.61-1.74-5.61-1.74l-1.83,4.81a2.91,2.91,0,0,0,.48,1.17,3.4,3.4,0,0,1,.59,2.43,1.19,1.19,0,0,1-1.27,1c-.6,0-2.92-4.46-3-5.06-.12-1.71.44-2.15,1.41-4.78C261.79,271.36,262.41,269.34,263.23,269Z"/><path class="cls-10" d="M266.87,297.68c3-1.48,20.63-11,20.63-11s24.83,51.26,18.21,58.46c-2.45,2.66-17-7.74-17.52-8.14-8-6.16-1.3-7.65-2.78-17.69S272.14,306.34,266.87,297.68Z"/><path class="cls-11" d="M216.56,256.36c-.28,2.85-.88,12.22,2.45,16.35,3.63,4.5,9.06,8.23,18.89,6.09.59-.13,6.7-8.29,7.22-16.61.18-2.94,2.54-5.71,2.93-11,.37-5-1.74-6.74-2.93-7.36-2.19-1.13-3.13-1.06-5.87-1.47A19.62,19.62,0,0,0,228.58,244c-4.16,1.95-5.46,2.49-8.39,5.92C218.54,251.8,216.82,253.74,216.56,256.36Z"/><ellipse class="cls-12" cx="209.68" cy="257.17" rx="6.97" ry="6.98"/><rect class="cls-13" x="212.92" y="254.9" width="6.23" height="6.25"/><path class="cls-12" d="M190.12,268a2.18,2.18,0,0,1-.88-.19,25,25,0,0,1-3.3-1.9c-2.28-1.47-4.44-2.85-6.93-2.05a.39.39,0,1,1-.23-.74c2.83-.92,5.25.63,7.58,2.14a24.22,24.22,0,0,0,3.2,1.83,1.21,1.21,0,0,0,1.05,0c1.39-.64,2.35-3.8,2.92-5.68l.08-.25c1.18-3.86,2.95-5.89,5.26-6,2.72-.19,4.63,2.46,5.84,4.46a.39.39,0,1,1-.67.41c-1.1-1.82-2.8-4.22-5.12-4.09-2,.12-3.49,2-4.57,5.48l-.07.24c-.65,2.15-1.64,5.39-3.35,6.17A1.91,1.91,0,0,1,190.12,268Z"/><path class="cls-9" d="M243.85,267.1l3.67,3.4a8.85,8.85,0,0,0-2.07-12,4,4,0,0,0-2.42-.83c-2,.12-3.2,2.63-2.72,4.61S242.36,265.72,243.85,267.1Z"/><path class="cls-7" d="M220.64,313.73a1.17,1.17,0,0,1-.77-.29l-11.54-10.06a1.15,1.15,0,0,1-.39-1.08,1.17,1.17,0,0,1,.72-.89l13.56-5.36a1.16,1.16,0,0,1,1.58,1.24l-2,15.42a1.17,1.17,0,0,1-.75.94A1.15,1.15,0,0,1,220.64,313.73Zm-9.33-10.85,8.45,7.36L221.23,299Z"/><path class="cls-7" d="M219.66,300.13l-4.16,1.5c.11-2.57.31-5.36,1.89-7.82s6.68-6,9.67-6.34c-2.73,1.36-5.13,5.27-6.24,7.8A10.92,10.92,0,0,0,219.66,300.13Z"/><path class="cls-7" d="M193.79,368.1a7.79,7.79,0,0,1-5.3-2l3.08-3.7c1.33,1.11,1.89,1.07,4.63.64.75-.12,1.42-.19,2.1-.27a32.34,32.34,0,0,0,9.37-2.36c10.23-3.89,15-6.3,17.42-9.49,0,0-8,10.86-15.72,14a33,33,0,0,1-10.54,2.65c-.61.07-1.21.13-1.86.23A19.9,19.9,0,0,1,193.79,368.1Z"/><path class="cls-4" d="M213.55,304.11s3.79,3.55,5,4.11a30.24,30.24,0,0,0-4.75,5.93,31.52,31.52,0,0,1-5.78-4.83C208,309.14,213.55,304.11,213.55,304.11Z"/><path class="cls-13" d="M206.14,304.73s9.25,7.35,13,10.24c-7.28,25.38-14.52,38.69-25.49,53-16.16-2.53-19.44-13.89-19.37-15.16C175,341.11,193.66,306.64,206.14,304.73Z"/><path class="cls-4" d="M218.72,315.8c-.68-1.06-2.19-.87-3.42-.56a7.91,7.91,0,0,0-3.18,2c-4.13,3.81-7.31,8.7-12,11.73-2.06,1.32-4.67,2.24-6.92,1.29-2.67-1.14-3.72-4.59-3.08-7.43s2.53-5.21,4.37-7.47,3.54-4.32,5.3-6.49c1.4-1.71,3.05-3.56,5.25-3.68"/><path class="cls-7" d="M195.15,331a5.44,5.44,0,0,1-2.14-.42c-3-1.28-3.95-5-3.31-7.88s2.68-5.45,4.45-7.62l5.3-6.5c1.45-1.78,3.2-3.69,5.53-3.82a.37.37,0,0,1,.41.37.38.38,0,0,1-.37.41c-2,.11-3.56,1.81-5,3.54l-5.29,6.49c-1.72,2.1-3.67,4.49-4.3,7.3-.58,2.59.33,5.91,2.85,7s5.14-.35,6.56-1.26a38.7,38.7,0,0,0,7.6-7.09c1.39-1.55,2.83-3.16,4.39-4.59a8.05,8.05,0,0,1,3.35-2.1c1.24-.31,3-.58,3.84.73a.39.39,0,0,1-.12.54.38.38,0,0,1-.53-.11c-.44-.68-1.39-.81-3-.4a7.47,7.47,0,0,0-3,1.91c-1.53,1.41-2.95,3-4.33,4.55a39.42,39.42,0,0,1-7.76,7.22A10.09,10.09,0,0,1,195.15,331Z"/><path class="cls-13" d="M193.49,327.62l5.31-1.32a.7.7,0,0,0,.26-1.22l-4.22-3.3a.69.69,0,0,0-1.09.38l-1.09,4.63A.68.68,0,0,0,193.49,327.62Z"/><path class="cls-14" d="M250.49,254.5h-.28a.39.39,0,1,1,.08-.78,3,3,0,0,0,2.34-1,9.94,9.94,0,0,0,1.59-2.37.38.38,0,0,1,.52-.16.39.39,0,0,1,.16.53,10.31,10.31,0,0,1-1.72,2.55A3.86,3.86,0,0,1,250.49,254.5Z"/><path class="cls-12" d="M184.74,281.14a.4.4,0,0,1-.39-.34,5.62,5.62,0,0,1,4.05-6,9.76,9.76,0,0,1,2-.24,6.4,6.4,0,0,0,2.55-.48c1.83-.91,2.23-3.32,2.32-4.31.06-.7.06-1.43.06-2.13a15.81,15.81,0,0,1,.25-3.42,8.54,8.54,0,0,1,9-6.46.4.4,0,0,1,.35.44.41.41,0,0,1-.44.34,7.72,7.72,0,0,0-8.11,5.84,15.23,15.23,0,0,0-.23,3.26c0,.72,0,1.46-.07,2.2-.2,2.38-1.2,4.18-2.74,4.94a7.11,7.11,0,0,1-2.86.56,9.1,9.1,0,0,0-1.85.22,4.81,4.81,0,0,0-3.47,5.16.38.38,0,0,1-.33.44Z"/><path class="cls-15" d="M283.41,338.16c.11,7.78-.13,14-.29,21.79a25,25,0,0,1-.21,3.88,1.15,1.15,0,0,1-1.1.82,2.22,2.22,0,0,1-1.27-.45c-1.53-1.09.41-16.5.45-25A9.24,9.24,0,0,1,283.41,338.16Z"/><path class="cls-10" d="M229.09,296.39c.55-2.47,5.17-5.55,7.61-6.23,3.36-.93,7,.4,9.9,2.69,20.79,16.45,38.51,30,59.3,46.5,2.57,6.79-3.14,9.67-9.45,7.39-14.75-6.55-14.47-7.95-28.89-15.28-9.91-5-26.89-8.73-33.66-17.59C229.28,307.82,227.53,303.43,229.09,296.39Z"/><path class="cls-7" d="M219.79,306.52l.66-5,.71-.52a100.52,100.52,0,0,1,19.44-7.17,18.55,18.55,0,0,1,6.11-.52,7,7,0,0,1,4.16,1.57c1.62,1.43,4.48,4.74,4.54,4.78-1.56-.93-5.76-2.44-7.53-2.37-6.57.26-17.36,4-27.28,9Z"/><rect class="cls-13" x="146.68" y="443.42" width="68.39" height="16.21"/><rect class="cls-16" x="150.89" y="459.45" width="68.39" height="11.15"/><rect class="cls-17" x="146.16" y="446.82" width="64.22" height="9.41"/><rect class="cls-5" x="146.16" y="447.93" width="64.22" height="1.19"/><rect class="cls-5" x="146.16" y="450.3" width="64.22" height="1.19"/><rect class="cls-5" x="146.16" y="452.67" width="64.22" height="1.19"/><rect class="cls-5" x="146.16" y="455.05" width="64.22" height="1.19"/><rect class="cls-13" x="138.18" y="470.84" width="80.68" height="16.21"/><rect class="cls-17" x="137.56" y="474.24" width="75.75" height="9.41"/><rect class="cls-5" x="137.56" y="475.35" width="75.75" height="1.19"/><rect class="cls-5" x="137.56" y="477.72" width="75.75" height="1.19"/><rect class="cls-5" x="137.56" y="480.1" width="75.75" height="1.19"/><rect class="cls-5" x="137.56" y="482.47" width="75.75" height="1.19"/><path class="cls-18" d="M614.38,381.92c-.14,1.48.73,4.35.9,6.2.07.85,0,2.71.38,3.44.68,1.18,4.46.78,5.83.77a18.48,18.48,0,0,0,6.66-1.52c3.45-1.36.71-2.35-1.38-2.82,1-.44,4.37-.95,4.35-2.61,0-2-3.73-1.18-4.61-1.43,1.41-1.32,3.34-2.38,3.45-4.6s-2.81-2.85-4.64-2.83a17,17,0,0,0-6.92,1.83c-1.78.85-2.55,2.41-4,3.41C614.31,381.9,614.15,382,614.38,381.92Z"/><path class="cls-15" d="M618.5,383.33c-2.09,4.73-3.79,24.66-11.2,22.38,1.33-4.85,3.2-9.91,4.4-14.74,1.51-6.08,1-10.17,5.43-14.1,9.38-8.36,20.73-1.32,32.18-3.64-.07,3.35,1.22,6.41.62,9.59-4.61.25-12.34-3.38-15.74-.39-6.56,5.78-4.46,3.19-8.88,7.58-3.57,3.57-8.09,9.64-7.42,2.2.36-4.09,5-7.82,6.46-11.56C621.33,380.37,618.55,384,618.5,383.33Z"/><path class="cls-8" d="M628.09,453.42c4.38,2.74,9.61,4.1,14.13,6.84,3.37,2.05,6.52,4.23,10,6.05,4.48,2.33,10.34,5.48,15.35,6,16.11,1.78-1.24-18-4.84-22.67-2-2.65-4.06-5.17-6.12-7.71a19.94,19.94,0,0,0-2.88-3.15c-.7-.59-2.75-3.08-3.44-3.26-1.58-.42-4.59,2.13-6.07,2.9-3.16,1.63-6.34,3.12-9.46,4.83s-6.55,3-9.48,4.93C627.29,451.4,624.91,451.43,628.09,453.42Z"/><path class="cls-16" d="M634.13,409.9c-19.58.82-34.17-.34-47.45,1.65-13.8,2.07-39.86,3.68-36.31,25.3,4.69,28.58,62.68,16.74,81.68,16.74,7,0,20.51.81,30.78.85,3.27-12.52,2.17-30.74,0-43.47C652.65,410.46,632.56,410.43,634.13,409.9Z"/><path class="cls-16" d="M712.28,400.61c0,15.84,2.49,37.9-9.32,50.17s-30.21,5.56-45.57,5.58-31.68,1.39-46.52-.72c-17.12-2.43-25.18-26.68-7.45-36.47,7.47-4.11,22.26-5.15,30.82-6,10.19-1,21.6-.28,31.49-2.87a36.12,36.12,0,0,0-.75-11.2C676.87,403.52,704.19,400.07,712.28,400.61Z"/><path class="cls-8" d="M652.12,315.62c14.59-.38,23.1,4.65,29.15,9.21,8.76,6.61,17.37,13.44,23,22.69,12.31,20.39,12,42.88,9.83,64.8-12.57.84-80.62-.81-80.62-.81L633.19,330s3.3-8.44,6.66-11.11C642.69,316.59,646.15,315.78,652.12,315.62Z"/><path class="cls-18" d="M621.31,324.85c6.71,2.64,9.37,5.07,16.87,9.68,4,2.46,7.85,1.64,10.66-2.68,1.72-2.64,4.72-7.49,4-10.85-.84-4.09-4.61-5.27-8.07-7.27-2.55-1.48-8.14-7.06-10.68-7.29C629.94,306.07,620.61,320.31,621.31,324.85Z"/><path class="cls-19" d="M596,301.9c-4.51,14.69,10.81,25.75,23.55,25.92,8.28.11,13.89-5.66,17.62-13.7,10.44-22.51-23.21-38-37.23-20.38a17.89,17.89,0,0,0-3.72,7.13C595.6,301.22,596.31,302.72,596,301.9Z"/><path class="cls-16" d="M604.54,284.48c6.89-4,14.8-5.64,22.61-2.05,21.76,10,10.89,33,10.89,33l-42.46-13.66S593.24,291.1,604.54,284.48Z"/><path class="cls-20" d="M616.14,310.48c1.18-3.42,6-6.93,9.62-5.21,4.5,2.14,4,7.59,3,11.37-3.48-1.94-8.71-4.57-12.6-5.58C616.5,311.16,615.86,310.34,616.14,310.48Z"/><ellipse class="cls-13" cx="629.01" cy="315.28" rx="8.84" ry="8.83"/><rect class="cls-21" x="593.93" y="406.52" width="48.67" height="7.1"/><polygon class="cls-21" points="534.59 363.49 595.06 363.49 609.01 413.62 548.53 413.62 534.59 363.49"/><ellipse class="cls-4" cx="569.99" cy="389.42" rx="5.19" ry="5.19"/><path class="cls-22" d="M669.83,403.37c-1.63-3.43-3.56-6.77-5.24-10.15-.84-1.67-.29-2.5-2.42-2.49-.95,0-2.88,1.52-3.78,1.8.23-.26-1-.06-.71-.26a130.26,130.26,0,0,0-12.34,4.82c-2,.94-4,1.68-6,2.53a15.57,15.57,0,0,0-2-.34c-2.33-.21-3.82.43-6,1.17-3.89,1.35-7.86,1.43-11.15,4-1.35,3.74,6.73,3,11,2.6-1.35,2.88-2.56,5.84-4,8.6-.76,1.43-3.17,4.71-.57,6,1.88.92,2.1-.62,3.21-.86,2.26-.48,1.68-.38,4.38.14,3.17.6,5.25-.61,7.92-.4,1.31.11,2.5,1.49,3.81.74.57-.32.94-3.14,1.14-3.73a56.4,56.4,0,0,0,1.44-5.73c1.85-.45,3.68-.86,5.35-1.43C659.49,408.47,664.25,404.84,669.83,403.37Z"/><path class="cls-16" d="M603,324.23a8.66,8.66,0,0,1-6.14-3.29,9.45,9.45,0,0,1-2.3-4.9,4.49,4.49,0,0,1,1.33-4.13,4,4,0,0,1,2.64-.91,8.66,8.66,0,0,1,6.14,3.29,9.48,9.48,0,0,1,2.3,4.91,4.48,4.48,0,0,1-1.33,4.13A4,4,0,0,1,603,324.23ZM598.48,312a3,3,0,0,0-2,.66,3.5,3.5,0,0,0-1,3.21,8.47,8.47,0,0,0,2.06,4.36,7.62,7.62,0,0,0,5.35,2.92,2.91,2.91,0,0,0,2-.66,3.47,3.47,0,0,0,1-3.21,8.51,8.51,0,0,0-2.06-4.36A7.62,7.62,0,0,0,598.48,312Z"/><path class="cls-8" d="M661.3,343.2c-1.36-7.38-1-19.21,9.38-19.63,8.48-.35,16.69,12.58,20.88,18.62,10.17,14.68,17.15,29.29,20.92,46.4-13.2,13-33.55,23.51-50,31.18-5-7.78-10.89-16.13-13.76-24.89,13.14-7.12,21.86-10.33,33.22-16.76C677.12,374.39,663.41,354.63,661.3,343.2Z"/><path class="cls-16" d="M640.85,315.9h-.13a.52.52,0,0,1-.37-.64c2.2-8.64,1.31-17.17-2.45-23.42a18.72,18.72,0,0,0-11.8-8.71.5.5,0,0,1-.38-.62.53.53,0,0,1,.62-.39,19.66,19.66,0,0,1,12.45,9.19c3.9,6.48,4.84,15.3,2.56,24.21A.51.51,0,0,1,640.85,315.9Z"/><path class="cls-13" d="M635,311l-3-1c.52-1.48,1-2.86,1.54-4.18,1.55-4.11,2.89-7.66,3.35-12.18.76-7.65-2.94-13.11-9.65-15.42-11-3.78-20.52,5.08-20.52,5.08a25.87,25.87,0,0,0-6.35,4.33c3.08-10,16.36-15.76,27.75-12.4,8.24,2.42,12.79,9.59,11.87,18.72-.49,4.92-1.9,8.65-3.53,13C636,308.18,635.49,309.53,635,311Z"/><ellipse class="cls-10" cx="629.01" cy="315.28" rx="5.87" ry="5.86"/><ellipse class="cls-3" cx="414.57" cy="189.98" rx="96.89" ry="97.89"/><rect class="cls-4" x="285.39" y="139.25" width="200.51" height="13.77"/><rect class="cls-4" x="358.04" y="240.53" width="174.5" height="5.16"/><rect class="cls-4" x="340.1" y="215.64" width="185.26" height="23.23"/><rect class="cls-4" x="329.57" y="167.8" width="97.8" height="13.77"/><rect class="cls-13" x="378.04" y="120.71" width="131.91" height="4.02"/><rect class="cls-13" x="271.72" y="199.52" width="165.45" height="4.02"/><rect class="cls-13" x="396.92" y="213.08" width="85.95" height="4.02"/></g></svg>