<?xml version="1.0" encoding="iso-8859-1" ?>
              <svg
                version="1.1"
                xmlns="http://www.w3.org/2000/svg"
                xmlns:xlink="http://www.w3.org/1999/xlink"
                viewBox="0 0 877.5 585"
                width="877.5"
                height="585"
              >
                <g transform="translate(599.439 207.929) scale(1.185 1.186) rotate(0 87.66244725738396 73.70151770657674)"><g clip-path="url(#clipPath_vgMk7TYmBUYOQcAnUUAxU)"><defs>
          <clipPath id="clipPath_vgMk7TYmBUYOQcAnUUAxU">
            <rect x="0" y="0" width="175.336" height="147.358" />
          </clipPath>
       </defs><g><path d="M64.569 142.117c.003-1.323-.264-2.609-.212-3.955.997.035 2.358-.223 3.242.325.191.164.328.356.445.592 1.009-1.557 1.306-.332 2.43-.35 1.255-.02 1.137-1.185 2.452.282.95-1.594 3.302-.603 4.775-.67 1.848-.084 3.646-.104 5.476-.197l-.001-.002c-.237-.614-.25-1.176.364-1.732-1.382-.401-1.605-1.073-.792-2.219-1.334-.473-1.502-1.008-.727-2.27-.23.13-.556-.048-.977-.528-.342-1.077-.472-2.252-.775-3.255-.28-.929-1.126-1.12-.333-2.226-1.664-.428-1.614-3.238-2.125-4.524-.712-1.792-1.525-3.768-2.033-5.626-.491-1.798-.974-3.564-1.489-5.361-.334-1.165-1.981-3.277-1.017-4.398.182-.182.132-.305-.103-.364l-.171-.072c-.474-.39-.959-1.108-.998-1.728-.05-.796.566-1.039.024-1.661-.411-1.158 3.376.209 3.567.034 1.633-1.283 3.444.172 5.124-.556.182.199.518.394 1.005.587.426-.031 1.002-.511 1.505-.599.881-.154 1.698.163 2.558.179.769.014 1.492-.253 2.261-.258.952-.007 1.824.257 2.78.195 3.582-.233 7.245-.178 10.863-.107l.196.055v1.423l.01.024 1.375-.425.089.137c.449 1.241.693 2.494 1.124 3.716.396 1.123 1.543 2.69.429 3.778 1.675.448.786 1.073 1.052 2.133.297 1.182 1.467.626.477 2.342 1.116.25 1.413 1.396 1.666 2.396.306 1.211.756 2.198 1.129 3.381.372 1.179.619 2.2 1.065 3.342.361.925.916 2.278.071 3.084 1.382.442 1.605 1.17.737 2.216 1.389.316 1.55 1.403.717 2.25.247-.093.58.082.995.518.367 1.073 1.101 2.072.789 3.303-.274.822 1.133.881.343 2.168.198-.122.511.118.927.702 1.061.02 2.115.29 3.063.325 1.356.05 2.329-.501 3.8-.133.202.121.318.243.349.365.153.238.225.235.389.015 1.023-1.185 1.152-.009 2.079.015 1.119.029 1.12-1.176 2.286.082-.071-.229.296-.458 1.08-.674.611-.011.893.551 1.56.513.826-.047 1.713-.954 2.565-.35-.559 1.924.584 3.63.139 5.665-.071.507-.19 1.349-.873 1.366.344.529.592 1.132.745 1.695-.721.43-2.673.125-3.142-.678-.892 1.158-1.471 1.153-2.46-.011.052.265-.228.53-.834.787-.58-.004-1.16.134-1.739.1l-1.704-.382c-1.003-.023-1.462.748-2.293-.387-.936 1.487-3.69.55-5.123.638-2.069.127-4.497.32-6.554.123-1.956-.187-4.08-.24-6.05-.184-.934.026-1.955.422-2.898.157-.345-.097-1.352-.733-1.445-.583-1.074 1.353-1.308-.198-2.219-.193-.386.002-.548.802-1.156.766-.327-.02-.565-.532-.819-.531-.652.003-1.231.413-2.04.54-1.238.195-2.622-.54-3.796-.031-.186-.204-.533-.405-1.039-.603-.44.032-1.033.527-1.553.617-.91.158-1.754-.17-2.642-.186-.794-.014-1.541.26-2.335.269-.984.011-1.88-.281-2.87-.202-3.681.294-7.499.192-11.219.11l-.203-.056-1.437-.011-.052-1.511-.042-.16c-.04-1.154.17-2.233.173-3.361z" fill="rgb(98,142,248)"/><path d="M72.057 104.129c.177.544.495 1.071.94 1.437l.171.072c.235.059.285.182.103.364-.635.738-.006 2.252.401 3.008 2.119.666 4.293 1.818 6.343 2.695.957.41 1.926.8 2.88 1.205.501.213.933.567 1.466.718l1.381.128c.274.261.439.473.497.645 1.148.044 3.175 1.201 4.152 1.478.009.003.448.413.507.448.241.144.545-.204.73-.118.582.272.449 1.15 1.522.706-.34.187 2.815 1.473 3.014 1.561 1.436.635 2.817 1.381 4.26 1.986 1.226.514 2.472.967 3.708 1.467.976.395 2.811 1.711 3.879 1.132.311 1.146 1.633.844 2.435 1.351-.461-1.806-1.316-3.617-1.954-5.382-.487-1.348-.299-3.802-2.052-4.194.286-.496.545-1.03.353-1.599-.123-.363-.746-.325-.83-.743-.219-1.091.68-1.67-1.052-2.133 1.118-1.092-.031-2.65-.429-3.778-.437-1.239-.668-2.474-1.169-3.716-.013-.065-.045-.11-.096-.137l-1.509.425-.01-.024v-.477c-.275 0-.97-.297-1.27-.344-.16.134-.315.273-.465.418l-.399-.278c-1.223.148-2.47-.131-3.919-.098-.563.165-.827.329-.779.484-.787-.747-3.203-.339-4.294-.292-.412.182-.61.364-.597.538-.449-.689-1.286-.789-1.821.041-.586-.751-1.173-.741-1.797.062-.648-1.074-3.949-.498-5.002-.469-1.135.032-4.194-.353-4.875.716-.993-.893-.905-.136-1.837-.102-.852.031-1.052-.828-1.809.25-.095-.163-.221-.295-.377-.394-.146-.05-.296-.084-.449-.103-.112.254-.081.638.049 1.046z" fill="#382D16"/><path d="M.325 103.439c-.667-.512.632-6.575.805-7.423.547-2.678 1.365-5.146 1.371-7.916.006-2.549.413-4.907.777-7.421.321-2.22.7-4.502 2.77-5.785-.974-1.39-1.703-3.221-1.386-4.946.288-1.571 1.841-2.513 1.92-4.122.068-1.384-.952-2.494-.817-3.922.165-1.744 1.41-3.301 2.528-4.56-2.244-2.933-1.022-7.791-.356-11.147.412-2.078 1.086-4.068 1.251-6.195.169-2.171.073-4.324.366-6.491.292-2.159.932-4.196 1.414-6.312.436-1.911.356-3.721.392-5.659.042-2.247.548-4.589.895-6.807.293-1.873.907-3.886 2.636-4.921-.81-1.295-1.264-2.497-1.366-3.616-.402-1.564.446-4.305 1.098-5.699 1.608.324 3.147.823 4.33 1.494 2.542-2.254 6.902-2.685 9.259.036-.043-.591.96-1.18 2.994-1.758 4.28-.038 8.034-.299 12.259.48 1.591.293 2.824-.585 4.434-.636 1.557-.049 2.837.668 4.08 1.544-.206-.524 1.107-1.046 3.879-1.543l7.049.007c.941.001 1.919-.081 2.843.142.749.181 1.557.942 2.242 1.033.92.123 1.749-.659 2.606-.931.894-.283 1.817-.399 2.745-.223.697.133 1.316.441 1.927.792 1.203.691.989.845 2.189.405 1.572-.577 2.596-1.499 4.406-1.039 1.164.296 2.264 1.49 3.502 1.371.632-.061 1.398-.717 2.018-.96 1.009-.395 1.94-.549 3.019-.596 1.711-.074 3.459-.151 5.171-.101 2.025.059 3.985.564 6.019.532 1.663-.026 3.587-.744 5.195-.174 1.524.54 1.603 1.209 3.271.702 1.947-.591 3.433-.947 5.506-.928 1.997.018 4.01-.068 6.005.01 1.804.07 3.041.913 4.851.573 4.424-.833 8.658-.845 13.12-.176.731.263 1.153.528 1.265.794.554.518.815.511 1.41.033 1.195-.83 2.54-1.435 4.025-1.289 1.425.14 2.642 1.335 3.984 1.216 1.308-.116 2.333-1.226 3.777-1.234 1.487-.008 2.816.731 4.033 1.518-.257-.499 1.071-.996 3.914-1.465 2.265-.024 3.406 1.53 5.712.81 2.385-.745 5.244-1.302 7.672-.457-.669 1.985-1.541 3.69-1.355 5.815.168 1.919.422 3.713.161 5.645-.437 3.234-.096 8.819-3.433 10.653 2.237 3.367 1.888 5.999-1.048 8.761 2.057 3.544 1.764 5.621-1.229 8.828.597-.111 1.029.973 1.288 3.225-.585 4.142-.71 7.917-2.108 11.896-.547 1.558.23 2.814.043 4.459-.181 1.598-1.02 2.961-2.185 4.044 1.934 2.672.86 6.98.363 10.013-.286 1.743-.879 3.4-1.195 5.134-.363 1.995-.261 3.978-.353 5.99-.184 4.019-1.764 7.728-2.062 11.705-.279 3.721-.307 7.286-.908 11.003-2.104-.05-4.2-.177-6.296-.361-2.927-.462-5.738-.027-8.656.225-3.627.313-7.111-.525-10.715-.449-3.805.08-7.51.448-11.338.372-.945-.019-1.999.075-2.859-.393-.829-.451-1.367-1.852-2.375-.875-1.465 1.107-3.293 1.617-5.084 1.099-.818-.237-1.369-.799-2.107-1.123-1.217-.535-1.039-.141-2.13.502-1.136.669-2.521.927-3.794.597-1.07-.278-2.082-1.384-3.221-1.401-1.249-.019-2.61 1.238-3.884 1.465-1.447.258-3.026.146-4.5.177-3.862.081-7.819-1.105-11.623-.115-.674-.443-1.933-.881-3.765-1.312-1.238.055-2.316 1.115-3.573 1.286-1.067.145-2.236.067-3.312.093-3.056.074-6.01-.432-9.044-.467-2.85-.034-5.644.651-8.509.605-3.234-.051-6.358-.806-9.603-.459-3.02.323-5.966.689-9.005.271-3.407-.468-6.379-.168-9.785.108-3.563.289-6.998-.574-10.546-.485-3.809.095-7.519.421-11.344.37-.162-.042-.409-.082-.736-.121l-3.211-.07.027-3.75z" fill="rgb(98,142,248)"/><path d="M7.813 96.296c.342-.535.504-.848.535-1.163l-.003-.228-.058-.17c-.054-.117-.137-.244-.247-.389-.659-.971-.802-2.11-.672-3.335.13-1.224 2.167-3.179 1.957-3.825-.518-1.588-1.091-2.902-.791-4.78.301-1.877.337-4.818 1.06-6.925.723-2.107.926-4.282.824-6.505-.037-1.991 1.889-2.537 1.609-3.65-.347-1.413-.813-2.684-.568-4.287.345-2.293.676-4.658.983-7.005.109-.683.305-1.641.782-2.212.477-.571.435-1.176.341-2.133-.442-4.093.337-8.095 1.469-11.968.33-.633.624-.984.88-1.053.541-.44.567-.678.205-1.28-1.235-2.42-1.052-4.087.63-6.307.328-.426.492-.623.236-1.248-1.107-2.952-.814-4.373 1.291-6.822-.486.172-.774-1.099-.848-3.746.199-1.584 1.327-2.416 1.627-3.533.15-.559-.044-1.154-.259-1.812l-.159-.505-.073-.262-.013-.098-.009-.121-.015-.248c-.035-.67-.026-1.422.061-2.21.119-1.081.413-1.957.722-2.608 1.04.211 1.958.464 2.721.621.77.157 1.387.219 2.008.046.693-.161.926-.306 1.311-.432.36-.126.719-.233 1.085-.32.732-.174 1.492-.265 2.336-.257 1.706.034 3.56.031 5.226-.01 2.255-.073 4.11.256 5.27 1.819 2.788-2.455 5.228-2.464 8.107-.134 2.971-2.313 4.899-2.305 8.19.023-.175-.529.758-1.058 2.777-1.573 3.856.018 7.768-.791 11.464.563.317.12.608.199.95.022 2.559-1.293 4.77-.819 6.687.75.908-.866 1.977-1.449 3.473-1.45 1.496-.001 5.485-.343 8.063.074 2.578.417 4.362.309 6.582-.02 2.22-.33 5.139-.351 7.658.028 2.519.38 4.427.377 6.755-.016 2.328-.393 5.194-.422 7.619.004 2.425.425 4.501.319 6.828.003s5.047-.383 7.427-.013c2.38.371 4.56.356 6.981-.005 2.42-.361 4.788-.05 7.295-.069 2.507-.019 2.654.282 3.514 1.136.527.566.821.489 1.296.03 2.133-1.612 4.54-1.616 6.608.022.694.54.915.444 1.417-.051.84-.779 2.002-1.067 3.213-1.117.503-.011 1.154.074 1.749.208.605.134 1.182.317 1.679.501 1.013.368 1.638.742 2.278.738-.014.111-.014.199.002.264.185.733.44 1.539.573 2.688.067.572.103 1.225.09 1.963l-.02.569-.017.295-.004.101-.002.08c-.007.214-.027.434-.063.662-.286 1.826-.399 4.789-1.044 6.975s-1.124 4.345-.853 6.608c-.487.559-1.043 1.651-1.662 3.265-.089.968.955 2.168.71 3.738-.245 1.57-.463 5.451-1.193 7.981-.73 2.53-.886 3.992-.83 6.168.056 2.175-.341 5.444-1.072 7.94s-.914 4.129-.888 6.374c.027 2.245-.279 5.507-1.045 7.735-.767 2.228-.908 4.433-.896 6.763.013 2.33-.29 4.9-.995 7.158-.705 2.258-.963 4.774-.976 7.342-.013 2.568-.538 4.646-.891 6.999-.058.143-.126.363-.201.655l-2.912-.396v.001h-.085l-.085 2.975c-.017.03-.205.06-.533.083-2.654.058-5.385.328-7.818-.05-2.432-.378-4.347-.404-6.635.013-2.289.417-4.276.032-6.464.094-2.189.063-3.997-.289-5.25-1.807-1.883 1.743-4.323 2.431-6.031 1.385-1.708-1.046-2.44-1.009-4.076.001-1.635 1.01-3.665.415-6.152-1.25-.943.949-2.021 1.657-3.776 1.652-1.755-.005-5.377.28-7.877-.087-2.499-.368-4.089-.321-6.329-.004-2.24.317-5.412.363-8.037-.031-2.625-.394-3.987-.414-6.223.011-2.236.425-4.256.044-6.405.132-2.149.087-4.23-.253-5.45-1.776-2.913 2.428-5.532 2.403-8.025.029-2.516 2.521-6.239 2.143-8.124-.033.04.543-.883 1.085-2.751 1.616-3.897.035-7.948.834-11.637-.567-.396-.17-.684-.063-1.052.071-2.853 1.03-4.033.889-6.4-.78.189.482-1.017.961-3.565 1.418l-8.084-.009c-.864-.02-1.876-.264-2.525-.749-.324-.243-.543-.367-.769-.378l-.172.013-.091.022-.121.032c-.211.05-.453.128-.765.233-2.081.654-4.631.948-6.576.881.341-2.012 1.045-4.195 2.008-5.761z" fill="#fff"/></g></g></g><g transform="translate(658.1254478853504 220.308) scale(-0.916 0.918) rotate(0 300.0545851528384 98.52941176470588)"><g clip-path="url(#clipPath_zVi49KU5v-9mm4LUNQwA3)"><defs>
          <clipPath id="clipPath_zVi49KU5v-9mm4LUNQwA3">
            <rect x="0" y="0" width="600" height="197" />
          </clipPath>
       </defs> <linearGradient id="SVGID_1_zVi49KU5v-9mm4LUNQwA3" gradientUnits="userSpaceOnUse" x1="1647.1251" y1="1728.085" x2="1780.3164" y2="1899.8304" gradientTransform="matrix(0.1413 0 0 0.1413 -85.0113 -196.8086)">  <stop offset="0" stop-color="#FFBEB6"/>  <stop offset="1" stop-color="#F2A19C"/> </linearGradient> <rect x="149.242" y="44.674" fill="url(#SVGID_1_zVi49KU5v-9mm4LUNQwA3)" width="11.72" height="24.408"/> <linearGradient id="SVGID_2_zVi49KU5v-9mm4LUNQwA3" gradientUnits="userSpaceOnUse" x1="4032.0107" y1="1941.6066" x2="4504.8257" y2="1941.6066" gradientTransform="matrix(0.1413 0 0 0.1413 -85.0113 -196.8086)">  <stop offset="0" stop-color="#FBB03B"/>  <stop offset="1" stop-color="#F7931E"/> </linearGradient> <path fill="url(#SVGID_2_zVi49KU5v-9mm4LUNQwA3)" d="M492.505,77.231c-5.496-8.939-7.941-13.795-7.618-21.361c0.028-0.667,16.187-15.253,22.205-17.28  c13.647,21.339,29.684,50.887,44.575,76.609c-5.062,2.19-9.806,2.05-21.892-4.033c-2.674-1.345-26.885-15.854-27.568-17.921  C501.826,92.093,493.141,78.266,492.505,77.231z"/> <path fill="#151A4F" d="M461.061,69.29c13.196-12.092,19.294-15.608,28.375-17.601c3.193,13.877,10.845,26.028,13.044,41.418  c-23.899,25.549-55.098,48.105-82.495,69.862c-2.431,1.931-4.944,3.882-7.896,4.843c-2.901,0.943-6.022,0.863-9.072,0.773  c-52.339-1.55-104.677-3.1-157.015-4.649c-5.182-5.356-3.007-14.859,2.514-19.864c5.522-5.005,13.668-5.328,30.737-8.825  c19.488-3.993,40.963-6.145,61.946-5.131c9.229,0.446,29.922,4.082,37.022-1.833c19.794-16.489,31.483-21.253,39.221-24.917  c5.246-2.483,19.293-6.766,22.726-8.794C448.233,89.811,452.386,77.242,461.061,69.29z"/> <path fill="#F2A19C" d="M25.525,91.369c0.664,0.984,1.027,2.162,1.796,3.066c0.956,1.124,2.596,2.52,1.653,3.656  c-0.791,0.952-2.368,0.113-3.046-0.922c-0.678-1.035-1.257-2.385-2.474-2.609c0.928,0.742,1.896,1.537,2.32,2.646  c0.424,1.109,0.062,2.614-1.056,3.018c-2.536-1.543-5.072-3.087-7.607-4.631c-0.879-0.535-1.847-1.199-1.994-2.215  c-0.089-0.614,0.152-1.231,0.473-1.762C17.629,88.246,23.32,88.104,25.525,91.369z"/> <path fill="#F2A19C" d="M67.847,50.334c0.147,0.574,0.419,1.432,1.009,1.371c1.493-0.154,1.938-2.252,2.37-3.689  c0.752-2.502,1.812-9.015,1.893-9.669c0.043-0.349,0.045-0.726-0.143-1.023c-0.359-0.564-1.251-0.535-1.771-0.117  c-0.52,0.418-0.763,1.084-0.982,1.713c-0.436,1.256-0.871,2.513-1.306,3.769C68.063,45.158,67.198,47.803,67.847,50.334z"/> <path fill="#F2A19C" d="M70.535,48.811c1.214-0.332,1.779-1.682,2.282-2.834c0.932-2.134,2.199-4.102,3.48-6.047  c0.548-0.833,1.12-1.715,1.191-2.709c0.072-0.996-0.611-2.548-1.553-2.213c-3.266,1.165-3.825,5.751-5.125,8.964  C70.179,45.537,69.574,47.423,70.535,48.811z"/> <path fill="#FFBEB6" d="M113.138,140.024c-1.126-5.803-4.642-10.801-7.726-15.844C96.624,109.809,90.5,96.251,83.931,80.741  c-2.554-6.029-6.495-17.45-6.873-17.725c-0.581-1.502,0.392-3.553,2.337-5.222c1.258-1.079,4.518-4.173,6.048-4.81  c4.13-1.719,8.11-4.535,9.072-6.87c0.997-2.422-1.075-2.185-3.299-3.572c-4.095-2.554-9.448-8.811-10.212-8.759  c-1.175,0.079-8.535,9.021-8.481,9.309c0.079,0.429,1.45,0.17,1.885,0.129c2.288-0.222,4.145-1.87,5.828-3.436  c1.071,1.319,2.357,2.462,3.792,3.373c-0.035,0.461,0.994,2.771,0.959,3.232C79.9,50.136,74.039,52.427,69.59,56.912  c-0.403,0.408-1.454,2.004-1.467,2.119c-0.17,1.67,0.71,2.889,1.148,4.191c8.474,25.214,8.569,56.17,19.251,82.606  c2.813,6.962,7.173,13.713,13.846,17.162c1.294,0.669,2.737,1.214,4.179,1.007c3.44-0.493,4.834-4.618,5.514-8.024  C113.109,150.711,114.16,145.29,113.138,140.024z"/> <g>     <rect x="57.308" y="45.331" transform="matrix(0.9995 -0.0302 0.0302 0.9995 -1.3614 1.8604)" fill="#23286B" width="7.235" height="1.364"/>     <rect x="61.802" y="42.676" transform="matrix(0.9995 -0.0302 0.0302 0.9995 -1.3246 2.6736)" fill="#428DFC" width="52.145" height="5.048"/>  <g>   <polygon fill="#E94A47" points="111.041,48.07 110.958,41.122 90.776,41.732 90.744,40.633 112.045,39.989 112.141,48.056   "/>  </g> </g> <path fill="#FFBEB6" d="M77.556,42.513c2.221,1.616,0.894,4.608-0.085,7.172c-2.191,5.744-2.554,6.032-2.921,7.498  c-0.274,1.095-2.687,9.84-3.577,2.616c-0.785-6.367,1.733-8.283,3.777-15.233C75.101,43.373,76.547,41.781,77.556,42.513z"/> <path fill="#FFBEB6" d="M45.362,95.133c-0.853-1.958-1.682-3.992-3.162-5.534c-2.726-2.841-6.985-3.398-10.884-3.947  c-9.5-1.339-22.17-3.584-31.244-6.696c-0.366,1.148,0.722,2.212,1.724,2.88c4.239,2.823,12.336,4.57,17.307,5.775  c-2.071,1.18-5.712,1.75-6.401,3.18c-0.386,0.803,1.927,3.778,2.889,5.667c0.392,0.771,0.805,1.565,1.475,2.112  c0.577,0.47,1.296,0.719,2.001,0.959c2.007,0.685,4.015,1.369,6.021,2.054c0.97-0.724,1.002-2.274,0.313-3.268  c-0.69-0.995-1.897-1.509-3.085-1.734c-0.75-0.142-1.523-0.193-2.239-0.457c-1.523-0.563-2.602-2.152-2.563-3.774  c5.004,1.845,10.448,2.437,15.74,1.787c8.051,12.692,13.299,26.843,18.902,40.79c11.02,27.434,27.402,30.376,28.614,35.129  c5.511-9.738-3.165-24.426,6.048-30.779C70.444,127.524,53.41,113.609,45.362,95.133z M19.735,87.76  c0.181,0.042,0.362,0.086,0.543,0.127c-0.116,0.011-0.232,0.02-0.348,0.031C19.865,87.864,19.801,87.811,19.735,87.76z"/> <path fill="#1D72D8" d="M164.342,83.49c0.922-3.775,1.146-11.343-0.549-14.84c-1.696-3.496-3.397-7.035-7.282-6.906  c-12.24,12.214-18.411,29.025-26.472,44.321c-5.028,9.542-9.159,16.579-16.83,26.615c-2.176,2.848-9.19-13.041-9.347-12.916  c-6.592,5.231-11.822,20.336-19.794,21.986c2.292,5.61,12.92,21.71,20.772,24.891c4.702,1.583,23.255-17.4,31.379-29.611  c5.155-7.749,10.22-15.558,15.286-23.366C158.404,103.029,161.319,95.857,164.342,83.49z"/> <linearGradient id="SVGID_3_zVi49KU5v-9mm4LUNQwA3" gradientUnits="userSpaceOnUse" x1="4333.5923" y1="2559.9744" x2="4846.7871" y2="2559.9744" gradientTransform="matrix(0.1413 0 0 0.1413 -85.0113 -196.8086)">  <stop offset="0" stop-color="#FBB03B"/>  <stop offset="1" stop-color="#F7931E"/> </linearGradient> <path fill="url(#SVGID_3_zVi49KU5v-9mm4LUNQwA3)" d="M530.871,167.872c-1.098-7.491-2.195-14.983-3.294-22.474c-0.096-0.66-0.185-1.368,0.113-1.964  c0.29-0.582,3.506-2.306,4.072-2.626c5.532-3.117,8.45-4.86,13.981-7.977c20.269,18.593,37.795,40.359,54.256,62.654  c-4.564,3.097-11.683,1.062-24.693-2.655c-2.877-0.823-40.098-13.491-41.155-15.395  C533.562,176.376,531.047,169.074,530.871,167.872z"/> <linearGradient id="SVGID_4_zVi49KU5v-9mm4LUNQwA3" gradientUnits="userSpaceOnUse" x1="1641.3909" y1="1581.2875" x2="1293.9066" y2="1576.7542" gradientTransform="matrix(0.1413 0 0 0.1413 -85.0113 -196.8086)">  <stop offset="0" stop-color="#FFBEB6"/>  <stop offset="1" stop-color="#F2A19C"/> </linearGradient> <path fill="url(#SVGID_4_zVi49KU5v-9mm4LUNQwA3)" d="M173.966,4.169c-7.119-2.968-15.42-0.148-21.662,4.387c-5.234,3.803-10.992,15.92-13.54,15.46  c-2.153-0.388-3.288,0.518-3.397,2.702c-0.534,10.787,3.387,20.819,6.669,22.289c9.293,4.161,26.247-0.561,30.198-4.227  c3.05-2.829,6.913-3.778,8.372-7.448c2.343-5.894,4.301-12.072,3.73-18.228C183.765,12.951,180.217,6.776,173.966,4.169z"/> <path fill="#E94A47" d="M148.112,10.964c0.776-2.26,2.232-4.248,3.988-5.871c7.15-6.609,18.944-6.543,27.086-1.205  c9.036,5.924,13.778,17.116,14.108,27.809c0.069,2.224-0.404,4.455-1.499,6.392c-5.176,9.161-15.508-0.715-20.49,9.776  c-0.943,1.984-1.387,4.173-1.425,6.369c-0.054,3.186-0.078,6.221,0.554,9.435c0.298,1.515-0.985,2.9-2.503,2.621  c-6.729-1.234-14.638-5.536-18.21-13.941c-4.322-10.169-3.978-21.099-2.936-31.946C147.073,17.429,147.143,13.792,148.112,10.964z"/> <g>  <path fill="#428DFC" d="M179.423,47.941c-0.387,0-0.856-0.171-1.408-0.514c-1.385-0.859-5.06-6.5-11.439-16.394   c-5.34-8.284-11.38-17.656-16.098-23.794c1.592,4.05,6.911,14.299,10.085,18.406c3.017,3.903,11.455,15.795,10.676,19.141   c-0.129,0.554-0.461,0.82-0.716,0.944c-2.27,1.114-6.1-4.867-12.15-14.721c-2.328-3.791-4.735-7.712-6.744-10.476   c-2.843-3.907-6.065-8.334-7.503-13.364c-0.083-0.292,0.086-0.596,0.378-0.68c0.292-0.08,0.596,0.086,0.68,0.378   c1.383,4.841,4.409,8.999,7.334,13.018c2.035,2.797,4.453,6.738,6.793,10.547c3.676,5.989,9.209,15.036,10.729,14.308   c0.029-0.014,0.091-0.045,0.129-0.207c0.538-2.311-5.852-12.239-10.476-18.219C157.287,23.2,147.62,6.284,149.18,5.077   c0.637-0.492,1.324,0.396,1.93,1.178c4.78,6.167,10.949,15.738,16.391,24.18c5.066,7.86,9.851,15.285,11.094,16.055   c0.621,0.386,0.825,0.349,0.828,0.348c0.684-1.13-4.228-10.946-7.485-15.396l-2.188-2.98c-4.08-5.549-8.3-11.289-12.073-17.206   c-1.479-2.319-2.64-5.837-1.9-8.468c0.326-1.164,1.02-2.033,2.002-2.515c0.273-0.133,0.603-0.02,0.736,0.251   c0.133,0.273,0.021,0.601-0.251,0.736c-0.703,0.344-1.185,0.958-1.427,1.825c-0.552,1.964,0.176,5.081,1.77,7.581   c3.753,5.887,7.961,11.611,12.031,17.145l2.189,2.983c1.934,2.641,9.203,14.829,7.355,16.823   C179.981,47.833,179.728,47.941,179.423,47.941z"/> </g> <g>  <path fill="#23286B" d="M142.521,22.7c-1.338,0-2.636-0.35-3.881-1.051c-0.265-0.148-0.359-0.483-0.209-0.749   c0.147-0.264,0.481-0.361,0.749-0.209c2.046,1.15,4.176,1.215,6.51,0.194c0.279-0.122,0.603,0.005,0.724,0.284   c0.122,0.278-0.004,0.601-0.284,0.723C144.901,22.43,143.696,22.7,142.521,22.7z"/> </g> <circle fill="#428DFC" cx="154.285" cy="36.361" r="10.941"/> <g>  <path fill="#23286B" d="M153.37,38.209c-0.293,0-0.588-0.077-0.855-0.241c-0.778-0.473-1.026-1.487-0.552-2.265l0.076-0.126   c8.803-14.474,12.821-21.081,25.544-31.678c1.994-1.659,4.791-2.519,7.122-2.203c1.633,0.225,2.952,1.007,3.816,2.261   c1.815,2.64-1.526,7.671-1.526,7.671l-2.14-2.739c0,0,1.477-2.293,0.947-3.065c-0.332-0.481-0.838-0.763-1.546-0.861   c-1.395-0.194-3.309,0.427-4.56,1.469c-12.301,10.246-16.229,16.705-24.836,30.857l-0.077,0.126   C154.469,37.928,153.925,38.209,153.37,38.209z"/> </g> <linearGradient id="SVGID_5_zVi49KU5v-9mm4LUNQwA3" gradientUnits="userSpaceOnUse" x1="1945.0164" y1="2164.9114" x2="1649.1481" y2="2824.885" gradientTransform="matrix(0.1413 0 0 0.1413 -85.0113 -196.8086)">  <stop offset="0" stop-color="#428DFC"/>  <stop offset="1" stop-color="#1D72D8"/> </linearGradient> <path fill="url(#SVGID_5_zVi49KU5v-9mm4LUNQwA3)" d="M140.334,144.774c-7.592-10.3-5.562-14.92-9.074-27.223c-1.613-5.645-3.001-11.462-2.667-17.323  c0.841-14.768,12.106-26.552,22.683-36.895c1.211-1.184,2.554-2.434,4.239-2.62c1.809-0.2,3.496,0.886,4.905,2.04  c11.509,9.415,17.009,37.335,23.9,50.511c13.463,25.739,17.876,29.161,46.919,30.047c-3.389,10.373-0.276,21.872-3.665,32.245  C178.088,178.852,145.464,151.736,140.334,144.774z"/> <linearGradient id="SVGID_6_zVi49KU5v-9mm4LUNQwA3" gradientUnits="userSpaceOnUse" x1="2164.7551" y1="2470.7556" x2="4382.7944" y2="2470.7556" gradientTransform="matrix(0.1413 0 0 0.1413 -85.0113 -196.8086)">  <stop offset="0" stop-color="#23286B"/>  <stop offset="1" stop-color="#151A4F"/> </linearGradient> <path fill="url(#SVGID_6_zVi49KU5v-9mm4LUNQwA3)" d="M364.924,136.245c-9.999,0-73.849-4.27-83.572-6.596c-29.454-7.047-37.803-0.233-60.484,12.821  c1.874,9.929,2.175,23.381,1.305,33.449c94.638-3.768,190.823-6.47,285.872,1.629c9.54,0.814,17.427-0.63,26.225-0.63  c0.122-14.283-1.306-20.156-6.106-33.609c-43.377-12.56-47.778-0.508-73.068-4.865c-22.477-3.872-19.794-7.695-45.085-8.794  C393.66,128.939,388.016,136.245,364.924,136.245z"/> <linearGradient id="SVGID_7_zVi49KU5v-9mm4LUNQwA3" gradientUnits="userSpaceOnUse" x1="1594.3854" y1="2125.6519" x2="1004.4486" y2="2482.1938" gradientTransform="matrix(0.1413 0 0 0.1413 -85.0113 -196.8086)">  <stop offset="0" stop-color="#428DFC"/>  <stop offset="1" stop-color="#1D72D8"/> </linearGradient> <path fill="url(#SVGID_7_zVi49KU5v-9mm4LUNQwA3)" d="M160.219,68.376c-0.683-2.978-1.347-7.855-4.399-7.695c-5.224,0.275-7.772,3.953-9.072,5.222  c-11.271,10.993-16.471,21.599-24.687,31.653c-6.281,7.686-17.772,30.36-25.347,36.777c-7.734,6.553-15.945-2.748-15.945-2.748  s-7.979,21.051-17.499,33.061c-0.417,2.455,19.516,6.513,23.548,5.964c2.468-0.336,18.961-14.584,27.491-22.535  c10.854-10.117,20.264-27.82,31.615-37.375C151.147,106.3,163.242,81.566,160.219,68.376z"/> <path id="texture_1_zVi49KU5v-9mm4LUNQwA3" fill="#FFFFFF" d="M264.363,134.249c0.142,0.111,0.322,0.115,0.435-0.027l0,0  c0.111-0.142,0.115-0.322-0.027-0.435l0,0c-0.142-0.111-0.322-0.115-0.435,0.027l0,0  C264.224,133.956,264.221,134.138,264.363,134.249L264.363,134.249z M290.412,149.569c-0.003,0.18,0.139,0.292,0.319,0.295  c0.18,0.003,0.292-0.139,0.295-0.319l0,0c0.003-0.18-0.139-0.292-0.319-0.295C290.492,149.174,290.416,149.389,290.412,149.569  L290.412,149.569L290.412,149.569z M289.627,141.901c-0.003,0.18,0.139,0.292,0.319,0.295c0.18,0.003,0.292-0.139,0.295-0.319l0,0  c0.003-0.18-0.139-0.292-0.319-0.295l0,0C289.815,141.545,289.63,141.722,289.627,141.901L289.627,141.901z M274.698,144.526  c0.18,0.003,0.326-0.066,0.438-0.208c0.003-0.18-0.066-0.326-0.208-0.438c-0.18-0.003-0.326,0.066-0.364,0.173  C274.416,144.304,274.485,144.449,274.698,144.526z M276.979,137.1c0.18,0.003,0.326-0.066,0.438-0.208  c0.003-0.18-0.066-0.326-0.208-0.438c-0.18-0.003-0.326,0.066-0.365,0.173C276.694,136.878,276.798,137.097,276.979,137.1  L276.979,137.1z M303.89,141.827c0.069,0.146,0.285,0.222,0.43,0.153c0.145-0.069,0.222-0.285,0.153-0.43l0,0  c-0.069-0.146-0.285-0.222-0.43-0.153l0,0C303.898,141.466,303.821,141.681,303.89,141.827z M300.273,134.968  c0.069,0.146,0.285,0.222,0.43,0.153c0.145-0.069,0.222-0.285,0.153-0.43c-0.069-0.146-0.285-0.222-0.43-0.153l0,0  C300.279,134.609,300.203,134.822,300.273,134.968L300.273,134.968L300.273,134.968z M267.562,142.108  c0.107,0.038,0.361,0.008,0.365-0.173c0.039-0.107,0.008-0.361-0.173-0.364c-0.107-0.038-0.361-0.008-0.364,0.173l0,0  C267.278,141.886,267.347,142.031,267.562,142.108L267.562,142.108z M270.147,135.7c0.107,0.038,0.361,0.008,0.365-0.173  c0.039-0.107,0.042-0.288-0.173-0.364c-0.107-0.038-0.288-0.042-0.364,0.173l0,0C269.969,135.516,270.038,135.661,270.147,135.7  L270.147,135.7L270.147,135.7z M296.342,141.928c0.069,0.146,0.211,0.257,0.358,0.188c0.146-0.069,0.183-0.177,0.189-0.358l0,0  c-0.069-0.146-0.211-0.257-0.358-0.188l0,0C296.384,141.64,296.273,141.782,296.342,141.928L296.342,141.928z M293.69,135.594  c0.069,0.146,0.211,0.257,0.358,0.188c0.146-0.069,0.183-0.177,0.189-0.358l0,0c-0.069-0.146-0.211-0.257-0.358-0.188l0,0  C293.731,135.307,293.621,135.45,293.69,135.594L293.69,135.594z M281.298,141.302c-0.003,0.18,0.139,0.292,0.319,0.295  c0.18,0.003,0.292-0.139,0.295-0.319c0.003-0.18-0.139-0.292-0.319-0.295C281.413,140.978,281.302,141.121,281.298,141.302  L281.298,141.302z M268.574,149.311c-0.003,0.18,0.139,0.292,0.319,0.295s0.292-0.139,0.295-0.319  c0.003-0.18-0.139-0.292-0.319-0.295S268.577,149.13,268.574,149.311L268.574,149.311z M268.551,141.371  c-0.003,0.18,0.139,0.292,0.319,0.295c0.18,0.003,0.292-0.139,0.295-0.319s-0.139-0.292-0.319-0.295  C268.667,141.047,268.556,141.189,268.551,141.371L268.551,141.371z M268.423,133.392c-0.003,0.18,0.139,0.292,0.319,0.295  c0.18,0.003,0.292-0.139,0.295-0.319c0.003-0.18-0.139-0.292-0.319-0.295C268.573,133.142,268.461,133.283,268.423,133.392z   M299.484,136.504c0.142,0.111,0.322,0.115,0.435-0.027c0.111-0.142,0.115-0.322-0.027-0.435c-0.142-0.111-0.322-0.114-0.435,0.027  C299.311,136.141,299.342,136.394,299.484,136.504L299.484,136.504z M258.86,127.749c-0.077,0.216-0.008,0.361,0.208,0.438   M283.327,142.749c0.069,0.146,0.285,0.222,0.43,0.153c0.146-0.069,0.222-0.285,0.153-0.43c-0.069-0.145-0.285-0.222-0.43-0.153l0,0  C283.336,142.389,283.259,142.605,283.327,142.749L283.327,142.749L283.327,142.749z M279.001,146.056  c0.069,0.146,0.285,0.222,0.43,0.153c0.146-0.069,0.222-0.285,0.153-0.43c-0.069-0.146-0.211-0.257-0.43-0.153  C279.008,145.695,278.931,145.91,279.001,146.056L279.001,146.056z M276.189,138.636c0.069,0.146,0.285,0.222,0.43,0.153  c0.146-0.069,0.257-0.211,0.153-0.43c-0.069-0.146-0.285-0.222-0.465-0.225C276.196,138.275,276.119,138.491,276.189,138.636  L276.189,138.636z M262.296,136.48c-0.003,0.18,0.139,0.292,0.319,0.295l0,0c0.18,0.003,0.292-0.139,0.368-0.354  c0.003-0.18-0.139-0.292-0.354-0.368C262.41,136.158,262.299,136.3,262.296,136.48L262.296,136.48z M264.331,133.995  c0.069,0.146,0.177,0.183,0.285,0.222c0.146-0.069,0.183-0.177,0.222-0.285c-0.069-0.146-0.177-0.183-0.285-0.222l0,0  C264.408,133.781,264.298,133.923,264.331,133.995L264.331,133.995L264.331,133.995z"/> <path id="texture-2_4_zVi49KU5v-9mm4LUNQwA3" fill="#FFFFFF" d="M245.021,132.826c0.099,0.056,0.177,0.035,0.233-0.065  c0.056-0.099,0.035-0.177-0.065-0.233c-0.099-0.056-0.177-0.035-0.233,0.065l0,0C244.901,132.692,244.999,132.748,245.021,132.826  L245.021,132.826z M262.14,132.961c0.022,0.078,0.121,0.134,0.199,0.112l0,0c0.078-0.022,0.134-0.121,0.112-0.199l0,0  c-0.022-0.078-0.121-0.134-0.199-0.112C262.075,132.728,262.04,132.906,262.14,132.961L262.14,132.961L262.14,132.961z   M253.508,132.327c0.022,0.078,0.043,0.156,0.142,0.212c0.078-0.022,0.156-0.043,0.212-0.142c-0.022-0.078-0.043-0.156-0.142-0.212  C253.543,132.151,253.487,132.25,253.508,132.327z M245.864,153.184c-0.035,0.177,0.086,0.311,0.262,0.346  c0.177,0.035,0.311-0.086,0.347-0.262l0,0c0.035-0.177-0.086-0.311-0.263-0.346C246.013,152.809,245.821,153.029,245.864,153.184  L245.864,153.184z M246.423,145.496c-0.035,0.177,0.086,0.311,0.263,0.346s0.311-0.086,0.347-0.262  c0.035-0.177-0.086-0.311-0.263-0.346l0,0C246.592,145.198,246.458,145.32,246.423,145.496z M247.061,137.788  c-0.035,0.177,0.086,0.311,0.263,0.346l0,0c0.177,0.035,0.311-0.086,0.347-0.262l0,0c0.035-0.177-0.086-0.311-0.263-0.346  C247.229,137.49,247.094,137.612,247.061,137.788z M231.266,145.49c0.177,0.035,0.333-0.008,0.467-0.129  c0.035-0.177-0.008-0.333-0.129-0.467c-0.177-0.035-0.333,0.008-0.389,0.107C231.024,145.222,231.068,145.378,231.266,145.49  L231.266,145.49z M234.722,138.594c0.177,0.035,0.333-0.008,0.467-0.129c0.035-0.177-0.008-0.333-0.129-0.467  c-0.177-0.035-0.333,0.008-0.389,0.107C234.558,138.305,234.623,138.538,234.722,138.594L234.722,138.594z M260.483,147.898  c0.043,0.156,0.242,0.268,0.397,0.225c0.156-0.043,0.269-0.242,0.225-0.397l0,0c-0.043-0.156-0.242-0.268-0.397-0.225l0,0  C260.553,147.545,260.439,147.743,260.483,147.898z M258.112,140.516c0.043,0.156,0.242,0.268,0.397,0.225  c0.156-0.043,0.269-0.242,0.225-0.397c-0.043-0.156-0.242-0.268-0.397-0.225l0,0C258.181,140.163,258.069,140.361,258.112,140.516  L258.112,140.516z M255.762,133.214c0.043,0.156,0.242,0.268,0.397,0.225l0,0c0.156-0.043,0.269-0.242,0.225-0.397l0,0  c-0.043-0.156-0.242-0.268-0.397-0.225C255.754,132.88,255.719,133.057,255.762,133.214L255.762,133.214z M224.658,141.871  c0.099,0.056,0.354,0.069,0.389-0.107c0.056-0.099,0.069-0.354-0.107-0.389c-0.099-0.056-0.354-0.069-0.389,0.107l0,0  C224.417,141.603,224.459,141.759,224.658,141.871z M253.031,146.688c0.043,0.156,0.164,0.29,0.319,0.247  c0.156-0.043,0.212-0.142,0.247-0.319l0,0c-0.043-0.156-0.164-0.29-0.319-0.247l0,0  C253.123,146.412,252.989,146.533,253.031,146.688L253.031,146.688z M251.519,139.991c0.043,0.156,0.164,0.29,0.319,0.247  c0.156-0.043,0.212-0.142,0.247-0.319l0,0c-0.043-0.156-0.164-0.29-0.319-0.247l0,0  C251.611,139.714,251.477,139.836,251.519,139.991L251.519,139.991z M250.084,133.271c0.043,0.156,0.164,0.29,0.319,0.247l0,0  c0.156-0.043,0.212-0.142,0.247-0.319l0,0c-0.043-0.156-0.164-0.29-0.319-0.247l0,0  C250.097,133.017,250.042,133.116,250.084,133.271L250.084,133.271z M238.326,143.461c-0.035,0.177,0.086,0.311,0.262,0.346  c0.176,0.035,0.311-0.086,0.347-0.262c0.035-0.177-0.086-0.311-0.262-0.346C238.497,143.163,238.283,143.305,238.326,143.461  L238.326,143.461z M239.475,136.698c-0.035,0.177,0.086,0.311,0.184,0.367l0,0c0.177,0.035,0.311-0.086,0.347-0.262  c0.035-0.177-0.086-0.311-0.262-0.346C239.643,136.401,239.509,136.521,239.475,136.698L239.475,136.698z M264.087,138.199  c0.121,0.134,0.22,0.19,0.354,0.069l0,0c0.134-0.121,0.169-0.298,0.069-0.354l0,0c-0.121-0.134-0.298-0.169-0.432-0.049  C264.079,137.868,264.044,138.044,264.087,138.199L264.087,138.199L264.087,138.199z M260.191,132.578  c0.121,0.134,0.298,0.169,0.432,0.049c0.134-0.121,0.169-0.298,0.049-0.432c-0.121-0.134-0.298-0.169-0.354-0.069  C260.106,132.267,260.071,132.443,260.191,132.578C260.171,132.5,260.191,132.578,260.191,132.578L260.191,132.578z M224.403,149.14  c-0.035,0.177,0.086,0.311,0.262,0.346s0.311-0.086,0.347-0.262c0.035-0.177-0.086-0.311-0.263-0.347  C224.572,148.843,224.437,148.962,224.403,149.14L224.403,149.14z M225.684,141.338c-0.035,0.177,0.086,0.311,0.262,0.346  s0.311-0.086,0.347-0.262c0.035-0.177-0.086-0.311-0.262-0.346C225.93,141.018,225.717,141.161,225.684,141.338L225.684,141.338z   M257.067,141.893c0.121,0.134,0.298,0.169,0.432,0.049c0.134-0.121,0.169-0.298,0.049-0.432c-0.121-0.134-0.298-0.169-0.432-0.049  C256.961,141.504,256.948,141.759,257.067,141.893L257.067,141.893z M252.426,135.388c0.121,0.134,0.298,0.169,0.432,0.049  c0.134-0.121,0.169-0.298,0.049-0.432c-0.121-0.134-0.298-0.169-0.432-0.049C252.418,135.055,252.306,135.253,252.426,135.388  L252.426,135.388z M240.073,145.239c0.043,0.156,0.242,0.268,0.397,0.225c0.156-0.043,0.269-0.242,0.225-0.397  c-0.043-0.156-0.242-0.268-0.397-0.225l0,0C240.143,144.884,240.029,145.083,240.073,145.239L240.073,145.239L240.073,145.239z   M238.281,137.53c0.043,0.156,0.242,0.268,0.397,0.225l0,0c0.156-0.043,0.269-0.242,0.225-0.397l0,0  c-0.043-0.156-0.242-0.268-0.397-0.225C238.352,137.176,238.216,137.297,238.281,137.53L238.281,137.53z M235.237,147.743  c0.043,0.156,0.242,0.268,0.397,0.225c0.156-0.043,0.269-0.242,0.225-0.397c-0.043-0.156-0.164-0.29-0.397-0.225  C235.306,147.39,235.195,147.588,235.237,147.743L235.237,147.743z M233.757,139.948c0.043,0.156,0.242,0.268,0.397,0.225  c0.156-0.043,0.29-0.164,0.225-0.397c-0.043-0.156-0.242-0.268-0.419-0.303C233.826,139.594,233.714,139.793,233.757,139.948  L233.757,139.948z M248.654,138.102c0.121,0.134,0.298,0.169,0.453,0.127c0.134-0.121,0.169-0.298,0.127-0.453  c-0.121-0.134-0.298-0.169-0.453-0.127l0,0C248.624,137.692,248.611,137.947,248.654,138.102L248.654,138.102L248.654,138.102z"/> </g></g>
              </svg>